<svg xmlns="http://www.w3.org/2000/svg" width="104" height="26" fill="none" viewBox="0 0 104 26"><path fill="#00b67a" d="M24 10.172h-9.165L12.005 1l-2.84 9.172L0 10.162l7.422 5.675L4.582 25l7.423-5.665L19.418 25l-2.831-9.163z"/><path fill="#005128" d="m17.254 18.031-.656-2.207L12 19.34z"/><path fill="#000" d="M32.393 12.206V4.55H30V3.317h6.17V4.55h-2.394v7.657zm4.3 0v-6.4h1.243L38.064 7q.21-.42.523-.711.314-.305.732-.47.43-.165.941-.165v1.613h-.488q-.348 0-.662.101-.314.09-.546.305a1.4 1.4 0 0 0-.349.571q-.128.356-.128.902v3.06zm6.79.153q-.707 0-1.22-.305-.499-.318-.766-.94-.267-.635-.267-1.562V5.806h1.394V9.4q0 .826.313 1.257.326.42.977.42.417 0 .743-.217.337-.216.523-.622.197-.42.197-1.016V5.806h1.395v6.4H45.54l-.105-1.066a2.13 2.13 0 0 1-.778.889q-.5.33-1.173.33m7.175 0q-.778 0-1.36-.267a2.34 2.34 0 0 1-.906-.762 2.4 2.4 0 0 1-.383-1.13h1.394q.058.267.21.495.15.216.406.343.267.127.627.127.349 0 .57-.101a.8.8 0 0 0 .325-.293.74.74 0 0 0 .105-.38q0-.306-.151-.47a.97.97 0 0 0-.442-.254 6 6 0 0 0-.674-.19 8 8 0 0 1-.813-.217 3.5 3.5 0 0 1-.697-.343 1.6 1.6 0 0 1-.488-.52 1.6 1.6 0 0 1-.174-.775q0-.558.267-1.003.279-.444.79-.698.522-.267 1.243-.267 1.022 0 1.627.52.615.51.72 1.436H51.53a.8.8 0 0 0-.325-.547q-.267-.203-.709-.203-.453 0-.697.19a.575.575 0 0 0-.093.839q.151.151.43.267.28.1.686.203.65.14 1.15.33t.79.559.29 1.04q.012.61-.29 1.08a2 2 0 0 1-.825.737q-.534.254-1.278.254m6.086-.153q-.593 0-1.034-.203a1.46 1.46 0 0 1-.674-.673q-.243-.47-.244-1.27V7.09h-.999V5.806h1l.162-1.689h1.232v1.69h1.591v1.282h-1.591v2.971q0 .483.185.673.198.178.651.178h.72v1.295zM59.09 15V5.806h1.243l.151.927q.186-.28.442-.52.266-.254.639-.407.383-.152.87-.152.825 0 1.453.444.64.445 1 1.207.36.749.36 1.714 0 .966-.372 1.727-.36.75-1 1.181a2.5 2.5 0 0 1-1.44.432q-.663 0-1.162-.267a2.16 2.16 0 0 1-.79-.787V15zm3.055-3.962q.489 0 .872-.254t.592-.711q.221-.457.221-1.054 0-.61-.22-1.067a1.66 1.66 0 0 0-.593-.71 1.54 1.54 0 0 0-.872-.255q-.5 0-.883.254a1.77 1.77 0 0 0-.592.711 2.5 2.5 0 0 0-.21 1.054q0 .61.21 1.067.22.444.593.711.383.255.883.254m4.514 1.168v-6.4h1.394v6.4zm.697-7.416a.87.87 0 0 1-.639-.253.93.93 0 0 1-.244-.648q0-.394.244-.635A.87.87 0 0 1 67.356 3q.384 0 .627.254.256.24.256.635 0 .381-.256.648a.83.83 0 0 1-.627.253m2.308 7.416V3.063h1.394v9.143zm5.68.153q-.835 0-1.51-.42a3 3 0 0 1-1.046-1.18q-.37-.762-.371-1.74 0-1.004.383-1.752a2.9 2.9 0 0 1 1.046-1.181 2.74 2.74 0 0 1 1.51-.432q.837 0 1.499.432.674.419 1.045 1.168.384.75.384 1.752 0 1.004-.384 1.753-.383.75-1.057 1.18-.661.42-1.499.42m0-1.308q.42 0 .756-.229.348-.228.557-.685t.21-1.13q0-.675-.21-1.118-.197-.457-.546-.686a1.3 1.3 0 0 0-.755-.228 1.35 1.35 0 0 0-.755.228q-.349.229-.558.686-.21.444-.209 1.117 0 .674.21 1.13.208.458.545.686.349.23.755.229m6.622 1.155q-.593 0-1.034-.203a1.46 1.46 0 0 1-.674-.673q-.243-.47-.244-1.27V7.09h-.999V5.806h1l.162-1.689h1.231v1.69H83v1.282h-1.592v2.971q0 .483.186.673.198.178.65.178h.721v1.295z"/><path fill="#000" fill-opacity=".7" d="M32.306 23.97v-1.198h-2.8v-.519l2.682-3.872h.773v3.8h.82v.591h-.82v1.198zm-2.066-1.788h2.098v-3.059zm3.986 2.547 1.98-6.86h.655l-1.98 6.86zm5.083-.663q-.57 0-.986-.208a1.7 1.7 0 0 1-.655-.567 1.94 1.94 0 0 1-.3-.806h.647q.095.447.434.727t.867.28q.395 0 .67-.184.285-.184.435-.504.157-.319.157-.71 0-.407-.157-.719a1.18 1.18 0 0 0-1.08-.655q-.45 0-.766.2-.315.2-.473.511h-.64l.458-3.05h2.919v.583h-2.406l-.308 1.716q.198-.232.52-.375a1.8 1.8 0 0 1 .766-.152q.41 0 .741.144t.568.407.363.615q.135.351.134.767 0 .407-.134.766a2 2 0 0 1-.37.631 1.8 1.8 0 0 1-.6.431 2 2 0 0 1-.804.152"/><path fill="#ffe100" d="M50 23.43 52.472 25l-.656-2.96L54 20.048l-2.876-.256L50 17l-1.124 2.792-2.876.256 2.184 1.992-.656 2.96zm10 0L62.472 25l-.656-2.96L64 20.048l-2.876-.256L60 17l-1.124 2.792-2.876.256 2.184 1.992-.656 2.96zm10 0L72.472 25l-.656-2.96L74 20.048l-2.876-.256L70 17l-1.124 2.792-2.876.256 2.184 1.992-.656 2.96zm10 0L82.472 25l-.656-2.96L84 20.048l-2.876-.256L80 17l-1.124 2.792-2.876.256 2.184 1.992-.656 2.96z"/><path fill="#aaa" d="M90 23.43 92.472 25l-.656-2.96L94 20.048l-2.876-.256L90 17l-1.124 2.792-2.876.256 2.184 1.992-.656 2.96z"/></svg>