<svg width="533" height="323" viewBox="0 0 533 323" fill="none" xmlns="http://www.w3.org/2000/svg">
<g filter="url(#filter0_d_303_1820)">
<rect x="19" y="11" width="503" height="293" rx="10" fill="#F3E8FF" shape-rendering="crispEdges"/>
<rect x="40" y="26" width="461" height="263" rx="10" fill="white"/>
<path d="M79.1989 72H73.0774V53.0909H79.3928C81.2455 53.0909 82.8366 53.4695 84.1662 54.2266C85.4957 54.9775 86.5144 56.0578 87.2223 57.4673C87.9363 58.8707 88.2933 60.5542 88.2933 62.5178C88.2933 64.4875 87.9332 66.1802 87.2131 67.5959C86.4991 69.0116 85.465 70.1011 84.1108 70.8643C82.7566 71.6214 81.1193 72 79.1989 72ZM75.9304 69.5071H79.0419C80.4822 69.5071 81.6795 69.2363 82.6335 68.6946C83.5876 68.1468 84.3016 67.3558 84.7756 66.3217C85.2495 65.2815 85.4865 64.0135 85.4865 62.5178C85.4865 61.0343 85.2495 59.7756 84.7756 58.7415C84.3078 57.7074 83.6091 56.9226 82.6797 56.3871C81.7502 55.8516 80.5961 55.5838 79.2173 55.5838H75.9304V69.5071ZM91.6195 72V57.8182H94.3801V72H91.6195ZM93.0137 55.63C92.5336 55.63 92.1212 55.4699 91.7765 55.1499C91.4379 54.8236 91.2686 54.4358 91.2686 53.9865C91.2686 53.531 91.4379 53.1432 91.7765 52.8232C92.1212 52.4969 92.5336 52.3338 93.0137 52.3338C93.4938 52.3338 93.9031 52.4969 94.2417 52.8232C94.5864 53.1432 94.7587 53.531 94.7587 53.9865C94.7587 54.4358 94.5864 54.8236 94.2417 55.1499C93.9031 55.4699 93.4938 55.63 93.0137 55.63ZM108.721 61.2805L106.219 61.7237C106.114 61.4036 105.948 61.099 105.721 60.8097C105.499 60.5204 105.197 60.2834 104.816 60.0987C104.434 59.9141 103.957 59.8217 103.385 59.8217C102.603 59.8217 101.95 59.9972 101.427 60.348C100.904 60.6927 100.642 61.139 100.642 61.6868C100.642 62.1607 100.818 62.5424 101.169 62.8317C101.52 63.121 102.086 63.358 102.868 63.5426L105.12 64.0597C106.425 64.3613 107.398 64.826 108.038 65.4538C108.678 66.0817 108.998 66.8973 108.998 67.9006C108.998 68.75 108.752 69.5071 108.26 70.1719C107.773 70.8305 107.093 71.3475 106.219 71.723C105.351 72.0985 104.345 72.2862 103.2 72.2862C101.612 72.2862 100.316 71.9477 99.3129 71.2706C98.3095 70.5874 97.694 69.6179 97.4663 68.3622L100.135 67.956C100.301 68.6515 100.642 69.1778 101.159 69.5348C101.676 69.8857 102.35 70.0611 103.181 70.0611C104.086 70.0611 104.81 69.8733 105.351 69.4979C105.893 69.1162 106.164 68.6515 106.164 68.1037C106.164 67.6605 105.998 67.2881 105.665 66.9865C105.339 66.6849 104.837 66.4571 104.16 66.3033L101.76 65.777C100.436 65.4754 99.4575 64.9953 98.8235 64.3366C98.1957 63.678 97.8817 62.844 97.8817 61.8345C97.8817 60.9974 98.1156 60.2649 98.5835 59.6371C99.0513 59.0092 99.6976 58.5199 100.522 58.169C101.347 57.812 102.292 57.6335 103.357 57.6335C104.89 57.6335 106.096 57.9659 106.976 58.6307C107.856 59.2893 108.438 60.1726 108.721 61.2805ZM112.034 77.3182V57.8182H114.73V60.1172H114.96C115.12 59.8217 115.351 59.4801 115.653 59.0923C115.954 58.7045 116.373 58.366 116.909 58.0767C117.444 57.7812 118.152 57.6335 119.032 57.6335C120.177 57.6335 121.199 57.9228 122.097 58.5014C122.996 59.08 123.701 59.9141 124.212 61.0036C124.729 62.093 124.987 63.4041 124.987 64.9368C124.987 66.4695 124.732 67.7836 124.221 68.8793C123.71 69.9687 123.008 70.8089 122.116 71.3999C121.223 71.9846 120.205 72.277 119.06 72.277C118.198 72.277 117.493 72.1323 116.945 71.843C116.404 71.5537 115.979 71.2152 115.671 70.8274C115.364 70.4396 115.127 70.0949 114.96 69.7933H114.794V77.3182H112.034ZM114.739 64.9091C114.739 65.9062 114.883 66.7803 115.173 67.5312C115.462 68.2822 115.881 68.87 116.428 69.2947C116.976 69.7133 117.647 69.9226 118.441 69.9226C119.266 69.9226 119.955 69.7041 120.509 69.267C121.063 68.8239 121.482 68.2237 121.765 67.4666C122.054 66.7095 122.199 65.857 122.199 64.9091C122.199 63.9735 122.057 63.1333 121.774 62.3885C121.497 61.6437 121.079 61.0559 120.519 60.625C119.965 60.1941 119.272 59.9787 118.441 59.9787C117.641 59.9787 116.964 60.1849 116.41 60.5973C115.862 61.0097 115.447 61.5852 115.164 62.3239C114.88 63.0625 114.739 63.9242 114.739 64.9091ZM134.054 72.2862C132.725 72.2862 131.564 71.9815 130.573 71.3722C129.582 70.7628 128.813 69.9103 128.265 68.8146C127.717 67.719 127.443 66.4387 127.443 64.9737C127.443 63.5026 127.717 62.2161 128.265 61.1143C128.813 60.0125 129.582 59.157 130.573 58.5476C131.564 57.9382 132.725 57.6335 134.054 57.6335C135.384 57.6335 136.544 57.9382 137.535 58.5476C138.526 59.157 139.295 60.0125 139.843 61.1143C140.391 62.2161 140.665 63.5026 140.665 64.9737C140.665 66.4387 140.391 67.719 139.843 68.8146C139.295 69.9103 138.526 70.7628 137.535 71.3722C136.544 71.9815 135.384 72.2862 134.054 72.2862ZM134.063 69.9688C134.925 69.9688 135.639 69.741 136.205 69.2855C136.772 68.83 137.19 68.2237 137.461 67.4666C137.738 66.7095 137.877 65.8755 137.877 64.9645C137.877 64.0597 137.738 63.2287 137.461 62.4716C137.19 61.7083 136.772 61.0959 136.205 60.6342C135.639 60.1726 134.925 59.9418 134.063 59.9418C133.195 59.9418 132.475 60.1726 131.903 60.6342C131.337 61.0959 130.915 61.7083 130.638 62.4716C130.367 63.2287 130.232 64.0597 130.232 64.9645C130.232 65.8755 130.367 66.7095 130.638 67.4666C130.915 68.2237 131.337 68.83 131.903 69.2855C132.475 69.741 133.195 69.9688 134.063 69.9688ZM154.374 61.2805L151.871 61.7237C151.767 61.4036 151.601 61.099 151.373 60.8097C151.151 60.5204 150.85 60.2834 150.468 60.0987C150.086 59.9141 149.609 59.8217 149.037 59.8217C148.255 59.8217 147.603 59.9972 147.08 60.348C146.556 60.6927 146.295 61.139 146.295 61.6868C146.295 62.1607 146.47 62.5424 146.821 62.8317C147.172 63.121 147.738 63.358 148.52 63.5426L150.773 64.0597C152.078 64.3613 153.05 64.826 153.69 65.4538C154.33 66.0817 154.651 66.8973 154.651 67.9006C154.651 68.75 154.404 69.5071 153.912 70.1719C153.426 70.8305 152.746 71.3475 151.871 71.723C151.004 72.0985 149.997 72.2862 148.852 72.2862C147.264 72.2862 145.969 71.9477 144.965 71.2706C143.962 70.5874 143.346 69.6179 143.119 68.3622L145.787 67.956C145.953 68.6515 146.295 69.1778 146.812 69.5348C147.329 69.8857 148.003 70.0611 148.834 70.0611C149.739 70.0611 150.462 69.8733 151.004 69.4979C151.545 69.1162 151.816 68.6515 151.816 68.1037C151.816 67.6605 151.65 67.2881 151.317 66.9865C150.991 66.6849 150.49 66.4571 149.812 66.3033L147.412 65.777C146.089 65.4754 145.11 64.9953 144.476 64.3366C143.848 63.678 143.534 62.844 143.534 61.8345C143.534 60.9974 143.768 60.2649 144.236 59.6371C144.704 59.0092 145.35 58.5199 146.175 58.169C147 57.812 147.944 57.6335 149.009 57.6335C150.542 57.6335 151.748 57.9659 152.629 58.6307C153.509 59.2893 154.09 60.1726 154.374 61.2805ZM161.813 72.3139C160.914 72.3139 160.102 72.1477 159.376 71.8153C158.649 71.4768 158.074 70.9875 157.649 70.3473C157.23 69.7071 157.021 68.9223 157.021 67.9929C157.021 67.1927 157.175 66.5341 157.483 66.017C157.791 65.5 158.206 65.0907 158.729 64.7891C159.252 64.4875 159.837 64.2597 160.483 64.1058C161.13 63.9519 161.788 63.835 162.459 63.755C163.309 63.6565 163.998 63.5765 164.528 63.5149C165.057 63.4472 165.442 63.3395 165.682 63.1918C165.922 63.044 166.042 62.804 166.042 62.4716V62.407C166.042 61.6006 165.814 60.9759 165.358 60.5327C164.909 60.0895 164.238 59.8679 163.346 59.8679C162.416 59.8679 161.684 60.0741 161.148 60.4865C160.619 60.8928 160.253 61.3452 160.05 61.8438L157.455 61.2528C157.763 60.3911 158.212 59.6955 158.803 59.1662C159.4 58.6307 160.086 58.2429 160.862 58.0028C161.638 57.7566 162.453 57.6335 163.309 57.6335C163.875 57.6335 164.475 57.7012 165.109 57.8366C165.749 57.9659 166.346 58.206 166.9 58.5568C167.461 58.9077 167.919 59.4093 168.276 60.0618C168.633 60.7081 168.812 61.5483 168.812 62.5824V72H166.116V70.0611H166.005C165.826 70.4181 165.559 70.7689 165.202 71.1136C164.845 71.4583 164.386 71.7446 163.826 71.9723C163.266 72.2 162.595 72.3139 161.813 72.3139ZM162.413 70.098C163.176 70.098 163.829 69.9472 164.371 69.6456C164.918 69.344 165.334 68.95 165.617 68.4638C165.906 67.9714 166.051 67.4451 166.051 66.8849V65.0568C165.952 65.1553 165.762 65.2476 165.479 65.3338C165.202 65.4138 164.885 65.4846 164.528 65.5462C164.171 65.6016 163.823 65.6539 163.484 65.7031C163.146 65.7462 162.863 65.7831 162.635 65.8139C162.099 65.8816 161.61 65.9955 161.167 66.1555C160.73 66.3156 160.379 66.5464 160.114 66.848C159.856 67.1435 159.726 67.5374 159.726 68.0298C159.726 68.7131 159.979 69.2301 160.483 69.581C160.988 69.9257 161.631 70.098 162.413 70.098ZM172.71 72V53.0909H175.471V60.1172H175.637C175.797 59.8217 176.028 59.4801 176.33 59.0923C176.631 58.7045 177.05 58.366 177.585 58.0767C178.121 57.7812 178.829 57.6335 179.709 57.6335C180.854 57.6335 181.875 57.9228 182.774 58.5014C183.673 59.08 184.378 59.9141 184.888 61.0036C185.406 62.093 185.664 63.4041 185.664 64.9368C185.664 66.4695 185.409 67.7836 184.898 68.8793C184.387 69.9687 183.685 70.8089 182.793 71.3999C181.9 71.9846 180.881 72.277 179.737 72.277C178.875 72.277 178.17 72.1323 177.622 71.843C177.08 71.5537 176.656 71.2152 176.348 70.8274C176.04 70.4396 175.803 70.0949 175.637 69.7933H175.406V72H172.71ZM175.415 64.9091C175.415 65.9062 175.56 66.7803 175.849 67.5312C176.139 68.2822 176.557 68.87 177.105 69.2947C177.653 69.7133 178.324 69.9226 179.118 69.9226C179.943 69.9226 180.632 69.7041 181.186 69.267C181.74 68.8239 182.159 68.2237 182.442 67.4666C182.731 66.7095 182.876 65.857 182.876 64.9091C182.876 63.9735 182.734 63.1333 182.451 62.3885C182.174 61.6437 181.755 61.0559 181.195 60.625C180.641 60.1941 179.949 59.9787 179.118 59.9787C178.318 59.9787 177.641 60.1849 177.087 60.5973C176.539 61.0097 176.123 61.5852 175.84 62.3239C175.557 63.0625 175.415 63.9242 175.415 64.9091ZM191.525 53.0909V72H188.764V53.0909H191.525ZM201.351 72.2862C199.954 72.2862 198.75 71.9877 197.741 71.3906C196.737 70.7874 195.962 69.9411 195.414 68.8516C194.872 67.7559 194.602 66.4725 194.602 65.0014C194.602 63.5488 194.872 62.2685 195.414 61.1605C195.962 60.0526 196.725 59.1877 197.704 58.5661C198.689 57.9444 199.84 57.6335 201.157 57.6335C201.957 57.6335 202.733 57.7659 203.484 58.0305C204.235 58.2952 204.909 58.7107 205.506 59.277C206.103 59.8433 206.574 60.5788 206.918 61.4837C207.263 62.3823 207.435 63.4749 207.435 64.7614V65.7401H196.162V63.6719H204.73C204.73 62.9455 204.582 62.3023 204.287 61.7422C203.991 61.1759 203.576 60.7296 203.04 60.4034C202.511 60.0772 201.889 59.9141 201.175 59.9141C200.4 59.9141 199.723 60.1049 199.144 60.4865C198.572 60.862 198.129 61.3544 197.815 61.9638C197.507 62.567 197.353 63.2225 197.353 63.9304V65.5462C197.353 66.4941 197.519 67.3004 197.852 67.9652C198.19 68.63 198.661 69.1378 199.264 69.4886C199.867 69.8333 200.572 70.0057 201.379 70.0057C201.902 70.0057 202.379 69.9318 202.81 69.7841C203.241 69.6302 203.613 69.4025 203.927 69.1009C204.241 68.7992 204.481 68.4268 204.647 67.9837L207.26 68.4545C207.051 69.224 206.675 69.898 206.134 70.4766C205.598 71.049 204.924 71.4953 204.112 71.8153C203.305 72.1293 202.385 72.2862 201.351 72.2862ZM217.601 72V53.0909H229.327V55.5469H220.454V61.3082H228.487V63.755H220.454V72H217.601ZM232.614 72V57.8182H235.374V72H232.614ZM234.008 55.63C233.528 55.63 233.115 55.4699 232.771 55.1499C232.432 54.8236 232.263 54.4358 232.263 53.9865C232.263 53.531 232.432 53.1432 232.771 52.8232C233.115 52.4969 233.528 52.3338 234.008 52.3338C234.488 52.3338 234.897 52.4969 235.236 52.8232C235.58 53.1432 235.753 53.531 235.753 53.9865C235.753 54.4358 235.58 54.8236 235.236 55.1499C234.897 55.4699 234.488 55.63 234.008 55.63ZM241.849 53.0909V72H239.088V53.0909H241.849ZM252.183 57.8182V60.0341H244.436V57.8182H252.183ZM246.514 54.4205H249.275V67.8359C249.275 68.3714 249.355 68.7746 249.515 69.0455C249.675 69.3101 249.881 69.4917 250.133 69.5902C250.392 69.6825 250.672 69.7287 250.973 69.7287C251.195 69.7287 251.389 69.7133 251.555 69.6825C251.721 69.6518 251.85 69.6271 251.943 69.6087L252.441 71.8892C252.281 71.9508 252.054 72.0123 251.758 72.0739C251.463 72.1416 251.093 72.1785 250.65 72.1847C249.924 72.197 249.247 72.0677 248.619 71.7969C247.991 71.526 247.483 71.1075 247.096 70.5412C246.708 69.9749 246.514 69.264 246.514 68.4084V54.4205ZM261.197 72.2862C259.799 72.2862 258.596 71.9877 257.586 71.3906C256.583 70.7874 255.808 69.9411 255.26 68.8516C254.718 67.7559 254.447 66.4725 254.447 65.0014C254.447 63.5488 254.718 62.2685 255.26 61.1605C255.808 60.0526 256.571 59.1877 257.55 58.5661C258.534 57.9444 259.685 57.6335 261.003 57.6335C261.803 57.6335 262.578 57.7659 263.329 58.0305C264.08 58.2952 264.754 58.7107 265.351 59.277C265.948 59.8433 266.419 60.5788 266.764 61.4837C267.109 62.3823 267.281 63.4749 267.281 64.7614V65.7401H256.008V63.6719H264.576C264.576 62.9455 264.428 62.3023 264.133 61.7422C263.837 61.1759 263.422 60.7296 262.886 60.4034C262.357 60.0772 261.735 59.9141 261.021 59.9141C260.246 59.9141 259.568 60.1049 258.99 60.4865C258.417 60.862 257.974 61.3544 257.66 61.9638C257.353 62.567 257.199 63.2225 257.199 63.9304V65.5462C257.199 66.4941 257.365 67.3004 257.697 67.9652C258.036 68.63 258.507 69.1378 259.11 69.4886C259.713 69.8333 260.418 70.0057 261.224 70.0057C261.747 70.0057 262.224 69.9318 262.655 69.7841C263.086 69.6302 263.459 69.4025 263.773 69.1009C264.086 68.7992 264.327 68.4268 264.493 67.9837L267.106 68.4545C266.896 69.224 266.521 69.898 265.979 70.4766C265.444 71.049 264.77 71.4953 263.957 71.8153C263.151 72.1293 262.231 72.2862 261.197 72.2862ZM270.344 72V57.8182H273.012V60.071H273.16C273.419 59.3078 273.874 58.7076 274.527 58.2706C275.185 57.8274 275.93 57.6058 276.761 57.6058C276.933 57.6058 277.136 57.612 277.37 57.6243C277.61 57.6366 277.798 57.652 277.934 57.6705V60.3111C277.823 60.2803 277.626 60.2464 277.343 60.2095C277.06 60.1664 276.776 60.1449 276.493 60.1449C275.841 60.1449 275.259 60.2834 274.748 60.5604C274.243 60.8312 273.843 61.2098 273.548 61.696C273.252 62.1761 273.105 62.724 273.105 63.3395V72H270.344Z" fill="black"/>
<path d="M72.5852 118.5V105.409H80.4858V106.815H74.1705V111.239H80.0767V112.645H74.1705V117.094H80.5881V118.5H72.5852ZM83.1385 118.5V108.682H84.5959V110.216H84.7237C84.9283 109.692 85.2585 109.285 85.7145 108.995C86.1705 108.701 86.718 108.554 87.3572 108.554C88.005 108.554 88.544 108.701 88.9744 108.995C89.4091 109.285 89.7479 109.692 89.9908 110.216H90.093C90.3445 109.709 90.7216 109.306 91.2244 109.008C91.7273 108.705 92.3303 108.554 93.0334 108.554C93.9112 108.554 94.6293 108.829 95.1875 109.379C95.7457 109.924 96.0249 110.774 96.0249 111.929V118.5H94.5163V111.929C94.5163 111.205 94.3182 110.687 93.9219 110.376C93.5256 110.065 93.0589 109.909 92.522 109.909C91.8317 109.909 91.2969 110.118 90.9176 110.536C90.5384 110.949 90.3487 111.473 90.3487 112.108V118.5H88.8146V111.776C88.8146 111.217 88.6335 110.768 88.2713 110.427C87.9091 110.082 87.4425 109.909 86.8714 109.909C86.4794 109.909 86.1129 110.013 85.772 110.222C85.4354 110.431 85.1626 110.721 84.9538 111.092C84.7493 111.458 84.647 111.882 84.647 112.364V118.5H83.1385ZM101.672 118.73C101.05 118.73 100.485 118.613 99.9783 118.379C99.4712 118.14 99.0685 117.797 98.7702 117.349C98.4719 116.898 98.3228 116.352 98.3228 115.713C98.3228 115.151 98.4336 114.695 98.6552 114.345C98.8768 113.991 99.1729 113.714 99.5437 113.514C99.9144 113.314 100.324 113.165 100.771 113.067C101.223 112.964 101.676 112.884 102.132 112.824C102.729 112.747 103.213 112.69 103.583 112.651C103.958 112.609 104.231 112.538 104.402 112.44C104.576 112.342 104.664 112.172 104.664 111.929V111.878C104.664 111.247 104.491 110.757 104.146 110.408C103.805 110.058 103.287 109.884 102.593 109.884C101.873 109.884 101.308 110.041 100.899 110.357C100.49 110.672 100.202 111.009 100.036 111.366L98.604 110.855C98.8597 110.259 99.2006 109.794 99.6268 109.462C100.057 109.125 100.526 108.891 101.033 108.759C101.544 108.622 102.047 108.554 102.542 108.554C102.857 108.554 103.219 108.592 103.628 108.669C104.042 108.741 104.44 108.893 104.824 109.123C105.211 109.353 105.533 109.7 105.789 110.165C106.044 110.629 106.172 111.251 106.172 112.031V118.5H104.664V117.17H104.587C104.485 117.384 104.314 117.612 104.076 117.854C103.837 118.097 103.52 118.304 103.123 118.474C102.727 118.645 102.243 118.73 101.672 118.73ZM101.902 117.375C102.499 117.375 103.002 117.258 103.411 117.023C103.824 116.789 104.135 116.487 104.344 116.116C104.557 115.745 104.664 115.355 104.664 114.946V113.565C104.6 113.642 104.459 113.712 104.242 113.776C104.029 113.836 103.782 113.889 103.5 113.936C103.223 113.979 102.953 114.017 102.689 114.051C102.429 114.081 102.218 114.107 102.056 114.128C101.664 114.179 101.297 114.262 100.956 114.377C100.62 114.488 100.347 114.656 100.138 114.882C99.9336 115.104 99.8313 115.406 99.8313 115.79C99.8313 116.314 100.025 116.71 100.413 116.979C100.805 117.243 101.301 117.375 101.902 117.375ZM108.926 118.5V108.682H110.434V118.5H108.926ZM109.693 107.045C109.399 107.045 109.145 106.945 108.932 106.745C108.723 106.545 108.619 106.304 108.619 106.023C108.619 105.741 108.723 105.501 108.932 105.3C109.145 105.1 109.399 105 109.693 105C109.987 105 110.238 105.1 110.447 105.3C110.66 105.501 110.767 105.741 110.767 106.023C110.767 106.304 110.66 106.545 110.447 106.745C110.238 106.945 109.987 107.045 109.693 107.045ZM114.706 105.409V118.5H113.197V105.409H114.706ZM122.736 118.5V105.409H124.321V117.094H130.406V118.5H122.736ZM132.656 118.5V108.682H134.165V118.5H132.656ZM133.423 107.045C133.129 107.045 132.876 106.945 132.662 106.745C132.454 106.545 132.349 106.304 132.349 106.023C132.349 105.741 132.454 105.501 132.662 105.3C132.876 105.1 133.129 105 133.423 105C133.717 105 133.969 105.1 134.177 105.3C134.39 105.501 134.497 105.741 134.497 106.023C134.497 106.304 134.39 106.545 134.177 106.745C133.969 106.945 133.717 107.045 133.423 107.045ZM143.882 110.881L142.527 111.264C142.442 111.038 142.316 110.819 142.15 110.606C141.988 110.388 141.766 110.21 141.485 110.069C141.204 109.928 140.844 109.858 140.405 109.858C139.804 109.858 139.303 109.996 138.903 110.273C138.506 110.546 138.308 110.893 138.308 111.315C138.308 111.69 138.445 111.987 138.717 112.204C138.99 112.421 139.416 112.602 139.996 112.747L141.453 113.105C142.331 113.318 142.985 113.644 143.415 114.083C143.846 114.518 144.061 115.078 144.061 115.764C144.061 116.327 143.899 116.83 143.575 117.273C143.256 117.716 142.808 118.065 142.233 118.321C141.658 118.577 140.989 118.705 140.226 118.705C139.224 118.705 138.396 118.487 137.739 118.053C137.083 117.618 136.668 116.983 136.493 116.148L137.925 115.79C138.061 116.318 138.319 116.714 138.698 116.979C139.082 117.243 139.582 117.375 140.2 117.375C140.903 117.375 141.462 117.226 141.875 116.928C142.293 116.625 142.501 116.263 142.501 115.841C142.501 115.5 142.382 115.214 142.143 114.984C141.905 114.75 141.538 114.575 141.044 114.46L139.408 114.077C138.509 113.864 137.848 113.533 137.426 113.086C137.009 112.634 136.8 112.07 136.8 111.392C136.8 110.838 136.955 110.348 137.266 109.922C137.582 109.496 138.01 109.161 138.551 108.918C139.097 108.675 139.714 108.554 140.405 108.554C141.376 108.554 142.139 108.767 142.693 109.193C143.251 109.619 143.648 110.182 143.882 110.881ZM150.602 108.682V109.96H145.514V108.682H150.602ZM146.997 106.33H148.505V115.688C148.505 116.114 148.567 116.433 148.691 116.646C148.818 116.855 148.98 116.996 149.176 117.068C149.377 117.136 149.588 117.17 149.809 117.17C149.975 117.17 150.112 117.162 150.218 117.145C150.325 117.124 150.41 117.107 150.474 117.094L150.781 118.449C150.678 118.487 150.536 118.526 150.352 118.564C150.169 118.607 149.937 118.628 149.656 118.628C149.23 118.628 148.812 118.536 148.403 118.353C147.998 118.17 147.661 117.891 147.393 117.516C147.129 117.141 146.997 116.668 146.997 116.097V106.33ZM153.97 118.602C153.655 118.602 153.384 118.489 153.159 118.263C152.933 118.038 152.82 117.767 152.82 117.452C152.82 117.136 152.933 116.866 153.159 116.64C153.384 116.414 153.655 116.301 153.97 116.301C154.286 116.301 154.556 116.414 154.782 116.64C155.008 116.866 155.121 117.136 155.121 117.452C155.121 117.661 155.068 117.852 154.961 118.027C154.859 118.202 154.72 118.342 154.546 118.449C154.375 118.551 154.183 118.602 153.97 118.602ZM153.97 111.315C153.655 111.315 153.384 111.202 153.159 110.977C152.933 110.751 152.82 110.48 152.82 110.165C152.82 109.849 152.933 109.579 153.159 109.353C153.384 109.127 153.655 109.014 153.97 109.014C154.286 109.014 154.556 109.127 154.782 109.353C155.008 109.579 155.121 109.849 155.121 110.165C155.121 110.374 155.068 110.565 154.961 110.74C154.859 110.915 154.72 111.055 154.546 111.162C154.375 111.264 154.183 111.315 153.97 111.315Z" fill="black" fill-opacity="0.7"/>
<path d="M414.945 120.219C413.826 120.219 412.836 120.026 411.977 119.641C411.122 119.255 410.453 118.724 409.969 118.047C409.484 117.37 409.245 116.599 409.25 115.734C409.245 115.057 409.383 114.435 409.664 113.867C409.951 113.294 410.339 112.818 410.828 112.438C411.318 112.052 411.865 111.807 412.469 111.703V111.609C411.672 111.417 411.034 110.99 410.555 110.328C410.076 109.667 409.839 108.906 409.844 108.047C409.839 107.229 410.055 106.5 410.492 105.859C410.935 105.214 411.542 104.706 412.313 104.336C413.083 103.966 413.961 103.781 414.945 103.781C415.919 103.781 416.789 103.969 417.555 104.344C418.326 104.714 418.932 105.221 419.375 105.867C419.818 106.508 420.042 107.234 420.047 108.047C420.042 108.906 419.797 109.667 419.313 110.328C418.828 110.99 418.198 111.417 417.422 111.609V111.703C418.021 111.807 418.56 112.052 419.039 112.438C419.523 112.818 419.909 113.294 420.195 113.867C420.487 114.435 420.635 115.057 420.641 115.734C420.635 116.599 420.391 117.37 419.906 118.047C419.422 118.724 418.75 119.255 417.891 119.641C417.036 120.026 416.055 120.219 414.945 120.219ZM414.945 118.242C415.607 118.242 416.18 118.133 416.664 117.914C417.148 117.69 417.523 117.38 417.789 116.984C418.055 116.583 418.19 116.115 418.195 115.578C418.19 115.021 418.044 114.529 417.758 114.102C417.477 113.674 417.094 113.339 416.609 113.094C416.125 112.849 415.57 112.727 414.945 112.727C414.315 112.727 413.755 112.849 413.266 113.094C412.776 113.339 412.391 113.674 412.109 114.102C411.828 114.529 411.69 115.021 411.695 115.578C411.69 116.115 411.818 116.583 412.078 116.984C412.344 117.38 412.721 117.69 413.211 117.914C413.701 118.133 414.279 118.242 414.945 118.242ZM414.945 110.797C415.477 110.797 415.948 110.69 416.359 110.477C416.771 110.263 417.094 109.966 417.328 109.586C417.568 109.206 417.69 108.76 417.695 108.25C417.69 107.75 417.57 107.313 417.336 106.938C417.107 106.562 416.786 106.273 416.375 106.07C415.964 105.862 415.487 105.758 414.945 105.758C414.393 105.758 413.909 105.862 413.492 106.07C413.081 106.273 412.76 106.562 412.531 106.938C412.302 107.313 412.19 107.75 412.195 108.25C412.19 108.76 412.305 109.206 412.539 109.586C412.773 109.966 413.096 110.263 413.508 110.477C413.924 110.69 414.404 110.797 414.945 110.797ZM426.037 117.812L425.92 118.664C425.842 119.289 425.709 119.94 425.521 120.617C425.339 121.299 425.149 121.932 424.951 122.516C424.758 123.099 424.6 123.563 424.475 123.906H422.818C422.886 123.583 422.98 123.146 423.1 122.594C423.219 122.047 423.337 121.435 423.451 120.758C423.566 120.081 423.652 119.391 423.709 118.687L423.787 117.812H426.037ZM434.432 103.781C435.145 103.786 435.848 103.917 436.541 104.172C437.234 104.427 437.859 104.844 438.416 105.422C438.979 106 439.426 106.781 439.76 107.766C440.098 108.745 440.27 109.964 440.275 111.422C440.275 112.823 440.135 114.07 439.854 115.164C439.572 116.253 439.169 117.172 438.643 117.922C438.122 118.672 437.489 119.242 436.744 119.633C435.999 120.023 435.161 120.219 434.229 120.219C433.275 120.219 432.429 120.031 431.689 119.656C430.95 119.281 430.348 118.763 429.885 118.102C429.421 117.435 429.132 116.669 429.018 115.805H431.4C431.557 116.492 431.874 117.049 432.354 117.477C432.838 117.898 433.463 118.109 434.229 118.109C435.4 118.109 436.314 117.599 436.971 116.578C437.627 115.552 437.958 114.12 437.963 112.281H437.838C437.567 112.729 437.229 113.115 436.822 113.437C436.421 113.76 435.971 114.01 435.471 114.187C434.971 114.365 434.437 114.453 433.869 114.453C432.947 114.453 432.109 114.227 431.354 113.773C430.598 113.32 429.997 112.698 429.549 111.906C429.101 111.115 428.877 110.211 428.877 109.195C428.877 108.185 429.106 107.268 429.564 106.445C430.028 105.622 430.674 104.971 431.502 104.492C432.335 104.008 433.312 103.771 434.432 103.781ZM434.439 105.812C433.83 105.812 433.281 105.964 432.791 106.266C432.307 106.562 431.924 106.966 431.643 107.477C431.361 107.982 431.221 108.544 431.221 109.164C431.221 109.784 431.356 110.346 431.627 110.852C431.903 111.352 432.278 111.75 432.752 112.047C433.231 112.339 433.778 112.484 434.393 112.484C434.851 112.484 435.278 112.396 435.674 112.219C436.07 112.042 436.416 111.797 436.713 111.484C437.01 111.167 437.242 110.807 437.408 110.406C437.575 110.005 437.658 109.583 437.658 109.141C437.658 108.552 437.518 108.005 437.236 107.5C436.96 106.995 436.58 106.589 436.096 106.281C435.611 105.969 435.059 105.812 434.439 105.812ZM442.762 116.875V114.922L449.676 104H451.215V106.875H450.238L445.293 114.703V114.828H454.77V116.875H442.762ZM450.348 120V116.281L450.363 115.391V104H452.652V120H450.348ZM462.773 120.219C461.794 120.219 460.914 120.031 460.133 119.656C459.357 119.276 458.737 118.755 458.273 118.094C457.81 117.432 457.563 116.677 457.531 115.828H459.875C459.932 116.516 460.237 117.081 460.789 117.523C461.341 117.966 462.003 118.187 462.773 118.187C463.388 118.187 463.932 118.047 464.406 117.766C464.885 117.479 465.26 117.086 465.531 116.586C465.807 116.086 465.945 115.516 465.945 114.875C465.945 114.224 465.805 113.643 465.523 113.133C465.242 112.622 464.854 112.221 464.359 111.93C463.87 111.638 463.307 111.49 462.672 111.484C462.188 111.484 461.701 111.568 461.211 111.734C460.721 111.901 460.326 112.12 460.023 112.391L457.813 112.062L458.711 104H467.508V106.07H460.719L460.211 110.547H460.305C460.617 110.245 461.031 109.992 461.547 109.789C462.068 109.586 462.625 109.484 463.219 109.484C464.193 109.484 465.06 109.716 465.82 110.18C466.586 110.643 467.188 111.276 467.625 112.078C468.068 112.875 468.286 113.792 468.281 114.828C468.286 115.865 468.052 116.789 467.578 117.602C467.109 118.414 466.458 119.055 465.625 119.523C464.797 119.987 463.846 120.219 462.773 120.219Z" fill="black"/>
<circle cx="78" cy="157.5" r="7" fill="#8759F2"/>
<path d="M101.761 164.5V149.955H106.676C107.817 149.955 108.75 150.161 109.474 150.572C110.204 150.98 110.743 151.531 111.094 152.227C111.444 152.923 111.619 153.7 111.619 154.557C111.619 155.414 111.444 156.193 111.094 156.893C110.748 157.594 110.213 158.153 109.489 158.57C108.764 158.982 107.836 159.188 106.705 159.188H103.182V157.625H106.648C107.429 157.625 108.056 157.49 108.53 157.22C109.003 156.95 109.347 156.586 109.56 156.126C109.777 155.662 109.886 155.139 109.886 154.557C109.886 153.974 109.777 153.454 109.56 152.994C109.347 152.535 109.001 152.175 108.523 151.915C108.045 151.65 107.41 151.517 106.619 151.517H103.523V164.5H101.761ZM118.686 164.727C117.635 164.727 116.728 164.495 115.966 164.031C115.208 163.562 114.624 162.909 114.212 162.071C113.804 161.228 113.601 160.248 113.601 159.131C113.601 158.013 113.804 157.028 114.212 156.176C114.624 155.319 115.196 154.652 115.93 154.173C116.669 153.69 117.531 153.449 118.516 153.449C119.084 153.449 119.645 153.544 120.199 153.733C120.753 153.922 121.257 154.23 121.712 154.656C122.166 155.078 122.528 155.636 122.798 156.332C123.068 157.028 123.203 157.885 123.203 158.903V159.614H114.794V158.165H121.499C121.499 157.549 121.375 157 121.129 156.517C120.888 156.034 120.542 155.653 120.092 155.374C119.647 155.094 119.122 154.955 118.516 154.955C117.848 154.955 117.27 155.12 116.783 155.452C116.3 155.778 115.928 156.205 115.668 156.73C115.407 157.256 115.277 157.819 115.277 158.42V159.386C115.277 160.21 115.419 160.909 115.703 161.482C115.992 162.05 116.392 162.483 116.903 162.781C117.415 163.075 118.009 163.222 118.686 163.222C119.126 163.222 119.524 163.16 119.879 163.037C120.239 162.909 120.549 162.72 120.81 162.469C121.07 162.213 121.271 161.896 121.413 161.517L123.033 161.972C122.862 162.521 122.576 163.004 122.173 163.42C121.771 163.832 121.274 164.154 120.682 164.386C120.09 164.614 119.425 164.727 118.686 164.727ZM125.753 164.5V153.591H127.372V155.239H127.486C127.685 154.699 128.045 154.261 128.565 153.925C129.086 153.589 129.673 153.42 130.327 153.42C130.45 153.42 130.604 153.423 130.788 153.428C130.973 153.432 131.113 153.439 131.207 153.449V155.153C131.151 155.139 131.02 155.118 130.817 155.089C130.618 155.056 130.407 155.04 130.185 155.04C129.654 155.04 129.181 155.151 128.764 155.374C128.352 155.591 128.026 155.894 127.784 156.283C127.547 156.666 127.429 157.104 127.429 157.597V164.5H125.753ZM133.194 164.5V153.591H134.814V155.295H134.956C135.183 154.713 135.55 154.261 136.056 153.939C136.563 153.612 137.172 153.449 137.882 153.449C138.601 153.449 139.2 153.612 139.679 153.939C140.162 154.261 140.538 154.713 140.808 155.295H140.922C141.201 154.732 141.62 154.285 142.179 153.953C142.737 153.617 143.407 153.449 144.189 153.449C145.164 153.449 145.962 153.754 146.582 154.365C147.202 154.971 147.512 155.916 147.512 157.199V164.5H145.836V157.199C145.836 156.394 145.616 155.819 145.176 155.473C144.735 155.127 144.217 154.955 143.62 154.955C142.853 154.955 142.259 155.187 141.838 155.651C141.416 156.11 141.206 156.692 141.206 157.398V164.5H139.501V157.028C139.501 156.408 139.3 155.909 138.897 155.53C138.495 155.146 137.976 154.955 137.342 154.955C136.906 154.955 136.499 155.071 136.12 155.303C135.746 155.535 135.443 155.857 135.211 156.268C134.984 156.676 134.87 157.147 134.87 157.682V164.5H133.194ZM153.787 164.756C153.096 164.756 152.469 164.625 151.905 164.365C151.342 164.1 150.894 163.719 150.563 163.222C150.231 162.72 150.066 162.114 150.066 161.403C150.066 160.778 150.189 160.272 150.435 159.884C150.681 159.491 151.01 159.183 151.422 158.96C151.834 158.738 152.289 158.572 152.786 158.463C153.288 158.349 153.792 158.259 154.299 158.193C154.962 158.108 155.499 158.044 155.911 158.001C156.328 157.954 156.631 157.876 156.82 157.767C157.014 157.658 157.111 157.469 157.111 157.199V157.142C157.111 156.441 156.919 155.897 156.536 155.509C156.157 155.12 155.582 154.926 154.81 154.926C154.01 154.926 153.382 155.101 152.928 155.452C152.473 155.802 152.154 156.176 151.969 156.574L150.378 156.006C150.662 155.343 151.041 154.827 151.515 154.457C151.993 154.083 152.514 153.823 153.077 153.676C153.645 153.525 154.204 153.449 154.753 153.449C155.104 153.449 155.506 153.491 155.961 153.577C156.42 153.657 156.863 153.825 157.289 154.081C157.72 154.337 158.077 154.723 158.361 155.239C158.645 155.755 158.787 156.446 158.787 157.312V164.5H157.111V163.023H157.026C156.912 163.259 156.723 163.513 156.458 163.783C156.193 164.053 155.84 164.282 155.4 164.472C154.959 164.661 154.422 164.756 153.787 164.756ZM154.043 163.25C154.706 163.25 155.265 163.12 155.719 162.859C156.178 162.599 156.524 162.263 156.756 161.851C156.993 161.439 157.111 161.006 157.111 160.551V159.017C157.04 159.102 156.884 159.18 156.642 159.251C156.406 159.318 156.131 159.377 155.819 159.429C155.511 159.476 155.21 159.519 154.917 159.557C154.628 159.59 154.393 159.618 154.213 159.642C153.778 159.699 153.371 159.791 152.992 159.919C152.618 160.042 152.315 160.229 152.083 160.48C151.855 160.726 151.742 161.062 151.742 161.489C151.742 162.071 151.957 162.511 152.388 162.81C152.824 163.103 153.375 163.25 154.043 163.25ZM163.523 157.938V164.5H161.847V153.591H163.466V155.295H163.608C163.864 154.741 164.252 154.296 164.773 153.96C165.294 153.619 165.966 153.449 166.79 153.449C167.528 153.449 168.175 153.6 168.729 153.903C169.283 154.202 169.714 154.656 170.021 155.267C170.329 155.873 170.483 156.64 170.483 157.568V164.5H168.807V157.682C168.807 156.825 168.584 156.157 168.139 155.679C167.694 155.196 167.083 154.955 166.307 154.955C165.772 154.955 165.294 155.071 164.872 155.303C164.455 155.535 164.126 155.873 163.885 156.318C163.643 156.763 163.523 157.303 163.523 157.938ZM178.12 164.727C177.069 164.727 176.162 164.495 175.4 164.031C174.642 163.562 174.057 162.909 173.645 162.071C173.238 161.228 173.034 160.248 173.034 159.131C173.034 158.013 173.238 157.028 173.645 156.176C174.057 155.319 174.63 154.652 175.364 154.173C176.103 153.69 176.964 153.449 177.949 153.449C178.517 153.449 179.078 153.544 179.632 153.733C180.186 153.922 180.691 154.23 181.145 154.656C181.6 155.078 181.962 155.636 182.232 156.332C182.502 157.028 182.637 157.885 182.637 158.903V159.614H174.228V158.165H180.932C180.932 157.549 180.809 157 180.563 156.517C180.321 156.034 179.976 155.653 179.526 155.374C179.081 155.094 178.555 154.955 177.949 154.955C177.282 154.955 176.704 155.12 176.216 155.452C175.733 155.778 175.362 156.205 175.101 156.73C174.841 157.256 174.711 157.819 174.711 158.42V159.386C174.711 160.21 174.853 160.909 175.137 161.482C175.426 162.05 175.826 162.483 176.337 162.781C176.848 163.075 177.443 163.222 178.12 163.222C178.56 163.222 178.958 163.16 179.313 163.037C179.673 162.909 179.983 162.72 180.243 162.469C180.504 162.213 180.705 161.896 180.847 161.517L182.466 161.972C182.296 162.521 182.009 163.004 181.607 163.42C181.204 163.832 180.707 164.154 180.115 164.386C179.524 164.614 178.858 164.727 178.12 164.727ZM186.863 157.938V164.5H185.186V153.591H186.806V155.295H186.948C187.203 154.741 187.592 154.296 188.113 153.96C188.633 153.619 189.306 153.449 190.13 153.449C190.868 153.449 191.515 153.6 192.069 153.903C192.623 154.202 193.053 154.656 193.361 155.267C193.669 155.873 193.823 156.64 193.823 157.568V164.5H192.147V157.682C192.147 156.825 191.924 156.157 191.479 155.679C191.034 155.196 190.423 154.955 189.647 154.955C189.112 154.955 188.633 155.071 188.212 155.303C187.795 155.535 187.466 155.873 187.225 156.318C186.983 156.763 186.863 157.303 186.863 157.938ZM201.63 153.591V155.011H195.977V153.591H201.63ZM197.624 150.977H199.3V161.375C199.3 161.848 199.369 162.204 199.506 162.44C199.648 162.672 199.828 162.829 200.046 162.909C200.269 162.985 200.503 163.023 200.749 163.023C200.934 163.023 201.085 163.013 201.204 162.994C201.322 162.971 201.417 162.952 201.488 162.938L201.829 164.443C201.715 164.486 201.557 164.528 201.353 164.571C201.149 164.618 200.891 164.642 200.579 164.642C200.105 164.642 199.641 164.54 199.187 164.337C198.737 164.133 198.363 163.823 198.065 163.406C197.771 162.99 197.624 162.464 197.624 161.83V150.977ZM205.373 164.614C205.022 164.614 204.722 164.488 204.471 164.237C204.22 163.986 204.094 163.686 204.094 163.335C204.094 162.985 204.22 162.684 204.471 162.433C204.722 162.182 205.022 162.057 205.373 162.057C205.723 162.057 206.024 162.182 206.275 162.433C206.526 162.684 206.651 162.985 206.651 163.335C206.651 163.567 206.592 163.78 206.474 163.974C206.36 164.169 206.206 164.325 206.012 164.443C205.823 164.557 205.61 164.614 205.373 164.614ZM205.373 156.517C205.022 156.517 204.722 156.392 204.471 156.141C204.22 155.89 204.094 155.589 204.094 155.239C204.094 154.888 204.22 154.588 204.471 154.337C204.722 154.086 205.022 153.96 205.373 153.96C205.723 153.96 206.024 154.086 206.275 154.337C206.526 154.588 206.651 154.888 206.651 155.239C206.651 155.471 206.592 155.684 206.474 155.878C206.36 156.072 206.206 156.228 206.012 156.347C205.823 156.46 205.61 156.517 205.373 156.517Z" fill="black"/>
<path d="M346.889 164.5L353.239 151.943V151.837H345.895V149.955H355.511V151.901L349.183 164.5H346.889ZM358.272 162.511L358.166 163.286C358.095 163.854 357.974 164.446 357.804 165.061C357.638 165.681 357.465 166.257 357.285 166.787C357.11 167.317 356.966 167.739 356.852 168.051H355.346C355.408 167.758 355.493 167.36 355.602 166.858C355.711 166.361 355.817 165.804 355.922 165.189C356.026 164.573 356.104 163.946 356.156 163.307L356.227 162.511H358.272ZM365.669 164.699C364.651 164.699 363.752 164.524 362.971 164.173C362.194 163.823 361.586 163.34 361.145 162.724C360.705 162.109 360.487 161.408 360.492 160.622C360.487 160.007 360.613 159.441 360.868 158.925C361.129 158.404 361.481 157.971 361.926 157.625C362.372 157.275 362.869 157.052 363.418 156.957V156.872C362.694 156.697 362.114 156.309 361.678 155.707C361.242 155.106 361.027 154.415 361.032 153.634C361.027 152.89 361.223 152.227 361.621 151.645C362.024 151.058 362.575 150.596 363.276 150.26C363.977 149.924 364.775 149.756 365.669 149.756C366.555 149.756 367.346 149.926 368.042 150.267C368.742 150.603 369.294 151.065 369.696 151.652C370.099 152.234 370.302 152.895 370.307 153.634C370.302 154.415 370.08 155.106 369.64 155.707C369.199 156.309 368.626 156.697 367.921 156.872V156.957C368.465 157.052 368.955 157.275 369.391 157.625C369.831 157.971 370.182 158.404 370.442 158.925C370.707 159.441 370.842 160.007 370.847 160.622C370.842 161.408 370.62 162.109 370.179 162.724C369.739 163.34 369.128 163.823 368.347 164.173C367.57 164.524 366.678 164.699 365.669 164.699ZM365.669 162.902C366.271 162.902 366.792 162.803 367.232 162.604C367.672 162.4 368.013 162.118 368.255 161.759C368.496 161.394 368.619 160.968 368.624 160.48C368.619 159.973 368.487 159.526 368.226 159.138C367.971 158.75 367.623 158.444 367.182 158.222C366.742 157.999 366.238 157.888 365.669 157.888C365.096 157.888 364.587 157.999 364.142 158.222C363.697 158.444 363.347 158.75 363.091 159.138C362.836 159.526 362.71 159.973 362.715 160.48C362.71 160.968 362.826 161.394 363.063 161.759C363.304 162.118 363.648 162.4 364.093 162.604C364.538 162.803 365.063 162.902 365.669 162.902ZM365.669 156.134C366.152 156.134 366.581 156.036 366.955 155.842C367.329 155.648 367.623 155.378 367.836 155.033C368.053 154.687 368.165 154.282 368.169 153.818C368.165 153.364 368.056 152.966 367.843 152.625C367.634 152.284 367.343 152.021 366.969 151.837C366.595 151.647 366.162 151.553 365.669 151.553C365.167 151.553 364.727 151.647 364.348 151.837C363.974 152.021 363.683 152.284 363.475 152.625C363.266 152.966 363.165 153.364 363.169 153.818C363.165 154.282 363.269 154.687 363.482 155.033C363.695 155.378 363.989 155.648 364.363 155.842C364.741 156.036 365.177 156.134 365.669 156.134ZM378.228 149.756C378.877 149.76 379.516 149.879 380.146 150.111C380.775 150.343 381.344 150.722 381.85 151.247C382.362 151.773 382.769 152.483 383.072 153.378C383.379 154.268 383.536 155.376 383.54 156.702C383.54 157.975 383.413 159.109 383.157 160.104C382.901 161.093 382.534 161.929 382.056 162.611C381.583 163.293 381.007 163.811 380.33 164.166C379.653 164.521 378.891 164.699 378.043 164.699C377.177 164.699 376.407 164.528 375.735 164.188C375.063 163.847 374.516 163.375 374.094 162.774C373.673 162.168 373.41 161.472 373.306 160.686H375.472C375.614 161.311 375.903 161.818 376.339 162.206C376.779 162.589 377.347 162.781 378.043 162.781C379.109 162.781 379.94 162.317 380.536 161.389C381.133 160.456 381.433 159.154 381.438 157.483H381.325C381.078 157.89 380.771 158.241 380.401 158.534C380.037 158.828 379.627 159.055 379.173 159.216C378.718 159.377 378.233 159.457 377.717 159.457C376.879 159.457 376.116 159.251 375.43 158.839C374.743 158.428 374.196 157.862 373.789 157.142C373.382 156.422 373.178 155.601 373.178 154.678C373.178 153.759 373.387 152.926 373.803 152.178C374.225 151.429 374.812 150.838 375.565 150.402C376.322 149.962 377.21 149.746 378.228 149.756ZM378.235 151.602C377.681 151.602 377.182 151.74 376.737 152.014C376.296 152.284 375.948 152.651 375.692 153.115C375.437 153.574 375.309 154.086 375.309 154.649C375.309 155.213 375.432 155.724 375.678 156.183C375.929 156.638 376.27 157 376.701 157.27C377.137 157.535 377.634 157.668 378.192 157.668C378.609 157.668 378.997 157.587 379.357 157.426C379.717 157.265 380.032 157.043 380.302 156.759C380.572 156.47 380.782 156.143 380.934 155.778C381.085 155.414 381.161 155.03 381.161 154.628C381.161 154.093 381.033 153.596 380.778 153.136C380.527 152.677 380.181 152.308 379.741 152.028C379.3 151.744 378.799 151.602 378.235 151.602ZM391.17 164.741C390.048 164.737 389.089 164.441 388.294 163.854C387.498 163.267 386.89 162.412 386.468 161.29C386.047 160.168 385.836 158.816 385.836 157.234C385.836 155.658 386.047 154.311 386.468 153.193C386.895 152.076 387.505 151.223 388.301 150.636C389.101 150.049 390.057 149.756 391.17 149.756C392.283 149.756 393.237 150.052 394.032 150.643C394.828 151.231 395.436 152.083 395.858 153.2C396.284 154.313 396.497 155.658 396.497 157.234C396.497 158.821 396.286 160.175 395.865 161.297C395.443 162.414 394.835 163.269 394.039 163.861C393.244 164.448 392.288 164.741 391.17 164.741ZM391.17 162.845C392.155 162.845 392.924 162.365 393.478 161.403C394.037 160.442 394.316 159.053 394.316 157.234C394.316 156.027 394.189 155.007 393.933 154.173C393.682 153.335 393.32 152.701 392.846 152.27C392.377 151.834 391.819 151.616 391.17 151.616C390.19 151.616 389.421 152.099 388.862 153.065C388.303 154.031 388.021 155.421 388.017 157.234C388.017 158.446 388.142 159.472 388.393 160.31C388.649 161.143 389.011 161.775 389.48 162.206C389.949 162.632 390.512 162.845 391.17 162.845Z" fill="black"/>
<rect x="410" y="145" width="58" height="25" rx="12.5" fill="#E5DCF9"/>
<path d="M429.315 160.912V159.898L433.79 152.818H434.526V154.389H434.028L430.648 159.739V159.818H436.673V160.912H429.315ZM434.108 163V160.604V160.131V152.818H435.281V163H434.108ZM443.727 161.091V160.554C443.727 160.183 443.803 159.843 443.955 159.535C444.111 159.223 444.337 158.975 444.632 158.789C444.93 158.6 445.291 158.506 445.715 158.506C446.146 158.506 446.508 158.6 446.799 158.789C447.091 158.975 447.311 159.223 447.46 159.535C447.61 159.843 447.684 160.183 447.684 160.554V161.091C447.684 161.462 447.608 161.804 447.455 162.115C447.306 162.423 447.084 162.672 446.789 162.861C446.498 163.046 446.14 163.139 445.715 163.139C445.285 163.139 444.922 163.046 444.627 162.861C444.332 162.672 444.108 162.423 443.955 162.115C443.803 161.804 443.727 161.462 443.727 161.091ZM444.741 160.554V161.091C444.741 161.399 444.814 161.676 444.96 161.921C445.106 162.163 445.357 162.284 445.715 162.284C446.063 162.284 446.309 162.163 446.451 161.921C446.597 161.676 446.67 161.399 446.67 161.091V160.554C446.67 160.246 446.6 159.971 446.461 159.729C446.322 159.483 446.073 159.361 445.715 159.361C445.367 159.361 445.117 159.483 444.965 159.729C444.816 159.971 444.741 160.246 444.741 160.554ZM438.656 155.264V154.727C438.656 154.356 438.732 154.016 438.884 153.708C439.04 153.397 439.266 153.148 439.561 152.962C439.859 152.773 440.22 152.679 440.644 152.679C441.075 152.679 441.436 152.773 441.728 152.962C442.02 153.148 442.24 153.397 442.389 153.708C442.539 154.016 442.613 154.356 442.613 154.727V155.264C442.613 155.635 442.537 155.977 442.384 156.288C442.235 156.597 442.013 156.845 441.718 157.034C441.427 157.22 441.069 157.312 440.644 157.312C440.213 157.312 439.851 157.22 439.556 157.034C439.261 156.845 439.037 156.597 438.884 156.288C438.732 155.977 438.656 155.635 438.656 155.264ZM439.67 154.727V155.264C439.67 155.572 439.743 155.849 439.889 156.094C440.035 156.336 440.286 156.457 440.644 156.457C440.992 156.457 441.238 156.336 441.38 156.094C441.526 155.849 441.599 155.572 441.599 155.264V154.727C441.599 154.419 441.529 154.144 441.39 153.902C441.251 153.657 441.002 153.534 440.644 153.534C440.296 153.534 440.046 153.657 439.894 153.902C439.744 154.144 439.67 154.419 439.67 154.727ZM439.034 163L446.034 152.818H447.167L440.167 163H439.034Z" fill="#8759F2"/>
<circle cx="78" cy="202.5" r="7" fill="#E84E92"/>
<path d="M106.25 209.5H101.761V194.955H106.449C107.86 194.955 109.067 195.246 110.071 195.828C111.075 196.406 111.844 197.237 112.379 198.321C112.914 199.401 113.182 200.693 113.182 202.199C113.182 203.714 112.912 205.018 112.372 206.112C111.832 207.201 111.046 208.039 110.014 208.626C108.982 209.209 107.727 209.5 106.25 209.5ZM103.523 207.938H106.136C107.339 207.938 108.336 207.705 109.126 207.241C109.917 206.777 110.507 206.117 110.895 205.26C111.283 204.403 111.477 203.383 111.477 202.199C111.477 201.025 111.286 200.014 110.902 199.166C110.518 198.314 109.946 197.661 109.183 197.206C108.421 196.747 107.472 196.517 106.335 196.517H103.523V207.938ZM115.909 209.5V198.591H117.585V209.5H115.909ZM116.761 196.773C116.435 196.773 116.153 196.661 115.916 196.439C115.684 196.216 115.568 195.949 115.568 195.636C115.568 195.324 115.684 195.056 115.916 194.834C116.153 194.611 116.435 194.5 116.761 194.5C117.088 194.5 117.367 194.611 117.599 194.834C117.836 195.056 117.955 195.324 117.955 195.636C117.955 195.949 117.836 196.216 117.599 196.439C117.367 196.661 117.088 196.773 116.761 196.773ZM128.382 201.034L126.877 201.46C126.782 201.209 126.642 200.965 126.458 200.729C126.278 200.487 126.032 200.288 125.719 200.132C125.407 199.976 125.007 199.898 124.519 199.898C123.851 199.898 123.295 200.052 122.85 200.359C122.409 200.662 122.189 201.048 122.189 201.517C122.189 201.934 122.341 202.263 122.644 202.504C122.947 202.746 123.42 202.947 124.064 203.108L125.684 203.506C126.659 203.742 127.386 204.105 127.864 204.592C128.342 205.075 128.581 205.698 128.581 206.46C128.581 207.085 128.401 207.644 128.042 208.136C127.686 208.629 127.189 209.017 126.55 209.301C125.911 209.585 125.167 209.727 124.32 209.727C123.207 209.727 122.286 209.486 121.557 209.003C120.828 208.52 120.366 207.814 120.172 206.886L121.763 206.489C121.915 207.076 122.201 207.516 122.623 207.81C123.049 208.103 123.605 208.25 124.292 208.25C125.073 208.25 125.693 208.084 126.152 207.753C126.616 207.417 126.848 207.014 126.848 206.545C126.848 206.167 126.716 205.849 126.451 205.594C126.185 205.333 125.778 205.139 125.229 205.011L123.411 204.585C122.412 204.348 121.678 203.982 121.209 203.484C120.745 202.982 120.513 202.355 120.513 201.602C120.513 200.987 120.686 200.442 121.032 199.969C121.382 199.495 121.858 199.124 122.459 198.854C123.065 198.584 123.752 198.449 124.519 198.449C125.598 198.449 126.446 198.686 127.061 199.159C127.682 199.633 128.122 200.258 128.382 201.034ZM131.104 213.591V198.591H132.724V200.324H132.923C133.046 200.134 133.216 199.893 133.434 199.599C133.656 199.301 133.974 199.036 134.386 198.804C134.802 198.567 135.366 198.449 136.076 198.449C136.995 198.449 137.804 198.679 138.505 199.138C139.206 199.597 139.753 200.248 140.146 201.091C140.539 201.934 140.735 202.928 140.735 204.074C140.735 205.229 140.539 206.231 140.146 207.078C139.753 207.921 139.208 208.574 138.512 209.038C137.816 209.498 137.013 209.727 136.104 209.727C135.404 209.727 134.843 209.611 134.421 209.379C134 209.143 133.675 208.875 133.448 208.577C133.221 208.274 133.046 208.023 132.923 207.824H132.781V213.591H131.104ZM132.752 204.045C132.752 204.869 132.873 205.596 133.114 206.226C133.356 206.851 133.709 207.341 134.173 207.696C134.637 208.046 135.205 208.222 135.877 208.222C136.578 208.222 137.163 208.037 137.631 207.668C138.105 207.294 138.46 206.792 138.697 206.162C138.938 205.527 139.059 204.822 139.059 204.045C139.059 203.278 138.941 202.587 138.704 201.972C138.472 201.351 138.119 200.861 137.646 200.501C137.177 200.137 136.587 199.955 135.877 199.955C135.195 199.955 134.622 200.127 134.158 200.473C133.694 200.814 133.344 201.292 133.107 201.908C132.871 202.518 132.752 203.231 132.752 204.045ZM147.724 209.727C146.739 209.727 145.875 209.493 145.131 209.024C144.393 208.555 143.815 207.9 143.398 207.057C142.987 206.214 142.781 205.229 142.781 204.102C142.781 202.966 142.987 201.974 143.398 201.126C143.815 200.279 144.393 199.621 145.131 199.152C145.875 198.683 146.739 198.449 147.724 198.449C148.709 198.449 149.57 198.683 150.309 199.152C151.052 199.621 151.63 200.279 152.042 201.126C152.459 201.974 152.667 202.966 152.667 204.102C152.667 205.229 152.459 206.214 152.042 207.057C151.63 207.9 151.052 208.555 150.309 209.024C149.57 209.493 148.709 209.727 147.724 209.727ZM147.724 208.222C148.472 208.222 149.087 208.03 149.57 207.646C150.053 207.263 150.411 206.759 150.643 206.134C150.875 205.509 150.991 204.831 150.991 204.102C150.991 203.373 150.875 202.694 150.643 202.064C150.411 201.434 150.053 200.925 149.57 200.537C149.087 200.149 148.472 199.955 147.724 199.955C146.976 199.955 146.36 200.149 145.877 200.537C145.394 200.925 145.037 201.434 144.805 202.064C144.573 202.694 144.457 203.373 144.457 204.102C144.457 204.831 144.573 205.509 144.805 206.134C145.037 206.759 145.394 207.263 145.877 207.646C146.36 208.03 146.976 208.222 147.724 208.222ZM162.953 201.034L161.447 201.46C161.352 201.209 161.213 200.965 161.028 200.729C160.848 200.487 160.602 200.288 160.289 200.132C159.977 199.976 159.577 199.898 159.089 199.898C158.422 199.898 157.865 200.052 157.42 200.359C156.98 200.662 156.76 201.048 156.76 201.517C156.76 201.934 156.911 202.263 157.214 202.504C157.517 202.746 157.991 202.947 158.635 203.108L160.254 203.506C161.229 203.742 161.956 204.105 162.434 204.592C162.913 205.075 163.152 205.698 163.152 206.46C163.152 207.085 162.972 207.644 162.612 208.136C162.257 208.629 161.76 209.017 161.12 209.301C160.481 209.585 159.738 209.727 158.89 209.727C157.778 209.727 156.857 209.486 156.127 209.003C155.398 208.52 154.937 207.814 154.743 206.886L156.333 206.489C156.485 207.076 156.771 207.516 157.193 207.81C157.619 208.103 158.175 208.25 158.862 208.25C159.643 208.25 160.263 208.084 160.723 207.753C161.187 207.417 161.419 207.014 161.419 206.545C161.419 206.167 161.286 205.849 161.021 205.594C160.756 205.333 160.349 205.139 159.799 205.011L157.981 204.585C156.982 204.348 156.248 203.982 155.779 203.484C155.315 202.982 155.083 202.355 155.083 201.602C155.083 200.987 155.256 200.442 155.602 199.969C155.952 199.495 156.428 199.124 157.029 198.854C157.636 198.584 158.322 198.449 159.089 198.449C160.169 198.449 161.016 198.686 161.632 199.159C162.252 199.633 162.692 200.258 162.953 201.034ZM168.885 209.756C168.194 209.756 167.566 209.625 167.003 209.365C166.439 209.1 165.992 208.719 165.661 208.222C165.329 207.72 165.163 207.114 165.163 206.403C165.163 205.778 165.286 205.272 165.533 204.884C165.779 204.491 166.108 204.183 166.52 203.96C166.932 203.738 167.386 203.572 167.884 203.463C168.385 203.349 168.89 203.259 169.396 203.193C170.059 203.108 170.597 203.044 171.009 203.001C171.425 202.954 171.728 202.876 171.918 202.767C172.112 202.658 172.209 202.469 172.209 202.199V202.142C172.209 201.441 172.017 200.897 171.634 200.509C171.255 200.12 170.679 199.926 169.908 199.926C169.107 199.926 168.48 200.101 168.026 200.452C167.571 200.802 167.251 201.176 167.067 201.574L165.476 201.006C165.76 200.343 166.139 199.827 166.612 199.457C167.09 199.083 167.611 198.823 168.175 198.676C168.743 198.525 169.302 198.449 169.851 198.449C170.201 198.449 170.604 198.491 171.058 198.577C171.518 198.657 171.96 198.825 172.386 199.081C172.817 199.337 173.175 199.723 173.459 200.239C173.743 200.755 173.885 201.446 173.885 202.312V209.5H172.209V208.023H172.124C172.01 208.259 171.821 208.513 171.555 208.783C171.29 209.053 170.938 209.282 170.497 209.472C170.057 209.661 169.519 209.756 168.885 209.756ZM169.141 208.25C169.804 208.25 170.362 208.12 170.817 207.859C171.276 207.599 171.622 207.263 171.854 206.851C172.09 206.439 172.209 206.006 172.209 205.551V204.017C172.138 204.102 171.982 204.18 171.74 204.251C171.503 204.318 171.229 204.377 170.916 204.429C170.608 204.476 170.308 204.519 170.014 204.557C169.725 204.59 169.491 204.618 169.311 204.642C168.875 204.699 168.468 204.791 168.089 204.919C167.715 205.042 167.412 205.229 167.18 205.48C166.953 205.726 166.839 206.062 166.839 206.489C166.839 207.071 167.055 207.511 167.486 207.81C167.921 208.103 168.473 208.25 169.141 208.25ZM177.172 209.5V194.955H178.848V200.324H178.99C179.113 200.134 179.283 199.893 179.501 199.599C179.724 199.301 180.041 199.036 180.453 198.804C180.869 198.567 181.433 198.449 182.143 198.449C183.062 198.449 183.871 198.679 184.572 199.138C185.273 199.597 185.82 200.248 186.213 201.091C186.606 201.934 186.802 202.928 186.802 204.074C186.802 205.229 186.606 206.231 186.213 207.078C185.82 207.921 185.275 208.574 184.579 209.038C183.883 209.498 183.081 209.727 182.172 209.727C181.471 209.727 180.91 209.611 180.488 209.379C180.067 209.143 179.743 208.875 179.515 208.577C179.288 208.274 179.113 208.023 178.99 207.824H178.791V209.5H177.172ZM178.819 204.045C178.819 204.869 178.94 205.596 179.181 206.226C179.423 206.851 179.776 207.341 180.24 207.696C180.704 208.046 181.272 208.222 181.944 208.222C182.645 208.222 183.23 208.037 183.699 207.668C184.172 207.294 184.527 206.792 184.764 206.162C185.005 205.527 185.126 204.822 185.126 204.045C185.126 203.278 185.008 202.587 184.771 201.972C184.539 201.351 184.186 200.861 183.713 200.501C183.244 200.137 182.654 199.955 181.944 199.955C181.262 199.955 180.69 200.127 180.225 200.473C179.761 200.814 179.411 201.292 179.174 201.908C178.938 202.518 178.819 203.231 178.819 204.045ZM191.042 194.955V209.5H189.366V194.955H191.042ZM198.686 209.727C197.635 209.727 196.728 209.495 195.966 209.031C195.208 208.562 194.624 207.909 194.212 207.071C193.804 206.228 193.601 205.248 193.601 204.131C193.601 203.013 193.804 202.028 194.212 201.176C194.624 200.319 195.196 199.652 195.93 199.173C196.669 198.69 197.531 198.449 198.516 198.449C199.084 198.449 199.645 198.544 200.199 198.733C200.753 198.922 201.257 199.23 201.712 199.656C202.166 200.078 202.528 200.636 202.798 201.332C203.068 202.028 203.203 202.885 203.203 203.903V204.614H194.794V203.165H201.499C201.499 202.549 201.375 202 201.129 201.517C200.888 201.034 200.542 200.653 200.092 200.374C199.647 200.094 199.122 199.955 198.516 199.955C197.848 199.955 197.27 200.12 196.783 200.452C196.3 200.778 195.928 201.205 195.668 201.73C195.407 202.256 195.277 202.819 195.277 203.42V204.386C195.277 205.21 195.419 205.909 195.703 206.482C195.992 207.05 196.392 207.483 196.903 207.781C197.415 208.075 198.009 208.222 198.686 208.222C199.126 208.222 199.524 208.16 199.879 208.037C200.239 207.909 200.549 207.72 200.81 207.469C201.07 207.213 201.271 206.896 201.413 206.517L203.033 206.972C202.862 207.521 202.576 208.004 202.173 208.42C201.771 208.832 201.274 209.154 200.682 209.386C200.09 209.614 199.425 209.727 198.686 209.727ZM206.974 209.614C206.624 209.614 206.323 209.488 206.072 209.237C205.821 208.986 205.696 208.686 205.696 208.335C205.696 207.985 205.821 207.684 206.072 207.433C206.323 207.182 206.624 207.057 206.974 207.057C207.325 207.057 207.625 207.182 207.876 207.433C208.127 207.684 208.253 207.985 208.253 208.335C208.253 208.567 208.194 208.78 208.075 208.974C207.962 209.169 207.808 209.325 207.614 209.443C207.424 209.557 207.211 209.614 206.974 209.614ZM206.974 201.517C206.624 201.517 206.323 201.392 206.072 201.141C205.821 200.89 205.696 200.589 205.696 200.239C205.696 199.888 205.821 199.588 206.072 199.337C206.323 199.086 206.624 198.96 206.974 198.96C207.325 198.96 207.625 199.086 207.876 199.337C208.127 199.588 208.253 199.888 208.253 200.239C208.253 200.471 208.194 200.684 208.075 200.878C207.962 201.072 207.808 201.228 207.614 201.347C207.424 201.46 207.211 201.517 206.974 201.517Z" fill="black"/>
<path d="M352.918 194.955V209.5H350.716V197.156H350.631L347.151 199.429V197.327L350.78 194.955H352.918ZM358.804 207.511L358.697 208.286C358.626 208.854 358.505 209.446 358.335 210.061C358.169 210.681 357.996 211.257 357.816 211.787C357.641 212.317 357.497 212.739 357.383 213.051H355.877C355.939 212.758 356.024 212.36 356.133 211.858C356.242 211.361 356.349 210.804 356.453 210.189C356.557 209.573 356.635 208.946 356.687 208.307L356.758 207.511H358.804ZM366.311 209.741C365.189 209.737 364.23 209.441 363.434 208.854C362.639 208.267 362.03 207.412 361.609 206.29C361.188 205.168 360.977 203.816 360.977 202.234C360.977 200.658 361.188 199.311 361.609 198.193C362.035 197.076 362.646 196.223 363.441 195.636C364.242 195.049 365.198 194.756 366.311 194.756C367.423 194.756 368.377 195.052 369.173 195.643C369.968 196.231 370.577 197.083 370.998 198.2C371.424 199.313 371.637 200.658 371.637 202.234C371.637 203.821 371.427 205.175 371.005 206.297C370.584 207.414 369.975 208.269 369.18 208.861C368.385 209.448 367.428 209.741 366.311 209.741ZM366.311 207.845C367.296 207.845 368.065 207.365 368.619 206.403C369.178 205.442 369.457 204.053 369.457 202.234C369.457 201.027 369.329 200.007 369.074 199.173C368.823 198.335 368.46 197.701 367.987 197.27C367.518 196.834 366.959 196.616 366.311 196.616C365.331 196.616 364.561 197.099 364.002 198.065C363.444 199.031 363.162 200.421 363.157 202.234C363.157 203.446 363.283 204.472 363.534 205.31C363.789 206.143 364.152 206.775 364.62 207.206C365.089 207.632 365.653 207.845 366.311 207.845ZM378.958 209.699C378.068 209.699 377.268 209.528 376.558 209.188C375.852 208.842 375.289 208.368 374.867 207.767C374.446 207.166 374.221 206.479 374.192 205.707H376.323C376.375 206.332 376.652 206.846 377.154 207.249C377.656 207.651 378.257 207.852 378.958 207.852C379.517 207.852 380.012 207.724 380.442 207.469C380.878 207.208 381.219 206.851 381.465 206.396C381.716 205.942 381.842 205.423 381.842 204.841C381.842 204.249 381.714 203.721 381.458 203.257C381.202 202.793 380.85 202.429 380.4 202.163C379.955 201.898 379.443 201.763 378.866 201.759C378.425 201.759 377.983 201.834 377.538 201.986C377.093 202.137 376.733 202.336 376.458 202.582L374.448 202.284L375.265 194.955H383.262V196.837H377.09L376.629 200.906H376.714C376.998 200.632 377.374 200.402 377.843 200.217C378.317 200.033 378.823 199.94 379.363 199.94C380.248 199.94 381.037 200.151 381.728 200.572C382.424 200.994 382.971 201.569 383.369 202.298C383.771 203.023 383.97 203.856 383.965 204.798C383.97 205.741 383.757 206.581 383.326 207.32C382.9 208.058 382.308 208.641 381.55 209.067C380.798 209.488 379.933 209.699 378.958 209.699ZM391.36 209.699C390.47 209.699 389.67 209.528 388.96 209.188C388.254 208.842 387.691 208.368 387.27 207.767C386.848 207.166 386.623 206.479 386.595 205.707H388.725C388.778 206.332 389.055 206.846 389.556 207.249C390.058 207.651 390.66 207.852 391.36 207.852C391.919 207.852 392.414 207.724 392.845 207.469C393.28 207.208 393.621 206.851 393.868 206.396C394.118 205.942 394.244 205.423 394.244 204.841C394.244 204.249 394.116 203.721 393.86 203.257C393.605 202.793 393.252 202.429 392.802 202.163C392.357 201.898 391.846 201.763 391.268 201.759C390.828 201.759 390.385 201.834 389.94 201.986C389.495 202.137 389.135 202.336 388.86 202.582L386.85 202.284L387.667 194.955H395.664V196.837H389.493L389.031 200.906H389.116C389.4 200.632 389.777 200.402 390.245 200.217C390.719 200.033 391.225 199.94 391.765 199.94C392.651 199.94 393.439 200.151 394.13 200.572C394.826 200.994 395.373 201.569 395.771 202.298C396.173 203.023 396.372 203.856 396.368 204.798C396.372 205.741 396.159 206.581 395.728 207.32C395.302 208.058 394.71 208.641 393.953 209.067C393.2 209.488 392.336 209.699 391.36 209.699Z" fill="black"/>
<rect x="410" y="190" width="58" height="25" rx="12.5" fill="#FDDCEB"/>
<path d="M429.315 205.912V204.898L433.79 197.818H434.526V199.389H434.028L430.648 204.739V204.818H436.673V205.912H429.315ZM434.108 208V205.604V205.131V197.818H435.281V208H434.108ZM443.727 206.091V205.554C443.727 205.183 443.803 204.843 443.955 204.535C444.111 204.223 444.337 203.975 444.632 203.789C444.93 203.6 445.291 203.506 445.715 203.506C446.146 203.506 446.508 203.6 446.799 203.789C447.091 203.975 447.311 204.223 447.46 204.535C447.61 204.843 447.684 205.183 447.684 205.554V206.091C447.684 206.462 447.608 206.804 447.455 207.115C447.306 207.423 447.084 207.672 446.789 207.861C446.498 208.046 446.14 208.139 445.715 208.139C445.285 208.139 444.922 208.046 444.627 207.861C444.332 207.672 444.108 207.423 443.955 207.115C443.803 206.804 443.727 206.462 443.727 206.091ZM444.741 205.554V206.091C444.741 206.399 444.814 206.676 444.96 206.921C445.106 207.163 445.357 207.284 445.715 207.284C446.063 207.284 446.309 207.163 446.451 206.921C446.597 206.676 446.67 206.399 446.67 206.091V205.554C446.67 205.246 446.6 204.971 446.461 204.729C446.322 204.483 446.073 204.361 445.715 204.361C445.367 204.361 445.117 204.483 444.965 204.729C444.816 204.971 444.741 205.246 444.741 205.554ZM438.656 200.264V199.727C438.656 199.356 438.732 199.016 438.884 198.708C439.04 198.397 439.266 198.148 439.561 197.962C439.859 197.773 440.22 197.679 440.644 197.679C441.075 197.679 441.436 197.773 441.728 197.962C442.02 198.148 442.24 198.397 442.389 198.708C442.539 199.016 442.613 199.356 442.613 199.727V200.264C442.613 200.635 442.537 200.977 442.384 201.288C442.235 201.597 442.013 201.845 441.718 202.034C441.427 202.22 441.069 202.312 440.644 202.312C440.213 202.312 439.851 202.22 439.556 202.034C439.261 201.845 439.037 201.597 438.884 201.288C438.732 200.977 438.656 200.635 438.656 200.264ZM439.67 199.727V200.264C439.67 200.572 439.743 200.849 439.889 201.094C440.035 201.336 440.286 201.457 440.644 201.457C440.992 201.457 441.238 201.336 441.38 201.094C441.526 200.849 441.599 200.572 441.599 200.264V199.727C441.599 199.419 441.529 199.144 441.39 198.902C441.251 198.657 441.002 198.534 440.644 198.534C440.296 198.534 440.046 198.657 439.894 198.902C439.744 199.144 439.67 199.419 439.67 199.727ZM439.034 208L446.034 197.818H447.167L440.167 208H439.034Z" fill="#E84E92"/>
<rect x="71" y="235" width="179" height="33" rx="5" fill="#8759F2"/>
<path d="M124.119 257V246.818H127.748C128.537 246.818 129.191 246.954 129.712 247.226C130.235 247.498 130.626 247.874 130.885 248.354C131.143 248.832 131.273 249.384 131.273 250.01C131.273 250.633 131.142 251.182 130.88 251.656C130.621 252.126 130.23 252.492 129.707 252.754C129.186 253.016 128.532 253.147 127.743 253.147H124.994V251.825H127.604C128.101 251.825 128.505 251.753 128.817 251.611C129.132 251.468 129.362 251.261 129.508 250.989C129.654 250.718 129.727 250.391 129.727 250.01C129.727 249.625 129.652 249.292 129.503 249.011C129.357 248.729 129.127 248.513 128.812 248.364C128.5 248.212 128.091 248.136 127.584 248.136H125.655V257H124.119ZM129.145 252.406L131.661 257H129.911L127.445 252.406H129.145ZM136.218 257.154C135.466 257.154 134.818 256.993 134.274 256.672C133.734 256.347 133.316 255.891 133.021 255.305C132.73 254.715 132.584 254.024 132.584 253.232C132.584 252.449 132.73 251.76 133.021 251.163C133.316 250.567 133.727 250.101 134.254 249.766C134.785 249.432 135.405 249.264 136.114 249.264C136.545 249.264 136.962 249.335 137.367 249.478C137.771 249.621 138.134 249.844 138.455 250.149C138.777 250.454 139.03 250.85 139.216 251.337C139.402 251.821 139.494 252.41 139.494 253.102V253.629H133.424V252.516H138.038C138.038 252.125 137.958 251.778 137.799 251.477C137.64 251.172 137.416 250.931 137.128 250.756C136.843 250.58 136.508 250.492 136.124 250.492C135.706 250.492 135.342 250.595 135.03 250.8C134.722 251.003 134.483 251.268 134.314 251.596C134.148 251.921 134.066 252.274 134.066 252.655V253.525C134.066 254.035 134.155 254.469 134.334 254.827C134.516 255.185 134.77 255.459 135.095 255.648C135.419 255.833 135.799 255.926 136.233 255.926C136.515 255.926 136.772 255.886 137.004 255.807C137.236 255.724 137.436 255.601 137.605 255.439C137.774 255.277 137.904 255.076 137.993 254.837L139.4 255.091C139.287 255.505 139.085 255.868 138.794 256.18C138.505 256.488 138.142 256.728 137.705 256.901C137.271 257.07 136.775 257.154 136.218 257.154ZM141.144 257V249.364H142.571V250.607H142.665C142.824 250.186 143.084 249.857 143.446 249.622C143.807 249.384 144.239 249.264 144.743 249.264C145.254 249.264 145.681 249.384 146.026 249.622C146.374 249.861 146.631 250.189 146.797 250.607H146.876C147.058 250.199 147.348 249.874 147.746 249.632C148.144 249.387 148.618 249.264 149.168 249.264C149.861 249.264 150.426 249.481 150.863 249.915C151.304 250.35 151.525 251.004 151.525 251.879V257H150.038V252.018C150.038 251.501 149.897 251.127 149.615 250.895C149.334 250.663 148.997 250.547 148.606 250.547C148.122 250.547 147.746 250.696 147.478 250.994C147.209 251.289 147.075 251.669 147.075 252.133V257H145.593V251.924C145.593 251.51 145.464 251.177 145.206 250.925C144.947 250.673 144.611 250.547 144.196 250.547C143.915 250.547 143.654 250.621 143.416 250.771C143.181 250.916 142.99 251.12 142.844 251.382C142.702 251.644 142.63 251.947 142.63 252.292V257H141.144ZM156.733 257.154C156.018 257.154 155.393 256.99 154.859 256.662C154.326 256.334 153.911 255.875 153.616 255.285C153.321 254.695 153.174 254.005 153.174 253.217C153.174 252.424 153.321 251.732 153.616 251.138C153.911 250.545 154.326 250.085 154.859 249.756C155.393 249.428 156.018 249.264 156.733 249.264C157.449 249.264 158.074 249.428 158.608 249.756C159.141 250.085 159.556 250.545 159.851 251.138C160.146 251.732 160.293 252.424 160.293 253.217C160.293 254.005 160.146 254.695 159.851 255.285C159.556 255.875 159.141 256.334 158.608 256.662C158.074 256.99 157.449 257.154 156.733 257.154ZM156.738 255.906C157.202 255.906 157.587 255.784 157.892 255.538C158.197 255.293 158.422 254.967 158.568 254.559C158.717 254.151 158.792 253.702 158.792 253.212C158.792 252.724 158.717 252.277 158.568 251.869C158.422 251.458 158.197 251.129 157.892 250.88C157.587 250.631 157.202 250.507 156.738 250.507C156.271 250.507 155.883 250.631 155.575 250.88C155.27 251.129 155.043 251.458 154.894 251.869C154.748 252.277 154.675 252.724 154.675 253.212C154.675 253.702 154.748 254.151 154.894 254.559C155.043 254.967 155.27 255.293 155.575 255.538C155.883 255.784 156.271 255.906 156.738 255.906ZM168.225 249.364L165.456 257H163.865L161.091 249.364H162.687L164.621 255.24H164.7L166.629 249.364H168.225ZM172.654 257.154C171.901 257.154 171.253 256.993 170.71 256.672C170.17 256.347 169.752 255.891 169.457 255.305C169.165 254.715 169.02 254.024 169.02 253.232C169.02 252.449 169.165 251.76 169.457 251.163C169.752 250.567 170.163 250.101 170.69 249.766C171.22 249.432 171.84 249.264 172.549 249.264C172.98 249.264 173.398 249.335 173.802 249.478C174.207 249.621 174.569 249.844 174.891 250.149C175.212 250.454 175.466 250.85 175.652 251.337C175.837 251.821 175.93 252.41 175.93 253.102V253.629H169.86V252.516H174.473C174.473 252.125 174.394 251.778 174.235 251.477C174.076 251.172 173.852 250.931 173.564 250.756C173.279 250.58 172.944 250.492 172.559 250.492C172.142 250.492 171.777 250.595 171.466 250.8C171.157 251.003 170.919 251.268 170.75 251.596C170.584 251.921 170.501 252.274 170.501 252.655V253.525C170.501 254.035 170.591 254.469 170.77 254.827C170.952 255.185 171.205 255.459 171.53 255.648C171.855 255.833 172.234 255.926 172.669 255.926C172.95 255.926 173.207 255.886 173.439 255.807C173.671 255.724 173.872 255.601 174.041 255.439C174.21 255.277 174.339 255.076 174.429 254.837L175.836 255.091C175.723 255.505 175.521 255.868 175.229 256.18C174.941 256.488 174.578 256.728 174.14 256.901C173.706 257.07 173.211 257.154 172.654 257.154ZM182.264 257H180.633L184.297 246.818H186.072L189.736 257H188.105L185.227 248.668H185.147L182.264 257ZM182.537 253.013H187.827V254.305H182.537V253.013ZM192.574 246.818V257H191.087V246.818H192.574ZM196.06 246.818V257H194.574V246.818H196.06Z" fill="white"/>
</g>
<defs>
<filter id="filter0_d_303_1820" x="0" y="0" width="533" height="323" filterUnits="userSpaceOnUse" color-interpolation-filters="sRGB">
<feFlood flood-opacity="0" result="BackgroundImageFix"/>
<feColorMatrix in="SourceAlpha" type="matrix" values="0 0 0 0 0 0 0 0 0 0 0 0 0 0 0 0 0 0 127 0" result="hardAlpha"/>
<feOffset dx="-4" dy="4"/>
<feGaussianBlur stdDeviation="7.5"/>
<feComposite in2="hardAlpha" operator="out"/>
<feColorMatrix type="matrix" values="0 0 0 0 0 0 0 0 0 0 0 0 0 0 0 0 0 0 0.15 0"/>
<feBlend mode="normal" in2="BackgroundImageFix" result="effect1_dropShadow_303_1820"/>
<feBlend mode="normal" in="SourceGraphic" in2="effect1_dropShadow_303_1820" result="shape"/>
</filter>
</defs>
</svg>
