<svg xmlns="http://www.w3.org/2000/svg" width="533" height="316" fill="none" viewBox="0 0 533 316"><g filter="url(#a)"><rect width="503" height="286" x="19" y="11" fill="#e6fde7" rx="10" shape-rendering="crispEdges"/><rect width="461" height="256" x="40" y="26" fill="#fff" rx="10"/><path fill="#000" d="M88.783 59.74h-2.881a4.4 4.4 0 0 0-.619-1.625 4.6 4.6 0 0 0-1.108-1.191 4.8 4.8 0 0 0-1.468-.739A5.7 5.7 0 0 0 81 55.936q-1.635 0-2.927.822-1.283.821-2.03 2.41-.74 1.587-.74 3.877 0 2.31.74 3.897.747 1.588 2.04 2.4 1.291.813 2.908.813.895 0 1.699-.24a4.9 4.9 0 0 0 1.468-.73q.655-.48 1.108-1.172a4.4 4.4 0 0 0 .637-1.607l2.88.01a7.7 7.7 0 0 1-.895 2.566q-.655 1.164-1.69 2.013a7.6 7.6 0 0 1-2.345 1.302q-1.32.462-2.88.462-2.456 0-4.377-1.164-1.92-1.173-3.028-3.351-1.1-2.18-1.099-5.199 0-3.028 1.108-5.198 1.108-2.178 3.028-3.342 1.92-1.173 4.368-1.173 1.505 0 2.806.434a7.4 7.4 0 0 1 2.355 1.256 6.9 6.9 0 0 1 1.726 2.013q.684 1.182.924 2.705m9.166 13.046q-1.995 0-3.481-.914-1.486-.915-2.308-2.557-.822-1.644-.822-3.841 0-2.207.822-3.86.821-1.652 2.308-2.566 1.486-.915 3.48-.915 1.995 0 3.482.915 1.486.914 2.308 2.566.822 1.653.821 3.86 0 2.198-.821 3.84-.822 1.644-2.308 2.558-1.487.915-3.481.914m.009-2.317q1.293 0 2.142-.683.85-.684 1.256-1.82.415-1.134.415-2.501 0-1.358-.415-2.493-.407-1.145-1.256-1.838-.849-.692-2.142-.692-1.302 0-2.16.692-.85.693-1.266 1.838-.405 1.136-.406 2.492 0 1.368.406 2.503.417 1.135 1.265 1.819.86.683 2.16.683m9.683 2.031V58.318h2.65v2.308h.175q.444-1.171 1.45-1.828 1.006-.665 2.41-.665 1.422 0 2.382.665.969.666 1.431 1.828h.148a4 4 0 0 1 1.615-1.81q1.108-.683 2.641-.683 1.93 0 3.148 1.21 1.228 1.21 1.228 3.647v9.51h-2.76v-9.251q0-1.44-.785-2.087-.785-.645-1.874-.646-1.349 0-2.096.83-.748.822-.748 2.115V72.5h-2.752v-9.427q0-1.154-.72-1.856t-1.874-.701q-.784 0-1.45.415a3.04 3.04 0 0 0-1.061 1.136q-.397.73-.397 1.69V72.5zm22.978 5.318v-19.5h2.697v2.3h.23q.24-.444.693-1.026.452-.581 1.255-1.015.804-.444 2.124-.444 1.718 0 3.065.868 1.349.868 2.115 2.503.775 1.633.775 3.933t-.766 3.942q-.767 1.635-2.105 2.52-1.339.879-3.056.878-1.293 0-2.115-.434-.812-.434-1.274-1.016a8 8 0 0 1-.711-1.034h-.166v7.525zm2.706-12.409q0 1.495.434 2.622t1.255 1.764q.822.627 2.013.628 1.237 0 2.068-.656.831-.665 1.256-1.8.434-1.136.434-2.558 0-1.404-.425-2.52-.415-1.117-1.255-1.764-.831-.645-2.078-.646-1.2 0-2.031.618-.821.619-1.247 1.727-.424 1.108-.424 2.585m16.102-11.818V72.5h-2.761V53.59zm3.714 18.909V58.318h2.761V72.5zm1.394-16.37q-.72 0-1.237-.48a1.56 1.56 0 0 1-.508-1.163q0-.684.508-1.164.517-.49 1.237-.49t1.228.49q.517.48.517 1.163 0 .675-.517 1.164-.507.48-1.228.48m9.208 16.684q-1.348 0-2.438-.499a4.1 4.1 0 0 1-1.726-1.468q-.628-.96-.628-2.354 0-1.2.461-1.976a3.4 3.4 0 0 1 1.247-1.228 6.5 6.5 0 0 1 1.754-.683 17 17 0 0 1 1.976-.351l2.068-.24q.794-.102 1.154-.323t.36-.72v-.065q0-1.21-.683-1.874-.673-.666-2.013-.665-1.394 0-2.197.618-.794.61-1.099 1.358l-2.594-.591q.462-1.293 1.348-2.087a5.5 5.5 0 0 1 2.059-1.163 8 8 0 0 1 2.446-.37q.85 0 1.801.204.96.193 1.791.72.84.525 1.376 1.505.535.969.535 2.52V72.5h-2.696v-1.939h-.111a3.9 3.9 0 0 1-.803 1.053q-.535.516-1.375.858-.842.342-2.013.342m.6-2.216q1.145 0 1.957-.452.822-.453 1.247-1.182a3.07 3.07 0 0 0 .434-1.58v-1.827q-.149.147-.573.277a9 9 0 0 1-.951.212q-.536.084-1.043.157l-.85.11a7 7 0 0 0-1.468.343q-.655.24-1.052.692-.388.444-.388 1.182 0 1.024.757 1.551.757.517 1.93.517m12.836-6.519V72.5h-2.761V58.318h2.65v2.308h.176a4.05 4.05 0 0 1 1.532-1.81q1.053-.683 2.65-.683 1.45 0 2.539.61 1.09.6 1.69 1.791t.6 2.945V72.5h-2.761v-8.688q0-1.542-.803-2.41-.803-.877-2.207-.877-.96 0-1.708.415a3 3 0 0 0-1.172 1.22q-.425.793-.425 1.92m18.752 8.707q-2.059 0-3.545-.932-1.477-.942-2.272-2.595t-.794-3.785q0-2.16.813-3.814.812-1.66 2.29-2.594t3.48-.933q1.617 0 2.881.6a5.17 5.17 0 0 1 2.041 1.663q.785 1.071.932 2.502h-2.687a3.2 3.2 0 0 0-1.015-1.718q-.786-.72-2.105-.72-1.155 0-2.022.61-.86.6-1.339 1.717-.48 1.108-.48 2.622 0 1.551.471 2.678.47 1.125 1.329 1.745.868.618 2.041.618.785 0 1.421-.286a2.9 2.9 0 0 0 1.081-.84q.442-.544.618-1.311h2.687a5.2 5.2 0 0 1-.895 2.456q-.749 1.08-2.004 1.699-1.247.618-2.927.618m14.891 0q-2.096 0-3.611-.895-1.504-.906-2.326-2.54-.813-1.643-.813-3.85 0-2.179.813-3.84.822-1.662 2.29-2.595 1.476-.933 3.453-.933 1.2 0 2.326.398 1.127.397 2.022 1.246.896.85 1.413 2.207.517 1.347.517 3.277v.98h-11.273v-2.07h8.568q0-1.089-.443-1.929a3.35 3.35 0 0 0-1.247-1.339q-.794-.489-1.865-.489-1.163 0-2.031.572a3.84 3.84 0 0 0-1.33 1.478 4.3 4.3 0 0 0-.461 1.966v1.616q0 1.421.498 2.42.508.996 1.413 1.523.905.516 2.114.517.785 0 1.431-.222a3.1 3.1 0 0 0 1.118-.683q.47-.453.72-1.117l2.613.47a4.74 4.74 0 0 1-1.127 2.023q-.802.858-2.022 1.338-1.209.471-2.76.471m22.371-.286h-6.121V53.59h6.315q2.78 0 4.773 1.137 1.995 1.125 3.056 3.24 1.071 2.106 1.071 5.05 0 2.955-1.08 5.079-1.071 2.124-3.102 3.268-2.032 1.136-4.912 1.136m-3.268-2.493h3.111q2.16 0 3.592-.812 1.431-.823 2.142-2.373.711-1.56.711-3.804 0-2.225-.711-3.776-.702-1.553-2.096-2.355-1.395-.803-3.463-.803h-3.286zm19.816 2.807q-1.348 0-2.438-.499a4.1 4.1 0 0 1-1.726-1.468q-.628-.96-.628-2.354 0-1.2.462-1.976a3.4 3.4 0 0 1 1.246-1.228 6.5 6.5 0 0 1 1.754-.683 18 18 0 0 1 1.976-.351l2.068-.24q.794-.102 1.154-.323t.36-.72v-.065q0-1.21-.683-1.874-.673-.666-2.013-.665-1.393 0-2.197.618-.794.61-1.099 1.358l-2.594-.591q.462-1.293 1.348-2.087a5.5 5.5 0 0 1 2.059-1.163 8 8 0 0 1 2.447-.37q.849 0 1.8.204.96.193 1.791.72.84.525 1.376 1.505.535.969.535 2.52V72.5h-2.696v-1.939h-.11a4 4 0 0 1-.804 1.053q-.535.516-1.375.858-.841.342-2.013.342m.6-2.216q1.145 0 1.957-.452.822-.453 1.247-1.182a3.07 3.07 0 0 0 .434-1.58v-1.827q-.148.147-.573.277a9 9 0 0 1-.951.212q-.536.084-1.043.157l-.85.11a7 7 0 0 0-1.468.343q-.655.24-1.052.692-.388.444-.388 1.182 0 1.024.757 1.551.757.517 1.93.517m20.703-8.817-2.503.443a3 3 0 0 0-.498-.914 2.5 2.5 0 0 0-.905-.711q-.573-.277-1.431-.277-1.173 0-1.958.526-.784.517-.784 1.339 0 .71.526 1.145.526.434 1.699.71l2.253.518q1.957.452 2.917 1.394t.96 2.447a3.72 3.72 0 0 1-.738 2.27q-.73.989-2.041 1.552-1.302.564-3.019.563-2.382 0-3.887-1.015-1.505-1.025-1.846-2.909l2.668-.406q.25 1.043 1.025 1.579.776.525 2.022.526 1.357 0 2.169-.563.813-.573.813-1.394 0-.666-.499-1.117-.489-.453-1.505-.684l-2.4-.526q-1.986-.453-2.936-1.44-.942-.988-.942-2.503 0-1.256.702-2.197t1.939-1.468q1.236-.535 2.834-.535 2.3 0 3.619.997 1.32.988 1.746 2.65m6.072 2.298V72.5h-2.76V53.59h2.724v7.036h.175q.498-1.145 1.523-1.819 1.026-.674 2.678-.674 1.46 0 2.548.6 1.1.6 1.699 1.792.609 1.182.609 2.954V72.5h-2.76v-8.688q0-1.56-.803-2.42-.804-.867-2.235-.867-.978 0-1.754.415a3 3 0 0 0-1.21 1.22q-.434.793-.434 1.92m13.102 8.421V53.59h2.761v7.027h.166a8 8 0 0 1 .692-1.025q.453-.581 1.256-1.015.803-.444 2.124-.444 1.717 0 3.065.868t2.114 2.503q.776 1.633.776 3.933t-.766 3.942q-.767 1.635-2.106 2.52-1.338.879-3.056.878-1.292 0-2.114-.434-.812-.434-1.274-1.016a8 8 0 0 1-.711-1.034h-.231V72.5zm2.705-7.09q0 1.494.434 2.621.435 1.127 1.256 1.764.822.627 2.013.628 1.237 0 2.068-.656.83-.665 1.256-1.8.434-1.136.434-2.558 0-1.404-.425-2.52-.416-1.117-1.256-1.764-.83-.645-2.077-.646-1.2 0-2.032.618-.821.619-1.246 1.727t-.425 2.585m19.323 7.376q-1.995 0-3.481-.914-1.487-.915-2.309-2.557-.82-1.644-.821-3.841 0-2.207.821-3.86.822-1.652 2.309-2.566 1.486-.915 3.481-.915 1.993 0 3.48.915 1.487.914 2.309 2.566.82 1.653.821 3.86 0 2.198-.821 3.84-.822 1.644-2.309 2.558-1.486.915-3.48.914m.009-2.317q1.293 0 2.142-.683.85-.684 1.256-1.82.415-1.134.415-2.501 0-1.358-.415-2.493-.407-1.145-1.256-1.838-.849-.692-2.142-.692-1.302 0-2.161.692-.85.693-1.265 1.838-.405 1.136-.406 2.492 0 1.368.406 2.503.416 1.135 1.265 1.819.86.683 2.161.683m13.81 2.345q-1.348 0-2.438-.499a4.1 4.1 0 0 1-1.726-1.468q-.628-.96-.628-2.354 0-1.2.462-1.976a3.4 3.4 0 0 1 1.246-1.228 6.5 6.5 0 0 1 1.754-.683 18 18 0 0 1 1.976-.351l2.068-.24q.795-.102 1.155-.323t.36-.72v-.065q0-1.21-.684-1.874-.674-.666-2.012-.665-1.394 0-2.198.618-.793.61-1.099 1.358l-2.594-.591q.462-1.293 1.348-2.087a5.5 5.5 0 0 1 2.059-1.163 8 8 0 0 1 2.447-.37q.849 0 1.8.204.96.193 1.791.72.84.525 1.376 1.505.536.969.536 2.52V72.5h-2.696v-1.939h-.111a4 4 0 0 1-.804 1.053q-.535.516-1.375.858t-2.013.342m.6-2.216q1.145 0 1.958-.452.821-.453 1.246-1.182a3.07 3.07 0 0 0 .434-1.58v-1.827q-.148.147-.573.277a9 9 0 0 1-.951.212q-.535.084-1.043.157l-.849.11a7 7 0 0 0-1.468.343q-.656.24-1.053.692-.387.444-.388 1.182 0 1.024.757 1.551.757.517 1.93.517m10.076 1.902V58.318h2.668v2.253h.148a3.43 3.43 0 0 1 1.366-1.8 3.9 3.9 0 0 1 2.234-.665 12 12 0 0 1 1.173.064v2.641a5 5 0 0 0-.591-.102 6 6 0 0 0-.849-.064q-.979 0-1.745.415a3.1 3.1 0 0 0-1.201 1.136q-.443.72-.443 1.644v8.66zm14.779.277q-1.717 0-3.065-.877-1.339-.886-2.105-2.52-.757-1.644-.757-3.943t.766-3.933q.776-1.635 2.124-2.503 1.347-.867 3.056-.867 1.32 0 2.123.443.813.434 1.256 1.015.452.582.702 1.025h.166v-7.026h2.761V72.5h-2.697v-2.207h-.23a7.5 7.5 0 0 1-.72 1.034q-.462.582-1.275 1.016t-2.105.434m.61-2.354q1.191 0 2.012-.628.831-.638 1.256-1.764.434-1.126.434-2.622 0-1.478-.425-2.585-.424-1.108-1.246-1.727-.822-.618-2.031-.618-1.247 0-2.078.646t-1.255 1.764q-.416 1.116-.416 2.52 0 1.421.425 2.558.424 1.136 1.255 1.8.841.656 2.069.656"/><g clip-path="url(#b)"><path fill="#5dcb61" fill-rule="evenodd" d="m460.393 57.43-6.932 12.01a.9.9 0 0 1-.248.4 1 1 0 0 1-1.413-.04l-4.572-4.22a.995.995 0 0 1 .046-1.41 1 1 0 0 1 1.414.04l3.578 3.3 6.395-11.08c.276-.47.887-.64 1.366-.36.478.27.642.89.366 1.36M466 47h-24a4 4 0 0 0-4 4v24a4 4 0 0 0 4 4h24a4 4 0 0 0 4-4V51a4 4 0 0 0-4-4" clip-rule="evenodd"/></g><path fill="#f6fef6" d="M71 91h397v36H71z"/><g clip-path="url(#c)"><path fill="#039708" fill-rule="evenodd" d="m95.596 105.867-3.9 6.755a.5.5 0 0 1-.139.225.56.56 0 0 1-.794-.022l-2.572-2.374a.563.563 0 0 1 .821-.77l2.013 1.856 3.597-6.233a.563.563 0 0 1 .974.563M98.75 100h-13.5a2.25 2.25 0 0 0-2.25 2.25v13.5a2.25 2.25 0 0 0 2.25 2.25h13.5a2.25 2.25 0 0 0 2.25-2.25v-13.5a2.25 2.25 0 0 0-2.25-2.25" clip-rule="evenodd"/></g><path fill="#000" d="M122.25 116h-4.489v-14.545h4.688q2.116 0 3.622.873 1.506.867 2.308 2.493.803 1.62.803 3.878 0 2.272-.81 3.913a5.77 5.77 0 0 1-2.358 2.514q-1.548.874-3.764.874m-2.727-1.562h2.613q1.805 0 2.99-.697a4.3 4.3 0 0 0 1.769-1.981q.582-1.285.582-3.061 0-1.761-.575-3.033-.575-1.278-1.719-1.96-1.143-.689-2.848-.689h-2.812zm15.596 1.818a4.4 4.4 0 0 1-1.882-.391 3.23 3.23 0 0 1-1.342-1.143q-.498-.753-.497-1.819 0-.937.369-1.519a2.6 2.6 0 0 1 .987-.924 5.2 5.2 0 0 1 1.364-.497 16 16 0 0 1 1.513-.27q.994-.127 1.612-.192.626-.07.909-.234.291-.163.291-.568v-.057q0-1.051-.575-1.633-.568-.583-1.726-.583-1.2 0-1.882.526-.682.525-.959 1.122l-1.591-.568q.426-.994 1.137-1.549a4.3 4.3 0 0 1 1.562-.781 6.5 6.5 0 0 1 1.676-.227q.526 0 1.208.128.689.12 1.328.504.646.384 1.072 1.158t.426 2.073V116h-1.676v-1.477h-.085q-.17.355-.568.76-.398.404-1.058.689-.661.284-1.613.284m.256-1.506q.995 0 1.676-.391.689-.39 1.037-1.008.355-.618.355-1.3v-1.534q-.106.127-.469.234a8 8 0 0 1-.823.178q-.462.07-.902.128-.434.05-.704.085a6.4 6.4 0 0 0-1.221.277q-.561.184-.909.561-.34.369-.341 1.009 0 .873.646 1.321.654.44 1.655.44m12.548-9.659v1.42h-5.653v-1.42zm-4.006-2.614h1.676v10.398q0 .71.206 1.065.213.348.54.469.334.114.703.114.277 0 .455-.029l.284-.056.341 1.505a3.4 3.4 0 0 1-.476.128 3.5 3.5 0 0 1-.774.071q-.711 0-1.392-.305a2.76 2.76 0 0 1-1.122-.931q-.441-.624-.441-1.576zm9.737 13.779a4.4 4.4 0 0 1-1.882-.391 3.23 3.23 0 0 1-1.342-1.143q-.497-.753-.497-1.819 0-.937.369-1.519a2.6 2.6 0 0 1 .987-.924 5.2 5.2 0 0 1 1.364-.497 16 16 0 0 1 1.513-.27q.994-.127 1.612-.192.626-.07.909-.234.291-.163.291-.568v-.057q0-1.051-.575-1.633-.568-.583-1.726-.583-1.2 0-1.882.526-.681.525-.959 1.122l-1.591-.568q.426-.994 1.137-1.549a4.3 4.3 0 0 1 1.562-.781 6.5 6.5 0 0 1 1.676-.227q.526 0 1.208.128.689.12 1.328.504.646.384 1.072 1.158t.426 2.073V116h-1.676v-1.477h-.085q-.17.355-.568.76-.398.404-1.058.689-.661.284-1.613.284m.256-1.506q.995 0 1.676-.391.69-.39 1.037-1.008.355-.618.355-1.3v-1.534q-.106.127-.468.234a8 8 0 0 1-.824.178q-.462.07-.902.128-.433.05-.703.085a6.4 6.4 0 0 0-1.222.277q-.561.184-.909.561-.34.369-.341 1.009 0 .873.646 1.321.654.44 1.655.44m13.656 1.25v-14.545h8.778v1.562h-7.017v4.915h6.563v1.562h-6.563v4.944h7.131V116zm13.402-6.562V116h-1.676v-10.909h1.619v1.704h.142a3.1 3.1 0 0 1 1.165-1.335q.781-.511 2.017-.511 1.108 0 1.939.454.831.448 1.293 1.364.46.909.461 2.301V116h-1.676v-6.818q0-1.286-.667-2.003-.668-.724-1.833-.724-.802 0-1.435.348-.624.348-.987 1.015-.362.668-.362 1.62m14.455 6.789q-1.534 0-2.642-.724t-1.705-1.996q-.596-1.271-.596-2.905 0-1.662.611-2.933.617-1.278 1.718-1.996 1.109-.724 2.586-.724 1.15 0 2.073.426a4 4 0 0 1 1.513 1.193q.59.768.732 1.79h-1.676q-.192-.746-.853-1.321-.653-.582-1.761-.582-.98 0-1.719.511-.731.504-1.143 1.427-.405.917-.405 2.152 0 1.264.398 2.202.405.937 1.136 1.456.738.519 1.733.519.654 0 1.186-.228a2.44 2.44 0 0 0 .902-.653q.369-.426.526-1.023h1.676a3.9 3.9 0 0 1-.703 1.74 3.9 3.9 0 0 1-1.471 1.222q-.909.447-2.116.447m6.74-.227v-10.909h1.619v1.648h.114q.299-.81 1.079-1.314a3.2 3.2 0 0 1 1.762-.505q.184 0 .462.008.276.006.419.021v1.704a5 5 0 0 0-.391-.064 4 4 0 0 0-.632-.049q-.795 0-1.421.334a2.5 2.5 0 0 0-.98.909 2.45 2.45 0 0 0-.355 1.314V116zm8.853 4.091a3.7 3.7 0 0 1-.76-.071 2 2 0 0 1-.462-.128l.427-1.477q.61.156 1.079.113a1.3 1.3 0 0 0 .831-.419q.369-.369.675-1.2l.312-.852-4.034-10.966h1.818l3.012 8.693h.113l3.012-8.693h1.818l-4.631 12.5q-.312.845-.774 1.399a2.9 2.9 0 0 1-1.072.831q-.604.27-1.364.27m10.053 0v-15h1.62v1.733h.198q.185-.285.512-.725.334-.447.951-.795.626-.355 1.691-.355 1.377 0 2.429.689t1.64 1.953q.59 1.264.59 2.983 0 1.733-.59 3.004-.59 1.264-1.633 1.96-1.044.69-2.408.689-1.051 0-1.683-.348-.632-.355-.973-.802a11 11 0 0 1-.526-.753h-.142v5.767zm1.648-9.546q0 1.236.362 2.181.362.938 1.058 1.47.697.525 1.705.526 1.051 0 1.754-.554.71-.561 1.066-1.506.362-.952.362-2.117 0-1.15-.355-2.073-.348-.931-1.059-1.471-.702-.546-1.768-.546-1.023 0-1.719.518-.696.511-1.051 1.435-.355.915-.355 2.137m15.284-5.454v1.42h-5.653v-1.42zm-4.006-2.614h1.677v10.398q0 .71.205 1.065.214.348.54.469.334.114.703.114.278 0 .455-.029l.284-.056.341 1.505a3.4 3.4 0 0 1-.476.128 3.5 3.5 0 0 1-.774.071q-.711 0-1.392-.305a2.76 2.76 0 0 1-1.122-.931q-.441-.624-.441-1.576zM240.522 116v-10.909h1.677V116zm.853-12.727q-.49 0-.846-.334a1.07 1.07 0 0 1-.348-.803q0-.469.348-.802.356-.334.846-.334t.838.334q.355.333.355.802t-.355.803a1.17 1.17 0 0 1-.838.334m8.325 12.954q-1.477 0-2.592-.703-1.108-.703-1.733-1.967-.618-1.265-.618-2.955 0-1.704.618-2.976.625-1.27 1.733-1.974 1.114-.703 2.592-.703t2.586.703q1.115.704 1.732 1.974.625 1.272.625 2.976 0 1.69-.625 2.955-.617 1.264-1.732 1.967-1.108.703-2.586.703m0-1.505q1.122 0 1.847-.576.724-.575 1.072-1.512a5.8 5.8 0 0 0 .348-2.032 5.9 5.9 0 0 0-.348-2.038q-.348-.945-1.072-1.527t-1.847-.582q-1.122 0-1.846.582a3.43 3.43 0 0 0-1.073 1.527 5.9 5.9 0 0 0-.348 2.038q0 1.094.348 2.032t1.073 1.512q.724.576 1.846.576m9.178-5.284V116h-1.676v-10.909h1.619v1.704h.142a3.1 3.1 0 0 1 1.165-1.335q.781-.511 2.017-.511 1.108 0 1.939.454.831.448 1.293 1.364.462.909.461 2.301V116h-1.676v-6.818q0-1.286-.667-2.003-.668-.724-1.833-.724-.803 0-1.434.348-.625.348-.988 1.015-.362.668-.362 1.62m11.245 6.676a1.23 1.23 0 0 1-.902-.377 1.23 1.23 0 0 1-.377-.902q0-.525.377-.902.376-.376.902-.376.525 0 .902.376.376.377.376.902 0 .348-.177.639a1.3 1.3 0 0 1-.462.469 1.2 1.2 0 0 1-.639.171m0-8.097q-.526 0-.902-.376a1.23 1.23 0 0 1-.377-.902q0-.526.377-.902a1.23 1.23 0 0 1 .902-.377q.525 0 .902.377.376.376.376.902 0 .348-.177.639-.171.29-.462.469-.284.17-.639.17M280.858 116h-1.847l5.341-14.545h1.818L291.511 116h-1.846l-4.347-12.244h-.113zm.682-5.682h7.443v1.563h-7.443zM293.777 116v-14.545h8.778v1.562h-7.017v4.915h6.563v1.562h-6.563v4.944h7.131V116zm19.908-10.909a2.23 2.23 0 0 0-1.037-1.676q-.91-.597-2.23-.597-.966 0-1.691.313-.717.312-1.122.859a2.06 2.06 0 0 0-.398 1.243q0 .582.277 1.001.284.413.725.689.44.27.923.448.483.17.888.277l1.477.397q.568.15 1.264.412.704.264 1.343.718a3.65 3.65 0 0 1 1.065 1.15q.419.703.419 1.726a3.83 3.83 0 0 1-.618 2.131q-.61.951-1.79 1.513-1.171.561-2.848.561-1.561 0-2.706-.505-1.136-.504-1.789-1.406-.647-.902-.732-2.095h1.818q.072.824.554 1.364.49.532 1.236.795a5 5 0 0 0 1.619.256q1.009 0 1.811-.327.803-.333 1.272-.923.469-.597.469-1.392 0-.725-.405-1.179t-1.066-.739-1.427-.497l-1.79-.511q-1.704-.49-2.699-1.4t-.994-2.379q0-1.221.66-2.13.668-.917 1.79-1.421 1.13-.511 2.521-.511 1.407 0 2.5.504 1.095.497 1.733 1.364.647.866.682 1.967zm10.822 2.855v1.563h-6.364v-1.563zm2.237 8.054v-1.278l4.801-5.256a33 33 0 0 0 1.392-1.605q.548-.688.81-1.293.27-.61.27-1.278 0-.767-.37-1.328a2.4 2.4 0 0 0-.994-.867 3.2 3.2 0 0 0-1.42-.305q-.839 0-1.463.348a2.4 2.4 0 0 0-.959.959q-.334.618-.334 1.448h-1.676q0-1.278.589-2.244a4.1 4.1 0 0 1 1.605-1.506q1.023-.539 2.294-.539 1.28 0 2.266.539.987.54 1.548 1.456a3.83 3.83 0 0 1 .561 2.039q0 .802-.291 1.569-.284.76-.994 1.698-.704.93-1.953 2.273l-3.267 3.494v.114h6.761V116zm16.655.199q-1.25 0-2.252-.497a4.2 4.2 0 0 1-1.605-1.364 3.7 3.7 0 0 1-.66-1.974h1.704q.1.987.895 1.633.802.639 1.918.639.894 0 1.591-.419a2.97 2.97 0 0 0 1.101-1.15 3.4 3.4 0 0 0 .404-1.669q0-.952-.419-1.698a3.07 3.07 0 0 0-1.136-1.186q-.725-.433-1.655-.44a4.5 4.5 0 0 0-1.371.206q-.702.206-1.157.532l-1.648-.198.881-7.159h7.557v1.562h-6.08l-.511 4.29h.085a3.8 3.8 0 0 1 1.122-.59q.675-.234 1.406-.234 1.335 0 2.38.639 1.05.632 1.647 1.733.604 1.101.604 2.514 0 1.392-.625 2.486a4.57 4.57 0 0 1-1.705 1.719q-1.086.625-2.471.625m12.452 0a5.5 5.5 0 0 1-1.79-.341q-.895-.327-1.633-1.101-.739-.782-1.187-2.109-.447-1.335-.447-3.353 0-1.931.362-3.423.363-1.498 1.051-2.521.69-1.03 1.662-1.563.98-.532 2.209-.532 1.222 0 2.173.49a4.15 4.15 0 0 1 1.563 1.349q.603.867.781 1.996h-1.733a3.2 3.2 0 0 0-.937-1.627q-.696-.645-1.847-.646-1.69 0-2.663 1.47-.966 1.47-.973 4.127h.113a4.27 4.27 0 0 1 2.167-1.698 4.2 4.2 0 0 1 1.413-.234q1.25 0 2.287.625a4.6 4.6 0 0 1 1.662 1.712q.624 1.086.625 2.492 0 1.35-.604 2.472a4.6 4.6 0 0 1-1.697 1.776q-1.087.653-2.557.639m0-1.563q.894 0 1.605-.447a3.2 3.2 0 0 0 1.129-1.2q.42-.753.419-1.677 0-.902-.405-1.64a3.1 3.1 0 0 0-1.1-1.186 2.9 2.9 0 0 0-1.591-.441q-.675 0-1.257.27-.584.264-1.023.725a3.5 3.5 0 0 0-.682 1.058 3.2 3.2 0 0 0-.249 1.243 3.36 3.36 0 0 0 1.527 2.834 2.95 2.95 0 0 0 1.627.461"/><path fill="#f6fef6" d="M71 139h397v36H71z"/><g clip-path="url(#d)"><path fill="#039708" fill-rule="evenodd" d="m95.596 153.867-3.9 6.755a.5.5 0 0 1-.139.225.56.56 0 0 1-.794-.022l-2.572-2.374a.563.563 0 0 1 .821-.77l2.013 1.856 3.597-6.233a.563.563 0 0 1 .974.563M98.75 148h-13.5a2.25 2.25 0 0 0-2.25 2.25v13.5a2.25 2.25 0 0 0 2.25 2.25h13.5a2.25 2.25 0 0 0 2.25-2.25v-13.5a2.25 2.25 0 0 0-2.25-2.25" clip-rule="evenodd"/></g><path fill="#000" d="M117.761 164v-14.545h4.915q1.712 0 2.798.617 1.094.611 1.62 1.655.525 1.044.525 2.33t-.525 2.336q-.519 1.052-1.605 1.677-1.088.618-2.784.618h-3.523v-1.563h3.466q1.171 0 1.882-.405.71-.404 1.03-1.094a3.7 3.7 0 0 0 .326-1.569q0-.874-.326-1.563a2.33 2.33 0 0 0-1.037-1.079q-.717-.398-1.904-.398h-3.096V164zm12.468 0v-10.909h1.62v1.648h.113q.298-.81 1.08-1.314a3.2 3.2 0 0 1 1.761-.505q.184 0 .462.008.277.006.419.021v1.704a5 5 0 0 0-.391-.064 4 4 0 0 0-.632-.049 2.96 2.96 0 0 0-1.42.334q-.618.326-.98.909a2.44 2.44 0 0 0-.355 1.314V164zm7.442 0v-10.909h1.676V164zm.852-12.727q-.49 0-.845-.334a1.07 1.07 0 0 1-.348-.803q0-.469.348-.802a1.2 1.2 0 0 1 .845-.334q.49 0 .838.334.355.334.355.802t-.355.803a1.17 1.17 0 0 1-.838.334m12.814 1.818L147.303 164h-1.704l-4.034-10.909h1.818l3.011 8.693h.114l3.011-8.693zm5.091 11.165a4.4 4.4 0 0 1-1.882-.391 3.23 3.23 0 0 1-1.343-1.143q-.497-.753-.497-1.819 0-.937.37-1.519a2.6 2.6 0 0 1 .987-.924 5.2 5.2 0 0 1 1.363-.497 16 16 0 0 1 1.513-.27 73 73 0 0 1 1.612-.192q.625-.07.91-.234.291-.163.291-.568v-.057q0-1.051-.576-1.633-.568-.583-1.725-.583-1.201 0-1.882.526-.683.525-.959 1.122l-1.591-.568q.426-.994 1.136-1.549a4.3 4.3 0 0 1 1.563-.781 6.5 6.5 0 0 1 1.676-.227q.525 0 1.207.128.689.12 1.328.504.647.384 1.073 1.158t.426 2.073V164h-1.676v-1.477h-.085q-.17.354-.569.76-.398.405-1.058.689t-1.612.284m.256-1.506q.993 0 1.676-.391.689-.39 1.037-1.008.355-.618.355-1.3v-1.534q-.106.127-.469.234a8 8 0 0 1-.824.178q-.462.07-.902.128-.433.05-.703.085a6.4 6.4 0 0 0-1.222.277q-.561.184-.909.561-.34.369-.341 1.009 0 .873.647 1.321.653.44 1.655.44m12.235 1.477q-1.534 0-2.642-.724t-1.705-1.996-.596-2.905q0-1.662.611-2.933.618-1.278 1.718-1.996 1.108-.724 2.586-.724 1.15 0 2.073.426a4 4 0 0 1 1.513 1.193q.59.768.732 1.79h-1.676q-.192-.746-.853-1.321-.652-.582-1.761-.582-.98 0-1.719.511-.731.504-1.143 1.427-.405.917-.405 2.152 0 1.264.398 2.202.404.937 1.136 1.456.739.519 1.733.519.654 0 1.186-.228a2.44 2.44 0 0 0 .902-.653q.37-.426.526-1.023h1.676a3.9 3.9 0 0 1-.703 1.74q-.555.768-1.47 1.222-.91.447-2.117.447m7.82 3.864q-.427 0-.76-.071a2 2 0 0 1-.462-.128l.426-1.477q.61.156 1.08.113.468-.042.831-.419.37-.369.674-1.2l.313-.852-4.034-10.966h1.818l3.011 8.693h.114l3.011-8.693h1.819l-4.631 12.5q-.313.845-.774 1.399a2.9 2.9 0 0 1-1.073.831q-.603.27-1.363.27M192.644 164v-14.545h4.915q1.712 0 2.798.617 1.094.611 1.62 1.655.525 1.044.525 2.33t-.525 2.336q-.519 1.052-1.606 1.677-1.086.618-2.784.618h-3.522v-1.563h3.466q1.171 0 1.882-.405.71-.404 1.029-1.094.327-.696.327-1.569 0-.874-.327-1.563a2.33 2.33 0 0 0-1.036-1.079q-.718-.398-1.904-.398h-3.096V164zm16.783.227q-1.477 0-2.592-.703-1.109-.703-1.733-1.967-.618-1.264-.618-2.955 0-1.704.618-2.976.624-1.27 1.733-1.974 1.114-.703 2.592-.703t2.585.703q1.115.704 1.733 1.974.625 1.272.625 2.976 0 1.69-.625 2.955-.618 1.264-1.733 1.967-1.108.703-2.585.703m0-1.505q1.122 0 1.846-.576a3.4 3.4 0 0 0 1.073-1.512 5.8 5.8 0 0 0 .348-2.032 5.9 5.9 0 0 0-.348-2.038 3.43 3.43 0 0 0-1.073-1.527q-.724-.582-1.846-.582t-1.847.582-1.072 1.527a5.9 5.9 0 0 0-.348 2.038q0 1.094.348 2.032t1.072 1.512q.725.576 1.847.576m9.178-13.267V164h-1.676v-14.545zm3.07 14.545v-10.909h1.676V164zm.852-12.727q-.49 0-.845-.334a1.07 1.07 0 0 1-.348-.803q0-.469.348-.802a1.2 1.2 0 0 1 .845-.334q.49 0 .838.334.355.334.355.802t-.355.803a1.17 1.17 0 0 1-.838.334m8.326 12.954q-1.535 0-2.642-.724-1.108-.724-1.705-1.996-.597-1.271-.597-2.905 0-1.662.611-2.933.618-1.278 1.719-1.996 1.108-.724 2.585-.724 1.151 0 2.074.426a4 4 0 0 1 1.513 1.193q.59.768.731 1.79h-1.676q-.192-.746-.852-1.321-.654-.582-1.761-.582-.981 0-1.719.511-.732.504-1.144 1.427-.404.917-.404 2.152 0 1.264.397 2.202.405.937 1.137 1.456.738.519 1.733.519.653 0 1.186-.228.532-.227.902-.653.369-.426.525-1.023h1.676a3.87 3.87 0 0 1-2.173 2.962q-.909.447-2.116.447m7.819 3.864a3.7 3.7 0 0 1-.76-.071 2 2 0 0 1-.461-.128l.426-1.477q.61.156 1.079.113a1.3 1.3 0 0 0 .831-.419q.369-.369.675-1.2l.313-.852-4.035-10.966h1.819l3.011 8.693h.114l3.011-8.693h1.818l-4.631 12.5q-.312.845-.774 1.399a2.9 2.9 0 0 1-1.072.831q-.604.27-1.364.27m11.275-3.977q-.525 0-.902-.377a1.23 1.23 0 0 1-.376-.902q0-.525.376-.902a1.23 1.23 0 0 1 .902-.376q.525 0 .902.376.376.377.376.902 0 .348-.177.639a1.3 1.3 0 0 1-.462.469 1.2 1.2 0 0 1-.639.171m0-8.097a1.23 1.23 0 0 1-.902-.376 1.23 1.23 0 0 1-.376-.902q0-.526.376-.902.377-.377.902-.377t.902.377.376.902q0 .348-.177.639-.171.29-.462.469-.283.17-.639.17m19.684-6.562h1.761v9.63q0 1.492-.703 2.664-.696 1.164-1.967 1.839-1.272.668-2.983.668t-2.983-.668q-1.272-.675-1.974-1.839-.696-1.172-.696-2.664v-9.63h1.761v9.488q0 1.066.469 1.896.468.825 1.335 1.3.873.47 2.088.469 1.215 0 2.088-.469a3.3 3.3 0 0 0 1.335-1.3q.47-.83.469-1.896zm5.052 18.636v-15h1.619v1.733h.199q.184-.285.511-.725.334-.447.952-.795.625-.355 1.69-.355 1.378 0 2.429.689t1.641 1.953.589 2.983q0 1.733-.589 3.004-.59 1.264-1.634 1.96-1.044.69-2.407.689-1.051 0-1.684-.348-.631-.355-.973-.802a11 11 0 0 1-.525-.753h-.142v5.767zm1.647-9.546q0 1.236.362 2.181.363.938 1.059 1.47.696.526 1.704.526 1.052 0 1.755-.554.71-.561 1.065-1.506.362-.952.362-2.117 0-1.15-.355-2.073-.348-.931-1.058-1.471-.704-.546-1.769-.546-1.022 0-1.718.518-.697.511-1.052 1.435-.354.916-.355 2.137m14.659 5.682q-1.363 0-2.407-.689-1.044-.696-1.634-1.96-.59-1.271-.589-3.004 0-1.719.589-2.983.59-1.264 1.641-1.953t2.429-.689q1.065 0 1.683.355.625.348.952.795.333.44.518.725h.142v-5.369h1.676V164h-1.619v-1.676h-.199q-.185.298-.525.753-.342.447-.973.802-.633.348-1.684.348m.228-1.505q1.008 0 1.704-.526.696-.532 1.058-1.47.363-.945.363-2.181 0-1.221-.355-2.137-.356-.924-1.052-1.435-.696-.519-1.718-.518-1.066 0-1.776.546-.703.54-1.058 1.471-.348.923-.348 2.073 0 1.165.355 2.117.362.945 1.065 1.506.71.554 1.762.554m11.285 1.534a4.4 4.4 0 0 1-1.882-.391 3.23 3.23 0 0 1-1.342-1.143q-.497-.753-.497-1.819 0-.937.369-1.519a2.6 2.6 0 0 1 .987-.924 5.2 5.2 0 0 1 1.364-.497 16 16 0 0 1 1.512-.27 72 72 0 0 1 1.613-.192q.624-.07.909-.234.291-.163.291-.568v-.057q0-1.051-.575-1.633-.568-.583-1.726-.583-1.2 0-1.882.526-.682.525-.959 1.122l-1.591-.568q.426-.994 1.136-1.549a4.3 4.3 0 0 1 1.563-.781 6.5 6.5 0 0 1 1.676-.227q.526 0 1.207.128.69.12 1.329.504.646.384 1.072 1.158t.426 2.073V164h-1.676v-1.477h-.085q-.17.354-.568.76-.398.405-1.059.689t-1.612.284m.256-1.506q.994 0 1.676-.391.689-.39 1.037-1.008.355-.618.355-1.3v-1.534q-.106.127-.469.234a8 8 0 0 1-.824.178q-.46.07-.902.128a41 41 0 0 0-.703.085 6.4 6.4 0 0 0-1.221.277q-.561.184-.909.561-.341.369-.341 1.009 0 .873.646 1.321.654.44 1.655.44m12.548-9.659v1.42h-5.654v-1.42zm-4.006-2.614h1.676v10.398q0 .71.206 1.065.213.349.54.469.333.114.703.114.277 0 .455-.029l.284-.056.341 1.505a3.5 3.5 0 0 1-.476.128 3.5 3.5 0 0 1-.774.071q-.711 0-1.392-.305a2.8 2.8 0 0 1-1.123-.931q-.44-.625-.44-1.576zm10.984 13.75q-1.577 0-2.72-.696a4.67 4.67 0 0 1-1.755-1.96q-.61-1.264-.61-2.94 0-1.677.61-2.955.618-1.285 1.719-2.003 1.108-.724 2.585-.724.852 0 1.684.284a4.2 4.2 0 0 1 1.512.923q.682.632 1.087 1.676t.405 2.571v.711h-8.409v-1.449h6.704q0-.924-.369-1.648a2.8 2.8 0 0 0-1.037-1.143q-.668-.42-1.577-.419-1 0-1.733.497a3.3 3.3 0 0 0-1.115 1.278 3.76 3.76 0 0 0-.39 1.69v.966q0 1.236.426 2.096a3.07 3.07 0 0 0 1.2 1.299q.767.441 1.783.441.66 0 1.193-.185.54-.192.93-.568.391-.384.604-.952l1.619.455a3.6 3.6 0 0 1-.859 1.448q-.604.618-1.492.966-.887.342-1.995.341m11.186 0q-1.364 0-2.408-.689-1.044-.696-1.633-1.96-.59-1.271-.59-3.004 0-1.719.59-2.983.589-1.264 1.64-1.953 1.052-.689 2.429-.689 1.066 0 1.683.355.625.348.952.795.334.44.519.725h.142v-5.369h1.676V164h-1.62v-1.676h-.198q-.185.298-.526.753-.341.447-.973.802-.632.348-1.683.348m.227-1.505q1.009 0 1.705-.526.695-.532 1.058-1.47.362-.945.362-2.181 0-1.221-.355-2.137-.355-.924-1.051-1.435-.696-.519-1.719-.518-1.065 0-1.775.546-.703.54-1.059 1.471-.348.923-.348 2.073 0 1.165.355 2.117.363.945 1.066 1.506.71.554 1.761.554"/><path fill="#f6fef6" d="M71 187h397v36H71z"/><g clip-path="url(#e)"><path fill="#039708" fill-rule="evenodd" d="m95.596 201.867-3.9 6.755a.5.5 0 0 1-.139.225.56.56 0 0 1-.794-.022l-2.572-2.374a.563.563 0 0 1 .821-.77l2.013 1.856 3.597-6.233a.563.563 0 0 1 .974.563M98.75 196h-13.5a2.25 2.25 0 0 0-2.25 2.25v13.5a2.25 2.25 0 0 0 2.25 2.25h13.5a2.25 2.25 0 0 0 2.25-2.25v-13.5a2.25 2.25 0 0 0-2.25-2.25" clip-rule="evenodd"/></g><path fill="#000" d="M122.25 212h-4.489v-14.545h4.688q2.116 0 3.622.873 1.506.867 2.308 2.493.803 1.62.803 3.878 0 2.272-.81 3.913a5.77 5.77 0 0 1-2.358 2.514q-1.548.874-3.764.874m-2.727-1.562h2.613q1.805 0 2.99-.697a4.3 4.3 0 0 0 1.769-1.981q.582-1.285.582-3.061 0-1.761-.575-3.033-.575-1.278-1.719-1.96-1.143-.689-2.848-.689h-2.812zm15.596 1.818a4.4 4.4 0 0 1-1.882-.391 3.23 3.23 0 0 1-1.342-1.143q-.498-.753-.497-1.819 0-.937.369-1.519a2.6 2.6 0 0 1 .987-.924 5.2 5.2 0 0 1 1.364-.497 16 16 0 0 1 1.513-.27q.994-.127 1.612-.192.626-.07.909-.234.291-.163.291-.568v-.057q0-1.051-.575-1.633-.568-.583-1.726-.583-1.2 0-1.882.526-.682.525-.959 1.122l-1.591-.568q.426-.994 1.137-1.549a4.3 4.3 0 0 1 1.562-.781 6.5 6.5 0 0 1 1.676-.227q.526 0 1.208.128.689.12 1.328.504.646.384 1.072 1.158t.426 2.073V212h-1.676v-1.477h-.085q-.17.354-.568.76-.398.405-1.058.689-.661.284-1.613.284m.256-1.506q.995 0 1.676-.391.689-.39 1.037-1.008.355-.618.355-1.3v-1.534q-.106.127-.469.234a8 8 0 0 1-.823.178q-.462.07-.902.128-.434.05-.704.085a6.4 6.4 0 0 0-1.221.277q-.561.184-.909.561-.34.369-.341 1.009 0 .873.646 1.321.654.44 1.655.44m12.548-9.659v1.42h-5.653v-1.42zm-4.006-2.614h1.676v10.398q0 .71.206 1.065.213.349.54.469.334.114.703.114.277 0 .455-.029l.284-.056.341 1.505a3.4 3.4 0 0 1-.476.128 3.5 3.5 0 0 1-.774.071q-.711 0-1.392-.305a2.76 2.76 0 0 1-1.122-.931q-.441-.625-.441-1.576zm9.737 13.779a4.4 4.4 0 0 1-1.882-.391 3.23 3.23 0 0 1-1.342-1.143q-.497-.753-.497-1.819 0-.937.369-1.519a2.6 2.6 0 0 1 .987-.924 5.2 5.2 0 0 1 1.364-.497 16 16 0 0 1 1.513-.27q.994-.127 1.612-.192.626-.07.909-.234.291-.163.291-.568v-.057q0-1.051-.575-1.633-.568-.583-1.726-.583-1.2 0-1.882.526-.681.525-.959 1.122l-1.591-.568q.426-.994 1.137-1.549a4.3 4.3 0 0 1 1.562-.781 6.5 6.5 0 0 1 1.676-.227q.526 0 1.208.128.689.12 1.328.504.646.384 1.072 1.158t.426 2.073V212h-1.676v-1.477h-.085q-.17.354-.568.76-.398.405-1.058.689-.661.284-1.613.284m.256-1.506q.995 0 1.676-.391.69-.39 1.037-1.008.355-.618.355-1.3v-1.534q-.106.127-.468.234a8 8 0 0 1-.824.178q-.462.07-.902.128-.433.05-.703.085a6.4 6.4 0 0 0-1.222.277q-.561.184-.909.561-.34.369-.341 1.009 0 .873.646 1.321.654.44 1.655.44m13.656 1.25v-14.545h4.915q1.704 0 2.798.582 1.094.575 1.619 1.584.526 1.008.526 2.294t-.526 2.28q-.525.993-1.612 1.562-1.086.561-2.777.561h-3.977v-1.591h3.92q1.165 0 1.875-.341.718-.34 1.037-.966.327-.632.327-1.505 0-.875-.327-1.527-.326-.654-1.044-1.009-.717-.362-1.896-.362h-3.097V212zm6.847-6.534 3.579 6.534h-2.045l-3.523-6.534zm10.175 6.761q-1.576 0-2.72-.696a4.7 4.7 0 0 1-1.754-1.96q-.61-1.265-.611-2.94 0-1.677.611-2.955.618-1.285 1.719-2.003 1.107-.724 2.585-.724.852 0 1.683.284a4.2 4.2 0 0 1 1.513.923q.682.632 1.087 1.676t.404 2.571v.711h-8.409v-1.449h6.705q0-.924-.369-1.648a2.8 2.8 0 0 0-1.037-1.143q-.668-.42-1.577-.419-1.002 0-1.733.497a3.26 3.26 0 0 0-1.115 1.278 3.76 3.76 0 0 0-.391 1.69v.966q0 1.236.426 2.096a3.07 3.07 0 0 0 1.201 1.299q.766.441 1.782.441.66 0 1.194-.185.54-.192.93-.568.39-.384.604-.952l1.619.455a3.6 3.6 0 0 1-.859 1.448q-.604.618-1.492.966-.888.342-1.996.341m11.812-11.136v1.42h-5.654v-1.42zm-4.006-2.614h1.676v10.398q0 .71.206 1.065.213.349.54.469.333.114.703.114.276 0 .454-.029l.284-.056.341 1.505a3.4 3.4 0 0 1-.475.128 3.5 3.5 0 0 1-.775.071q-.71 0-1.392-.305a2.77 2.77 0 0 1-1.122-.931q-.44-.625-.44-1.576zm10.983 13.75q-1.576 0-2.72-.696a4.7 4.7 0 0 1-1.754-1.96q-.61-1.265-.611-2.94 0-1.677.611-2.955.618-1.285 1.719-2.003 1.107-.724 2.585-.724.852 0 1.683.284a4.2 4.2 0 0 1 1.513.923q.682.632 1.087 1.676t.405 2.571v.711h-8.41v-1.449h6.705q0-.924-.369-1.648a2.8 2.8 0 0 0-1.037-1.143q-.668-.42-1.577-.419-1.002 0-1.733.497a3.26 3.26 0 0 0-1.115 1.278 3.76 3.76 0 0 0-.391 1.69v.966q0 1.236.427 2.096a3.06 3.06 0 0 0 1.2 1.299q.766.441 1.782.441.661 0 1.194-.185.54-.192.93-.568.39-.384.604-.952l1.619.455a3.6 3.6 0 0 1-.859 1.448q-.604.618-1.492.966-.888.342-1.996.341m8.743-6.789V212h-1.676v-10.909h1.62v1.704h.142a3.1 3.1 0 0 1 1.164-1.335q.782-.511 2.017-.511 1.108 0 1.939.454.831.448 1.293 1.364.462.909.462 2.301V212h-1.677v-6.818q0-1.286-.667-2.003-.668-.724-1.833-.724-.803 0-1.434.348-.626.348-.987 1.015-.363.668-.363 1.62m14.768-4.347v1.42h-5.654v-1.42zm-4.006-2.614h1.676v10.398q0 .71.206 1.065.213.349.54.469.334.114.703.114.277 0 .455-.029l.284-.056.341 1.505a3.5 3.5 0 0 1-.476.128 3.5 3.5 0 0 1-.774.071q-.711 0-1.392-.305a2.8 2.8 0 0 1-1.123-.931q-.44-.625-.44-1.576zM229.409 212v-10.909h1.676V212zm.852-12.727q-.49 0-.845-.334a1.07 1.07 0 0 1-.348-.803q0-.469.348-.802.356-.334.845-.334.49 0 .838.334.356.334.356.802t-.356.803a1.17 1.17 0 0 1-.838.334m8.326 12.954q-1.478 0-2.592-.703-1.109-.703-1.733-1.967-.618-1.264-.618-2.955 0-1.704.618-2.976.624-1.27 1.733-1.974 1.114-.703 2.592-.703t2.585.703q1.116.704 1.733 1.974.625 1.272.625 2.976 0 1.69-.625 2.955-.617 1.264-1.733 1.967-1.107.703-2.585.703m0-1.505q1.122 0 1.847-.576.724-.575 1.072-1.512a5.8 5.8 0 0 0 .348-2.032 5.9 5.9 0 0 0-.348-2.038q-.348-.945-1.072-1.527t-1.847-.582q-1.122 0-1.847.582t-1.072 1.527a5.9 5.9 0 0 0-.348 2.038q0 1.094.348 2.032t1.072 1.512q.725.576 1.847.576m9.178-5.284V212h-1.676v-10.909h1.619v1.704h.142a3.1 3.1 0 0 1 1.165-1.335q.781-.511 2.017-.511 1.108 0 1.939.454.831.448 1.292 1.364.462.909.462 2.301V212h-1.676v-6.818q0-1.286-.668-2.003-.667-.724-1.832-.724-.802 0-1.435.348-.624.348-.987 1.015-.362.668-.362 1.62m11.245 6.676a1.23 1.23 0 0 1-.902-.377 1.23 1.23 0 0 1-.377-.902q0-.525.377-.902.376-.376.902-.376.525 0 .902.376.376.377.376.902 0 .348-.178.639a1.3 1.3 0 0 1-.461.469q-.285.171-.639.171m0-8.097q-.526 0-.902-.376a1.23 1.23 0 0 1-.377-.902q0-.526.377-.902a1.23 1.23 0 0 1 .902-.377q.525 0 .902.377.376.376.376.902 0 .348-.178.639-.17.29-.461.469-.285.17-.639.17m14.797 8.182q-1.406 0-2.507-.483-1.094-.484-1.74-1.342-.639-.867-.696-2.01h1.79q.057.702.483 1.214a2.8 2.8 0 0 0 1.115.781 4 4 0 0 0 1.527.277q.938 0 1.662-.326a2.73 2.73 0 0 0 1.136-.909q.412-.584.412-1.35 0-.802-.398-1.413-.397-.618-1.165-.966-.767-.348-1.875-.348h-1.164v-1.563h1.164q.867 0 1.52-.312a2.43 2.43 0 0 0 1.03-.881q.377-.569.377-1.335 0-.738-.327-1.286a2.25 2.25 0 0 0-.923-.852q-.59-.305-1.392-.305-.753 0-1.421.277-.66.27-1.079.788-.42.511-.455 1.236h-1.705q.044-1.143.689-2.003a4.34 4.34 0 0 1 1.691-1.349 5.5 5.5 0 0 1 2.308-.483q1.35 0 2.315.547a3.84 3.84 0 0 1 1.485 1.427q.518.888.518 1.918 0 1.228-.646 2.095-.639.867-1.74 1.2v.114q1.377.227 2.152 1.172.774.937.774 2.322 0 1.186-.646 2.131-.64.937-1.748 1.477t-2.521.54m12.564 0q-1.605 0-2.734-.874-1.13-.88-1.726-2.549-.597-1.676-.597-4.049 0-2.358.597-4.027.603-1.675 1.733-2.557 1.135-.887 2.727-.887t2.72.887q1.136.882 1.733 2.557.604 1.67.604 4.027 0 2.373-.597 4.049-.596 1.668-1.726 2.549-1.129.874-2.734.874m0-1.563q1.591 0 2.472-1.534.88-1.533.88-4.375 0-1.889-.404-3.217-.399-1.328-1.151-2.024-.745-.696-1.797-.696-1.577 0-2.464 1.555-.888 1.548-.888 4.382 0 1.89.398 3.211.397 1.32 1.143 2.009.753.69 1.811.689M304.496 212h-4.489v-14.545h4.688q2.116 0 3.622.873 1.506.867 2.308 2.493.803 1.62.803 3.878 0 2.272-.81 3.913a5.77 5.77 0 0 1-2.358 2.514q-1.548.874-3.764.874m-2.727-1.562h2.613q1.804 0 2.991-.697a4.3 4.3 0 0 0 1.768-1.981q.582-1.285.582-3.061 0-1.761-.575-3.033-.575-1.278-1.719-1.96-1.143-.689-2.848-.689h-2.812zm15.596 1.818a4.4 4.4 0 0 1-1.882-.391 3.23 3.23 0 0 1-1.342-1.143q-.497-.753-.497-1.819 0-.937.369-1.519a2.6 2.6 0 0 1 .987-.924 5.2 5.2 0 0 1 1.364-.497 16 16 0 0 1 1.513-.27q.994-.127 1.612-.192.625-.07.909-.234.291-.163.291-.568v-.057q0-1.051-.575-1.633-.568-.583-1.726-.583-1.2 0-1.882.526-.682.525-.959 1.122l-1.591-.568q.426-.994 1.137-1.549a4.3 4.3 0 0 1 1.562-.781 6.5 6.5 0 0 1 1.676-.227q.526 0 1.208.128.689.12 1.328.504.646.384 1.072 1.158t.426 2.073V212h-1.676v-1.477h-.085q-.17.354-.568.76-.398.405-1.058.689-.661.284-1.613.284m.256-1.506q.995 0 1.676-.391.69-.39 1.037-1.008.355-.618.355-1.3v-1.534q-.106.127-.468.234a8 8 0 0 1-.824.178q-.462.07-.902.128a39 39 0 0 0-.703.085 6.4 6.4 0 0 0-1.222.277q-.561.184-.909.561-.34.369-.341 1.009 0 .873.646 1.321.654.44 1.655.44m8.493 5.341q-.427 0-.76-.071a2 2 0 0 1-.462-.128l.426-1.477q.61.156 1.08.113.468-.042.831-.419.37-.369.674-1.2l.313-.852-4.034-10.966H326l3.011 8.693h.114l3.011-8.693h1.819l-4.631 12.5q-.313.845-.774 1.399a2.9 2.9 0 0 1-1.073.831q-.604.27-1.363.27m17.78-12.557-1.506.426a2.8 2.8 0 0 0-.419-.731 2 2 0 0 0-.738-.597q-.47-.234-1.2-.234-1.002 0-1.669.461-.661.454-.661 1.158 0 .625.455.987.454.363 1.42.604l1.619.398q1.463.355 2.181 1.086.717.725.717 1.868 0 .938-.54 1.676-.532.74-1.491 1.165t-2.23.426q-1.67 0-2.763-.724-1.094-.725-1.385-2.117l1.591-.397q.227.88.859 1.321.64.44 1.669.44 1.173 0 1.861-.497.696-.504.696-1.208 0-.568-.398-.951-.398-.391-1.221-.583l-1.818-.426q-1.499-.355-2.202-1.101-.696-.753-.696-1.882a2.7 2.7 0 0 1 .518-1.633q.526-.71 1.428-1.115.909-.405 2.06-.405 1.619 0 2.542.71a3.83 3.83 0 0 1 1.321 1.875"/><rect width="150" height="26" x="71" y="235" fill="#039708" rx="13"/><path fill="#fff" d="M103.509 246.535a3 3 0 0 0-.388-.811 2.47 2.47 0 0 0-1.332-1.009 3 3 0 0 0-.93-.134q-.86 0-1.55.442-.693.443-1.094 1.298-.398.85-.398 2.083 0 1.238.403 2.093.402.855 1.103 1.298.701.442 1.596.442.83 0 1.447-.338a2.35 2.35 0 0 0 .959-.954q.343-.622.343-1.462l.398.075h-2.913v-1.268h4.002v1.158q0 1.283-.547 2.227a3.7 3.7 0 0 1-1.501 1.452q-.955.512-2.188.512-1.382 0-2.426-.636-1.04-.636-1.62-1.805-.583-1.173-.583-2.784 0-1.218.339-2.187a4.75 4.75 0 0 1 .95-1.646q.615-.68 1.446-1.039a4.5 4.5 0 0 1 1.824-.363q.826 0 1.537.244.715.243 1.272.691a3.9 3.9 0 0 1 1.427 2.421zm6.892 6.965h-3.296v-10.182h3.401q1.496 0 2.57.612a4.03 4.03 0 0 1 1.645 1.745q.577 1.133.577 2.719 0 1.591-.582 2.735a4.07 4.07 0 0 1-1.67 1.759q-1.094.612-2.645.612m-1.76-1.342h1.676q1.163 0 1.934-.438a2.76 2.76 0 0 0 1.153-1.278q.383-.84.383-2.048 0-1.198-.383-2.033a2.7 2.7 0 0 0-1.129-1.268q-.75-.432-1.864-.432h-1.77zm8.567 1.342v-10.182h3.63q1.188 0 1.968.433.781.432 1.169 1.183.387.745.388 1.68 0 .94-.393 1.691a2.85 2.85 0 0 1-1.173 1.183q-.781.432-1.964.432h-2.496v-1.302h2.357q.75 0 1.218-.259.467-.263.686-.716.218-.452.218-1.029t-.218-1.024a1.58 1.58 0 0 0-.691-.701q-.468-.253-1.233-.253h-1.929v8.864zm8.956 0v-10.182h3.629q1.183 0 1.964.408.784.408 1.173 1.128.388.717.388 1.656 0 .935-.393 1.646-.388.705-1.173 1.098-.781.393-1.964.393h-2.749v-1.322h2.61q.745 0 1.213-.214.472-.214.691-.622.219-.407.218-.979 0-.577-.223-.999a1.44 1.44 0 0 0-.691-.647q-.468-.228-1.228-.228H127.7v8.864zm5.026-4.594 2.515 4.594h-1.75l-2.465-4.594zm16.159-2.277h-1.551a2.37 2.37 0 0 0-.93-1.516 2.6 2.6 0 0 0-.791-.398 3.1 3.1 0 0 0-.919-.134q-.88 0-1.576.442-.692.443-1.094 1.298-.398.855-.398 2.088 0 1.243.398 2.098.403.855 1.099 1.293t1.566.437q.482 0 .914-.129.438-.134.791-.393.352-.258.597-.631.248-.378.343-.865l1.551.005q-.125.75-.483 1.382a3.8 3.8 0 0 1-.909 1.084 4.1 4.1 0 0 1-1.263.701 4.7 4.7 0 0 1-1.551.248q-1.323 0-2.357-.626-1.034-.632-1.63-1.805-.592-1.173-.592-2.799 0-1.63.597-2.799.596-1.173 1.63-1.8 1.034-.631 2.352-.631.81 0 1.511.234.706.228 1.268.676.561.442.93 1.084.368.636.497 1.456m5.01 7.025q-1.129 0-1.944-.482a3.3 3.3 0 0 1-1.253-1.367q-.438-.885-.437-2.073 0-1.174.437-2.069a3.4 3.4 0 0 1 1.233-1.397q.795-.502 1.859-.502.647 0 1.253.214a3 3 0 0 1 1.089.671q.482.458.761 1.188.278.727.278 1.765v.527h-6.07v-1.113h4.613q0-.587-.238-1.039a1.8 1.8 0 0 0-.671-.721 1.87 1.87 0 0 0-1.005-.264q-.626 0-1.093.308a2.07 2.07 0 0 0-.716.796 2.3 2.3 0 0 0-.249 1.059v.87q0 .765.269 1.302.273.537.76.821.488.278 1.139.278.422 0 .77-.119.348-.125.602-.368a1.6 1.6 0 0 0 .388-.602l1.407.254a2.55 2.55 0 0 1-.607 1.089 2.95 2.95 0 0 1-1.089.721q-.65.253-1.486.253m4.925-.154v-7.636h1.437v1.213h.08q.208-.616.736-.97a2.1 2.1 0 0 1 1.203-.358 7 7 0 0 1 .631.035v1.422a3 3 0 0 0-.318-.055 3 3 0 0 0-.457-.035 1.94 1.94 0 0 0-.94.224 1.66 1.66 0 0 0-.885 1.497v4.663zm9.389-7.636v1.193h-4.171v-1.193zm-3.052-1.83h1.486v7.224q0 .432.13.651a.67.67 0 0 0 .333.293q.209.075.452.075.179 0 .313-.025.135-.024.209-.04l.268 1.228a3 3 0 0 1-.964.159 2.6 2.6 0 0 1-1.094-.208 1.9 1.9 0 0 1-.82-.677q-.313-.456-.313-1.148zm4.697 9.466v-7.636h1.486v7.636zm.75-8.815a.95.95 0 0 1-.666-.258.84.84 0 0 1-.273-.627.83.83 0 0 1 .273-.626.93.93 0 0 1 .666-.263q.388 0 .662.263a.82.82 0 0 1 .278.626.84.84 0 0 1-.278.627.93.93 0 0 1-.662.258m6.37 1.179v1.193h-4.315v-1.193zm-3.132 7.636v-8.521q0-.717.313-1.189.314-.477.831-.71.517-.24 1.123-.239.448 0 .766.074.318.07.472.13l-.348 1.203a8 8 0 0 0-.268-.07 1.5 1.5 0 0 0-.398-.044q-.542 0-.776.268-.228.268-.228.776v8.322zm4.666 0v-7.636h1.486v7.636zm.751-8.815a.95.95 0 0 1-.667-.258.84.84 0 0 1-.273-.627.83.83 0 0 1 .273-.626.94.94 0 0 1 .667-.263q.388 0 .661.263a.82.82 0 0 1 .278.626.84.84 0 0 1-.278.627.93.93 0 0 1-.661.258m6.026 8.969q-1.128 0-1.943-.482a3.27 3.27 0 0 1-1.253-1.367q-.438-.885-.438-2.073 0-1.174.438-2.069a3.4 3.4 0 0 1 1.233-1.397q.795-.502 1.859-.502.647 0 1.253.214t1.089.671q.482.458.76 1.188.279.727.279 1.765v.527h-6.071v-1.113h4.614q0-.587-.239-1.039a1.8 1.8 0 0 0-.671-.721 1.87 1.87 0 0 0-1.004-.264q-.627 0-1.094.308a2.1 2.1 0 0 0-.716.796 2.3 2.3 0 0 0-.248 1.059v.87q0 .765.268 1.302.274.537.761.821a2.26 2.26 0 0 0 1.138.278q.423 0 .771-.119.348-.125.602-.368t.387-.602l1.407.254a2.55 2.55 0 0 1-.606 1.089 3 3 0 0 1-1.089.721q-.651.253-1.487.253m7.785-.005a2.96 2.96 0 0 1-1.651-.472q-.72-.477-1.133-1.357-.408-.885-.408-2.123t.413-2.118q.417-.88 1.143-1.347a2.97 2.97 0 0 1 1.646-.468q.711 0 1.143.239.438.234.676.547.244.313.378.552h.09v-3.784h1.486V253.5h-1.452v-1.188h-.124a4 4 0 0 1-.388.557 2.1 2.1 0 0 1-.686.546q-.437.234-1.133.234m.328-1.268q.641 0 1.084-.338.447-.343.676-.949.233-.607.233-1.412 0-.796-.228-1.392-.229-.597-.671-.93t-1.094-.333q-.671 0-1.119.348a2.13 2.13 0 0 0-.676.95 3.9 3.9 0 0 0-.224 1.357q0 .765.229 1.377.23.612.676.969.453.353 1.114.353"/></g><defs><clipPath id="b"><rect width="32" height="32" x="438" y="47" fill="#fff" rx="16"/></clipPath><clipPath id="c"><rect width="18" height="18" x="83" y="100" fill="#fff" rx="9"/></clipPath><clipPath id="d"><rect width="18" height="18" x="83" y="148" fill="#fff" rx="9"/></clipPath><clipPath id="e"><rect width="18" height="18" x="83" y="196" fill="#fff" rx="9"/></clipPath><filter id="a" width="533" height="316" x="0" y="0" color-interpolation-filters="sRGB" filterUnits="userSpaceOnUse"><feFlood flood-opacity="0" result="BackgroundImageFix"/><feColorMatrix in="SourceAlpha" result="hardAlpha" values="0 0 0 0 0 0 0 0 0 0 0 0 0 0 0 0 0 0 127 0"/><feOffset dx="-4" dy="4"/><feGaussianBlur stdDeviation="7.5"/><feComposite in2="hardAlpha" operator="out"/><feColorMatrix values="0 0 0 0 0 0 0 0 0 0 0 0 0 0 0 0 0 0 0.15 0"/><feBlend in2="BackgroundImageFix" result="effect1_dropShadow_303_1896"/><feBlend in="SourceGraphic" in2="effect1_dropShadow_303_1896" result="shape"/></filter></defs></svg>