<svg xmlns="http://www.w3.org/2000/svg" width="533" height="316" fill="none" viewBox="0 0 533 316"><g clip-path="url(#a)" filter="url(#b)"><path fill="#ffe7f5" d="M513 20H30c-5.523 0-10 4.477-10 10v266c0 5.523 4.477 10 10 10h483c5.523 0 10-4.477 10-10V30c0-5.523-4.477-10-10-10"/><path fill="#363636" d="M42 44c0-5.523 4.477-10 10-10h441c5.523 0 10 4.477 10 10v40H42z"/><mask id="c" width="52" height="13" x="69" y="52" maskUnits="userSpaceOnUse" style="mask-type:luminance"><path fill="#fff" d="M121 52.672H69v11.364h52z"/></mask><g mask="url(#c)"><path fill="#ed6a5e" d="M75 64.036c3.314 0 6-2.544 6-5.682s-2.686-5.682-6-5.682-6 2.544-6 5.682 2.686 5.682 6 5.682"/><path fill="#f4bd50" d="M95 64.036c3.314 0 6-2.544 6-5.682s-2.686-5.682-6-5.682-6 2.544-6 5.682 2.686 5.682 6 5.682"/><path fill="#61c454" d="M115 64.036c3.314 0 6-2.544 6-5.682s-2.686-5.682-6-5.682-6 2.544-6 5.682 2.686 5.682 6 5.682"/></g><path fill="#fff" fill-opacity=".7" d="M160.724 63.732q-.726 0-1.317-.259a2.23 2.23 0 0 1-.94-.758q-.348-.498-.348-1.205 0-.621.259-1.007a1.8 1.8 0 0 1 .691-.612q.432-.222.954-.33.528-.113 1.059-.179.696-.084 1.129-.127.438-.047.636-.156.204-.108.204-.376v-.038q0-.696-.403-1.083-.398-.386-1.208-.386-.84 0-1.317.349-.477.348-.671.744l-1.114-.377q.299-.66.795-1.026.503-.372 1.094-.518.597-.15 1.173-.151.368 0 .846.085.482.08.929.334.453.255.751.767.298.514.298 1.375v4.765h-1.173v-.98h-.06a2 2 0 0 1-.397.504 2.3 2.3 0 0 1-.741.457q-.463.189-1.129.188m.179-.998q.696 0 1.174-.259.482-.258.725-.668.249-.41.249-.862v-1.017q-.075.085-.328.156a6 6 0 0 1-.577.117 28 28 0 0 1-1.123.142q-.458.056-.855.183a1.5 1.5 0 0 0-.637.372q-.238.245-.238.669 0 .58.452.875.457.292 1.158.292m5.463 3.54v-9.943h1.133v1.149h.14q.129-.189.358-.48.233-.297.666-.528.437-.235 1.183-.235.965 0 1.7.457.737.457 1.149 1.294.412.839.412 1.978 0 1.15-.412 1.991a3.13 3.13 0 0 1-1.144 1.3q-.73.457-1.685.457-.736 0-1.178-.231a2.2 2.2 0 0 1-.682-.532 7 7 0 0 1-.367-.5h-.1v3.824zm1.153-6.327q0 .82.254 1.445.254.622.741.975.486.348 1.193.348.736 0 1.228-.367.497-.371.745-.998.255-.63.254-1.403a3.6 3.6 0 0 0-.249-1.375 2.13 2.13 0 0 0-.74-.974q-.492-.363-1.238-.363-.717 0-1.203.344-.487.34-.736.95-.249.608-.249 1.418m7.378 3.616V56.33h1.173v7.232zm.597-8.437a.86.86 0 0 1-.592-.221.7.7 0 0 1-.244-.532q0-.312.244-.532a.86.86 0 0 1 .592-.222q.343 0 .586.221a.69.69 0 0 1 .249.533.69.69 0 0 1-.249.532.84.84 0 0 1-.586.22m7.1 3.785v1.036h-4.454V58.91zm2.065 4.652V56.33h1.133v1.092h.08q.209-.536.756-.87a2.3 2.3 0 0 1 1.233-.335q.129 0 .323.005t.293.014v1.13a4 4 0 0 0-.273-.042 3 3 0 0 0-.443-.033q-.557 0-.994.22a1.7 1.7 0 0 0-.686.604 1.56 1.56 0 0 0-.249.87v4.577zm8.178.15q-1.103 0-1.904-.46-.796-.468-1.228-1.3-.428-.838-.428-1.95 0-1.11.428-1.958a3.25 3.25 0 0 1 1.203-1.328q.775-.48 1.81-.48a3.8 3.8 0 0 1 1.178.188q.582.189 1.059.612.477.42.761 1.111.283.693.283 1.705v.47h-5.886v-.96h4.693a2.26 2.26 0 0 0-.259-1.092 1.9 1.9 0 0 0-.726-.758q-.467-.278-1.103-.278-.702 0-1.213.33-.507.325-.781.847a2.4 2.4 0 0 0-.273 1.12v.641q0 .82.298 1.389.303.566.84.861.537.292 1.248.292.462 0 .835-.122.378-.127.652-.377a1.7 1.7 0 0 0 .422-.63l1.134.3q-.18.547-.602.961-.423.41-1.044.64-.621.227-1.397.227m10.356-5.762-1.054.282a1.8 1.8 0 0 0-.293-.485 1.4 1.4 0 0 0-.517-.395q-.328-.156-.841-.156-.7 0-1.168.306-.462.302-.462.768 0 .414.318.654t.994.4l1.134.264q1.023.235 1.526.72.502.48.502 1.239 0 .622-.378 1.111-.372.49-1.044.772-.671.282-1.561.283-1.168 0-1.934-.48-.765-.48-.969-1.404l1.113-.263q.16.583.602.875.447.292 1.168.292.82 0 1.303-.33.487-.333.487-.8a.82.82 0 0 0-.278-.63q-.279-.26-.855-.387l-1.273-.282q-1.05-.235-1.541-.73-.488-.499-.488-1.248 0-.612.363-1.082.369-.47 1-.74a3.7 3.7 0 0 1 1.441-.268q1.134 0 1.78.47.651.472.925 1.244m1.905 8.324V56.33h1.134v1.149h.139q.129-.189.358-.48.234-.297.666-.528.438-.235 1.183-.235.965 0 1.701.457.735.457 1.148 1.294.413.839.413 1.978 0 1.15-.413 1.991a3.13 3.13 0 0 1-1.143 1.3q-.731.457-1.686.457-.735 0-1.178-.231a2.2 2.2 0 0 1-.681-.532 7 7 0 0 1-.368-.5h-.099v3.824zm1.154-6.328q0 .82.253 1.445.254.622.741.975.488.348 1.193.348.736 0 1.228-.367.497-.371.746-.998.253-.63.253-1.403a3.6 3.6 0 0 0-.248-1.375 2.13 2.13 0 0 0-.741-.974q-.492-.363-1.238-.363-.715 0-1.203.344-.487.34-.736.95-.248.608-.248 1.418m10.48 3.767q-1.034 0-1.815-.466a3.23 3.23 0 0 1-1.213-1.305q-.432-.837-.432-1.958 0-1.13.432-1.973a3.2 3.2 0 0 1 1.213-1.309q.78-.466 1.815-.466 1.033 0 1.809.466.781.465 1.214 1.309.437.843.437 1.973 0 1.12-.437 1.958a3.2 3.2 0 0 1-1.214 1.305q-.776.465-1.809.466m0-.999q.785 0 1.292-.38.507-.383.751-1.004t.244-1.346-.244-1.352a2.3 2.3 0 0 0-.751-1.012q-.507-.386-1.292-.386-.786 0-1.293.386a2.3 2.3 0 0 0-.751 1.012 3.7 3.7 0 0 0-.243 1.352q0 .725.243 1.346.244.622.751 1.003t1.293.381m6.424-3.503v4.35h-1.173v-7.23h1.134v1.13h.099q.269-.552.815-.886.548-.339 1.412-.339.776 0 1.358.301.581.298.904.904.323.603.323 1.526v4.595h-1.173v-4.52q0-.851-.467-1.328-.468-.48-1.283-.48a2.14 2.14 0 0 0-1.004.23 1.7 1.7 0 0 0-.691.674q-.254.443-.254 1.073m12.426-1.261-1.054.282a1.8 1.8 0 0 0-.294-.485 1.4 1.4 0 0 0-.517-.395q-.328-.156-.84-.156-.701 0-1.168.306-.463.302-.463.768 0 .414.319.654.318.24.994.4l1.133.264q1.024.235 1.527.72.502.48.502 1.239 0 .622-.378 1.111-.374.49-1.044.772-.672.282-1.561.283-1.169 0-1.934-.48-.766-.48-.97-1.404l1.114-.263q.16.583.602.875.447.292 1.168.292.82 0 1.303-.33.487-.333.487-.8a.82.82 0 0 0-.279-.63q-.278-.26-.855-.387l-1.273-.282q-1.049-.235-1.541-.73-.487-.499-.487-1.248 0-.612.363-1.082.367-.47.999-.74a3.7 3.7 0 0 1 1.442-.268q1.134 0 1.78.47.65.472.925 1.244m5.107 5.763q-1.104 0-1.904-.462a3.16 3.16 0 0 1-1.228-1.3q-.428-.837-.428-1.948t.428-1.96a3.25 3.25 0 0 1 1.203-1.327q.775-.48 1.809-.48.597 0 1.179.188.58.189 1.059.612.477.42.76 1.111.284.693.284 1.705v.47h-5.887v-.96h4.693q0-.612-.258-1.092a1.9 1.9 0 0 0-.726-.758q-.467-.278-1.104-.278-.7 0-1.213.33-.507.325-.78.847a2.4 2.4 0 0 0-.274 1.12v.641q0 .82.299 1.389.303.566.84.861.537.292 1.248.292.462 0 .835-.122.378-.127.651-.377.273-.255.423-.63l1.133.3a2.36 2.36 0 0 1-.601.961q-.423.41-1.044.64-.622.227-1.397.227m5.802-.076a.9.9 0 0 1-.632-.25.8.8 0 0 1-.263-.597q0-.349.263-.598a.9.9 0 0 1 .632-.25q.367 0 .631.25a.8.8 0 0 1 .263.598.77.77 0 0 1-.124.424.89.89 0 0 1-.77.424m3-7.307h1.173v7.76q0 .668-.243 1.157-.24.49-.726.758-.483.27-1.218.269h-.239V65.24h.219q.537 0 .785-.301.249-.296.249-.848zm.577-1.205a.86.86 0 0 1-.592-.221.7.7 0 0 1-.244-.532q0-.312.244-.532a.86.86 0 0 1 .592-.222q.343 0 .586.221a.69.69 0 0 1 .249.533.69.69 0 0 1-.249.532.84.84 0 0 1-.586.22m8.154 2.825-1.054.282a1.8 1.8 0 0 0-.293-.485 1.4 1.4 0 0 0-.517-.395q-.329-.156-.84-.156-.701 0-1.169.306-.462.302-.462.768 0 .414.318.654.319.24.994.4l1.134.264q1.025.235 1.526.72.502.48.502 1.239 0 .622-.377 1.111-.373.49-1.044.772t-1.562.283q-1.167 0-1.933-.48t-.97-1.404l1.114-.263q.159.583.601.875.448.292 1.169.292.82 0 1.302-.33.487-.333.487-.8a.82.82 0 0 0-.278-.63q-.279-.26-.855-.387l-1.273-.282q-1.049-.235-1.541-.73-.487-.499-.487-1.248 0-.612.363-1.082.368-.47.999-.74a3.7 3.7 0 0 1 1.442-.268q1.133 0 1.779.47.652.472.925 1.244m5.008 5.763q-1.034 0-1.815-.466a3.23 3.23 0 0 1-1.213-1.305q-.432-.837-.432-1.958 0-1.13.432-1.973a3.2 3.2 0 0 1 1.213-1.309q.78-.466 1.815-.466 1.033 0 1.81.466.78.465 1.213 1.309.437.843.437 1.973 0 1.12-.437 1.958a3.2 3.2 0 0 1-1.213 1.305q-.777.465-1.81.466m0-.999q.786 0 1.292-.38.508-.383.751-1.004.244-.621.244-1.346t-.244-1.352a2.27 2.27 0 0 0-.751-1.012q-.507-.386-1.292-.386-.786 0-1.293.386a2.3 2.3 0 0 0-.75 1.012 3.7 3.7 0 0 0-.244 1.352q0 .725.244 1.346.243.622.75 1.003t1.293.381m6.424-3.503v4.35h-1.173v-7.23h1.134v1.13h.099q.269-.552.815-.886.548-.339 1.412-.339.776 0 1.358.301.581.298.904.904.324.603.324 1.526v4.595h-1.174v-4.52q0-.851-.467-1.328-.467-.48-1.283-.48a2.14 2.14 0 0 0-1.004.23 1.7 1.7 0 0 0-.691.674q-.254.443-.254 1.073"/><path fill="#15b985" d="M466 42.729h-93c-2.761 0-5 2.12-5 4.735v17.993c0 2.615 2.239 4.735 5 4.735h93c2.761 0 5-2.12 5-4.735V47.464c0-2.615-2.239-4.736-5-4.736"/><path fill="#fff" d="M394.979 61.669v-1.055l3.446-3.38q.552-.551.91-.965.362-.42.541-.796t.179-.8q0-.48-.238-.83a1.53 1.53 0 0 0-.652-.54 2.2 2.2 0 0 0-.929-.194q-.547 0-.955.212t-.626.598a1.8 1.8 0 0 0-.219.904h-1.467q0-.88.428-1.54.428-.659 1.173-1.021.746-.367 1.696-.367.959 0 1.69.362.735.358 1.148.98.413.615.413 1.393 0 .537-.214 1.05-.209.514-.731 1.144-.522.627-1.451 1.52l-2.024 2.007v.07h4.584v1.248zm12.131.16q-1.178-.005-2.013-.589-.836-.583-1.278-1.7-.443-1.115-.443-2.688 0-1.568.443-2.679.447-1.11 1.283-1.695.84-.583 2.008-.583t2.004.588q.834.584 1.277 1.695.448 1.108.448 2.674 0 1.578-.443 2.694-.443 1.11-1.277 1.7-.836.583-2.009.583m0-1.257q1.034 0 1.616-.956.586-.955.586-2.764 0-1.2-.268-2.029-.263-.833-.761-1.262a1.72 1.72 0 0 0-1.173-.433q-1.03 0-1.616.96-.587.961-.591 2.764 0 1.206.263 2.04.269.827.761 1.256.492.424 1.183.424m9.037 1.257q-1.178-.005-2.013-.589-.836-.583-1.278-1.7-.442-1.115-.442-2.688 0-1.568.442-2.679.447-1.11 1.283-1.695.84-.583 2.008-.583t2.004.588q.835.584 1.277 1.695.448 1.108.448 2.674 0 1.578-.443 2.694-.442 1.11-1.277 1.7-.836.583-2.009.583m0-1.257q1.035 0 1.616-.956.587-.955.587-2.764 0-1.2-.269-2.029-.263-.833-.761-1.262a1.72 1.72 0 0 0-1.173-.433q-1.028 0-1.616.96-.587.961-.591 2.764 0 1.206.263 2.04.269.827.761 1.256.492.424 1.183.424m18.181-3.724q0 1.544-.596 2.655a4.24 4.24 0 0 1-1.636 1.705q-1.034.593-2.352.593-1.322 0-2.361-.593a4.25 4.25 0 0 1-1.631-1.71q-.596-1.11-.596-2.65 0-1.544.596-2.651a4.2 4.2 0 0 1 1.631-1.704q1.04-.599 2.361-.598 1.318 0 2.352.598a4.2 4.2 0 0 1 1.636 1.704q.596 1.107.596 2.65m-1.521 0q0-1.178-.403-1.982-.397-.81-1.093-1.225a2.96 2.96 0 0 0-1.567-.419q-.88 0-1.571.42-.69.414-1.093 1.224-.398.804-.398 1.982t.398 1.986q.402.805 1.093 1.225.692.414 1.571.414.876 0 1.567-.414.696-.42 1.093-1.224.403-.81.403-1.987m3.437 4.82v-9.641h1.536v4.604h.124l4.271-4.605h1.934l-4.107 4.341 4.122 5.302h-1.85l-3.291-4.308-1.203 1.309v2.999z"/><path fill="#1f2939" d="M503 83.45H42v198.345c0 5.523 4.303 10 9.826 10h441.241c5.523 0 9.933-4.477 9.933-10z"/><path fill="#1f5dd8" d="M73.398 95.082v1.093q-.476 0-.854.087-.371.086-.574.298-.196.212-.154.59l.259 2.433q.07.623-.112 1.027a1.3 1.3 0 0 1-.567.617q-.392.22-.959.311.588.093.98.305.392.206.56.604t.098 1.047l-.259 2.433q-.042.378.154.59.203.219.574.298.378.087.854.086v1.094q-.727 0-1.323-.113a2.9 2.9 0 0 1-1.001-.357 1.5 1.5 0 0 1-.595-.683q-.182-.425-.112-1.054l.259-2.287q.049-.47-.133-.769-.175-.306-.637-.451t-1.274-.146v-1.193q.805 0 1.267-.139.469-.147.644-.445.182-.305.133-.775l-.259-2.287q-.07-.637.112-1.068.189-.43.595-.676a2.9 2.9 0 0 1 1.001-.358 7 7 0 0 1 1.323-.112m-4.396 172.357q.728 0 1.316.113.595.106 1.001.358.413.252.602.683.189.424.112 1.054l-.259 2.293q-.05.47.147.776.203.298.672.444.47.14 1.225.139v1.194q-.756 0-1.225.146t-.672.45q-.197.299-.147.769l.259 2.281q.07.636-.119 1.067a1.4 1.4 0 0 1-.595.676 2.8 2.8 0 0 1-1.001.358 7 7 0 0 1-1.316.113v-1.094q.476 0 .847-.086.378-.08.574-.298.203-.213.161-.59l-.259-2.433q-.07-.65.105-1.048.182-.398.595-.603.413-.212 1.036-.298-.623-.093-1.036-.312a1.33 1.33 0 0 1-.595-.623q-.175-.398-.105-1.028l.259-2.432q.042-.378-.161-.59-.196-.212-.567-.299a3.8 3.8 0 0 0-.854-.086z"/><path fill="#bbb" d="M85.724 123.576a.96.96 0 0 1-.343.749 1.18 1.18 0 0 1-.819.305 1.17 1.17 0 0 1-.826-.305 1 1 0 0 1-.322-.749q0-.213.063-.451t.252-.617l1.085-2.167h1.05l-.581 2.399a1 1 0 0 1 .315.352.93.93 0 0 1 .126.484m3.115 0a.96.96 0 0 1-.343.749 1.2 1.2 0 0 1-.819.305q-.483 0-.819-.305a.98.98 0 0 1-.329-.749q0-.213.063-.451a3.2 3.2 0 0 1 .259-.617l1.092-2.167h1.043l-.588 2.399a.96.96 0 0 1 .322.352 1 1 0 0 1 .119.484m5.49 6.264q.735 0 1.169-.245.434-.252.434-.69a.9.9 0 0 0-.126-.484q-.126-.205-.504-.371-.378-.172-1.148-.358a7.6 7.6 0 0 1-1.281-.424q-.547-.246-.847-.636-.301-.391-.301-1.008 0-.604.357-1.054t1.022-.703q.672-.251 1.575-.252.93 0 1.624.232.693.232 1.183.577l-.658.935a4.4 4.4 0 0 0-.952-.444 3.6 3.6 0 0 0-1.155-.173q-.75 0-1.078.212-.322.213-.322.564 0 .258.161.437.168.173.574.325.405.146 1.148.345.72.186 1.253.437.539.252.833.67.3.411.301 1.074 0 .756-.462 1.24-.456.478-1.204.709a5.5 5.5 0 0 1-1.596.225q-1.03 0-1.778-.278-.75-.285-1.26-.709l.833-.902q.433.331.994.544.56.205 1.211.205m11.88.59a3.8 3.8 0 0 1-.973.398 4.6 4.6 0 0 1-1.183.152q-1.288 0-1.96-.629-.665-.638-.665-1.671v-3.799h-1.645v-1.08h1.645v-1.565l1.568-.179v1.744h2.492l-.175 1.08h-2.317v3.786q0 .564.294.842.301.271.98.271a2.9 2.9 0 0 0 1.372-.331zm7.87-1.346q0 .411.133.604.132.185.427.278l-.35 1.008a2.4 2.4 0 0 1-.938-.285 1.43 1.43 0 0 1-.595-.683 2.5 2.5 0 0 1-1.029.729 3.6 3.6 0 0 1-1.33.245q-1.12 0-1.778-.596-.651-.604-.651-1.578 0-1.107.91-1.704.909-.596 2.604-.596h1.057v-.458q0-.676-.434-.974-.428-.299-1.211-.299-.364 0-.882.093a7.4 7.4 0 0 0-1.085.272l-.385-1.047a8 8 0 0 1 1.358-.358q.665-.12 1.232-.12 1.483 0 2.212.623.735.623.735 1.724zm-3.206.802q.475 0 .931-.238.455-.239.735-.67v-1.544h-.868q-1.107 0-1.582.351-.477.345-.476.955 0 .557.315.855.321.291.945.291m12.125.544a3.8 3.8 0 0 1-.973.398 4.6 4.6 0 0 1-1.183.152q-1.288 0-1.96-.629-.665-.638-.665-1.671v-3.799h-1.645v-1.08h1.645v-1.565l1.568-.179v1.744h2.492l-.175 1.08h-2.317v3.786q0 .564.294.842.301.271.98.271a2.9 2.9 0 0 0 1.372-.331zm3.789-6.629v4.892q0 .623.259.889.266.265.798.265.504 0 .973-.285.469-.286.742-.696v-5.065h1.568v7h-1.351l-.098-.895a2.7 2.7 0 0 1-1.043.802q-.63.272-1.288.272-1.072 0-1.603-.557-.525-.564-.525-1.544v-5.078zm9.514 6.039q.735 0 1.169-.245.434-.252.434-.69a.9.9 0 0 0-.126-.484q-.126-.205-.504-.371-.377-.172-1.148-.358a7.7 7.7 0 0 1-1.281-.424q-.546-.246-.847-.636-.3-.391-.301-1.008 0-.604.357-1.054t1.022-.703q.672-.251 1.575-.252.931 0 1.624.232t1.183.577l-.658.935a4.4 4.4 0 0 0-.952-.444 3.6 3.6 0 0 0-1.155-.173q-.748 0-1.078.212-.322.213-.322.564 0 .258.161.437.168.173.574.325.407.146 1.148.345.722.186 1.253.437.54.252.833.67.301.411.301 1.074 0 .756-.462 1.24-.454.478-1.204.709a5.5 5.5 0 0 1-1.596.225q-1.029 0-1.778-.278a4.4 4.4 0 0 1-1.26-.709l.833-.902q.435.331.994.544.56.205 1.211.205m6.015-8.479q0-.444.343-.749a1.2 1.2 0 0 1 .819-.305q.483 0 .819.305a.97.97 0 0 1 .336.749q0 .226-.077.458-.07.225-.266.61l-1.078 2.167h-1.043l.574-2.406a1 1 0 0 1-.315-.345 1 1 0 0 1-.112-.484m3.108 0q0-.444.343-.749.35-.305.819-.305.49 0 .826.305a.97.97 0 0 1 .336.749q0 .226-.07.458-.07.225-.259.61l-1.092 2.167h-1.043l.581-2.406a1.1 1.1 0 0 1-.322-.345.97.97 0 0 1-.119-.484m6.665 8.419q0-.484.364-.828.365-.352.896-.352.54 0 .896.352.364.344.364.828 0 .498-.364.849a1.23 1.23 0 0 1-.896.351q-.531 0-.896-.351a1.14 1.14 0 0 1-.364-.849m0-4.706q0-.325.168-.597t.455-.431q.288-.159.637-.159.54 0 .896.351.364.346.364.836t-.364.848a1.23 1.23 0 0 1-.896.352q-.531 0-.896-.352a1.15 1.15 0 0 1-.364-.848"/><path fill="#039708" d="M186.724 123.576a.96.96 0 0 1-.343.749 1.18 1.18 0 0 1-.819.305 1.17 1.17 0 0 1-.826-.305 1 1 0 0 1-.322-.749q0-.213.063-.451t.252-.617l1.085-2.167h1.05l-.581 2.399a1 1 0 0 1 .315.352.93.93 0 0 1 .126.484m3.115 0a.96.96 0 0 1-.343.749 1.2 1.2 0 0 1-.819.305q-.483 0-.819-.305a.98.98 0 0 1-.329-.749q0-.213.063-.451a3.2 3.2 0 0 1 .259-.617l1.092-2.167h1.043l-.588 2.399a.96.96 0 0 1 .322.352 1 1 0 0 1 .119.484m5.49 6.264q.735 0 1.169-.245.434-.252.434-.69a.9.9 0 0 0-.126-.484q-.126-.205-.504-.371-.378-.172-1.148-.358a7.6 7.6 0 0 1-1.281-.424q-.546-.246-.847-.636-.301-.391-.301-1.008 0-.604.357-1.054t1.022-.703q.672-.251 1.575-.252.93 0 1.624.232.693.232 1.183.577l-.658.935a4.4 4.4 0 0 0-.952-.444 3.6 3.6 0 0 0-1.155-.173q-.75 0-1.078.212-.322.213-.322.564 0 .258.161.437.168.173.574.325.405.146 1.148.345.72.186 1.253.437.539.252.833.67.3.411.301 1.074 0 .756-.462 1.24-.456.478-1.204.709a5.5 5.5 0 0 1-1.596.225q-1.03 0-1.778-.278-.75-.285-1.26-.709l.833-.902q.433.331.994.544.56.205 1.211.205m7.274-6.039v4.892q0 .623.259.889.266.265.798.265.504 0 .973-.285.47-.286.742-.696v-5.065h1.568v7h-1.351l-.098-.895q-.413.525-1.043.802-.63.272-1.288.272-1.07 0-1.603-.557-.525-.564-.525-1.544v-5.078zm10.39 5.96q.518 0 .966-.166.447-.173.854-.444l.728.954a4 4 0 0 1-1.176.637 4.3 4.3 0 0 1-1.421.238q-1.134 0-1.939-.45a3.07 3.07 0 0 1-1.232-1.28q-.427-.822-.427-1.916 0-1.067.427-1.902a3.24 3.24 0 0 1 1.246-1.326q.812-.49 1.953-.491.756 0 1.393.212.636.213 1.169.63l-.721.935a3.7 3.7 0 0 0-.889-.431 2.9 2.9 0 0 0-.924-.152q-.876 0-1.435.609-.553.61-.553 1.916 0 .875.252 1.412.258.53.707.776.447.239 1.022.239m8.394 0q.518 0 .966-.166.448-.173.854-.444l.728.954a4 4 0 0 1-1.176.637 4.3 4.3 0 0 1-1.421.238q-1.134 0-1.939-.45a3.07 3.07 0 0 1-1.232-1.28q-.427-.822-.427-1.916 0-1.067.427-1.902a3.24 3.24 0 0 1 1.246-1.326q.812-.49 1.953-.491.756 0 1.393.212.637.213 1.169.63l-.721.935a3.7 3.7 0 0 0-.889-.431 2.9 2.9 0 0 0-.924-.152q-.875 0-1.435.609-.553.61-.553 1.916 0 .875.252 1.412.259.53.707.776.448.239 1.022.239m6.134-1.983q.049.717.322 1.174.273.45.714.663.447.212.98.212.546 0 1.008-.159.462-.16.931-.451l.679.888a4.3 4.3 0 0 1-1.211.637 4.5 4.5 0 0 1-1.484.238q-1.148 0-1.946-.464a3.03 3.03 0 0 1-1.204-1.292q-.413-.83-.413-1.916 0-1.055.406-1.883a3.2 3.2 0 0 1 1.162-1.319q.756-.49 1.806-.491.987 0 1.694.425.714.424 1.099 1.206.392.775.392 1.87 0 .178-.014.357a5 5 0 0 1-.021.305zm1.764-3.062q-.735 0-1.218.497-.477.496-.553 1.551h3.423q-.022-.988-.448-1.518-.42-.53-1.204-.53m8.016 5.124q.735 0 1.169-.245.434-.252.434-.69a.9.9 0 0 0-.126-.484q-.126-.205-.504-.371-.377-.172-1.148-.358a7.7 7.7 0 0 1-1.281-.424q-.546-.246-.847-.636-.3-.391-.301-1.008 0-.604.357-1.054t1.022-.703q.672-.251 1.575-.252.931 0 1.624.232t1.183.577l-.658.935a4.4 4.4 0 0 0-.952-.444 3.6 3.6 0 0 0-1.155-.173q-.748 0-1.078.212-.322.213-.322.564 0 .258.161.437.168.173.574.325.407.146 1.148.345.722.186 1.253.437.54.252.833.67.301.411.301 1.074 0 .756-.462 1.24-.454.478-1.204.709a5.5 5.5 0 0 1-1.596.225q-1.029 0-1.778-.278a4.4 4.4 0 0 1-1.26-.709l.833-.902q.435.331.994.544.56.205 1.211.205m8.395 0q.734 0 1.169-.245.434-.252.434-.69a.9.9 0 0 0-.126-.484q-.126-.205-.504-.371-.378-.172-1.148-.358a7.6 7.6 0 0 1-1.281-.424q-.547-.246-.847-.636-.301-.391-.301-1.008 0-.604.357-1.054.356-.45 1.022-.703.672-.251 1.575-.252.93 0 1.624.232.693.232 1.183.577l-.658.935a4.4 4.4 0 0 0-.952-.444 3.6 3.6 0 0 0-1.155-.173q-.75 0-1.078.212-.322.213-.322.564 0 .258.161.437.168.173.574.325.405.146 1.148.345.72.186 1.253.437.539.252.833.67.3.411.301 1.074 0 .756-.462 1.24-.456.478-1.204.709a5.5 5.5 0 0 1-1.596.225q-1.03 0-1.778-.278-.75-.285-1.26-.709l.833-.902q.433.331.994.544.56.205 1.211.205m6.014-8.479q0-.444.343-.749t.819-.305q.483 0 .819.305a.97.97 0 0 1 .336.749q0 .226-.077.458-.07.225-.266.61l-1.078 2.167h-1.043l.574-2.406a1 1 0 0 1-.315-.345 1 1 0 0 1-.112-.484m3.108 0q0-.444.343-.749.351-.305.819-.305.49 0 .826.305a.97.97 0 0 1 .336.749q0 .226-.07.458-.07.225-.259.61l-1.092 2.167h-1.043l.581-2.406a1.1 1.1 0 0 1-.322-.345 1 1 0 0 1-.119-.484"/><path fill="#bbb" d="M271.145 128.415q.554 0 .917.351.364.345.364.849 0 .298-.098.603-.09.298-.301.736l-1.085 2.347h-1.218l.686-2.692a1.2 1.2 0 0 1-.392-.424 1.2 1.2 0 0 1-.14-.577q0-.497.364-.842.364-.351.903-.351M85.724 148.198a.96.96 0 0 1-.343.749 1.17 1.17 0 0 1-.819.305q-.497 0-.826-.305a1 1 0 0 1-.322-.749q0-.212.063-.451.063-.238.252-.616l1.085-2.168h1.05l-.581 2.4a1 1 0 0 1 .315.351.93.93 0 0 1 .126.484m3.115 0a.96.96 0 0 1-.343.749 1.2 1.2 0 0 1-.819.305q-.483 0-.819-.305a.98.98 0 0 1-.329-.749q0-.212.063-.451.063-.238.259-.616l1.092-2.168h1.043l-.588 2.4a.98.98 0 0 1 .441.835m4.104 4.203q.049.715.322 1.173.273.451.714.663.447.212.98.212.546 0 1.008-.159t.931-.451l.679.889a4.2 4.2 0 0 1-1.211.636 4.5 4.5 0 0 1-1.484.239q-1.149 0-1.946-.464a3.04 3.04 0 0 1-1.204-1.293q-.413-.828-.413-1.916 0-1.054.406-1.882.405-.835 1.162-1.32.756-.49 1.806-.49.987 0 1.694.424.714.424 1.099 1.207.392.775.392 1.869 0 .179-.014.358a5 5 0 0 1-.021.305zm1.764-3.063q-.735 0-1.218.497-.477.498-.553 1.552h3.423q-.022-.988-.448-1.518-.42-.531-1.204-.531m10.424-1.1q.42 0 .756.172.336.173.525.603.196.431.196 1.207v5.204h-1.393v-4.999q0-.55-.084-.788-.077-.239-.413-.239-.266 0-.539.159-.273.152-.553.53v5.337h-1.267v-4.999q0-.55-.084-.788-.077-.239-.413-.239-.273 0-.546.159-.266.152-.546.53v5.337h-1.4v-7.001h1.183l.105.756q.315-.417.686-.676.37-.265.896-.265.42 0 .763.199.344.198.504.696.308-.397.7-.643a1.67 1.67 0 0 1 .924-.252m8.948 5.469q0 .411.133.603.132.186.427.279l-.35 1.007a2.4 2.4 0 0 1-.938-.285 1.42 1.42 0 0 1-.595-.683 2.5 2.5 0 0 1-1.029.73 3.6 3.6 0 0 1-1.33.245q-1.12 0-1.778-.597-.651-.603-.651-1.578 0-1.106.91-1.703.909-.597 2.604-.597h1.057v-.457q0-.677-.434-.975-.428-.298-1.211-.298-.364 0-.882.093a7 7 0 0 0-1.085.272l-.385-1.048a8 8 0 0 1 1.358-.358 7 7 0 0 1 1.232-.119q1.483 0 2.212.623.735.624.735 1.724zm-3.206.802q.475 0 .931-.239.455-.238.735-.669v-1.545h-.868q-1.107 0-1.582.352-.477.345-.476.954 0 .556.315.855.321.291.945.292m9.99-6.086v5.914h2.009v1.087h-5.789v-1.087h2.212v-4.826h-2.142v-1.088zm-1.092-3.427q.462 0 .742.265a.87.87 0 0 1 .287.663.9.9 0 0 1-.287.67q-.28.272-.742.272-.448 0-.735-.272a.9.9 0 0 1-.287-.67q0-.397.287-.663.287-.265.735-.265m8.696.617v7.902q0 .484.308.689.315.2.812.199.321 0 .609-.066.287-.067.56-.166l.399 1.034q-.33.159-.812.279a4.6 4.6 0 0 1-1.092.119q-1.113 0-1.736-.59-.616-.597-.616-1.631v-6.675h-2.233v-1.094zm5.454.371q0-.444.343-.749t.819-.305q.483 0 .819.305a.97.97 0 0 1 .336.749q0 .226-.077.457a4 4 0 0 1-.266.61l-1.078 2.168h-1.043l.574-2.406a1 1 0 0 1-.315-.345 1 1 0 0 1-.112-.484m3.108 0q0-.444.343-.749.351-.305.819-.305.49 0 .826.305a.97.97 0 0 1 .336.749q0 .226-.07.457a4.4 4.4 0 0 1-.259.61l-1.092 2.168h-1.043l.581-2.406a1.1 1.1 0 0 1-.322-.345 1 1 0 0 1-.119-.484m6.666 8.419a1.1 1.1 0 0 1 .364-.829 1.24 1.24 0 0 1 .896-.351q.539 0 .896.351.363.345.364.829 0 .498-.364.848a1.23 1.23 0 0 1-.896.352 1.24 1.24 0 0 1-.896-.352 1.13 1.13 0 0 1-.364-.848m0-4.707q0-.325.168-.596.168-.272.455-.431a1.3 1.3 0 0 1 .637-.159q.539 0 .896.351.363.345.364.835 0 .49-.364.849a1.23 1.23 0 0 1-.896.351 1.24 1.24 0 0 1-.896-.351 1.15 1.15 0 0 1-.364-.849"/><path fill="#fecb0e" d="M186.724 148.198a.96.96 0 0 1-.343.749 1.17 1.17 0 0 1-.819.305q-.497 0-.826-.305a1 1 0 0 1-.322-.749q0-.212.063-.451.063-.238.252-.616l1.085-2.168h1.05l-.581 2.4a1 1 0 0 1 .315.351.93.93 0 0 1 .126.484m3.115 0a.96.96 0 0 1-.343.749 1.2 1.2 0 0 1-.819.305q-.483 0-.819-.305a.98.98 0 0 1-.329-.749q0-.212.063-.451.063-.238.259-.616l1.092-2.168h1.043l-.588 2.4a.98.98 0 0 1 .441.835m4.37.225v4.893q0 .623.259.888.266.265.798.265.504 0 .973-.285t.742-.696v-5.065h1.568v7.001h-1.351l-.098-.895a2.7 2.7 0 0 1-1.043.802q-.63.272-1.288.272-1.072 0-1.603-.557-.525-.563-.525-1.545v-5.078zm9.514 6.04q.735 0 1.169-.246.434-.25.434-.689a.9.9 0 0 0-.126-.484q-.126-.205-.504-.371-.378-.172-1.148-.358a8 8 0 0 1-1.281-.424q-.546-.246-.847-.637-.301-.39-.301-1.008 0-.603.357-1.054.357-.45 1.022-.702.672-.252 1.575-.252.931 0 1.624.232a4.5 4.5 0 0 1 1.183.577l-.658.934a4.4 4.4 0 0 0-.952-.444 3.6 3.6 0 0 0-1.155-.172q-.749 0-1.078.212-.322.213-.322.563 0 .26.161.438.168.172.574.325.406.146 1.148.344.721.187 1.253.438.539.252.833.67.301.41.301 1.073 0 .756-.462 1.24-.455.478-1.204.709a5.4 5.4 0 0 1-1.596.226q-1.03 0-1.778-.279a4.4 4.4 0 0 1-1.26-.709l.833-.901q.434.33.994.543.56.206 1.211.206m7.009-2.062q.049.715.322 1.173.273.451.714.663.447.212.98.212.546 0 1.008-.159t.931-.451l.679.889a4.2 4.2 0 0 1-1.211.636 4.5 4.5 0 0 1-1.484.239q-1.149 0-1.946-.464a3.04 3.04 0 0 1-1.204-1.293q-.413-.828-.413-1.916 0-1.054.406-1.882.405-.835 1.162-1.32.756-.49 1.806-.49.987 0 1.694.424.714.424 1.099 1.207.392.775.392 1.869 0 .179-.014.358a5 5 0 0 1-.021.305zm1.764-3.063q-.735 0-1.218.497-.477.498-.553 1.552h3.423q-.022-.988-.448-1.518-.42-.531-1.204-.531m5.398 6.086v-1.061h1.085v-4.886h-1.085v-1.054h2.282l.287 1.625q.413-.882 1.022-1.339.616-.465 1.582-.465a3 3 0 0 1 .588.054q.266.046.525.125l-.469 1.273a3.4 3.4 0 0 0-.854-.119q-.805 0-1.393.57-.58.57-.917 1.618v2.598h1.491v1.061zm4.9-4.422v-1.723l.196-.856h1.19l-.266 2.579zm6.169-4.912q1.05 0 1.792.292.741.285 1.225.802.49.51.763 1.206t.385 1.512q.111.815.112 1.69 0 1.671-.168 2.798-.168 1.12-.63 1.683-.456.57-1.316.571-.42 0-.735-.179a1.6 1.6 0 0 1-.511-.464 2.2 2.2 0 0 1-.301-.604 2.6 2.6 0 0 1-.112-.623h-.056a2.6 2.6 0 0 1-.385.61 1.9 1.9 0 0 1-.623.477q-.378.186-.924.186-.785 0-1.26-.398-.477-.39-.693-1.08a5.2 5.2 0 0 1-.217-1.558q0-1.69.728-2.579.727-.895 2.107-.895.518 0 1.022.119.51.113 1.099.411v3.938q0 .63.105.975.104.345.287.477a.73.73 0 0 0 .427.133q.28 0 .434-.272.16-.272.231-.782a11 11 0 0 0 .084-1.247q.014-.729.014-1.644 0-.981-.119-1.796-.112-.823-.427-1.419a2.2 2.2 0 0 0-.882-.921q-.575-.325-1.491-.325-.708 0-1.491.252-.777.25-1.638.968l-.756-.829q.951-.783 1.925-1.134a5.9 5.9 0 0 1 1.995-.351m-.798 4.455q-.805 0-1.099.596-.294.59-.294 1.87 0 .637.084 1.087t.294.689q.21.24.567.239.426 0 .665-.186.237-.186.357-.437a4 4 0 0 0 .182-.451v-3.235a1.7 1.7 0 0 0-.364-.132 1.8 1.8 0 0 0-.392-.04m7.75 1.856q.05.715.322 1.173.273.451.714.663.449.212.98.212.546 0 1.008-.159.463-.159.931-.451l.679.889a4.2 4.2 0 0 1-1.211.636 4.5 4.5 0 0 1-1.484.239q-1.148 0-1.946-.464a3.05 3.05 0 0 1-1.204-1.293q-.413-.828-.413-1.916 0-1.054.406-1.882a3.2 3.2 0 0 1 1.162-1.32q.756-.49 1.806-.49.987 0 1.694.424.714.424 1.099 1.207.392.775.392 1.869 0 .179-.014.358a4 4 0 0 1-.021.305zm1.764-3.063q-.735 0-1.218.497-.475.498-.553 1.552h3.423q-.02-.988-.448-1.518-.42-.531-1.204-.531m6.421 6.086h-1.736l2.653-3.693-2.359-3.308h1.806l1.512 2.467 1.512-2.467h1.722l-2.31 3.249 2.66 3.752h-1.841l-1.813-2.857zm12.951-1.717q0 .411.133.603.133.186.427.279l-.35 1.007a2.4 2.4 0 0 1-.938-.285 1.43 1.43 0 0 1-.595-.683q-.405.484-1.029.73a3.6 3.6 0 0 1-1.33.245q-1.12 0-1.778-.597-.651-.603-.651-1.578 0-1.106.91-1.703t2.604-.597h1.057v-.457q0-.677-.434-.975-.426-.298-1.211-.298-.363 0-.882.093a7 7 0 0 0-1.085.272l-.385-1.048a8 8 0 0 1 1.358-.358 7 7 0 0 1 1.232-.119q1.485 0 2.212.623.735.624.735 1.724zm-3.206.802q.477 0 .931-.239.456-.238.735-.669v-1.545h-.868q-1.105 0-1.582.352-.476.345-.476.954 0 .556.315.855.322.291.945.292m11.048-6.271q.42 0 .756.172.336.173.525.603.196.431.196 1.207v5.204h-1.393v-4.999q0-.55-.084-.788-.078-.239-.413-.239-.267 0-.539.159-.274.152-.553.53v5.337h-1.267v-4.999q0-.55-.084-.788-.078-.239-.413-.239-.273 0-.546.159-.267.152-.546.53v5.337h-1.4v-7.001h1.183l.105.756q.315-.417.686-.676.37-.265.896-.265.42 0 .763.199.342.198.504.696.307-.397.7-.643a1.67 1.67 0 0 1 .924-.252m6.903 0q.98 0 1.568.457.588.451.854 1.28.267.822.266 1.935 0 1.068-.322 1.903-.321.835-.959 1.313-.63.477-1.568.477-1.161 0-1.876-.776v3.288l-1.568.166v-9.858h1.365l.098.902q.42-.544.973-.815a2.65 2.65 0 0 1 1.169-.272m-.434 1.147a1.5 1.5 0 0 0-.924.298 3 3 0 0 0-.679.703v3.274q.267.378.63.584.371.199.833.199.792 0 1.204-.604.414-.603.413-1.922 0-.895-.168-1.452-.16-.563-.49-.822-.321-.258-.819-.258m8.472-3.772v7.902q0 .484.308.689.315.2.812.199.322 0 .609-.066.287-.067.56-.166l.399 1.034q-.329.159-.812.279a4.5 4.5 0 0 1-1.092.119q-1.113 0-1.736-.59-.616-.597-.616-1.631v-6.675h-2.233v-1.094zm6.448 6.788q.05.715.322 1.173.273.451.714.663.449.212.98.212.546 0 1.008-.159.463-.159.931-.451l.679.889a4.2 4.2 0 0 1-1.211.636 4.5 4.5 0 0 1-1.484.239q-1.148 0-1.946-.464a3.05 3.05 0 0 1-1.204-1.293q-.413-.828-.413-1.916 0-1.054.406-1.882a3.2 3.2 0 0 1 1.162-1.32q.756-.49 1.806-.49.987 0 1.694.424.715.424 1.099 1.207.392.775.392 1.869 0 .179-.014.358a4 4 0 0 1-.021.305zm1.764-3.063q-.735 0-1.218.497-.475.498-.553 1.552h3.423q-.02-.988-.448-1.518-.42-.531-1.204-.531m6.925 4.979a1.2 1.2 0 0 1 .175-.643q.182-.292.49-.464t.686-.173q.386 0 .693.173.308.172.483.464.182.285.182.643 0 .351-.182.649-.175.293-.483.464a1.4 1.4 0 0 1-.693.173q-.378 0-.686-.173a1.3 1.3 0 0 1-.49-.464 1.25 1.25 0 0 1-.175-.649m10.361.066q.519 0 .966-.166.449-.172.854-.444l.728.955q-.483.39-1.176.636a4.3 4.3 0 0 1-1.421.239q-1.134 0-1.939-.451a3.1 3.1 0 0 1-1.232-1.279q-.426-.823-.427-1.916 0-1.067.427-1.903a3.26 3.26 0 0 1 1.246-1.326q.813-.49 1.953-.49.757 0 1.393.212.638.212 1.169.63l-.721.934a3.6 3.6 0 0 0-.889-.43 2.8 2.8 0 0 0-.924-.153q-.874 0-1.435.61-.553.61-.553 1.916 0 .875.252 1.412.26.53.707.775.449.24 1.022.239m7.793-6.145q1.085 0 1.827.457a2.87 2.87 0 0 1 1.12 1.28q.385.822.385 1.935 0 1.107-.392 1.943a2.94 2.94 0 0 1-1.134 1.292q-.742.458-1.813.458t-1.82-.444a2.9 2.9 0 0 1-1.134-1.28q-.385-.828-.385-1.955 0-1.095.385-1.923a3 3 0 0 1 1.141-1.292q.749-.471 1.82-.471m0 1.153q-.847 0-1.274.617-.427.61-.427 1.916 0 1.299.42 1.915.427.617 1.274.617t1.267-.617q.427-.616.427-1.929 0-1.292-.42-1.902-.42-.617-1.267-.617m10.53-1.153q.42 0 .756.172.336.173.525.603.195.431.196 1.207v5.204h-1.393v-4.999q0-.55-.084-.788-.077-.239-.413-.239-.267 0-.539.159-.274.152-.553.53v5.337h-1.267v-4.999q0-.55-.084-.788-.077-.239-.413-.239-.273 0-.546.159-.267.152-.546.53v5.337h-1.4v-7.001h1.183l.105.756q.314-.417.686-.676.37-.265.896-.265.42 0 .763.199.342.198.504.696.307-.397.7-.643a1.67 1.67 0 0 1 .924-.252m3.606-2.254q0-.444.343-.749t.819-.305q.483 0 .819.305a.97.97 0 0 1 .336.749q0 .226-.077.457a4 4 0 0 1-.266.61l-1.078 2.168h-1.043l.574-2.406a1 1 0 0 1-.315-.345 1 1 0 0 1-.112-.484m3.108 0q0-.444.343-.749.35-.305.819-.305.49 0 .826.305a.97.97 0 0 1 .336.749q0 .226-.07.457a4.5 4.5 0 0 1-.259.61l-1.092 2.168h-1.043l.581-2.406a1.1 1.1 0 0 1-.322-.345 1 1 0 0 1-.119-.484"/><path fill="#bbb" d="M346.696 153.037q.553 0 .917.352.364.344.364.848 0 .299-.098.603a5.5 5.5 0 0 1-.301.736l-1.085 2.347h-1.218l.686-2.691a1.17 1.17 0 0 1-.532-1.001q0-.498.364-.842.364-.352.903-.352M85.724 172.821a.96.96 0 0 1-.343.749 1.18 1.18 0 0 1-.819.305 1.17 1.17 0 0 1-.826-.305 1 1 0 0 1-.322-.749q0-.213.063-.451t.252-.617l1.085-2.167h1.05l-.581 2.399a1 1 0 0 1 .315.352.93.93 0 0 1 .126.484m3.115 0a.96.96 0 0 1-.343.749 1.2 1.2 0 0 1-.819.305q-.483 0-.819-.305a.98.98 0 0 1-.329-.749q0-.213.063-.451a3.2 3.2 0 0 1 .259-.617l1.092-2.167h1.043l-.588 2.399a.96.96 0 0 1 .322.352 1 1 0 0 1 .119.484m9.277.225-2.604 7h-1.834l-2.604-7h1.68l1.876 5.767 1.883-5.767zm7.568 5.283q0 .411.133.604.133.186.427.278l-.35 1.008a2.4 2.4 0 0 1-.938-.285 1.43 1.43 0 0 1-.595-.683 2.5 2.5 0 0 1-1.029.729 3.6 3.6 0 0 1-1.33.245q-1.12 0-1.778-.596-.651-.604-.651-1.578 0-1.107.91-1.704.91-.596 2.604-.596h1.057v-.458q0-.676-.434-.974-.427-.299-1.211-.299-.364 0-.882.093a7.5 7.5 0 0 0-1.085.272l-.385-1.047a8 8 0 0 1 1.358-.358q.665-.12 1.232-.12 1.484 0 2.212.624.735.622.735 1.723zm-3.206.803q.476 0 .931-.239t.735-.67v-1.544h-.868q-1.106 0-1.582.351-.476.345-.476.955 0 .556.315.855.323.291.945.292m9.2-8.897v7.902q0 .484.308.69.314.198.812.198.321 0 .609-.066.287-.066.56-.166l.399 1.035q-.33.159-.812.278-.477.12-1.092.119-1.113 0-1.736-.59-.616-.596-.616-1.63v-6.676h-2.233v-1.094zm9.185 2.811v5.913h2.009v1.087h-5.789v-1.087h2.212v-4.826h-2.142v-1.087zm-1.092-3.427q.462 0 .742.265a.87.87 0 0 1 .287.663.9.9 0 0 1-.287.669q-.28.272-.742.272-.448 0-.735-.272a.9.9 0 0 1-.287-.669q0-.398.287-.663t.735-.265m9.788.45 1.568.166v9.811h-1.379l-.112-.861a2.7 2.7 0 0 1-.903.769q-.525.27-1.176.271-.953 0-1.568-.457-.617-.465-.917-1.293-.294-.835-.294-1.929 0-1.067.35-1.896.35-.835 1.001-1.312t1.568-.478q.58 0 1.043.199.462.193.819.564zm-1.449 3.932q-.792 0-1.232.623-.441.617-.441 1.922 0 .895.182 1.459.181.557.525.822.343.258.826.258.531 0 .924-.292.392-.292.665-.702v-3.315a2 2 0 0 0-.637-.57 1.6 1.6 0 0 0-.812-.205m5.811-3.395q0-.443.343-.749.344-.305.819-.305.483 0 .819.305a.97.97 0 0 1 .336.749q0 .227-.077.458-.07.225-.266.61l-1.078 2.167h-1.043l.574-2.406a1 1 0 0 1-.315-.345 1 1 0 0 1-.112-.484m3.108 0q0-.443.343-.749.351-.305.819-.305.49 0 .826.305a.97.97 0 0 1 .336.749q0 .227-.07.458-.07.225-.259.61l-1.092 2.167h-1.043l.581-2.406a1.1 1.1 0 0 1-.322-.345 1 1 0 0 1-.119-.484m6.666 8.419a1.1 1.1 0 0 1 .364-.828 1.24 1.24 0 0 1 .896-.352q.539 0 .896.352.363.345.364.828 0 .498-.364.849a1.23 1.23 0 0 1-.896.351 1.24 1.24 0 0 1-.896-.351 1.14 1.14 0 0 1-.364-.849m0-4.706q0-.326.168-.597.168-.272.455-.431a1.3 1.3 0 0 1 .637-.159q.539 0 .896.352.363.345.364.835 0 .49-.364.848a1.23 1.23 0 0 1-.896.352 1.24 1.24 0 0 1-.896-.352 1.15 1.15 0 0 1-.364-.848"/><path fill="#a88ef8" d="M190.42 179.675a3.7 3.7 0 0 1-.973.398 4.6 4.6 0 0 1-1.183.152q-1.288 0-1.96-.629-.665-.638-.665-1.671v-3.798h-1.645v-1.081h1.645v-1.565l1.568-.178v1.743h2.492l-.175 1.081h-2.317v3.785q0 .564.294.842.301.271.98.271a2.9 2.9 0 0 0 1.372-.331zm2.291.371v-1.06h1.085V174.1h-1.085v-1.054h2.282l.287 1.624q.413-.882 1.022-1.339.615-.464 1.582-.464.328 0 .588.053.266.047.525.126l-.469 1.273a3.5 3.5 0 0 0-.854-.12q-.805 0-1.393.571-.582.57-.917 1.617v2.599h1.491v1.06zm4.9-4.421v-1.724l.196-.855h1.19l-.266 2.579zm4.992-2.579v4.892q0 .623.259.889.266.265.798.265.504 0 .973-.285.47-.287.742-.696v-5.065h1.568v7h-1.351l-.098-.895q-.413.524-1.043.803a3.2 3.2 0 0 1-1.288.271q-1.07 0-1.603-.557-.525-.563-.525-1.544v-5.078zm8.129 3.977q.049.717.322 1.174.273.45.714.663.447.212.98.212.546 0 1.008-.159.462-.16.931-.451l.679.888a4.3 4.3 0 0 1-1.211.637 4.5 4.5 0 0 1-1.484.238q-1.149 0-1.946-.464a3.03 3.03 0 0 1-1.204-1.292q-.413-.83-.413-1.916 0-1.055.406-1.883a3.2 3.2 0 0 1 1.162-1.319q.756-.49 1.806-.491.987 0 1.694.425.714.424 1.099 1.206.392.775.392 1.87 0 .178-.014.358a5 5 0 0 1-.021.304zm1.764-3.062q-.735 0-1.218.497-.477.497-.553 1.551h3.423q-.022-.988-.448-1.518-.42-.53-1.204-.53"/><path fill="#bbb" d="M229.173 177.66q.552 0 .917.351.364.345.364.849 0 .298-.098.603a5.5 5.5 0 0 1-.301.736l-1.085 2.347h-1.218l.686-2.692a1.17 1.17 0 0 1-.532-1.001q0-.497.364-.842.363-.351.903-.351M85.724 197.443a.96.96 0 0 1-.343.749 1.17 1.17 0 0 1-.819.305q-.497 0-.826-.305a1 1 0 0 1-.322-.749q0-.212.063-.451.063-.238.252-.616l1.085-2.168h1.05l-.581 2.4a1 1 0 0 1 .315.351.93.93 0 0 1 .126.484m3.115 0a.96.96 0 0 1-.343.749 1.2 1.2 0 0 1-.819.305q-.483 0-.819-.305a.98.98 0 0 1-.329-.749q0-.212.063-.451.063-.238.259-.616l1.092-2.168h1.043l-.588 2.4a.98.98 0 0 1 .441.835m7.142-2.751 1.568.166v9.811H96.17l-.112-.862a2.66 2.66 0 0 1-.903.769q-.525.272-1.176.272-.953 0-1.568-.458-.617-.464-.917-1.292-.294-.835-.294-1.929 0-1.068.35-1.896.35-.836 1.001-1.313t1.568-.477q.58 0 1.043.199.462.192.819.563zm-1.449 3.931q-.792 0-1.232.623-.441.617-.441 1.923 0 .894.182 1.458.181.556.525.822.343.259.826.259.531 0 .924-.292.392-.291.665-.703v-3.314a2 2 0 0 0-.637-.57 1.6 1.6 0 0 0-.812-.206m9.542-.955v5.914h2.009v1.087h-5.789v-1.087h2.212v-4.826h-2.142v-1.088zm-1.092-3.427q.462 0 .742.265a.87.87 0 0 1 .287.663.9.9 0 0 1-.287.67q-.28.272-.742.272-.448 0-.735-.272a.9.9 0 0 1-.287-.67q0-.397.287-.663.287-.265.735-.265m8.136 9.467q.734 0 1.169-.246.434-.25.434-.689a.9.9 0 0 0-.126-.484q-.126-.205-.504-.371-.378-.172-1.148-.358a8 8 0 0 1-1.281-.424q-.547-.246-.847-.637-.301-.39-.301-1.007 0-.604.357-1.055.356-.45 1.022-.702.672-.252 1.575-.252.93 0 1.624.232.693.231 1.183.577l-.658.934a4.4 4.4 0 0 0-.952-.444 3.6 3.6 0 0 0-1.155-.172q-.75 0-1.078.212-.322.213-.322.563 0 .26.161.438.168.172.574.325.405.145 1.148.345.72.186 1.253.437.539.252.833.67.3.41.301 1.073 0 .756-.462 1.24-.456.478-1.204.709a5.4 5.4 0 0 1-1.596.226q-1.03 0-1.778-.279-.75-.285-1.26-.709l.833-.901q.433.33.994.543.56.206 1.211.206m9.311-6.225q.98 0 1.568.457.588.451.854 1.28.266.822.266 1.935 0 1.068-.322 1.903t-.959 1.313q-.63.477-1.568.477-1.162 0-1.876-.776v3.288l-1.568.166v-9.858h1.365l.098.902q.42-.544.973-.815a2.65 2.65 0 0 1 1.169-.272m-.434 1.147a1.5 1.5 0 0 0-.924.298 3 3 0 0 0-.679.703v3.275q.266.377.63.583.37.199.833.199.791 0 1.204-.604.413-.603.413-1.922 0-.895-.168-1.452-.161-.563-.49-.822-.323-.258-.819-.258m8.185-1.147q1.084 0 1.827.457t1.12 1.28q.385.822.385 1.935 0 1.107-.392 1.943a2.94 2.94 0 0 1-1.134 1.292q-.742.458-1.813.458t-1.82-.444a2.9 2.9 0 0 1-1.134-1.28q-.385-.828-.385-1.955 0-1.095.385-1.923a3 3 0 0 1 1.141-1.292q.749-.471 1.82-.471m0 1.153q-.848 0-1.274.617-.427.61-.427 1.916 0 1.299.42 1.915.426.618 1.274.617.846 0 1.267-.617.427-.616.427-1.929 0-1.292-.42-1.902-.42-.617-1.267-.617m8.121 5.072q.735 0 1.169-.246.434-.25.434-.689a.9.9 0 0 0-.126-.484q-.126-.205-.504-.371-.377-.172-1.148-.358a8 8 0 0 1-1.281-.424q-.546-.246-.847-.637-.3-.39-.301-1.007 0-.604.357-1.055t1.022-.702q.672-.252 1.575-.252.931 0 1.624.232.694.231 1.183.577l-.658.934a4.4 4.4 0 0 0-.952-.444 3.6 3.6 0 0 0-1.155-.172q-.748 0-1.078.212-.322.213-.322.563 0 .26.161.438.168.172.574.325.407.145 1.148.345.722.186 1.253.437.54.252.833.67.301.41.301 1.073 0 .756-.462 1.24-.454.478-1.204.709a5.4 5.4 0 0 1-1.596.226q-1.029 0-1.778-.279a4.4 4.4 0 0 1-1.26-.709l.833-.901q.435.33.994.543.56.206 1.211.206m11.356-.756q0 .411.133.603.132.186.427.279l-.35 1.007a2.4 2.4 0 0 1-.938-.285 1.42 1.42 0 0 1-.595-.683 2.5 2.5 0 0 1-1.029.73 3.6 3.6 0 0 1-1.33.245q-1.12 0-1.778-.597-.651-.603-.651-1.578 0-1.106.91-1.703.909-.597 2.604-.597h1.057v-.457q0-.677-.434-.975-.428-.298-1.211-.298-.364 0-.882.093a7.4 7.4 0 0 0-1.085.272l-.385-1.048a8 8 0 0 1 1.358-.358 7 7 0 0 1 1.232-.119q1.483 0 2.212.623.735.624.735 1.724zm-3.206.802q.475 0 .931-.239.454-.239.735-.669v-1.545h-.868q-1.107 0-1.582.352-.477.345-.476.954 0 .556.315.855.321.291.945.292m7.519-5.25a2.9 2.9 0 0 1 .896-.749 2.4 2.4 0 0 1 1.134-.272q.974 0 1.575.457.61.451.889 1.28.288.822.287 1.935 0 1.068-.336 1.903t-.994 1.313q-.65.477-1.61.477-1.238 0-1.946-.869l-.084.69h-1.379v-9.811l1.568-.166zm1.449 5.21q.798 0 1.232-.616.441-.616.441-1.936 0-.895-.175-1.452-.174-.563-.518-.822-.336-.258-.826-.258a1.5 1.5 0 0 0-.924.298 3 3 0 0 0-.679.703v3.275q.26.377.623.596.372.212.826.212m8.626-8.856v7.902q0 .484.308.689.315.2.812.199.321 0 .609-.066.287-.067.56-.166l.399 1.034q-.33.159-.812.279a4.6 4.6 0 0 1-1.092.119q-1.113 0-1.736-.59-.616-.597-.616-1.631v-6.675h-2.233v-1.094zm6.448 6.788q.05.715.322 1.173.273.451.714.663.449.212.98.212.546 0 1.008-.159t.931-.451l.679.889a4.2 4.2 0 0 1-1.211.636 4.5 4.5 0 0 1-1.484.239q-1.148 0-1.946-.464a3.05 3.05 0 0 1-1.204-1.293q-.413-.828-.413-1.916 0-1.053.406-1.882a3.2 3.2 0 0 1 1.162-1.32q.756-.49 1.806-.49.987 0 1.694.424.714.424 1.099 1.207.392.775.392 1.869 0 .179-.014.358a4 4 0 0 1-.021.305zm1.764-3.063q-.735 0-1.218.497-.475.498-.553 1.552h3.423q-.02-.988-.448-1.518-.42-.531-1.204-.531m5.637-3.354q0-.444.343-.749t.819-.305q.483 0 .819.305a.97.97 0 0 1 .336.749q0 .226-.077.457a4 4 0 0 1-.266.61l-1.078 2.168h-1.043l.574-2.406a1 1 0 0 1-.315-.345 1 1 0 0 1-.112-.484m3.108 0q0-.444.343-.749.35-.305.819-.305.49 0 .826.305a.97.97 0 0 1 .336.749q0 .226-.07.457a4.5 4.5 0 0 1-.259.61l-1.092 2.168h-1.043l.581-2.406a1.1 1.1 0 0 1-.322-.345 1 1 0 0 1-.119-.484m6.665 8.419q0-.484.364-.829.365-.351.896-.351.54 0 .896.351a1.1 1.1 0 0 1 .364.829q0 .497-.364.848a1.23 1.23 0 0 1-.896.352q-.531 0-.896-.352a1.14 1.14 0 0 1-.364-.848m0-4.707q0-.325.168-.596.168-.272.455-.431t.637-.159q.54 0 .896.351.364.345.364.835t-.364.849a1.23 1.23 0 0 1-.896.351q-.531 0-.896-.351a1.15 1.15 0 0 1-.364-.849"/><path fill="#31e0d0" d="M234.74 194.692a5.9 5.9 0 0 1 2.205.404l-.462 1.028a3.7 3.7 0 0 0-.777-.212 5 5 0 0 0-.812-.066q-.728 0-1.078.265-.35.258-.35.822v1.239h2.471l-.168 1.094h-2.303v5.403h-1.561v-5.403h-1.68v-1.094h1.68v-1.253q0-.662.35-1.16.357-.504.994-.782.637-.285 1.491-.285m9.55 8.26q0 .411.133.603.132.186.427.279l-.35 1.007a2.4 2.4 0 0 1-.938-.285 1.42 1.42 0 0 1-.595-.683 2.5 2.5 0 0 1-1.029.73 3.6 3.6 0 0 1-1.33.245q-1.12 0-1.778-.597-.651-.603-.651-1.577 0-1.107.91-1.704.909-.597 2.604-.597h1.057v-.457q0-.677-.434-.975-.428-.298-1.211-.298-.364 0-.882.093a7.4 7.4 0 0 0-1.085.272l-.385-1.048a8 8 0 0 1 1.358-.358 7 7 0 0 1 1.232-.119q1.483 0 2.212.623.735.624.735 1.724zm-3.206.802q.475 0 .931-.239.454-.239.735-.669v-1.545h-.868q-1.107 0-1.582.352-.477.345-.476.954 0 .557.315.855.321.292.945.292m9.199-8.896v7.902q0 .484.308.689.315.2.812.199.323 0 .609-.066.287-.067.56-.166l.399 1.034q-.329.159-.812.279a4.5 4.5 0 0 1-1.092.119q-1.113 0-1.736-.59-.616-.597-.616-1.631v-6.675h-2.233v-1.094zm7.835 8.85q.735 0 1.169-.246.434-.25.434-.689a.9.9 0 0 0-.126-.484q-.126-.205-.504-.371-.378-.172-1.148-.358a8 8 0 0 1-1.281-.424q-.546-.246-.847-.637-.301-.39-.301-1.007 0-.604.357-1.055t1.022-.702q.672-.252 1.575-.252.93 0 1.624.232.693.231 1.183.577l-.658.934a4.4 4.4 0 0 0-.952-.444 3.6 3.6 0 0 0-1.155-.172q-.75 0-1.078.212-.322.213-.322.563 0 .26.161.438.168.172.574.325.405.145 1.148.345.72.186 1.253.437.539.252.833.67.3.41.301 1.074 0 .754-.462 1.239-.456.478-1.204.709a5.4 5.4 0 0 1-1.596.226q-1.03 0-1.778-.279-.75-.285-1.26-.709l.833-.901q.433.33.994.543.56.206 1.211.206m7.008-2.062q.05.715.322 1.173.273.451.714.663.448.212.98.212.546 0 1.008-.159t.931-.45l.679.888a4.2 4.2 0 0 1-1.211.636 4.5 4.5 0 0 1-1.484.239q-1.148 0-1.946-.464a3.04 3.04 0 0 1-1.204-1.293q-.413-.828-.413-1.916 0-1.053.406-1.882a3.2 3.2 0 0 1 1.162-1.32q.756-.49 1.806-.49.987 0 1.694.424.714.424 1.099 1.207.392.775.392 1.869 0 .179-.014.358a5 5 0 0 1-.021.305zm1.764-3.063q-.735 0-1.218.498-.476.496-.553 1.551h3.423q-.02-.988-.448-1.518-.42-.531-1.204-.531"/><path fill="#bbb" d="M283.567 202.282q.554 0 .917.352.364.344.364.848 0 .298-.098.604-.09.298-.301.735l-1.085 2.347h-1.218l.686-2.691a1.17 1.17 0 0 1-.532-1.001q0-.498.364-.842.365-.352.903-.352M85.724 222.066a.96.96 0 0 1-.343.749 1.18 1.18 0 0 1-.819.305 1.17 1.17 0 0 1-.826-.305 1 1 0 0 1-.322-.749q0-.212.063-.451t.252-.617l1.085-2.167h1.05l-.581 2.399a1 1 0 0 1 .315.352.93.93 0 0 1 .126.484m3.115 0a.96.96 0 0 1-.343.749 1.2 1.2 0 0 1-.819.305q-.483 0-.819-.305a.98.98 0 0 1-.329-.749q0-.212.063-.451a3.2 3.2 0 0 1 .259-.617l1.092-2.167h1.043l-.588 2.399a.96.96 0 0 1 .322.352 1 1 0 0 1 .119.484m5.49 6.264q.735 0 1.169-.245.434-.252.434-.69a.9.9 0 0 0-.126-.483q-.126-.206-.504-.372-.378-.172-1.148-.358a7.6 7.6 0 0 1-1.281-.424q-.547-.246-.847-.636-.301-.392-.301-1.008 0-.603.357-1.054.357-.45 1.022-.703.672-.251 1.575-.252.93 0 1.624.232.693.232 1.183.577l-.658.935a4.4 4.4 0 0 0-.952-.444 3.6 3.6 0 0 0-1.155-.173q-.75 0-1.078.212-.322.213-.322.564 0 .258.161.437.168.173.574.325.405.146 1.148.345.72.186 1.253.438.539.251.833.669.3.411.301 1.074 0 .756-.462 1.24-.456.478-1.204.709a5.4 5.4 0 0 1-1.596.225q-1.03 0-1.778-.278-.75-.285-1.26-.709l.833-.902q.433.332.994.544.56.205 1.211.205m9.311-6.225q.98 0 1.568.458.588.45.854 1.279.266.822.266 1.936 0 1.067-.322 1.903-.322.834-.959 1.312-.63.477-1.568.477-1.162 0-1.876-.775v3.288l-1.568.166v-9.858h1.365l.098.902q.42-.544.973-.816a2.65 2.65 0 0 1 1.169-.272m-.434 1.147q-.525 0-.924.299a3 3 0 0 0-.679.702v3.275q.266.378.63.583.37.2.833.199.791 0 1.204-.603t.413-1.922q0-.895-.168-1.452-.161-.564-.49-.822-.323-.26-.819-.259m10.873 4.322q0 .412.133.604.132.186.427.278l-.35 1.008a2.4 2.4 0 0 1-.938-.285 1.43 1.43 0 0 1-.595-.683 2.5 2.5 0 0 1-1.029.729 3.6 3.6 0 0 1-1.33.245q-1.12 0-1.778-.596-.651-.604-.651-1.578 0-1.107.91-1.704.909-.596 2.604-.596h1.057v-.458q0-.675-.434-.974-.428-.299-1.211-.299-.364 0-.882.093a7.4 7.4 0 0 0-1.085.272l-.385-1.047a8 8 0 0 1 1.358-.358q.665-.12 1.232-.12 1.483 0 2.212.624.735.622.735 1.723zm-3.206.803q.475 0 .931-.239.455-.239.735-.67v-1.544h-.868q-1.107 0-1.582.351-.477.345-.476.955 0 .556.315.855.321.292.945.292m11.047-6.272q.42 0 .756.173.336.172.525.603.196.43.196 1.207v5.203h-1.393v-4.998q0-.55-.084-.789-.077-.239-.413-.239-.266 0-.539.16-.273.152-.553.53v5.336h-1.267v-4.998q0-.55-.084-.789-.077-.239-.413-.239-.273 0-.546.16-.265.152-.546.53v5.336h-1.4v-7h1.183l.105.756a3 3 0 0 1 .686-.676q.37-.266.896-.266.42 0 .763.199.344.2.504.696.308-.397.7-.643.391-.251.924-.252m2.753 9.613v-1.227h7v1.227zm15.114-2.798q-.405.246-.973.398a4.6 4.6 0 0 1-1.183.152q-1.287 0-1.96-.629-.665-.637-.665-1.671v-3.798h-1.645v-1.081h1.645v-1.564l1.568-.179v1.743h2.492l-.175 1.081h-2.317v3.785q0 .564.294.842.302.271.98.271a2.9 2.9 0 0 0 1.372-.331zm2.291.371v-1.06h1.085v-4.886h-1.085v-1.054h2.282l.287 1.624q.413-.882 1.022-1.339.615-.464 1.582-.464.328 0 .588.053.265.047.525.126l-.469 1.273a3.5 3.5 0 0 0-.854-.12q-.805 0-1.393.571-.582.57-.917 1.617v2.599h1.491v1.06zm4.9-4.421v-1.724l.196-.855h1.19l-.266 2.579zm9.073 2.704q0 .412.133.604.133.186.427.278l-.35 1.008a2.4 2.4 0 0 1-.938-.285 1.44 1.44 0 0 1-.595-.683q-.405.484-1.029.729a3.6 3.6 0 0 1-1.33.245q-1.12 0-1.778-.596-.651-.604-.651-1.578 0-1.107.91-1.704.91-.596 2.604-.596h1.057v-.458q0-.675-.434-.974-.426-.299-1.211-.299-.363 0-.882.093a7.5 7.5 0 0 0-1.085.272l-.385-1.047a8 8 0 0 1 1.358-.358q.666-.12 1.232-.12 1.485 0 2.212.624.735.622.735 1.723zm-3.206.803q.477 0 .931-.239.456-.239.735-.67v-1.544h-.868q-1.105 0-1.582.351-.476.345-.476.955 0 .556.315.855.323.292.945.292m9.557-6.272q.98 0 1.568.458.588.45.854 1.279.266.822.266 1.936 0 1.067-.322 1.903-.323.834-.959 1.312-.63.477-1.568.477-1.162 0-1.876-.775v3.288l-1.568.166v-9.858h1.365l.098.902q.42-.544.973-.816a2.65 2.65 0 0 1 1.169-.272m-.434 1.147q-.525 0-.924.299a3 3 0 0 0-.679.702v3.275q.265.378.63.583.37.2.833.199.79 0 1.204-.603t.413-1.922q0-.895-.168-1.452-.162-.564-.49-.822-.323-.26-.819-.259m5.531-3.401q0-.444.343-.749t.819-.305q.483 0 .819.305a.97.97 0 0 1 .336.749q0 .227-.077.458-.07.225-.266.61l-1.078 2.168h-1.043l.574-2.407a1 1 0 0 1-.315-.345 1 1 0 0 1-.112-.484m3.108 0q0-.444.343-.749.351-.305.819-.305.49 0 .826.305a.97.97 0 0 1 .336.749q0 .227-.07.458-.07.225-.259.61l-1.092 2.168h-1.043l.581-2.407a1.1 1.1 0 0 1-.322-.345 1 1 0 0 1-.119-.484m6.666 8.419a1.1 1.1 0 0 1 .364-.828q.364-.351.896-.351.539 0 .896.351a1.1 1.1 0 0 1 .364.828q0 .498-.364.849a1.23 1.23 0 0 1-.896.351q-.532 0-.896-.351a1.14 1.14 0 0 1-.364-.849m0-4.706q0-.326.168-.597.168-.272.455-.431t.637-.159q.539 0 .896.352.364.345.364.835t-.364.848a1.23 1.23 0 0 1-.896.352q-.532 0-.896-.352a1.15 1.15 0 0 1-.364-.848"/><path fill="#31e0d0" d="M234.74 219.315a5.9 5.9 0 0 1 2.205.404l-.462 1.027a4 4 0 0 0-.777-.212 5 5 0 0 0-.812-.066q-.728 0-1.078.265-.35.259-.35.822v1.24h2.471l-.168 1.094h-2.303v5.402h-1.561v-5.402h-1.68v-1.094h1.68v-1.253q0-.663.35-1.16.357-.504.994-.782.637-.286 1.491-.285m9.55 8.259q0 .412.133.604.132.186.427.278l-.35 1.008a2.4 2.4 0 0 1-.938-.285 1.43 1.43 0 0 1-.595-.683 2.5 2.5 0 0 1-1.029.729 3.6 3.6 0 0 1-1.33.245q-1.12 0-1.778-.596-.651-.604-.651-1.578 0-1.107.91-1.704.909-.596 2.604-.596h1.057v-.458q0-.675-.434-.974-.428-.299-1.211-.299-.364 0-.882.093a7.4 7.4 0 0 0-1.085.272l-.385-1.047a8 8 0 0 1 1.358-.358q.665-.12 1.232-.12 1.483 0 2.212.624.735.622.735 1.723zm-3.206.803q.475 0 .931-.239.454-.239.735-.67v-1.544h-.868q-1.107 0-1.582.351-.477.345-.476.955 0 .556.315.855.321.292.945.292m9.199-8.897v7.902q0 .484.308.69.315.198.812.198.323 0 .609-.066.287-.066.56-.166l.399 1.035q-.329.159-.812.278-.476.12-1.092.119-1.113 0-1.736-.59-.616-.596-.616-1.63v-6.676h-2.233v-1.094zm7.835 8.85q.735 0 1.169-.245.434-.252.434-.69a.9.9 0 0 0-.126-.483q-.126-.206-.504-.372-.378-.172-1.148-.358a7.6 7.6 0 0 1-1.281-.424q-.546-.246-.847-.636-.301-.392-.301-1.008 0-.603.357-1.054.357-.45 1.022-.703.672-.251 1.575-.252.93 0 1.624.232.693.232 1.183.577l-.658.935a4.4 4.4 0 0 0-.952-.444 3.6 3.6 0 0 0-1.155-.173q-.75 0-1.078.212-.322.213-.322.564 0 .258.161.437.168.173.574.325.405.146 1.148.345.72.186 1.253.438.539.251.833.669.3.411.301 1.074 0 .756-.462 1.24-.456.478-1.204.709a5.4 5.4 0 0 1-1.596.225q-1.03 0-1.778-.278-.75-.285-1.26-.709l.833-.902q.433.332.994.544.56.205 1.211.205m7.008-2.062q.05.717.322 1.174.273.45.714.663.448.212.98.212.546 0 1.008-.159.462-.16.931-.451l.679.888a4.2 4.2 0 0 1-1.211.637 4.5 4.5 0 0 1-1.484.238q-1.148 0-1.946-.464a3.04 3.04 0 0 1-1.204-1.292q-.413-.829-.413-1.916 0-1.055.406-1.883a3.2 3.2 0 0 1 1.162-1.319q.756-.49 1.806-.491.987 0 1.694.425.714.424 1.099 1.206.392.775.392 1.87 0 .178-.014.358a5 5 0 0 1-.021.304zm1.764-3.062q-.735 0-1.218.497-.476.497-.553 1.551h3.423q-.02-.988-.448-1.518-.42-.53-1.204-.53"/><path fill="#bbb" d="M283.567 226.905q.554 0 .917.351.364.345.364.849 0 .298-.098.603-.09.298-.301.736l-1.085 2.347h-1.218l.686-2.692a1.2 1.2 0 0 1-.392-.424 1.2 1.2 0 0 1-.14-.577q0-.497.364-.842.365-.351.903-.351M85.724 246.688a.96.96 0 0 1-.343.749 1.17 1.17 0 0 1-.819.305q-.497 0-.826-.305a1 1 0 0 1-.322-.749q0-.212.063-.451.063-.238.252-.616l1.085-2.168h1.05l-.581 2.4a1 1 0 0 1 .315.351.93.93 0 0 1 .126.484m3.115 0a.96.96 0 0 1-.343.749 1.2 1.2 0 0 1-.819.305q-.483 0-.819-.305a.98.98 0 0 1-.329-.749q0-.212.063-.451.063-.238.259-.616l1.092-2.168h1.043l-.588 2.4a.98.98 0 0 1 .441.835m2.872 7.226v-1.061h1.085v-4.885h-1.085v-1.054h2.282l.287 1.624q.413-.882 1.022-1.339.615-.464 1.582-.464.329 0 .588.053.266.047.525.126l-.469 1.272a4 4 0 0 0-.42-.086 2.6 2.6 0 0 0-.434-.033q-.805 0-1.393.57-.582.57-.917 1.618v2.598h1.491v1.061zm4.9-4.422v-1.723l.196-.855h1.19l-.266 2.578zm4.726 1.399q.05.716.322 1.173.273.451.714.663.448.212.98.212.546 0 1.008-.159t.931-.45l.679.888a4.2 4.2 0 0 1-1.211.636 4.5 4.5 0 0 1-1.484.239q-1.148 0-1.946-.464a3.04 3.04 0 0 1-1.204-1.293q-.413-.828-.413-1.916 0-1.053.406-1.882a3.2 3.2 0 0 1 1.162-1.32q.756-.49 1.806-.49.987 0 1.694.424.714.424 1.099 1.207.392.775.392 1.869 0 .179-.014.358a5 5 0 0 1-.021.305zm1.764-3.063q-.735 0-1.218.498-.476.497-.553 1.551h3.423q-.02-.988-.448-1.518-.42-.531-1.204-.531m8.017 5.125q.734 0 1.169-.246.434-.25.434-.689a.9.9 0 0 0-.126-.484q-.126-.205-.504-.371-.378-.172-1.148-.358a7.7 7.7 0 0 1-1.281-.424q-.547-.246-.847-.637-.301-.39-.301-1.007 0-.604.357-1.054.356-.452 1.022-.703.672-.252 1.575-.252.93 0 1.624.232.693.231 1.183.577l-.658.934a4.4 4.4 0 0 0-.952-.444 3.6 3.6 0 0 0-1.155-.172q-.75 0-1.078.212-.322.213-.322.563 0 .26.161.438.168.173.574.325.405.145 1.148.345.72.185 1.253.437.539.252.833.67.3.41.301 1.074 0 .754-.462 1.239-.456.478-1.204.709a5.4 5.4 0 0 1-1.596.226q-1.03 0-1.778-.279-.75-.285-1.26-.709l.833-.901q.433.33.994.543.56.206 1.211.206m9.311-6.225q.98 0 1.568.457.588.452.854 1.28.266.822.266 1.935 0 1.068-.322 1.903t-.959 1.313q-.63.477-1.568.477-1.162 0-1.876-.776v3.288l-1.568.166v-9.857h1.365l.098.901q.42-.544.973-.815a2.65 2.65 0 0 1 1.169-.272m-.434 1.147a1.5 1.5 0 0 0-.924.298 3 3 0 0 0-.679.703v3.275q.266.377.63.583.37.199.833.199.791 0 1.204-.603.413-.604.413-1.923 0-.895-.168-1.452-.161-.563-.49-.822-.323-.258-.819-.258m8.185-1.147q1.084 0 1.827.457t1.12 1.28q.385.822.385 1.935 0 1.107-.392 1.943a2.94 2.94 0 0 1-1.134 1.292q-.742.458-1.813.458t-1.82-.444a2.9 2.9 0 0 1-1.134-1.28q-.385-.828-.385-1.955 0-1.095.385-1.923a3 3 0 0 1 1.141-1.292q.749-.471 1.82-.471m0 1.153q-.848 0-1.274.617-.427.61-.427 1.916 0 1.3.42 1.916.426.616 1.274.616.846 0 1.267-.616.427-.616.427-1.93 0-1.292-.42-1.902-.42-.617-1.267-.617m5.433 6.033v-7h1.351l.119.908q.462-.537 1.092-.816t1.295-.278q1.037 0 1.547.55.519.544.518 1.531v5.105h-1.568v-4.369q0-.61-.077-.981-.077-.37-.308-.537-.224-.166-.672-.165-.357 0-.679.145a2.3 2.3 0 0 0-.588.385q-.266.231-.462.497v5.025zm11.083-.961q.734 0 1.169-.246.434-.25.434-.689a.9.9 0 0 0-.126-.484q-.126-.205-.504-.371-.378-.172-1.148-.358a7.7 7.7 0 0 1-1.281-.424q-.546-.246-.847-.637-.301-.39-.301-1.007 0-.604.357-1.054.356-.452 1.022-.703.672-.252 1.575-.252.93 0 1.624.232.693.231 1.183.577l-.658.934a4.4 4.4 0 0 0-.952-.444 3.6 3.6 0 0 0-1.155-.172q-.75 0-1.078.212-.322.213-.322.563 0 .26.161.438.168.173.574.325.405.145 1.148.345.72.185 1.253.437.539.252.833.67.3.41.301 1.074 0 .754-.462 1.239-.456.478-1.204.709a5.4 5.4 0 0 1-1.596.226q-1.03 0-1.778-.279-.75-.285-1.26-.709l.833-.901q.433.33.994.543.56.206 1.211.206m7.008-2.062q.05.716.322 1.173.273.451.714.663.449.212.98.212.546 0 1.008-.159a4.6 4.6 0 0 0 .931-.45l.679.888a4.2 4.2 0 0 1-1.211.636 4.5 4.5 0 0 1-1.484.239q-1.148 0-1.946-.464a3.05 3.05 0 0 1-1.204-1.293q-.413-.828-.413-1.916 0-1.053.406-1.882a3.2 3.2 0 0 1 1.162-1.32q.756-.49 1.806-.49.987 0 1.694.424.714.424 1.099 1.207.392.775.392 1.869 0 .179-.014.358a4 4 0 0 1-.021.305zm1.764-3.063q-.735 0-1.218.498-.475.497-.553 1.551h3.423q-.02-.988-.448-1.518-.42-.531-1.204-.531m4.783 8.512v-1.226h7v1.226zm15.114-2.797q-.406.246-.973.397a4.5 4.5 0 0 1-1.183.153q-1.288 0-1.96-.63-.665-.636-.665-1.67v-3.799h-1.645v-1.08h1.645v-1.565l1.568-.179v1.744h2.492l-.175 1.08h-2.317v3.785q0 .564.294.842.302.272.98.272.407 0 .749-.093.344-.092.623-.238zm6.26-6.629v5.913h2.009v1.087h-5.789v-1.087h2.212v-4.826h-2.142v-1.087zm-1.092-3.428q.462 0 .742.265a.87.87 0 0 1 .287.663.9.9 0 0 1-.287.67q-.28.272-.742.272-.449 0-.735-.272a.9.9 0 0 1-.287-.67q0-.397.287-.663.286-.265.735-.265m10.543 3.242q.42 0 .756.172.336.173.525.604.196.43.196 1.206v5.204h-1.393v-4.998q0-.55-.084-.789-.077-.239-.413-.239-.266 0-.539.159-.273.152-.553.53v5.337h-1.267v-4.998q0-.55-.084-.789-.077-.239-.413-.239-.273 0-.546.159-.266.152-.546.53v5.337h-1.4v-7h1.183l.105.755q.315-.417.686-.676a1.5 1.5 0 0 1 .896-.265q.42 0 .763.199.344.198.504.696.309-.397.7-.643.393-.252.924-.252m4.601 4.163q.05.716.322 1.173.273.451.714.663.448.212.98.212.546 0 1.008-.159t.931-.45l.679.888a4.2 4.2 0 0 1-1.211.636 4.5 4.5 0 0 1-1.484.239q-1.148 0-1.946-.464a3.04 3.04 0 0 1-1.204-1.293q-.413-.828-.413-1.916 0-1.053.406-1.882a3.2 3.2 0 0 1 1.162-1.32q.756-.49 1.806-.49.987 0 1.694.424.714.424 1.099 1.207.392.775.392 1.869 0 .179-.014.358a5 5 0 0 1-.021.305zm1.764-3.063q-.735 0-1.218.498-.476.497-.553 1.551h3.423q-.02-.988-.448-1.518-.42-.531-1.204-.531m5.636-3.354q0-.443.343-.749.344-.305.819-.305.483 0 .819.305a.97.97 0 0 1 .336.749q0 .226-.077.457a4 4 0 0 1-.266.61l-1.078 2.168h-1.043l.574-2.406a1 1 0 0 1-.315-.345 1 1 0 0 1-.112-.484m3.108 0q0-.443.343-.749.351-.305.819-.305.49 0 .826.305a.97.97 0 0 1 .336.749q0 .226-.07.457a4.4 4.4 0 0 1-.259.61l-1.092 2.168h-1.043l.581-2.406a1.1 1.1 0 0 1-.322-.345 1 1 0 0 1-.119-.484m6.666 8.419a1.1 1.1 0 0 1 .364-.829q.364-.351.896-.351.539 0 .896.351a1.1 1.1 0 0 1 .364.829q0 .497-.364.849a1.23 1.23 0 0 1-.896.351q-.532 0-.896-.351a1.14 1.14 0 0 1-.364-.849m0-4.707q0-.325.168-.596.168-.272.455-.431t.637-.159q.539 0 .896.351.364.345.364.835t-.364.849a1.23 1.23 0 0 1-.896.351q-.532 0-.896-.351a1.15 1.15 0 0 1-.364-.849"/><path fill="#ef7bb4" d="M232.724 246.688a.96.96 0 0 1-.343.749 1.17 1.17 0 0 1-.819.305q-.497 0-.826-.305a1 1 0 0 1-.322-.749q0-.212.063-.451.063-.238.252-.616l1.085-2.168h1.05l-.581 2.4a1 1 0 0 1 .315.351.93.93 0 0 1 .126.484m3.115 0a.96.96 0 0 1-.343.749 1.2 1.2 0 0 1-.819.305q-.483 0-.819-.305a.98.98 0 0 1-.329-.749q0-.212.063-.451.063-.238.259-.616l1.092-2.168h1.043l-.588 2.4a.98.98 0 0 1 .441.835m5.196-2.108 1.323.497-2.464 5.575h5.033v1.154h-6.671v-1.034zm2.744 3.626v5.708h-1.505l-.014-3.05.203-2.658zm5.412 5.867-1.477-.431 3.703-7.71h-4.424v-1.166h6.013v1.067zm11.335-7.345q.42 0 .756.172.336.173.525.604.196.43.196 1.206v5.204h-1.393v-4.998q0-.55-.084-.789-.078-.239-.413-.239-.267 0-.539.159-.274.152-.553.53v5.337h-1.267v-4.998q0-.55-.084-.789-.078-.239-.413-.239-.273 0-.546.159-.267.152-.546.53v5.337h-1.4v-7h1.183l.105.755q.314-.417.686-.676.37-.265.896-.265.42 0 .763.199.342.198.504.696.307-.397.7-.643a1.67 1.67 0 0 1 .924-.252m5.986 6.225q.735 0 1.169-.246.434-.25.434-.689a.9.9 0 0 0-.126-.484q-.126-.205-.504-.371-.378-.172-1.148-.358a8 8 0 0 1-1.281-.424q-.546-.246-.847-.637-.301-.39-.301-1.007 0-.604.357-1.054.357-.452 1.022-.703.672-.252 1.575-.252.931 0 1.624.232.693.231 1.183.577l-.658.934a4.4 4.4 0 0 0-.952-.444 3.6 3.6 0 0 0-1.155-.172q-.749 0-1.078.212-.322.213-.322.563 0 .26.161.438.168.173.574.325.406.145 1.148.345a7 7 0 0 1 1.253.437q.539.252.833.67.301.41.301 1.074 0 .754-.462 1.239-.455.478-1.204.709a5.4 5.4 0 0 1-1.596.226q-1.03 0-1.778-.279a4.4 4.4 0 0 1-1.26-.709l.833-.901q.434.33.994.543.56.206 1.211.206m6.015-8.479q0-.443.343-.749.342-.305.819-.305.483 0 .819.305a.97.97 0 0 1 .336.749q0 .226-.077.457a4 4 0 0 1-.266.61l-1.078 2.168h-1.043l.574-2.406a1 1 0 0 1-.315-.345 1 1 0 0 1-.112-.484m3.108 0q0-.443.343-.749.35-.305.819-.305.49 0 .826.305a.97.97 0 0 1 .336.749q0 .226-.07.457a4.5 4.5 0 0 1-.259.61l-1.092 2.168h-1.043l.581-2.406a1.1 1.1 0 0 1-.322-.345.97.97 0 0 1-.119-.484"/></g><defs><clipPath id="a"><path fill="#fff" d="M0 0h533v316H0z"/></clipPath><filter id="b" width="533" height="316" x="1" y="9" color-interpolation-filters="sRGB" filterUnits="userSpaceOnUse"><feFlood flood-opacity="0" result="BackgroundImageFix"/><feColorMatrix in="SourceAlpha" result="hardAlpha" values="0 0 0 0 0 0 0 0 0 0 0 0 0 0 0 0 0 0 127 0"/><feOffset dx="-4" dy="4"/><feGaussianBlur stdDeviation="7.5"/><feComposite in2="hardAlpha" operator="out"/><feColorMatrix values="0 0 0 0 0 0 0 0 0 0 0 0 0 0 0 0 0 0 0.15 0"/><feBlend in2="BackgroundImageFix" result="effect1_dropShadow_1_2"/><feBlend in="SourceGraphic" in2="effect1_dropShadow_1_2" result="shape"/></filter></defs></svg>