<svg xmlns="http://www.w3.org/2000/svg" width="533" height="309" fill="none" viewBox="0 0 533 309"><g filter="url(#a)"><rect width="503" height="279" x="19" y="11" fill="#ededed" rx="10" shape-rendering="crispEdges"/><rect width="461" height="249" x="40" y="26" fill="#fff" rx="10"/><path fill="#000" d="M73.077 72V53.09h11.856v2.457H75.93v5.761h8.384v2.447H75.93v5.789h9.113V72zm15.445 0V57.818h2.65v2.308h.175q.444-1.171 1.45-1.828 1.005-.665 2.41-.665 1.42 0 2.382.665.97.666 1.43 1.828h.148a4 4 0 0 1 1.616-1.81q1.108-.683 2.641-.683 1.93 0 3.148 1.21 1.228 1.21 1.228 3.647V72h-2.76v-9.251q0-1.44-.785-2.087-.785-.645-1.874-.646-1.349 0-2.096.83-.748.822-.748 2.115V72h-2.752v-9.427q0-1.154-.72-1.856t-1.874-.701q-.785 0-1.45.415a3.05 3.05 0 0 0-1.061 1.136q-.398.73-.398 1.69V72zm27.105.314q-1.347 0-2.437-.499a4.1 4.1 0 0 1-1.727-1.468q-.627-.96-.627-2.354 0-1.2.461-1.976a3.4 3.4 0 0 1 1.247-1.228 6.5 6.5 0 0 1 1.754-.683 17 17 0 0 1 1.976-.351l2.068-.24q.794-.102 1.154-.323t.36-.72v-.065q0-1.21-.683-1.874-.673-.666-2.013-.665-1.394 0-2.197.618-.795.61-1.099 1.358l-2.594-.591q.461-1.293 1.348-2.087a5.5 5.5 0 0 1 2.058-1.163 8 8 0 0 1 2.447-.37q.85 0 1.801.204.96.193 1.791.72.84.525 1.376 1.505.535.969.535 2.52V72h-2.696v-1.939h-.111a3.9 3.9 0 0 1-.803 1.053q-.536.516-1.376.858t-2.013.342m.601-2.216q1.144 0 1.957-.452.822-.453 1.246-1.182.434-.739.434-1.58v-1.827q-.147.147-.572.277a9 9 0 0 1-.951.212q-.536.084-1.043.157l-.85.11a7 7 0 0 0-1.468.343q-.656.24-1.052.692-.388.444-.388 1.182 0 1.024.757 1.551.757.517 1.93.517M126.303 72V57.818h2.761V72zm1.394-16.37q-.72 0-1.237-.48a1.56 1.56 0 0 1-.508-1.163q0-.684.508-1.164.517-.49 1.237-.49t1.228.49q.517.48.517 1.163 0 .675-.517 1.164-.507.48-1.228.48m7.841-2.54V72h-2.76V53.09zm9.884 2.457V53.09h14.634v2.456h-5.899V72h-2.844V55.547zm17.767 21.771q-.619 0-1.127-.101-.507-.093-.757-.204l.665-2.262q.757.204 1.348.176a1.6 1.6 0 0 0 1.043-.443q.462-.416.813-1.358l.341-.941-5.188-14.367h2.954l3.592 11.006h.147l3.592-11.006h2.964l-5.845 16.075q-.405 1.107-1.034 1.874a4 4 0 0 1-1.495 1.163q-.868.388-2.013.388m12.981 0v-19.5h2.696v2.3h.231q.24-.444.693-1.026.452-.581 1.255-1.015.804-.444 2.124-.444 1.718 0 3.065.868 1.349.868 2.115 2.503.775 1.633.775 3.933t-.766 3.942q-.767 1.635-2.105 2.52-1.34.879-3.056.878-1.293 0-2.115-.434-.812-.434-1.274-1.016a8 8 0 0 1-.711-1.034h-.166v7.525zm2.706-12.409q0 1.495.433 2.622.434 1.127 1.256 1.764.822.627 2.013.628 1.237 0 2.068-.656.831-.665 1.256-1.8.434-1.136.434-2.558 0-1.404-.425-2.52-.416-1.117-1.256-1.764-.83-.645-2.077-.646-1.2 0-2.031.618-.822.619-1.247 1.727-.424 1.108-.424 2.585m19.453 7.377q-2.095 0-3.61-.895-1.505-.906-2.326-2.54-.813-1.643-.813-3.85 0-2.179.813-3.84.821-1.662 2.289-2.595 1.477-.933 3.453-.933a7 7 0 0 1 2.327.398q1.127.397 2.022 1.246.895.85 1.413 2.207.517 1.347.517 3.277v.98H193.14v-2.07h8.569q0-1.088-.444-1.929a3.34 3.34 0 0 0-1.246-1.339q-.794-.489-1.865-.489-1.164 0-2.031.572a3.84 3.84 0 0 0-1.33 1.478 4.26 4.26 0 0 0-.462 1.966v1.616q0 1.421.499 2.42.508.996 1.413 1.523.905.516 2.114.517.785 0 1.431-.222a3.1 3.1 0 0 0 1.117-.683 3 3 0 0 0 .721-1.117l2.612.47a4.7 4.7 0 0 1-1.126 2.023q-.803.858-2.022 1.338-1.21.471-2.761.471M220.701 72h-6.122V53.09h6.316q2.779 0 4.773 1.137 1.994 1.125 3.056 3.24 1.071 2.106 1.071 5.05 0 2.955-1.08 5.079-1.071 2.124-3.102 3.268Q223.582 72 220.701 72m-3.269-2.493h3.112q2.16 0 3.591-.812 1.432-.823 2.143-2.373.71-1.56.71-3.804 0-2.225-.71-3.776-.702-1.553-2.096-2.355-1.395-.803-3.463-.803h-3.287zm21.802 2.78q-2.097-.001-3.61-.896-1.506-.906-2.327-2.54-.813-1.643-.813-3.85 0-2.179.813-3.84.822-1.662 2.29-2.595 1.477-.933 3.453-.933 1.2 0 2.326.398 1.127.397 2.022 1.246.896.85 1.413 2.207.517 1.347.517 3.277v.98h-11.273v-2.07h8.568q0-1.088-.443-1.929a3.35 3.35 0 0 0-1.247-1.339q-.794-.489-1.865-.489-1.163 0-2.031.572a3.85 3.85 0 0 0-1.33 1.478 4.3 4.3 0 0 0-.461 1.966v1.616q0 1.421.498 2.42.508.996 1.413 1.523.905.516 2.114.517.786 0 1.431-.222a3.1 3.1 0 0 0 1.118-.683q.471-.453.72-1.117l2.613.47a4.74 4.74 0 0 1-1.127 2.023q-.803.858-2.022 1.338-1.209.471-2.76.471m15.767-14.469v2.216h-7.746v-2.216zm-5.669-3.398h2.761v13.416q0 .803.24 1.21.24.396.619.544.387.14.84.139.332 0 .581-.046l.388-.074.499 2.28q-.24.093-.683.185a5.4 5.4 0 0 1-1.108.11 4.9 4.9 0 0 1-2.032-.387 3.5 3.5 0 0 1-1.523-1.256q-.582-.849-.582-2.133zm14.683 17.866q-2.096 0-3.61-.895-1.505-.906-2.327-2.54-.812-1.643-.812-3.85 0-2.179.812-3.84.822-1.662 2.29-2.595 1.478-.933 3.453-.933 1.2 0 2.327.398 1.126.397 2.022 1.246.896.85 1.412 2.207.517 1.347.517 3.277v.98h-11.273v-2.07h8.568q0-1.088-.443-1.929a3.35 3.35 0 0 0-1.246-1.339q-.794-.489-1.866-.489-1.162 0-2.031.572a3.85 3.85 0 0 0-1.329 1.478 4.26 4.26 0 0 0-.462 1.966v1.616q0 1.421.499 2.42.507.996 1.412 1.523.904.516 2.115.517.784 0 1.431-.222a3.1 3.1 0 0 0 1.117-.683q.471-.453.72-1.117l2.613.47a4.74 4.74 0 0 1-1.126 2.023q-.804.858-2.022 1.338-1.21.471-2.761.471m15.121 0q-2.058 0-3.545-.932-1.477-.942-2.272-2.595t-.794-3.785q0-2.16.813-3.814.813-1.66 2.29-2.594t3.48-.933q1.617 0 2.881.6a5.17 5.17 0 0 1 2.041 1.663q.785 1.071.932 2.502h-2.687a3.2 3.2 0 0 0-1.015-1.718q-.785-.72-2.105-.72-1.155 0-2.022.61-.86.6-1.339 1.717-.48 1.108-.48 2.622 0 1.551.471 2.678.471 1.125 1.329 1.745.868.618 2.041.618.784 0 1.422-.286.645-.296 1.08-.84.443-.544.618-1.311h2.687a5.2 5.2 0 0 1-.895 2.456q-.749 1.08-2.004 1.699-1.247.618-2.927.618m15.398-14.468v2.216h-7.746v-2.216zm-5.669-3.398h2.761v13.416q0 .803.24 1.21.24.396.619.544.387.14.84.139.332 0 .582-.046l.387-.074.499 2.28q-.24.093-.683.185a5.4 5.4 0 0 1-1.108.11 4.9 4.9 0 0 1-2.031-.387 3.5 3.5 0 0 1-1.524-1.256q-.582-.849-.582-2.133zM297.588 72V57.818h2.761V72zm1.394-16.37q-.72 0-1.237-.48a1.56 1.56 0 0 1-.508-1.163q0-.684.508-1.164.517-.49 1.237-.49t1.228.49q.517.48.517 1.163 0 .675-.517 1.164a1.72 1.72 0 0 1-1.228.48m11.055 16.656q-1.995 0-3.481-.914-1.487-.915-2.308-2.557-.822-1.644-.822-3.841 0-2.207.822-3.86.821-1.652 2.308-2.566 1.486-.915 3.481-.915 1.993 0 3.48.915 1.487.914 2.309 2.566.82 1.653.821 3.86 0 2.198-.821 3.84-.822 1.644-2.309 2.558-1.487.915-3.48.914m.009-2.317q1.293 0 2.142-.683.85-.684 1.256-1.82.415-1.134.415-2.501 0-1.358-.415-2.493-.407-1.145-1.256-1.838-.849-.692-2.142-.692-1.302 0-2.161.692-.85.693-1.265 1.838-.405 1.136-.406 2.492 0 1.368.406 2.503.416 1.135 1.265 1.819.86.683 2.161.683m12.444-6.39V72h-2.761V57.818h2.65v2.308h.175a4.05 4.05 0 0 1 1.533-1.81q1.053-.683 2.65-.683 1.449 0 2.539.61 1.089.6 1.689 1.791t.601 2.945V72h-2.761v-8.688q0-1.542-.803-2.41-.804-.877-2.207-.877-.96 0-1.708.415a3 3 0 0 0-1.173 1.22q-.424.793-.424 1.92"/><circle cx="78" cy="110" r="7" fill="#039708"/><path fill="#000" d="M101.761 117v-14.545h4.915q1.712 0 2.798.617 1.094.612 1.62 1.655.525 1.044.525 2.33t-.525 2.336q-.519 1.052-1.605 1.677-1.088.618-2.784.618h-3.523v-1.563h3.466q1.171 0 1.882-.405.71-.404 1.03-1.094a3.7 3.7 0 0 0 .326-1.569q0-.874-.326-1.563a2.33 2.33 0 0 0-1.037-1.079q-.717-.398-1.904-.398h-3.096V117zm16.925.227q-1.577 0-2.72-.696-1.136-.703-1.754-1.96-.611-1.264-.611-2.94 0-1.677.611-2.955.617-1.285 1.718-2.003 1.109-.724 2.586-.724.852 0 1.683.284a4.2 4.2 0 0 1 1.513.923q.681.633 1.086 1.676.405 1.044.405 2.571v.711h-8.409v-1.449h6.705q0-.924-.37-1.648a2.8 2.8 0 0 0-1.037-1.143q-.667-.42-1.576-.419-1.002 0-1.733.497a3.26 3.26 0 0 0-1.115 1.278 3.75 3.75 0 0 0-.391 1.69v.966q0 1.236.426 2.096a3.07 3.07 0 0 0 1.2 1.299q.768.441 1.783.441.66 0 1.193-.185.54-.192.931-.568.39-.384.603-.952l1.62.455a3.6 3.6 0 0 1-.86 1.448 4.2 4.2 0 0 1-1.491.966q-.888.341-1.996.341m7.067-.227v-10.909h1.619v1.648h.114q.299-.81 1.079-1.314a3.2 3.2 0 0 1 1.762-.505q.185 0 .461.008.278.006.419.021v1.704a5 5 0 0 0-.39-.064 4 4 0 0 0-.632-.049q-.796 0-1.421.334a2.5 2.5 0 0 0-.98.909 2.44 2.44 0 0 0-.355 1.314V117zm15.169-8.466-1.506.426a2.8 2.8 0 0 0-.419-.731 2 2 0 0 0-.739-.597q-.468-.234-1.2-.234-1.002 0-1.669.461-.66.454-.661 1.158 0 .626.455.987.454.363 1.42.604l1.62.398q1.463.355 2.18 1.086.717.725.717 1.868 0 .938-.539 1.676-.534.74-1.492 1.165t-2.23.426q-1.67 0-2.763-.724-1.094-.725-1.385-2.117l1.591-.397q.227.88.86 1.321.639.44 1.669.44 1.172 0 1.86-.497.696-.504.696-1.208 0-.568-.397-.951-.398-.391-1.222-.583l-1.818-.426q-1.499-.355-2.202-1.101-.696-.753-.696-1.882 0-.923.519-1.633.525-.71 1.427-1.115.91-.405 2.06-.405 1.619 0 2.542.71.931.711 1.322 1.875m7.153 8.693q-1.477 0-2.592-.703-1.108-.703-1.733-1.967-.618-1.265-.618-2.955 0-1.704.618-2.976.625-1.27 1.733-1.974 1.114-.703 2.592-.703t2.586.703q1.115.704 1.732 1.974.625 1.272.625 2.976 0 1.69-.625 2.955-.617 1.264-1.732 1.967-1.108.703-2.586.703m0-1.505q1.122 0 1.847-.576.724-.575 1.072-1.512a5.8 5.8 0 0 0 .348-2.032 5.9 5.9 0 0 0-.348-2.038q-.348-.945-1.072-1.527t-1.847-.582q-1.122 0-1.846.582a3.43 3.43 0 0 0-1.073 1.527 5.9 5.9 0 0 0-.348 2.038q0 1.094.348 2.032t1.073 1.512q.724.576 1.846.576m9.178-5.284V117h-1.676v-10.909h1.619v1.704h.142a3.1 3.1 0 0 1 1.165-1.335q.781-.511 2.017-.511 1.108 0 1.939.454.831.448 1.293 1.364.462.909.461 2.301V117h-1.676v-6.818q0-1.286-.667-2.003-.668-.724-1.833-.724-.802 0-1.434.348-.625.348-.988 1.015-.362.668-.362 1.62m13.234 6.818a4.4 4.4 0 0 1-1.883-.391 3.23 3.23 0 0 1-1.342-1.143q-.497-.753-.497-1.819 0-.937.369-1.519.37-.59.987-.924a5.2 5.2 0 0 1 1.364-.497 16 16 0 0 1 1.513-.27q.994-.127 1.612-.192.625-.07.909-.234.291-.163.291-.568v-.057q0-1.051-.575-1.633-.568-.583-1.726-.583-1.2 0-1.882.526-.681.525-.959 1.122l-1.591-.568q.427-.994 1.137-1.549a4.3 4.3 0 0 1 1.562-.781 6.5 6.5 0 0 1 1.676-.227q.526 0 1.208.128.689.12 1.328.504.646.384 1.072 1.158t.427 2.073V117h-1.677v-1.477h-.085q-.17.355-.568.76-.398.404-1.058.689-.661.284-1.612.284m.255-1.506q.995 0 1.676-.391.69-.39 1.037-1.008.355-.618.355-1.3v-1.534q-.106.127-.468.234a8 8 0 0 1-.824.178q-.462.07-.902.128-.433.05-.703.085a6.4 6.4 0 0 0-1.222.277q-.561.184-.909.561-.34.369-.341 1.009 0 .873.646 1.321.654.44 1.655.44m9.48-13.295V117h-1.676v-14.545zm241.696 0V117h-2.202v-12.344h-.085l-3.48 2.273v-2.102l3.629-2.372zm5.886 12.556-.107.775q-.107.852-.362 1.775-.249.93-.519 1.726-.262.796-.433 1.264h-1.506q.093-.44.256-1.193.164-.746.32-1.669.156-.924.234-1.882l.071-.796zm2.97 1.989v-1.591l4.922-5.099q.789-.831 1.3-1.456.518-.633.774-1.201.255-.568.256-1.207 0-.725-.341-1.25a2.24 2.24 0 0 0-.931-.817 2.96 2.96 0 0 0-1.328-.291q-.781 0-1.364.32a2.2 2.2 0 0 0-.894.902q-.313.582-.313 1.363h-2.095q0-1.328.611-2.322a4.14 4.14 0 0 1 1.676-1.541q1.065-.554 2.422-.554 1.371 0 2.415.547 1.05.539 1.64 1.477.59.93.59 2.102 0 .81-.306 1.584-.298.774-1.044 1.726-.745.944-2.074 2.294l-2.89 3.025v.107h6.548V117zm17.33.199q-1.464 0-2.614-.504-1.143-.505-1.811-1.4-.66-.901-.71-2.088h2.23q.042.646.433 1.123.398.468 1.037.724.64.256 1.42.256.86 0 1.52-.299a2.5 2.5 0 0 0 1.044-.831q.377-.54.377-1.242 0-.732-.377-1.286-.369-.561-1.086-.881-.711-.32-1.719-.319h-1.229v-1.79h1.229q.81 0 1.42-.291.618-.291.966-.81.348-.525.348-1.229 0-.674-.305-1.171a2.05 2.05 0 0 0-.852-.789q-.547-.284-1.293-.284-.71 0-1.328.263a2.45 2.45 0 0 0-.994.738 1.9 1.9 0 0 0-.412 1.144h-2.124q.036-1.179.696-2.074.667-.895 1.762-1.399 1.093-.504 2.429-.504 1.398 0 2.414.547 1.023.539 1.577 1.441a3.6 3.6 0 0 1 .554 1.975q.007 1.22-.682 2.074-.681.852-1.818 1.143v.114q1.449.22 2.244 1.15.802.931.796 2.309.006 1.2-.668 2.152-.667.951-1.825 1.498-1.158.54-2.649.54m7.521-3.04v-1.775l6.286-9.929h1.399v2.613h-.888l-4.496 7.117v.113h8.615v1.861zm6.896 2.841v-3.381l.015-.809v-10.355h2.08V117z"/><circle cx="78" cy="154" r="7" fill="#f78e05"/><path fill="#000" d="M101.761 161v-14.545h4.915q1.705 0 2.798.582 1.094.575 1.62 1.584.525 1.008.525 2.294 0 1.285-.525 2.28-.526.993-1.612 1.562-1.088.561-2.777.561h-3.978v-1.591h3.921q1.164 0 1.875-.341.717-.34 1.037-.966.326-.632.326-1.505 0-.875-.326-1.527-.327-.654-1.044-1.009-.718-.362-1.897-.362h-3.096V161zm6.847-6.534 3.58 6.534h-2.046l-3.523-6.534zm10.034 6.761q-1.477 0-2.593-.703-1.107-.703-1.733-1.967-.618-1.264-.617-2.955 0-1.704.617-2.976.626-1.27 1.733-1.974 1.116-.703 2.593-.703t2.585.703q1.115.704 1.733 1.974.625 1.272.625 2.976 0 1.69-.625 2.955-.618 1.264-1.733 1.967-1.108.703-2.585.703m0-1.505q1.122 0 1.846-.576a3.4 3.4 0 0 0 1.073-1.512 5.8 5.8 0 0 0 .348-2.032 5.9 5.9 0 0 0-.348-2.038 3.43 3.43 0 0 0-1.073-1.527q-.724-.582-1.846-.582t-1.847.582-1.072 1.527a5.9 5.9 0 0 0-.348 2.038q0 1.094.348 2.032t1.072 1.512q.725.576 1.847.576m9.178-13.267V161h-1.677v-14.545zm7.643 14.772q-1.576 0-2.72-.696a4.7 4.7 0 0 1-1.754-1.96q-.61-1.264-.611-2.94 0-1.677.611-2.955.618-1.285 1.719-2.003 1.107-.724 2.585-.724.852 0 1.683.284a4.2 4.2 0 0 1 1.513.923q.682.632 1.087 1.676t.404 2.571v.711h-8.409v-1.449h6.705q0-.924-.369-1.648a2.8 2.8 0 0 0-1.037-1.143q-.668-.42-1.577-.419-1.002 0-1.733.497a3.26 3.26 0 0 0-1.115 1.278 3.76 3.76 0 0 0-.391 1.69v.966q0 1.236.426 2.096a3.07 3.07 0 0 0 1.201 1.299q.766.441 1.782.441.66 0 1.194-.185.54-.192.93-.568.39-.384.604-.952l1.619.455a3.6 3.6 0 0 1-.859 1.448q-.604.618-1.492.966-.888.342-1.996.341m13.317-7.244v1.562h-6.363v-1.562zm3.177 7.017v-14.545h5.085q1.52 0 2.507.525.987.519 1.47 1.399.483.874.483 1.939 0 .938-.334 1.548-.326.612-.866.966a4 4 0 0 1-1.158.526v.142q.668.042 1.343.469.674.426 1.129 1.221t.454 1.946q0 1.094-.497 1.968-.496.873-1.569 1.385-1.073.511-2.792.511zm1.761-1.562h3.494q1.726 0 2.451-.668.73-.674.731-1.634a2.6 2.6 0 0 0-.376-1.363 2.7 2.7 0 0 0-1.073-1.009q-.696-.383-1.647-.383h-3.58zm0-6.591h3.267a3.2 3.2 0 0 0 1.435-.313 2.5 2.5 0 0 0 1.022-.881q.384-.567.384-1.335 0-.958-.668-1.626-.667-.675-2.116-.675h-3.324zm14.229 8.409a4.4 4.4 0 0 1-1.882-.391 3.23 3.23 0 0 1-1.342-1.143q-.497-.753-.497-1.819 0-.937.369-1.519a2.6 2.6 0 0 1 .987-.924 5.2 5.2 0 0 1 1.364-.497 16 16 0 0 1 1.513-.27q.994-.127 1.612-.192.626-.07.909-.234.291-.163.291-.568v-.057q0-1.051-.575-1.633-.568-.583-1.726-.583-1.2 0-1.882.526-.681.525-.959 1.122l-1.591-.568q.426-.994 1.137-1.549a4.3 4.3 0 0 1 1.562-.781 6.5 6.5 0 0 1 1.676-.227q.526 0 1.208.128.689.12 1.328.504.646.384 1.072 1.158t.426 2.073V161h-1.676v-1.477h-.085q-.17.354-.568.76-.398.405-1.058.689-.661.284-1.613.284m.256-1.506q.995 0 1.676-.391.69-.39 1.037-1.008.355-.618.355-1.3v-1.534q-.107.127-.468.234a8 8 0 0 1-.824.178q-.462.07-.902.128-.433.05-.703.085a6.4 6.4 0 0 0-1.222.277q-.561.184-.909.561-.34.369-.341 1.009 0 .873.646 1.321.654.44 1.655.44m15.531-7.216-1.506.426a2.8 2.8 0 0 0-.419-.731 2 2 0 0 0-.738-.597q-.47-.234-1.201-.234-1.001 0-1.669.461-.66.454-.66 1.158 0 .625.454.987.455.363 1.421.604l1.619.398q1.463.355 2.181 1.086.717.725.717 1.868 0 .938-.54 1.676-.532.74-1.491 1.165t-2.23.426q-1.67 0-2.763-.724-1.094-.725-1.385-2.117l1.591-.397q.227.88.859 1.321.64.44 1.669.44 1.172 0 1.861-.497.696-.504.696-1.208 0-.568-.398-.951-.398-.391-1.221-.583l-1.819-.426q-1.499-.355-2.201-1.101-.696-.753-.696-1.882a2.7 2.7 0 0 1 .518-1.633q.526-.71 1.428-1.115.909-.405 2.059-.405 1.62 0 2.543.71a3.83 3.83 0 0 1 1.321 1.875m7.296 8.693q-1.577 0-2.72-.696a4.67 4.67 0 0 1-1.755-1.96q-.61-1.264-.61-2.94 0-1.677.61-2.955.618-1.285 1.719-2.003 1.109-.724 2.585-.724.853 0 1.684.284a4.2 4.2 0 0 1 1.512.923q.682.632 1.087 1.676t.405 2.571v.711h-8.409v-1.449h6.704q0-.924-.369-1.648a2.8 2.8 0 0 0-1.037-1.143q-.668-.42-1.577-.419-1 0-1.733.497a3.3 3.3 0 0 0-1.115 1.278 3.76 3.76 0 0 0-.39 1.69v.966q0 1.236.426 2.096a3.07 3.07 0 0 0 1.2 1.299q.768.441 1.783.441.66 0 1.193-.185.54-.192.93-.568.391-.384.604-.952l1.619.455a3.6 3.6 0 0 1-.859 1.448 4.2 4.2 0 0 1-1.491.966q-.889.342-1.996.341m11.186 0q-1.364 0-2.408-.689-1.044-.696-1.633-1.96-.59-1.271-.59-3.004 0-1.719.59-2.983t1.64-1.953q1.052-.689 2.429-.689 1.066 0 1.684.355.624.348.951.795.334.44.519.725h.142v-5.369h1.676V161h-1.619v-1.676h-.199q-.185.298-.526.753-.34.447-.973.802-.632.348-1.683.348m.227-1.505q1.01 0 1.705-.526.696-.532 1.058-1.47.362-.945.362-2.181 0-1.221-.355-2.137-.355-.924-1.051-1.435-.696-.519-1.719-.518-1.065 0-1.775.546-.704.54-1.059 1.471-.348.923-.348 2.073 0 1.165.355 2.117.363.945 1.066 1.506.71.554 1.761.554m245.871 1.477q-1.527 0-2.699-.526-1.164-.525-1.825-1.449a3.5 3.5 0 0 1-.654-2.102 3.71 3.71 0 0 1 1.435-2.997q.668-.525 1.491-.668v-.085a2.93 2.93 0 0 1-1.74-1.165q-.653-.901-.646-2.073a3.4 3.4 0 0 1 .59-1.989q.603-.88 1.654-1.385 1.051-.504 2.394-.504 1.328 0 2.372.511 1.051.504 1.655 1.385.603.873.611 1.982a3.46 3.46 0 0 1-.668 2.073q-.66.903-1.719 1.165v.085a3.2 3.2 0 0 1 1.471.668q.66.519 1.051 1.3.398.774.404 1.697a3.56 3.56 0 0 1-.667 2.102q-.66.924-1.833 1.449-1.164.526-2.677.526m0-1.797q.902 0 1.562-.298a2.4 2.4 0 0 0 1.023-.845q.363-.547.369-1.279a2.4 2.4 0 0 0-.397-1.342 2.66 2.66 0 0 0-1.044-.916q-.661-.334-1.513-.334-.86 0-1.527.334a2.64 2.64 0 0 0-1.051.916 2.35 2.35 0 0 0-.377 1.342q-.006.732.348 1.279.363.539 1.03.845.668.298 1.577.298m0-6.768a2.75 2.75 0 0 0 1.285-.292q.561-.291.881-.809.327-.519.334-1.215a2.25 2.25 0 0 0-.327-1.193 2.07 2.07 0 0 0-.873-.788q-.562-.284-1.3-.284-.753 0-1.321.284a2.1 2.1 0 0 0-.874.788q-.312.512-.305 1.193-.007.696.312 1.215.32.518.881.809.568.291 1.307.292m12.559-6.378a5.6 5.6 0 0 1 1.917.355 4.54 4.54 0 0 1 1.705 1.136q.767.789 1.221 2.131.462 1.335.469 3.324 0 1.91-.384 3.402-.383 1.484-1.1 2.507-.71 1.023-1.726 1.555-1.016.533-2.287.533-1.3 0-2.308-.511a4.4 4.4 0 0 1-1.641-1.414 4.7 4.7 0 0 1-.788-2.088h2.166q.213.938.866 1.52.661.575 1.705.575 1.597 0 2.493-1.392.894-1.4.902-3.906h-.114a3.9 3.9 0 0 1-.923 1.051 4.2 4.2 0 0 1-1.229.682q-.682.241-1.456.241-1.257 0-2.287-.618a4.55 4.55 0 0 1-1.64-1.697q-.612-1.08-.611-2.464 0-1.378.625-2.5a4.66 4.66 0 0 1 1.761-1.776q1.137-.66 2.664-.646m.007 1.846q-.831 0-1.499.412-.66.405-1.044 1.101a3.1 3.1 0 0 0-.384 1.534q0 .846.37 1.534.376.682 1.023 1.087.653.398 1.491.398a2.8 2.8 0 0 0 1.165-.242q.54-.241.944-.667.405-.434.632-.981.228-.547.228-1.15 0-.802-.384-1.492a3 3 0 0 0-1.037-1.108 2.7 2.7 0 0 0-1.505-.426"/><circle cx="78" cy="198" r="7" fill="#b42222"/><path fill="#000" d="M106.25 205h-4.489v-14.545h4.688q2.116 0 3.622.873 1.506.867 2.308 2.493.803 1.62.803 3.878 0 2.272-.81 3.913a5.77 5.77 0 0 1-2.358 2.514q-1.548.874-3.764.874m-2.727-1.562h2.613q1.805 0 2.99-.697a4.3 4.3 0 0 0 1.769-1.981q.582-1.285.582-3.061 0-1.761-.575-3.033-.575-1.278-1.719-1.96-1.143-.689-2.848-.689h-2.812zM115.909 205v-10.909h1.676V205zm.852-12.727q-.49 0-.845-.334a1.07 1.07 0 0 1-.348-.803q0-.469.348-.802.356-.334.845-.334.49 0 .838.334.356.334.356.802t-.356.803a1.17 1.17 0 0 1-.838.334m11.621 4.261-1.505.426a2.8 2.8 0 0 0-.419-.731 2 2 0 0 0-.739-.597q-.468-.234-1.2-.234-1.002 0-1.669.461-.661.454-.661 1.158 0 .625.455.987.454.363 1.42.604l1.62.398q1.463.355 2.18 1.086.717.725.717 1.868 0 .938-.539 1.676-.534.74-1.492 1.165-.959.426-2.23.426-1.67 0-2.763-.724-1.094-.725-1.385-2.117l1.591-.397q.227.88.86 1.321.639.44 1.669.44 1.172 0 1.86-.497.696-.504.696-1.208 0-.568-.397-.951-.399-.391-1.222-.583l-1.818-.426q-1.499-.355-2.202-1.101-.696-.753-.696-1.882 0-.923.519-1.633.525-.71 1.427-1.115.91-.405 2.06-.405 1.619 0 2.542.71a3.83 3.83 0 0 1 1.321 1.875m2.722 12.557v-15h1.62v1.733h.199q.184-.285.511-.725.333-.447.952-.795.624-.355 1.69-.355 1.378 0 2.429.689t1.641 1.953.589 2.983q0 1.733-.589 3.004-.59 1.264-1.634 1.96-1.044.69-2.408.689-1.05 0-1.683-.348-.632-.355-.973-.802a11 11 0 0 1-.525-.753h-.142v5.767zm1.648-9.546q0 1.236.362 2.181.363.938 1.059 1.47.696.525 1.704.526 1.052 0 1.754-.554.71-.561 1.066-1.506.362-.952.362-2.117 0-1.15-.355-2.073-.348-.931-1.058-1.471-.704-.546-1.769-.546-1.023 0-1.719.518-.696.511-1.051 1.435-.354.916-.355 2.137m14.972 5.682q-1.477 0-2.593-.703-1.107-.703-1.733-1.967-.617-1.264-.617-2.955 0-1.704.617-2.976.626-1.27 1.733-1.974 1.116-.703 2.593-.703t2.585.703q1.115.704 1.733 1.974.625 1.272.625 2.976 0 1.69-.625 2.955-.618 1.264-1.733 1.967-1.108.703-2.585.703m0-1.505q1.122 0 1.846-.576a3.4 3.4 0 0 0 1.073-1.512 5.8 5.8 0 0 0 .348-2.032 5.9 5.9 0 0 0-.348-2.038 3.43 3.43 0 0 0-1.073-1.527q-.724-.582-1.846-.582t-1.847.582-1.072 1.527a5.9 5.9 0 0 0-.348 2.038q0 1.094.348 2.032t1.072 1.512q.725.576 1.847.576m15.229-7.188-1.506.426a2.8 2.8 0 0 0-.419-.731 2 2 0 0 0-.739-.597q-.468-.234-1.2-.234-1.001 0-1.669.461-.66.454-.66 1.158 0 .625.454.987.455.363 1.421.604l1.619.398q1.463.355 2.18 1.086.718.725.718 1.868 0 .938-.54 1.676-.532.74-1.492 1.165-.958.426-2.23.426-1.668 0-2.763-.724-1.093-.725-1.384-2.117l1.59-.397q.227.88.86 1.321.639.44 1.669.44 1.171 0 1.861-.497.696-.504.696-1.208 0-.568-.398-.951-.397-.391-1.222-.583l-1.818-.426q-1.498-.355-2.202-1.101-.696-.753-.696-1.882 0-.923.519-1.633.525-.71 1.427-1.115.91-.405 2.06-.405 1.62 0 2.543.71a3.84 3.84 0 0 1 1.321 1.875m5.932 8.722a4.4 4.4 0 0 1-1.882-.391 3.2 3.2 0 0 1-1.342-1.143q-.498-.753-.498-1.819 0-.937.37-1.519a2.6 2.6 0 0 1 .987-.924 5.2 5.2 0 0 1 1.364-.497 16 16 0 0 1 1.512-.27 72 72 0 0 1 1.613-.192q.624-.07.909-.234.291-.163.291-.568v-.057q0-1.051-.575-1.633-.569-.583-1.726-.583-1.201 0-1.882.526-.683.525-.959 1.122l-1.591-.568q.426-.994 1.136-1.549a4.3 4.3 0 0 1 1.563-.781 6.5 6.5 0 0 1 1.676-.227q.525 0 1.207.128.69.12 1.328.504.647.384 1.073 1.158t.426 2.073V205h-1.676v-1.477h-.085q-.17.354-.569.76-.397.405-1.058.689-.66.284-1.612.284m.256-1.506q.994 0 1.676-.391.689-.39 1.037-1.008.354-.618.355-1.3v-1.534q-.106.127-.469.234a8 8 0 0 1-.824.178q-.462.07-.902.128-.433.05-.703.085a6.4 6.4 0 0 0-1.222.277q-.561.184-.909.561-.34.369-.341 1.009 0 .873.647 1.321.653.44 1.655.44m8.031 1.25v-14.545h1.676v5.369h.142q.184-.285.511-.725.334-.447.952-.795.624-.355 1.69-.355 1.378 0 2.429.689 1.052.689 1.641 1.953.59 1.264.589 2.983 0 1.733-.589 3.004-.59 1.264-1.634 1.96-1.044.69-2.407.689-1.051 0-1.684-.348-.631-.355-.973-.802a11 11 0 0 1-.525-.753h-.199V205zm1.647-5.455q0 1.236.362 2.181.363.938 1.059 1.47.696.525 1.704.526 1.052 0 1.755-.554.71-.561 1.065-1.506.362-.952.362-2.117 0-1.15-.355-2.073-.348-.931-1.058-1.471-.704-.546-1.769-.546-1.022 0-1.719.518-.696.511-1.051 1.435-.354.916-.355 2.137m12.223-9.09V205h-1.676v-14.545zm7.644 14.772q-1.577 0-2.72-.696-1.137-.703-1.754-1.96-.611-1.265-.611-2.94 0-1.677.611-2.955.618-1.285 1.718-2.003 1.109-.724 2.586-.724.852 0 1.683.284a4.2 4.2 0 0 1 1.513.923q.681.632 1.086 1.676t.405 2.571v.711h-8.409v-1.449h6.705q0-.924-.37-1.648a2.8 2.8 0 0 0-1.037-1.143q-.667-.42-1.576-.419-1.002 0-1.733.497a3.26 3.26 0 0 0-1.115 1.278 3.75 3.75 0 0 0-.391 1.69v.966q0 1.236.426 2.096a3.07 3.07 0 0 0 1.2 1.299q.768.441 1.783.441.66 0 1.193-.185.54-.192.931-.568.39-.384.603-.952l1.62.455a3.6 3.6 0 0 1-.86 1.448 4.2 4.2 0 0 1-1.491.966q-.888.342-1.996.341m244.408-3.068v-1.775l6.285-9.929h1.399v2.613h-.887l-4.496 7.117v.113h8.615v1.861zM449.99 205v-3.381l.014-.809v-10.355h2.081V205zm6.495 0v-1.591l4.922-5.099q.789-.832 1.3-1.456.518-.633.774-1.201.255-.567.256-1.207 0-.725-.341-1.25a2.24 2.24 0 0 0-.931-.817 2.96 2.96 0 0 0-1.328-.291q-.781 0-1.364.32a2.2 2.2 0 0 0-.894.902q-.313.582-.313 1.363h-2.095q0-1.327.611-2.322a4.14 4.14 0 0 1 1.676-1.541q1.065-.555 2.422-.554 1.37 0 2.414.547a4.1 4.1 0 0 1 1.641 1.477q.59.93.59 2.102 0 .81-.306 1.584-.298.774-1.044 1.726-.745.944-2.074 2.294l-2.89 3.025v.107h6.548V205z"/><circle cx="78" cy="242" r="7" fill="#4f20bb"/><path fill="#000" d="M113.466 239h-1.761a3.68 3.68 0 0 0-1.485-2.301 4 4 0 0 0-1.214-.597 4.9 4.9 0 0 0-1.392-.199 4.44 4.44 0 0 0-2.394.668q-1.065.668-1.697 1.967-.625 1.3-.625 3.189t.625 3.189q.632 1.3 1.697 1.968a4.44 4.44 0 0 0 2.394.667q.725 0 1.392-.199a4 4 0 0 0 1.214-.589 3.8 3.8 0 0 0 .938-.973q.39-.583.547-1.335h1.761a5.9 5.9 0 0 1-.725 1.995 5.5 5.5 0 0 1-1.306 1.499 5.7 5.7 0 0 1-1.755.93 6.5 6.5 0 0 1-2.066.32q-1.861 0-3.31-.909-1.449-.91-2.28-2.585-.831-1.677-.831-3.978t.831-3.977 2.28-2.585 3.31-.909q1.1 0 2.066.319a5.6 5.6 0 0 1 1.755.938q.78.61 1.306 1.491.526.874.725 1.996m5.829 10.256a4.4 4.4 0 0 1-1.882-.391 3.23 3.23 0 0 1-1.342-1.143q-.498-.753-.497-1.819 0-.937.369-1.519a2.6 2.6 0 0 1 .987-.924 5.2 5.2 0 0 1 1.364-.497 16 16 0 0 1 1.512-.27 72 72 0 0 1 1.613-.192q.624-.07.909-.234.291-.163.291-.568v-.057q0-1.051-.575-1.633-.568-.583-1.726-.583-1.2 0-1.882.526-.682.525-.959 1.122l-1.591-.568q.426-.994 1.136-1.549a4.3 4.3 0 0 1 1.563-.781 6.5 6.5 0 0 1 1.676-.227q.525 0 1.207.128.69.12 1.329.504.646.384 1.072 1.158t.426 2.073V249h-1.676v-1.477h-.085q-.17.354-.568.76-.398.405-1.059.689t-1.612.284m.256-1.506q.994 0 1.676-.391.689-.39 1.037-1.008.355-.618.355-1.3v-1.534q-.106.127-.469.234a8 8 0 0 1-.824.178q-.46.07-.902.128a41 41 0 0 0-.703.085 6.4 6.4 0 0 0-1.221.277q-.561.184-.909.561-.341.369-.341 1.009 0 .873.646 1.321.654.44 1.655.44m12.548-9.659v1.42h-5.654v-1.42zm-4.006-2.614h1.676v10.398q0 .71.206 1.065.213.349.54.469.334.114.703.114.277 0 .455-.029l.284-.056.341 1.505a3.5 3.5 0 0 1-.476.128 3.5 3.5 0 0 1-.774.071q-.711 0-1.392-.305a2.8 2.8 0 0 1-1.123-.931q-.44-.625-.44-1.576zm10.842 13.75q-1.535 0-2.642-.724-1.108-.724-1.705-1.996-.597-1.271-.597-2.905 0-1.662.611-2.933.618-1.278 1.719-1.996 1.108-.724 2.585-.724 1.151 0 2.074.426a4 4 0 0 1 1.513 1.193q.59.768.731 1.79h-1.676q-.192-.746-.852-1.321-.654-.582-1.761-.582-.981 0-1.719.511-.732.504-1.144 1.427-.404.917-.404 2.152 0 1.265.397 2.202.405.937 1.137 1.456.738.519 1.733.519.653 0 1.186-.228a2.44 2.44 0 0 0 .902-.653q.369-.426.525-1.023h1.676a3.87 3.87 0 0 1-2.173 2.962q-.909.447-2.116.447m8.416-6.789V249h-1.676v-14.545h1.676v5.34h.142a3.1 3.1 0 0 1 1.15-1.342q.775-.504 2.06-.504 1.115 0 1.953.447.838.44 1.3 1.357.469.91.469 2.315V249h-1.676v-6.818q0-1.3-.675-2.01-.667-.717-1.854-.717-.823 0-1.477.348-.647.348-1.023 1.015-.369.668-.369 1.62m16.39-.455v1.562h-6.364v-1.562zm6.16 7.273a4.4 4.4 0 0 1-1.883-.391 3.23 3.23 0 0 1-1.342-1.143q-.497-.753-.497-1.819 0-.937.369-1.519a2.6 2.6 0 0 1 .988-.924 5.2 5.2 0 0 1 1.363-.497 16 16 0 0 1 1.513-.27q.994-.127 1.612-.192.625-.07.909-.234.291-.163.291-.568v-.057q0-1.051-.575-1.633-.568-.583-1.726-.583-1.2 0-1.882.526-.681.525-.959 1.122l-1.591-.568q.427-.994 1.137-1.549a4.3 4.3 0 0 1 1.562-.781 6.5 6.5 0 0 1 1.676-.227q.526 0 1.208.128.689.12 1.328.504.646.384 1.072 1.158t.427 2.073V249h-1.677v-1.477h-.085q-.17.354-.568.76-.398.405-1.058.689-.661.284-1.612.284m.255-1.506q.995 0 1.676-.391.69-.39 1.037-1.008.355-.618.355-1.3v-1.534q-.106.127-.468.234a8 8 0 0 1-.824.178q-.462.07-.902.128-.433.05-.703.085a6.4 6.4 0 0 0-1.222.277q-.561.184-.909.561-.34.369-.341 1.009 0 .873.646 1.321.654.44 1.655.44m9.48-13.295V249h-1.676v-14.545zm4.746 0V249h-1.676v-14.545zm255.536 0V249h-2.202v-12.344h-.085l-3.48 2.273v-2.102l3.629-2.372zm8.735 14.744q-1.335 0-2.4-.511a4.4 4.4 0 0 1-1.691-1.421 3.75 3.75 0 0 1-.674-2.06h2.13q.08.938.831 1.542.753.603 1.804.603.839 0 1.485-.383a2.77 2.77 0 0 0 1.023-1.073q.375-.682.376-1.555 0-.888-.384-1.584a2.83 2.83 0 0 0-1.058-1.094q-.667-.398-1.534-.404-.66 0-1.328.227-.667.227-1.08.596l-2.01-.298.817-7.329h7.997v1.882h-6.171l-.462 4.069h.085q.427-.411 1.129-.689.71-.276 1.52-.277 1.329 0 2.365.632a4.5 4.5 0 0 1 1.641 1.726q.603 1.087.597 2.5.006 1.414-.64 2.522a4.63 4.63 0 0 1-1.775 1.747q-1.13.632-2.593.632m12.68 0a5.9 5.9 0 0 1-1.918-.355q-.937-.341-1.704-1.137t-1.229-2.137q-.455-1.343-.455-3.353 0-1.904.377-3.38.382-1.478 1.101-2.493.716-1.023 1.733-1.556 1.016-.532 2.279-.532 1.3 0 2.309.511a4.35 4.35 0 0 1 1.633 1.413q.632.903.803 2.053h-2.166q-.22-.91-.874-1.484-.654-.576-1.705-.576-1.598 0-2.492 1.392-.889 1.392-.895 3.871h.106q.377-.618.923-1.051.555-.441 1.236-.675a4.4 4.4 0 0 1 1.449-.241q1.264 0 2.287.618a4.5 4.5 0 0 1 1.641 1.69q.61 1.08.61 2.472t-.632 2.521a4.63 4.63 0 0 1-1.761 1.79q-1.137.653-2.656.639m-.007-1.847q.837 0 1.498-.412a2.96 2.96 0 0 0 1.044-1.108q.384-.696.384-1.555a3.13 3.13 0 0 0-.377-1.527 2.85 2.85 0 0 0-1.022-1.094 2.73 2.73 0 0 0-1.478-.405 2.84 2.84 0 0 0-2.109.91q-.405.426-.639.98-.227.546-.227 1.157 0 .817.376 1.513a3.1 3.1 0 0 0 1.044 1.122q.668.42 1.506.419"/></g><defs><filter id="a" width="533" height="309" x="0" y="0" color-interpolation-filters="sRGB" filterUnits="userSpaceOnUse"><feFlood flood-opacity="0" result="BackgroundImageFix"/><feColorMatrix in="SourceAlpha" result="hardAlpha" values="0 0 0 0 0 0 0 0 0 0 0 0 0 0 0 0 0 0 127 0"/><feOffset dx="-4" dy="4"/><feGaussianBlur stdDeviation="7.5"/><feComposite in2="hardAlpha" operator="out"/><feColorMatrix values="0 0 0 0 0 0 0 0 0 0 0 0 0 0 0 0 0 0 0.15 0"/><feBlend in2="BackgroundImageFix" result="effect1_dropShadow_425_1016"/><feBlend in="SourceGraphic" in2="effect1_dropShadow_425_1016" result="shape"/></filter></defs></svg>