<svg width="533" height="335" viewBox="0 0 533 335" fill="none" xmlns="http://www.w3.org/2000/svg">
<g filter="url(#filter0_d_303_1785)">
<rect x="19" y="11" width="503" height="305" rx="10" fill="#FFFBF2" shape-rendering="crispEdges"/>
<rect x="40" y="26" width="461" height="275" rx="10" fill="white"/>
<path d="M72.1449 55.5469V53.0909H86.7791V55.5469H80.8793V72H78.0355V55.5469H72.1449ZM92.552 63.5795V72H89.7914V53.0909H92.5151V60.1264H92.6905C93.0229 59.3632 93.5307 58.7569 94.214 58.3075C94.8972 57.8582 95.7897 57.6335 96.8915 57.6335C97.8641 57.6335 98.7135 57.8336 99.4398 58.2337C100.172 58.6338 100.739 59.2308 101.139 60.0249C101.545 60.8127 101.748 61.7976 101.748 62.9794V72H98.9874V63.3118C98.9874 62.2715 98.7196 61.4652 98.1841 60.8928C97.6486 60.3142 96.9038 60.0249 95.9498 60.0249C95.2973 60.0249 94.7125 60.1634 94.1955 60.4403C93.6846 60.7173 93.2814 61.1236 92.986 61.6591C92.6967 62.1884 92.552 62.8286 92.552 63.5795ZM105.432 72V57.8182H108.1V60.071H108.248C108.507 59.3078 108.962 58.7076 109.615 58.2706C110.273 57.8274 111.018 57.6058 111.849 57.6058C112.021 57.6058 112.224 57.612 112.458 57.6243C112.698 57.6366 112.886 57.652 113.021 57.6705V60.3111C112.911 60.2803 112.714 60.2464 112.431 60.2095C112.147 60.1664 111.864 60.1449 111.581 60.1449C110.929 60.1449 110.347 60.2834 109.836 60.5604C109.331 60.8312 108.931 61.2098 108.636 61.696C108.34 62.1761 108.193 62.724 108.193 63.3395V72H105.432ZM121.015 72.2862C119.618 72.2862 118.414 71.9877 117.405 71.3906C116.402 70.7874 115.626 69.9411 115.078 68.8516C114.536 67.7559 114.266 66.4725 114.266 65.0014C114.266 63.5488 114.536 62.2685 115.078 61.1605C115.626 60.0526 116.389 59.1877 117.368 58.5661C118.353 57.9444 119.504 57.6335 120.821 57.6335C121.621 57.6335 122.397 57.7659 123.148 58.0305C123.899 58.2952 124.573 58.7107 125.17 59.277C125.767 59.8433 126.238 60.5788 126.582 61.4837C126.927 62.3823 127.099 63.4749 127.099 64.7614V65.7401H115.826V63.6719H124.394C124.394 62.9455 124.246 62.3023 123.951 61.7422C123.656 61.1759 123.24 60.7296 122.705 60.4034C122.175 60.0772 121.554 59.9141 120.839 59.9141C120.064 59.9141 119.387 60.1049 118.808 60.4865C118.236 60.862 117.793 61.3544 117.479 61.9638C117.171 62.567 117.017 63.2225 117.017 63.9304V65.5462C117.017 66.4941 117.183 67.3004 117.516 67.9652C117.854 68.63 118.325 69.1378 118.928 69.4886C119.531 69.8333 120.236 70.0057 121.043 70.0057C121.566 70.0057 122.043 69.9318 122.474 69.7841C122.905 69.6302 123.277 69.4025 123.591 69.1009C123.905 68.7992 124.145 68.4268 124.311 67.9837L126.924 68.4545C126.715 69.224 126.339 69.898 125.798 70.4766C125.262 71.049 124.588 71.4953 123.776 71.8153C122.969 72.1293 122.049 72.2862 121.015 72.2862ZM134.29 72.3139C133.391 72.3139 132.578 72.1477 131.852 71.8153C131.126 71.4768 130.55 70.9875 130.126 70.3473C129.707 69.7071 129.498 68.9223 129.498 67.9929C129.498 67.1927 129.652 66.5341 129.959 66.017C130.267 65.5 130.683 65.0907 131.206 64.7891C131.729 64.4875 132.314 64.2597 132.96 64.1058C133.606 63.9519 134.265 63.835 134.936 63.755C135.785 63.6565 136.475 63.5765 137.004 63.5149C137.533 63.4472 137.918 63.3395 138.158 63.1918C138.398 63.044 138.518 62.804 138.518 62.4716V62.407C138.518 61.6006 138.291 60.9759 137.835 60.5327C137.386 60.0895 136.715 59.8679 135.822 59.8679C134.893 59.8679 134.16 60.0741 133.625 60.4865C133.095 60.8928 132.729 61.3452 132.526 61.8438L129.932 61.2528C130.239 60.3911 130.689 59.6955 131.28 59.1662C131.877 58.6307 132.563 58.2429 133.339 58.0028C134.114 57.7566 134.93 57.6335 135.785 57.6335C136.352 57.6335 136.952 57.7012 137.586 57.8366C138.226 57.9659 138.823 58.206 139.377 58.5568C139.937 58.9077 140.396 59.4093 140.753 60.0618C141.11 60.7081 141.288 61.5483 141.288 62.5824V72H138.592V70.0611H138.481C138.303 70.4181 138.035 70.7689 137.678 71.1136C137.321 71.4583 136.863 71.7446 136.302 71.9723C135.742 72.2 135.071 72.3139 134.29 72.3139ZM134.89 70.098C135.653 70.098 136.305 69.9472 136.847 69.6456C137.395 69.344 137.81 68.95 138.094 68.4638C138.383 67.9714 138.528 67.4451 138.528 66.8849V65.0568C138.429 65.1553 138.238 65.2476 137.955 65.3338C137.678 65.4138 137.361 65.4846 137.004 65.5462C136.647 65.6016 136.299 65.6539 135.961 65.7031C135.622 65.7462 135.339 65.7831 135.111 65.8139C134.576 65.8816 134.086 65.9955 133.643 66.1555C133.206 66.3156 132.855 66.5464 132.591 66.848C132.332 67.1435 132.203 67.5374 132.203 68.0298C132.203 68.7131 132.455 69.2301 132.96 69.581C133.465 69.9257 134.108 70.098 134.89 70.098ZM151.585 57.8182V60.0341H143.839V57.8182H151.585ZM145.916 54.4205H148.677V67.8359C148.677 68.3714 148.757 68.7746 148.917 69.0455C149.077 69.3101 149.283 69.4917 149.536 69.5902C149.794 69.6825 150.074 69.7287 150.376 69.7287C150.597 69.7287 150.791 69.7133 150.957 69.6825C151.124 69.6518 151.253 69.6271 151.345 69.6087L151.844 71.8892C151.684 71.9508 151.456 72.0123 151.161 72.0739C150.865 72.1416 150.496 72.1785 150.053 72.1847C149.326 72.197 148.649 72.0677 148.021 71.7969C147.393 71.526 146.886 71.1075 146.498 70.5412C146.11 69.9749 145.916 69.264 145.916 68.4084V54.4205ZM167.863 72H161.741V53.0909H168.057C169.91 53.0909 171.501 53.4695 172.83 54.2266C174.16 54.9775 175.179 56.0578 175.886 57.4673C176.6 58.8707 176.957 60.5542 176.957 62.5178C176.957 64.4875 176.597 66.1802 175.877 67.5959C175.163 69.0116 174.129 70.1011 172.775 70.8643C171.421 71.6214 169.783 72 167.863 72ZM164.594 69.5071H167.706C169.146 69.5071 170.344 69.2363 171.298 68.6946C172.252 68.1468 172.966 67.3558 173.44 66.3217C173.914 65.2815 174.151 64.0135 174.151 62.5178C174.151 61.0343 173.914 59.7756 173.44 58.7415C172.972 57.7074 172.273 56.9226 171.344 56.3871C170.414 55.8516 169.26 55.5838 167.881 55.5838H164.594V69.5071ZM186.396 72.2862C184.999 72.2862 183.795 71.9877 182.786 71.3906C181.782 70.7874 181.007 69.9411 180.459 68.8516C179.917 67.7559 179.646 66.4725 179.646 65.0014C179.646 63.5488 179.917 62.2685 180.459 61.1605C181.007 60.0526 181.77 59.1877 182.749 58.5661C183.734 57.9444 184.885 57.6335 186.202 57.6335C187.002 57.6335 187.778 57.7659 188.529 58.0305C189.28 58.2952 189.954 58.7107 190.551 59.277C191.148 59.8433 191.619 60.5788 191.963 61.4837C192.308 62.3823 192.48 63.4749 192.48 64.7614V65.7401H181.207V63.6719H189.775C189.775 62.9455 189.627 62.3023 189.332 61.7422C189.036 61.1759 188.621 60.7296 188.085 60.4034C187.556 60.0772 186.934 59.9141 186.22 59.9141C185.445 59.9141 184.768 60.1049 184.189 60.4865C183.617 60.862 183.173 61.3544 182.86 61.9638C182.552 62.567 182.398 63.2225 182.398 63.9304V65.5462C182.398 66.4941 182.564 67.3004 182.896 67.9652C183.235 68.63 183.706 69.1378 184.309 69.4886C184.912 69.8333 185.617 70.0057 186.423 70.0057C186.947 70.0057 187.424 69.9318 187.855 69.7841C188.285 69.6302 188.658 69.4025 188.972 69.1009C189.286 68.7992 189.526 68.4268 189.692 67.9837L192.305 68.4545C192.096 69.224 191.72 69.898 191.178 70.4766C190.643 71.049 189.969 71.4953 189.156 71.8153C188.35 72.1293 187.43 72.2862 186.396 72.2862ZM202.163 57.8182V60.0341H194.417V57.8182H202.163ZM196.494 54.4205H199.255V67.8359C199.255 68.3714 199.335 68.7746 199.495 69.0455C199.655 69.3101 199.861 69.4917 200.114 69.5902C200.372 69.6825 200.652 69.7287 200.954 69.7287C201.175 69.7287 201.369 69.7133 201.536 69.6825C201.702 69.6518 201.831 69.6271 201.923 69.6087L202.422 71.8892C202.262 71.9508 202.034 72.0123 201.739 72.0739C201.443 72.1416 201.074 72.1785 200.631 72.1847C199.904 72.197 199.227 72.0677 198.599 71.7969C197.972 71.526 197.464 71.1075 197.076 70.5412C196.688 69.9749 196.494 69.264 196.494 68.4084V54.4205ZM211.177 72.2862C209.78 72.2862 208.576 71.9877 207.567 71.3906C206.564 70.7874 205.788 69.9411 205.24 68.8516C204.699 67.7559 204.428 66.4725 204.428 65.0014C204.428 63.5488 204.699 62.2685 205.24 61.1605C205.788 60.0526 206.551 59.1877 207.53 58.5661C208.515 57.9444 209.666 57.6335 210.983 57.6335C211.783 57.6335 212.559 57.7659 213.31 58.0305C214.061 58.2952 214.735 58.7107 215.332 59.277C215.929 59.8433 216.4 60.5788 216.744 61.4837C217.089 62.3823 217.262 63.4749 217.262 64.7614V65.7401H205.988V63.6719H214.556C214.556 62.9455 214.409 62.3023 214.113 61.7422C213.818 61.1759 213.402 60.7296 212.867 60.4034C212.337 60.0772 211.716 59.9141 211.002 59.9141C210.226 59.9141 209.549 60.1049 208.97 60.4865C208.398 60.862 207.955 61.3544 207.641 61.9638C207.333 62.567 207.179 63.2225 207.179 63.9304V65.5462C207.179 66.4941 207.345 67.3004 207.678 67.9652C208.016 68.63 208.487 69.1378 209.09 69.4886C209.694 69.8333 210.398 70.0057 211.205 70.0057C211.728 70.0057 212.205 69.9318 212.636 69.7841C213.067 69.6302 213.439 69.4025 213.753 69.1009C214.067 68.7992 214.307 68.4268 214.473 67.9837L217.086 68.4545C216.877 69.224 216.501 69.898 215.96 70.4766C215.424 71.049 214.75 71.4953 213.938 71.8153C213.131 72.1293 212.211 72.2862 211.177 72.2862ZM226.298 72.2862C224.926 72.2862 223.744 71.9754 222.753 71.3537C221.768 70.7259 221.011 69.861 220.482 68.7592C219.952 67.6574 219.688 66.3956 219.688 64.9737C219.688 63.5334 219.958 62.2623 220.5 61.1605C221.042 60.0526 221.805 59.1877 222.79 58.5661C223.775 57.9444 224.935 57.6335 226.271 57.6335C227.348 57.6335 228.308 57.8336 229.151 58.2337C229.995 58.6276 230.675 59.1816 231.192 59.8956C231.715 60.6096 232.026 61.4437 232.124 62.3977H229.438C229.29 61.733 228.951 61.1605 228.422 60.6804C227.899 60.2003 227.197 59.9602 226.317 59.9602C225.547 59.9602 224.873 60.1634 224.295 60.5696C223.722 60.9697 223.276 61.5421 222.956 62.2869C222.636 63.0256 222.476 63.8996 222.476 64.9091C222.476 65.9432 222.633 66.8357 222.947 67.5866C223.261 68.3376 223.704 68.9193 224.276 69.3317C224.855 69.7441 225.535 69.9503 226.317 69.9503C226.84 69.9503 227.314 69.8549 227.739 69.6641C228.17 69.4671 228.53 69.187 228.819 68.8239C229.114 68.4607 229.321 68.0237 229.438 67.5128H232.124C232.026 68.4299 231.727 69.2486 231.229 69.9688C230.73 70.6889 230.062 71.2552 229.225 71.6676C228.394 72.08 227.419 72.2862 226.298 72.2862ZM241.697 57.8182V60.0341H233.95V57.8182H241.697ZM236.028 54.4205H238.788V67.8359C238.788 68.3714 238.868 68.7746 239.028 69.0455C239.188 69.3101 239.394 69.4917 239.647 69.5902C239.905 69.6825 240.185 69.7287 240.487 69.7287C240.709 69.7287 240.903 69.7133 241.069 69.6825C241.235 69.6518 241.364 69.6271 241.456 69.6087L241.955 71.8892C241.795 71.9508 241.567 72.0123 241.272 72.0739C240.976 72.1416 240.607 72.1785 240.164 72.1847C239.438 72.197 238.76 72.0677 238.133 71.7969C237.505 71.526 236.997 71.1075 236.609 70.5412C236.221 69.9749 236.028 69.264 236.028 68.4084V54.4205ZM244.75 72V57.8182H247.511V72H244.75ZM246.145 55.63C245.664 55.63 245.252 55.4699 244.907 55.1499C244.569 54.8236 244.4 54.4358 244.4 53.9865C244.4 53.531 244.569 53.1432 244.907 52.8232C245.252 52.4969 245.664 52.3338 246.145 52.3338C246.625 52.3338 247.034 52.4969 247.373 52.8232C247.717 53.1432 247.89 53.531 247.89 53.9865C247.89 54.4358 247.717 54.8236 247.373 55.1499C247.034 55.4699 246.625 55.63 246.145 55.63ZM257.199 72.2862C255.869 72.2862 254.709 71.9815 253.718 71.3722C252.727 70.7628 251.957 69.9103 251.41 68.8146C250.862 67.719 250.588 66.4387 250.588 64.9737C250.588 63.5026 250.862 62.2161 251.41 61.1143C251.957 60.0125 252.727 59.157 253.718 58.5476C254.709 57.9382 255.869 57.6335 257.199 57.6335C258.528 57.6335 259.689 57.9382 260.68 58.5476C261.671 59.157 262.44 60.0125 262.988 61.1143C263.536 62.2161 263.809 63.5026 263.809 64.9737C263.809 66.4387 263.536 67.719 262.988 68.8146C262.44 69.9103 261.671 70.7628 260.68 71.3722C259.689 71.9815 258.528 72.2862 257.199 72.2862ZM257.208 69.9688C258.07 69.9688 258.784 69.741 259.35 69.2855C259.916 68.83 260.335 68.2237 260.606 67.4666C260.883 66.7095 261.021 65.8755 261.021 64.9645C261.021 64.0597 260.883 63.2287 260.606 62.4716C260.335 61.7083 259.916 61.0959 259.35 60.6342C258.784 60.1726 258.07 59.9418 257.208 59.9418C256.34 59.9418 255.62 60.1726 255.047 60.6342C254.481 61.0959 254.059 61.7083 253.782 62.4716C253.512 63.2287 253.376 64.0597 253.376 64.9645C253.376 65.8755 253.512 66.7095 253.782 67.4666C254.059 68.2237 254.481 68.83 255.047 69.2855C255.62 69.741 256.34 69.9688 257.208 69.9688ZM269.652 63.5795V72H266.891V57.8182H269.541V60.1264H269.716C270.042 59.3755 270.553 58.7723 271.249 58.3168C271.951 57.8613 272.834 57.6335 273.899 57.6335C274.865 57.6335 275.712 57.8366 276.438 58.2429C277.164 58.643 277.727 59.2401 278.127 60.0341C278.528 60.8281 278.728 61.8099 278.728 62.9794V72H275.967V63.3118C275.967 62.2839 275.699 61.4806 275.164 60.902C274.628 60.3172 273.893 60.0249 272.957 60.0249C272.317 60.0249 271.748 60.1634 271.249 60.4403C270.757 60.7173 270.366 61.1236 270.076 61.6591C269.793 62.1884 269.652 62.8286 269.652 63.5795Z" fill="black"/>
<path d="M71.8693 106.815V105.409H81.6875V106.815H77.571V118.5H75.9858V106.815H71.8693ZM86.4943 118.705C85.608 118.705 84.8303 118.494 84.1612 118.072C83.4964 117.65 82.9766 117.06 82.6016 116.301C82.2308 115.543 82.0455 114.656 82.0455 113.642C82.0455 112.619 82.2308 111.727 82.6016 110.964C82.9766 110.201 83.4964 109.609 84.1612 109.187C84.8303 108.765 85.608 108.554 86.4943 108.554C87.3807 108.554 88.1563 108.765 88.821 109.187C89.4901 109.609 90.0099 110.201 90.3807 110.964C90.7557 111.727 90.9432 112.619 90.9432 113.642C90.9432 114.656 90.7557 115.543 90.3807 116.301C90.0099 117.06 89.4901 117.65 88.821 118.072C88.1563 118.494 87.3807 118.705 86.4943 118.705ZM86.4943 117.349C87.1676 117.349 87.7216 117.177 88.1562 116.832C88.5909 116.487 88.9126 116.033 89.1214 115.47C89.3303 114.908 89.4347 114.298 89.4347 113.642C89.4347 112.986 89.3303 112.374 89.1214 111.808C88.9126 111.241 88.5909 110.783 88.1562 110.433C87.7216 110.084 87.1676 109.909 86.4943 109.909C85.821 109.909 85.267 110.084 84.8324 110.433C84.3977 110.783 84.076 111.241 83.8672 111.808C83.6584 112.374 83.554 112.986 83.554 113.642C83.554 114.298 83.6584 114.908 83.8672 115.47C84.076 116.033 84.3977 116.487 84.8324 116.832C85.267 117.177 85.821 117.349 86.4943 117.349ZM97.5158 108.682V109.96H92.4277V108.682H97.5158ZM93.9107 106.33H95.4192V115.688C95.4192 116.114 95.481 116.433 95.6046 116.646C95.7324 116.855 95.8944 116.996 96.0904 117.068C96.2907 117.136 96.5016 117.17 96.7232 117.17C96.8894 117.17 97.0257 117.162 97.1323 117.145C97.2388 117.124 97.324 117.107 97.388 117.094L97.6948 118.449C97.5925 118.487 97.4498 118.526 97.2665 118.564C97.0833 118.607 96.851 118.628 96.5698 118.628C96.1436 118.628 95.726 118.536 95.3169 118.353C94.9121 118.17 94.5755 117.891 94.307 117.516C94.0428 117.141 93.9107 116.668 93.9107 116.097V106.33ZM102.674 118.73C102.052 118.73 101.487 118.613 100.98 118.379C100.473 118.14 100.07 117.797 99.7722 117.349C99.4739 116.898 99.3248 116.352 99.3248 115.713C99.3248 115.151 99.4355 114.695 99.6571 114.345C99.8787 113.991 100.175 113.714 100.546 113.514C100.916 113.314 101.325 113.165 101.773 113.067C102.225 112.964 102.678 112.884 103.134 112.824C103.731 112.747 104.215 112.69 104.585 112.651C104.96 112.609 105.233 112.538 105.404 112.44C105.578 112.342 105.666 112.172 105.666 111.929V111.878C105.666 111.247 105.493 110.757 105.148 110.408C104.807 110.058 104.289 109.884 103.595 109.884C102.874 109.884 102.31 110.041 101.901 110.357C101.492 110.672 101.204 111.009 101.038 111.366L99.606 110.855C99.8617 110.259 100.203 109.794 100.629 109.462C101.059 109.125 101.528 108.891 102.035 108.759C102.546 108.622 103.049 108.554 103.544 108.554C103.859 108.554 104.221 108.592 104.63 108.669C105.044 108.741 105.442 108.893 105.825 109.123C106.213 109.353 106.535 109.7 106.791 110.165C107.046 110.629 107.174 111.251 107.174 112.031V118.5H105.666V117.17H105.589C105.487 117.384 105.316 117.612 105.078 117.854C104.839 118.097 104.521 118.304 104.125 118.474C103.729 118.645 103.245 118.73 102.674 118.73ZM102.904 117.375C103.501 117.375 104.004 117.258 104.413 117.023C104.826 116.789 105.137 116.487 105.346 116.116C105.559 115.745 105.666 115.355 105.666 114.946V113.565C105.602 113.642 105.461 113.712 105.244 113.776C105.031 113.836 104.784 113.889 104.502 113.936C104.225 113.979 103.955 114.017 103.691 114.051C103.431 114.081 103.22 114.107 103.058 114.128C102.666 114.179 102.299 114.262 101.958 114.377C101.622 114.488 101.349 114.656 101.14 114.882C100.936 115.104 100.833 115.406 100.833 115.79C100.833 116.314 101.027 116.71 101.415 116.979C101.807 117.243 102.303 117.375 102.904 117.375ZM111.436 105.409V118.5H109.928V105.409H111.436ZM120.003 118.5H118.341L123.148 105.409H124.784L129.591 118.5H127.929L124.017 107.48H123.915L120.003 118.5ZM120.617 113.386H127.316V114.793H120.617V113.386ZM132.934 112.594V118.5H131.426V108.682H132.883V110.216H133.011C133.241 109.717 133.59 109.317 134.059 109.014C134.528 108.707 135.133 108.554 135.874 108.554C136.539 108.554 137.121 108.69 137.619 108.963C138.118 109.232 138.506 109.641 138.783 110.19C139.06 110.736 139.198 111.426 139.198 112.261V118.5H137.69V112.364C137.69 111.592 137.49 110.991 137.089 110.561C136.688 110.126 136.139 109.909 135.44 109.909C134.958 109.909 134.528 110.013 134.149 110.222C133.774 110.431 133.477 110.736 133.26 111.136C133.043 111.537 132.934 112.023 132.934 112.594ZM144.844 118.73C144.222 118.73 143.657 118.613 143.15 118.379C142.643 118.14 142.24 117.797 141.942 117.349C141.644 116.898 141.495 116.352 141.495 115.713C141.495 115.151 141.605 114.695 141.827 114.345C142.049 113.991 142.345 113.714 142.716 113.514C143.086 113.314 143.495 113.165 143.943 113.067C144.395 112.964 144.848 112.884 145.304 112.824C145.901 112.747 146.385 112.69 146.755 112.651C147.13 112.609 147.403 112.538 147.574 112.44C147.748 112.342 147.836 112.172 147.836 111.929V111.878C147.836 111.247 147.663 110.757 147.318 110.408C146.977 110.058 146.459 109.884 145.765 109.884C145.044 109.884 144.48 110.041 144.071 110.357C143.662 110.672 143.374 111.009 143.208 111.366L141.776 110.855C142.032 110.259 142.373 109.794 142.799 109.462C143.229 109.125 143.698 108.891 144.205 108.759C144.716 108.622 145.219 108.554 145.713 108.554C146.029 108.554 146.391 108.592 146.8 108.669C147.213 108.741 147.612 108.893 147.995 109.123C148.383 109.353 148.705 109.7 148.961 110.165C149.216 110.629 149.344 111.251 149.344 112.031V118.5H147.836V117.17H147.759C147.657 117.384 147.486 117.612 147.248 117.854C147.009 118.097 146.691 118.304 146.295 118.474C145.899 118.645 145.415 118.73 144.844 118.73ZM145.074 117.375C145.671 117.375 146.174 117.258 146.583 117.023C146.996 116.789 147.307 116.487 147.516 116.116C147.729 115.745 147.836 115.355 147.836 114.946V113.565C147.772 113.642 147.631 113.712 147.414 113.776C147.201 113.836 146.953 113.889 146.672 113.936C146.395 113.979 146.125 114.017 145.86 114.051C145.6 114.081 145.39 114.107 145.228 114.128C144.836 114.179 144.469 114.262 144.128 114.377C143.792 114.488 143.519 114.656 143.31 114.882C143.105 115.104 143.003 115.406 143.003 115.79C143.003 116.314 143.197 116.71 143.585 116.979C143.977 117.243 144.473 117.375 145.074 117.375ZM153.606 105.409V118.5H152.097V105.409H153.606ZM157.341 122.182C157.085 122.182 156.857 122.161 156.657 122.118C156.456 122.08 156.318 122.041 156.241 122.003L156.625 120.673C156.991 120.767 157.315 120.801 157.596 120.776C157.877 120.75 158.127 120.624 158.344 120.398C158.566 120.177 158.768 119.817 158.951 119.318L159.233 118.551L155.602 108.682H157.238L159.949 116.506H160.051L162.761 108.682H164.397L160.23 119.932C160.042 120.439 159.81 120.859 159.533 121.191C159.256 121.528 158.934 121.777 158.568 121.939C158.206 122.101 157.797 122.182 157.341 122.182ZM166.107 118.5V117.349L171.681 110.19V110.088H166.286V108.682H173.624V109.884L168.204 116.991V117.094H173.803V118.5H166.107ZM179.962 118.705C179.016 118.705 178.2 118.496 177.514 118.078C176.832 117.656 176.306 117.068 175.935 116.314C175.569 115.555 175.385 114.673 175.385 113.668C175.385 112.662 175.569 111.776 175.935 111.009C176.306 110.237 176.821 109.636 177.482 109.206C178.147 108.771 178.922 108.554 179.809 108.554C180.32 108.554 180.825 108.639 181.324 108.81C181.822 108.98 182.276 109.257 182.685 109.641C183.094 110.02 183.42 110.523 183.663 111.149C183.906 111.776 184.027 112.547 184.027 113.463V114.102H176.459V112.798H182.493C182.493 112.244 182.382 111.75 182.161 111.315C181.944 110.881 181.632 110.538 181.228 110.286C180.827 110.035 180.354 109.909 179.809 109.909C179.208 109.909 178.688 110.058 178.249 110.357C177.814 110.651 177.48 111.034 177.245 111.507C177.011 111.98 176.894 112.487 176.894 113.028V113.898C176.894 114.639 177.022 115.268 177.277 115.783C177.537 116.295 177.897 116.685 178.358 116.953C178.818 117.217 179.353 117.349 179.962 117.349C180.358 117.349 180.716 117.294 181.036 117.183C181.36 117.068 181.639 116.898 181.873 116.672C182.108 116.442 182.289 116.156 182.417 115.815L183.874 116.224C183.721 116.719 183.463 117.153 183.1 117.528C182.738 117.899 182.291 118.189 181.758 118.398C181.225 118.602 180.627 118.705 179.962 118.705ZM190.029 118.705C189.211 118.705 188.489 118.498 187.863 118.085C187.236 117.667 186.746 117.079 186.392 116.32C186.039 115.558 185.862 114.656 185.862 113.616C185.862 112.585 186.039 111.69 186.392 110.932C186.746 110.173 187.238 109.587 187.869 109.174C188.5 108.761 189.228 108.554 190.055 108.554C190.694 108.554 191.199 108.661 191.57 108.874C191.945 109.082 192.23 109.321 192.426 109.589C192.627 109.854 192.782 110.071 192.893 110.241H193.021V105.409H194.529V118.5H193.072V116.991H192.893C192.782 117.17 192.625 117.396 192.42 117.669C192.216 117.937 191.924 118.178 191.544 118.391C191.165 118.6 190.66 118.705 190.029 118.705ZM190.234 117.349C190.839 117.349 191.35 117.192 191.768 116.876C192.186 116.557 192.503 116.116 192.721 115.553C192.938 114.987 193.047 114.332 193.047 113.591C193.047 112.858 192.94 112.217 192.727 111.667C192.514 111.113 192.199 110.683 191.781 110.376C191.363 110.065 190.848 109.909 190.234 109.909C189.595 109.909 189.062 110.073 188.636 110.401C188.214 110.725 187.897 111.166 187.684 111.724C187.475 112.278 187.37 112.901 187.37 113.591C187.37 114.29 187.477 114.925 187.69 115.496C187.907 116.062 188.227 116.514 188.649 116.851C189.075 117.183 189.603 117.349 190.234 117.349ZM198.601 118.602C198.286 118.602 198.015 118.489 197.789 118.263C197.564 118.038 197.451 117.767 197.451 117.452C197.451 117.136 197.564 116.866 197.789 116.64C198.015 116.414 198.286 116.301 198.601 116.301C198.917 116.301 199.187 116.414 199.413 116.64C199.639 116.866 199.752 117.136 199.752 117.452C199.752 117.661 199.699 117.852 199.592 118.027C199.49 118.202 199.351 118.342 199.176 118.449C199.006 118.551 198.814 118.602 198.601 118.602ZM198.601 111.315C198.286 111.315 198.015 111.202 197.789 110.977C197.564 110.751 197.451 110.48 197.451 110.165C197.451 109.849 197.564 109.579 197.789 109.353C198.015 109.127 198.286 109.014 198.601 109.014C198.917 109.014 199.187 109.127 199.413 109.353C199.639 109.579 199.752 109.849 199.752 110.165C199.752 110.374 199.699 110.565 199.592 110.74C199.49 110.915 199.351 111.055 199.176 111.162C199.006 111.264 198.814 111.315 198.601 111.315Z" fill="black" fill-opacity="0.7"/>
<path d="M391.609 104V120H389.188V106.422H389.094L385.266 108.922V106.609L389.258 104H391.609ZM395.938 120V118.25L401.352 112.641C401.93 112.031 402.406 111.497 402.781 111.039C403.161 110.576 403.445 110.135 403.633 109.719C403.82 109.302 403.914 108.859 403.914 108.391C403.914 107.859 403.789 107.401 403.539 107.016C403.289 106.625 402.948 106.326 402.516 106.117C402.083 105.904 401.596 105.797 401.055 105.797C400.482 105.797 399.982 105.914 399.555 106.148C399.128 106.383 398.799 106.714 398.57 107.141C398.341 107.568 398.227 108.068 398.227 108.641H395.922C395.922 107.667 396.146 106.815 396.594 106.086C397.042 105.357 397.656 104.792 398.438 104.391C399.219 103.984 400.107 103.781 401.102 103.781C402.107 103.781 402.992 103.982 403.758 104.383C404.529 104.779 405.13 105.32 405.562 106.008C405.995 106.69 406.211 107.461 406.211 108.32C406.211 108.914 406.099 109.495 405.875 110.062C405.656 110.63 405.273 111.263 404.727 111.961C404.18 112.654 403.419 113.495 402.445 114.484L399.266 117.812V117.93H406.469V120H395.938ZM414.711 120.219C413.732 120.219 412.852 120.031 412.07 119.656C411.294 119.276 410.674 118.755 410.211 118.094C409.747 117.432 409.5 116.677 409.469 115.828H411.813C411.87 116.516 412.174 117.081 412.727 117.523C413.279 117.966 413.94 118.187 414.711 118.187C415.326 118.187 415.87 118.047 416.344 117.766C416.823 117.479 417.198 117.086 417.469 116.586C417.745 116.086 417.883 115.516 417.883 114.875C417.883 114.224 417.742 113.643 417.461 113.133C417.18 112.622 416.792 112.221 416.297 111.93C415.807 111.638 415.245 111.49 414.609 111.484C414.125 111.484 413.638 111.568 413.148 111.734C412.659 111.901 412.263 112.12 411.961 112.391L409.75 112.062L410.648 104H419.445V106.07H412.656L412.148 110.547H412.242C412.555 110.245 412.969 109.992 413.484 109.789C414.005 109.586 414.563 109.484 415.156 109.484C416.13 109.484 416.997 109.716 417.758 110.18C418.523 110.643 419.125 111.276 419.563 112.078C420.005 112.875 420.224 113.792 420.219 114.828C420.224 115.865 419.99 116.789 419.516 117.602C419.047 118.414 418.396 119.055 417.563 119.523C416.734 119.987 415.784 120.219 414.711 120.219ZM425.563 117.812L425.445 118.664C425.367 119.289 425.234 119.94 425.047 120.617C424.865 121.299 424.674 121.932 424.477 122.516C424.284 123.099 424.125 123.563 424 123.906H422.344C422.411 123.583 422.505 123.146 422.625 122.594C422.745 122.047 422.862 121.435 422.977 120.758C423.091 120.081 423.177 119.391 423.234 118.687L423.313 117.812H425.563ZM428.494 116.875V114.922L435.408 104H436.947V106.875H435.971L431.025 114.703V114.828H440.502V116.875H428.494ZM436.08 120V116.281L436.096 115.391V104H438.385V120H436.08ZM448.506 120.219C447.527 120.219 446.646 120.031 445.865 119.656C445.089 119.276 444.469 118.755 444.006 118.094C443.542 117.432 443.295 116.677 443.264 115.828H445.607C445.665 116.516 445.969 117.081 446.521 117.523C447.074 117.966 447.735 118.187 448.506 118.187C449.12 118.187 449.665 118.047 450.139 117.766C450.618 117.479 450.993 117.086 451.264 116.586C451.54 116.086 451.678 115.516 451.678 114.875C451.678 114.224 451.537 113.643 451.256 113.133C450.975 112.622 450.587 112.221 450.092 111.93C449.602 111.638 449.04 111.49 448.404 111.484C447.92 111.484 447.433 111.568 446.943 111.734C446.454 111.901 446.058 112.12 445.756 112.391L443.545 112.062L444.443 104H453.24V106.07H446.451L445.943 110.547H446.037C446.35 110.245 446.764 109.992 447.279 109.789C447.8 109.586 448.357 109.484 448.951 109.484C449.925 109.484 450.792 109.716 451.553 110.18C452.318 110.643 452.92 111.276 453.357 112.078C453.8 112.875 454.019 113.792 454.014 114.828C454.019 115.865 453.785 116.789 453.311 117.602C452.842 118.414 452.191 119.055 451.357 119.523C450.529 119.987 449.579 120.219 448.506 120.219ZM462.437 120.266C461.203 120.26 460.148 119.935 459.273 119.289C458.398 118.643 457.729 117.703 457.266 116.469C456.802 115.234 456.57 113.747 456.57 112.008C456.57 110.273 456.802 108.792 457.266 107.562C457.734 106.333 458.406 105.396 459.281 104.75C460.161 104.104 461.214 103.781 462.437 103.781C463.661 103.781 464.711 104.107 465.586 104.758C466.461 105.404 467.13 106.341 467.594 107.57C468.063 108.794 468.297 110.273 468.297 112.008C468.297 113.753 468.065 115.242 467.602 116.477C467.138 117.706 466.469 118.646 465.594 119.297C464.719 119.943 463.667 120.266 462.437 120.266ZM462.437 118.18C463.521 118.18 464.367 117.651 464.977 116.594C465.591 115.536 465.898 114.008 465.898 112.008C465.898 110.68 465.758 109.557 465.477 108.641C465.201 107.719 464.802 107.021 464.281 106.547C463.766 106.068 463.151 105.828 462.437 105.828C461.359 105.828 460.513 106.359 459.898 107.422C459.284 108.484 458.974 110.013 458.969 112.008C458.969 113.341 459.107 114.469 459.383 115.391C459.664 116.307 460.063 117.003 460.578 117.477C461.094 117.945 461.714 118.18 462.437 118.18Z" fill="black"/>
<path d="M71 145H469" stroke="#DD0B0B" stroke-width="13" stroke-linecap="round"/>
<path d="M71 145H455" stroke="#FFE100" stroke-width="13" stroke-linecap="round"/>
<path d="M71 145H435" stroke="#039708" stroke-width="13" stroke-linecap="round"/>
<circle cx="78" cy="177.5" r="7" fill="#039708"/>
<path d="M109.716 173.591C109.631 172.871 109.285 172.312 108.679 171.915C108.073 171.517 107.33 171.318 106.449 171.318C105.805 171.318 105.241 171.422 104.759 171.631C104.28 171.839 103.906 172.125 103.636 172.49C103.371 172.855 103.239 173.269 103.239 173.733C103.239 174.121 103.331 174.455 103.516 174.734C103.705 175.009 103.946 175.239 104.24 175.423C104.534 175.603 104.841 175.752 105.163 175.871C105.485 175.984 105.781 176.077 106.051 176.148L107.528 176.545C107.907 176.645 108.329 176.782 108.793 176.957C109.261 177.133 109.709 177.372 110.135 177.675C110.566 177.973 110.921 178.357 111.2 178.825C111.48 179.294 111.619 179.869 111.619 180.551C111.619 181.337 111.413 182.047 111.001 182.682C110.594 183.316 109.998 183.821 109.212 184.195C108.43 184.569 107.481 184.756 106.364 184.756C105.322 184.756 104.42 184.588 103.658 184.251C102.9 183.915 102.304 183.446 101.868 182.845C101.437 182.244 101.193 181.545 101.136 180.75H102.955C103.002 181.299 103.187 181.754 103.509 182.114C103.835 182.469 104.247 182.734 104.744 182.909C105.246 183.08 105.786 183.165 106.364 183.165C107.036 183.165 107.64 183.056 108.175 182.838C108.71 182.616 109.134 182.308 109.446 181.915C109.759 181.517 109.915 181.053 109.915 180.523C109.915 180.04 109.78 179.647 109.51 179.344C109.24 179.041 108.885 178.795 108.445 178.605C108.004 178.416 107.528 178.25 107.017 178.108L105.227 177.597C104.091 177.27 103.191 176.804 102.528 176.197C101.866 175.591 101.534 174.798 101.534 173.818C101.534 173.004 101.754 172.294 102.195 171.688C102.64 171.077 103.236 170.603 103.984 170.267C104.737 169.926 105.578 169.756 106.506 169.756C107.443 169.756 108.277 169.924 109.006 170.26C109.735 170.591 110.313 171.046 110.739 171.624C111.17 172.201 111.397 172.857 111.42 173.591H109.716ZM117.498 184.756C116.807 184.756 116.18 184.625 115.616 184.365C115.053 184.1 114.605 183.719 114.274 183.222C113.942 182.72 113.777 182.114 113.777 181.403C113.777 180.778 113.9 180.272 114.146 179.884C114.392 179.491 114.721 179.183 115.133 178.96C115.545 178.738 116 178.572 116.497 178.463C116.999 178.349 117.503 178.259 118.01 178.193C118.672 178.108 119.21 178.044 119.622 178.001C120.038 177.954 120.342 177.876 120.531 177.767C120.725 177.658 120.822 177.469 120.822 177.199V177.142C120.822 176.441 120.63 175.897 120.247 175.509C119.868 175.12 119.293 174.926 118.521 174.926C117.721 174.926 117.093 175.101 116.639 175.452C116.184 175.802 115.865 176.176 115.68 176.574L114.089 176.006C114.373 175.343 114.752 174.827 115.225 174.457C115.704 174.083 116.225 173.823 116.788 173.676C117.356 173.525 117.915 173.449 118.464 173.449C118.815 173.449 119.217 173.491 119.672 173.577C120.131 173.657 120.574 173.825 121 174.081C121.431 174.337 121.788 174.723 122.072 175.239C122.356 175.755 122.498 176.446 122.498 177.312V184.5H120.822V183.023H120.737C120.623 183.259 120.434 183.513 120.169 183.783C119.904 184.053 119.551 184.282 119.11 184.472C118.67 184.661 118.133 184.756 117.498 184.756ZM117.754 183.25C118.417 183.25 118.975 183.12 119.43 182.859C119.889 182.599 120.235 182.263 120.467 181.851C120.704 181.439 120.822 181.006 120.822 180.551V179.017C120.751 179.102 120.595 179.18 120.353 179.251C120.117 179.318 119.842 179.377 119.529 179.429C119.222 179.476 118.921 179.519 118.627 179.557C118.339 179.59 118.104 179.618 117.924 179.642C117.489 179.699 117.082 179.791 116.703 179.919C116.329 180.042 116.026 180.229 115.794 180.48C115.566 180.726 115.453 181.062 115.453 181.489C115.453 182.071 115.668 182.511 116.099 182.81C116.535 183.103 117.086 183.25 117.754 183.25ZM130.415 173.591V175.011H124.535V173.591H130.415ZM126.296 184.5V172.085C126.296 171.46 126.443 170.939 126.737 170.523C127.03 170.106 127.411 169.794 127.88 169.585C128.349 169.377 128.844 169.273 129.364 169.273C129.776 169.273 130.112 169.306 130.373 169.372C130.633 169.438 130.827 169.5 130.955 169.557L130.472 171.006C130.387 170.977 130.269 170.942 130.117 170.899C129.97 170.857 129.776 170.835 129.535 170.835C128.981 170.835 128.581 170.975 128.335 171.254C128.093 171.534 127.972 171.943 127.972 172.483V184.5H126.296ZM136.889 184.727C135.838 184.727 134.931 184.495 134.169 184.031C133.411 183.562 132.827 182.909 132.415 182.071C132.008 181.228 131.804 180.248 131.804 179.131C131.804 178.013 132.008 177.028 132.415 176.176C132.827 175.319 133.4 174.652 134.134 174.173C134.872 173.69 135.734 173.449 136.719 173.449C137.287 173.449 137.848 173.544 138.402 173.733C138.956 173.922 139.46 174.23 139.915 174.656C140.369 175.078 140.732 175.636 141.001 176.332C141.271 177.028 141.406 177.885 141.406 178.903V179.614H132.997V178.165H139.702C139.702 177.549 139.579 177 139.332 176.517C139.091 176.034 138.745 175.653 138.295 175.374C137.85 175.094 137.325 174.955 136.719 174.955C136.051 174.955 135.473 175.12 134.986 175.452C134.503 175.778 134.131 176.205 133.871 176.73C133.61 177.256 133.48 177.819 133.48 178.42V179.386C133.48 180.21 133.622 180.909 133.906 181.482C134.195 182.05 134.595 182.483 135.107 182.781C135.618 183.075 136.212 183.222 136.889 183.222C137.33 183.222 137.727 183.16 138.082 183.037C138.442 182.909 138.752 182.72 139.013 182.469C139.273 182.213 139.474 181.896 139.616 181.517L141.236 181.972C141.065 182.521 140.779 183.004 140.376 183.42C139.974 183.832 139.477 184.154 138.885 184.386C138.293 184.614 137.628 184.727 136.889 184.727ZM145.178 184.614C144.827 184.614 144.527 184.488 144.276 184.237C144.025 183.986 143.899 183.686 143.899 183.335C143.899 182.985 144.025 182.684 144.276 182.433C144.527 182.182 144.827 182.057 145.178 182.057C145.528 182.057 145.829 182.182 146.08 182.433C146.33 182.684 146.456 182.985 146.456 183.335C146.456 183.567 146.397 183.78 146.278 183.974C146.165 184.169 146.011 184.325 145.817 184.443C145.627 184.557 145.414 184.614 145.178 184.614ZM145.178 176.517C144.827 176.517 144.527 176.392 144.276 176.141C144.025 175.89 143.899 175.589 143.899 175.239C143.899 174.888 144.025 174.588 144.276 174.337C144.527 174.086 144.827 173.96 145.178 173.96C145.528 173.96 145.829 174.086 146.08 174.337C146.33 174.588 146.456 174.888 146.456 175.239C146.456 175.471 146.397 175.684 146.278 175.878C146.165 176.072 146.011 176.228 145.817 176.347C145.627 176.46 145.414 176.517 145.178 176.517Z" fill="black"/>
<path d="M329.918 169.955V184.5H327.716V172.156H327.631L324.151 174.429V172.327L327.78 169.955H329.918ZM339.371 169.955V184.5H337.169V172.156H337.084L333.604 174.429V172.327L337.233 169.955H339.371ZM348.22 184.699C347.202 184.699 346.303 184.524 345.521 184.173C344.745 183.823 344.136 183.34 343.696 182.724C343.256 182.109 343.038 181.408 343.043 180.622C343.038 180.007 343.163 179.441 343.419 178.925C343.679 178.404 344.032 177.971 344.477 177.625C344.922 177.275 345.42 177.052 345.969 176.957V176.872C345.244 176.697 344.664 176.309 344.229 175.707C343.793 175.106 343.578 174.415 343.582 173.634C343.578 172.89 343.774 172.227 344.172 171.645C344.574 171.058 345.126 170.596 345.827 170.26C346.527 169.924 347.325 169.756 348.22 169.756C349.106 169.756 349.896 169.926 350.592 170.267C351.293 170.603 351.845 171.065 352.247 171.652C352.65 172.234 352.853 172.895 352.858 173.634C352.853 174.415 352.631 175.106 352.19 175.707C351.75 176.309 351.177 176.697 350.472 176.872V176.957C351.016 177.052 351.506 177.275 351.942 177.625C352.382 177.971 352.732 178.404 352.993 178.925C353.258 179.441 353.393 180.007 353.398 180.622C353.393 181.408 353.17 182.109 352.73 182.724C352.29 183.34 351.679 183.823 350.898 184.173C350.121 184.524 349.229 184.699 348.22 184.699ZM348.22 182.902C348.821 182.902 349.342 182.803 349.783 182.604C350.223 182.4 350.564 182.118 350.805 181.759C351.047 181.394 351.17 180.968 351.175 180.48C351.17 179.973 351.037 179.526 350.777 179.138C350.521 178.75 350.173 178.444 349.733 178.222C349.293 177.999 348.788 177.888 348.22 177.888C347.647 177.888 347.138 177.999 346.693 178.222C346.248 178.444 345.898 178.75 345.642 179.138C345.386 179.526 345.261 179.973 345.266 180.48C345.261 180.968 345.377 181.394 345.614 181.759C345.855 182.118 346.198 182.4 346.643 182.604C347.089 182.803 347.614 182.902 348.22 182.902ZM348.22 176.134C348.703 176.134 349.132 176.036 349.506 175.842C349.88 175.648 350.173 175.378 350.386 175.033C350.604 174.687 350.715 174.282 350.72 173.818C350.715 173.364 350.607 172.966 350.393 172.625C350.185 172.284 349.894 172.021 349.52 171.837C349.146 171.647 348.713 171.553 348.22 171.553C347.718 171.553 347.278 171.647 346.899 171.837C346.525 172.021 346.234 172.284 346.026 172.625C345.817 172.966 345.715 173.364 345.72 173.818C345.715 174.282 345.82 174.687 346.033 175.033C346.246 175.378 346.539 175.648 346.913 175.842C347.292 176.036 347.728 176.134 348.22 176.134ZM358.304 182.511L358.197 183.286C358.126 183.854 358.005 184.446 357.835 185.061C357.669 185.681 357.496 186.257 357.316 186.787C357.141 187.317 356.997 187.739 356.883 188.051H355.377C355.439 187.758 355.524 187.36 355.633 186.858C355.742 186.361 355.849 185.804 355.953 185.189C356.057 184.573 356.135 183.946 356.187 183.307L356.258 182.511H358.304ZM361.274 184.5V182.909L366.196 177.81C366.722 177.256 367.155 176.77 367.496 176.354C367.841 175.932 368.099 175.532 368.27 175.153C368.44 174.775 368.526 174.372 368.526 173.946C368.526 173.463 368.412 173.046 368.185 172.696C367.957 172.341 367.647 172.069 367.254 171.879C366.861 171.685 366.419 171.588 365.926 171.588C365.405 171.588 364.951 171.695 364.562 171.908C364.174 172.121 363.876 172.421 363.668 172.81C363.459 173.198 363.355 173.652 363.355 174.173H361.26C361.26 173.288 361.464 172.514 361.871 171.851C362.278 171.188 362.837 170.674 363.547 170.31C364.257 169.94 365.064 169.756 365.969 169.756C366.883 169.756 367.688 169.938 368.384 170.303C369.084 170.662 369.631 171.155 370.024 171.78C370.417 172.4 370.614 173.101 370.614 173.882C370.614 174.422 370.512 174.95 370.308 175.466C370.109 175.982 369.761 176.557 369.264 177.192C368.767 177.821 368.076 178.586 367.19 179.486L364.3 182.511V182.618H370.848V184.5H361.274ZM378.604 184.741C377.482 184.737 376.523 184.441 375.727 183.854C374.932 183.267 374.323 182.412 373.902 181.29C373.481 180.168 373.27 178.816 373.27 177.234C373.27 175.658 373.481 174.311 373.902 173.193C374.328 172.076 374.939 171.223 375.734 170.636C376.535 170.049 377.491 169.756 378.604 169.756C379.716 169.756 380.67 170.052 381.466 170.643C382.261 171.231 382.87 172.083 383.291 173.2C383.717 174.313 383.93 175.658 383.93 177.234C383.93 178.821 383.72 180.175 383.298 181.297C382.877 182.414 382.268 183.269 381.473 183.861C380.678 184.448 379.721 184.741 378.604 184.741ZM378.604 182.845C379.589 182.845 380.358 182.365 380.912 181.403C381.471 180.442 381.75 179.053 381.75 177.234C381.75 176.027 381.622 175.007 381.366 174.173C381.116 173.335 380.753 172.701 380.28 172.27C379.811 171.834 379.252 171.616 378.604 171.616C377.624 171.616 376.854 172.099 376.295 173.065C375.737 174.031 375.455 175.421 375.45 177.234C375.45 178.446 375.576 179.472 375.827 180.31C376.082 181.143 376.445 181.775 376.913 182.206C377.382 182.632 377.946 182.845 378.604 182.845ZM391.514 184.741C390.392 184.737 389.433 184.441 388.637 183.854C387.842 183.267 387.234 182.412 386.812 181.29C386.391 180.168 386.18 178.816 386.18 177.234C386.18 175.658 386.391 174.311 386.812 173.193C387.238 172.076 387.849 171.223 388.645 170.636C389.445 170.049 390.401 169.756 391.514 169.756C392.627 169.756 393.581 170.052 394.376 170.643C395.172 171.231 395.78 172.083 396.201 173.2C396.627 174.313 396.841 175.658 396.841 177.234C396.841 178.821 396.63 180.175 396.208 181.297C395.787 182.414 395.179 183.269 394.383 183.861C393.588 184.448 392.631 184.741 391.514 184.741ZM391.514 182.845C392.499 182.845 393.268 182.365 393.822 181.403C394.381 180.442 394.66 179.053 394.66 177.234C394.66 176.027 394.532 175.007 394.277 174.173C394.026 173.335 393.663 172.701 393.19 172.27C392.721 171.834 392.163 171.616 391.514 171.616C390.534 171.616 389.764 172.099 389.206 173.065C388.647 174.031 388.365 175.421 388.36 177.234C388.36 178.446 388.486 179.472 388.737 180.31C388.993 181.143 389.355 181.775 389.824 182.206C390.292 182.632 390.856 182.845 391.514 182.845Z" fill="black"/>
<rect x="410" y="165" width="58" height="25" rx="12.5" fill="#A8F9AB"/>
<path d="M428.295 172.679C428.713 172.682 429.131 172.762 429.548 172.918C429.966 173.073 430.347 173.332 430.692 173.693C431.036 174.051 431.313 174.54 431.522 175.16C431.731 175.78 431.835 176.557 431.835 177.491C431.835 178.396 431.749 179.2 431.577 179.903C431.408 180.602 431.162 181.192 430.841 181.673C430.523 182.153 430.135 182.518 429.678 182.766C429.223 183.015 428.71 183.139 428.136 183.139C427.566 183.139 427.058 183.027 426.61 182.801C426.166 182.572 425.801 182.256 425.516 181.852C425.235 181.444 425.054 180.972 424.974 180.435H426.188C426.297 180.902 426.514 181.288 426.839 181.593C427.167 181.895 427.599 182.045 428.136 182.045C428.922 182.045 429.542 181.702 429.996 181.016C430.453 180.33 430.682 179.361 430.682 178.108H430.602C430.417 178.386 430.196 178.627 429.941 178.829C429.686 179.031 429.402 179.187 429.091 179.296C428.779 179.406 428.448 179.46 428.097 179.46C427.513 179.46 426.978 179.316 426.491 179.028C426.007 178.736 425.619 178.337 425.327 177.83C425.039 177.319 424.895 176.736 424.895 176.08C424.895 175.456 425.034 174.886 425.312 174.369C425.594 173.849 425.989 173.435 426.496 173.126C427.006 172.818 427.606 172.669 428.295 172.679ZM428.295 173.773C427.878 173.773 427.502 173.877 427.167 174.086C426.835 174.291 426.572 174.57 426.376 174.921C426.184 175.269 426.088 175.655 426.088 176.08C426.088 176.504 426.181 176.89 426.366 177.238C426.555 177.583 426.812 177.858 427.137 178.063C427.465 178.265 427.838 178.366 428.256 178.366C428.571 178.366 428.864 178.305 429.136 178.183C429.407 178.057 429.644 177.886 429.847 177.67C430.052 177.452 430.213 177.205 430.329 176.93C430.445 176.651 430.503 176.361 430.503 176.06C430.503 175.662 430.407 175.289 430.214 174.941C430.026 174.593 429.764 174.311 429.429 174.096C429.098 173.88 428.72 173.773 428.295 173.773ZM433.552 180.912V179.898L438.026 172.818H438.762V174.389H438.265L434.884 179.739V179.818H440.91V180.912H433.552ZM438.344 183V180.604V180.131V172.818H439.518V183H438.344ZM447.963 181.091V180.554C447.963 180.183 448.039 179.843 448.192 179.535C448.348 179.223 448.573 178.975 448.868 178.789C449.166 178.6 449.527 178.506 449.952 178.506C450.383 178.506 450.744 178.6 451.036 178.789C451.327 178.975 451.548 179.223 451.697 179.535C451.846 179.843 451.92 180.183 451.92 180.554V181.091C451.92 181.462 451.844 181.804 451.692 182.115C451.543 182.423 451.321 182.672 451.026 182.861C450.734 183.046 450.376 183.139 449.952 183.139C449.521 183.139 449.158 183.046 448.863 182.861C448.568 182.672 448.344 182.423 448.192 182.115C448.039 181.804 447.963 181.462 447.963 181.091ZM448.977 180.554V181.091C448.977 181.399 449.05 181.676 449.196 181.921C449.342 182.163 449.594 182.284 449.952 182.284C450.3 182.284 450.545 182.163 450.688 181.921C450.833 181.676 450.906 181.399 450.906 181.091V180.554C450.906 180.246 450.837 179.971 450.697 179.729C450.558 179.483 450.31 179.361 449.952 179.361C449.604 179.361 449.353 179.483 449.201 179.729C449.052 179.971 448.977 180.246 448.977 180.554ZM442.892 175.264V174.727C442.892 174.356 442.968 174.016 443.121 173.708C443.277 173.397 443.502 173.148 443.797 172.962C444.095 172.773 444.456 172.679 444.881 172.679C445.312 172.679 445.673 172.773 445.964 172.962C446.256 173.148 446.477 173.397 446.626 173.708C446.775 174.016 446.849 174.356 446.849 174.727V175.264C446.849 175.635 446.773 175.977 446.621 176.288C446.472 176.597 446.25 176.845 445.955 177.034C445.663 177.22 445.305 177.312 444.881 177.312C444.45 177.312 444.087 177.22 443.792 177.034C443.497 176.845 443.273 176.597 443.121 176.288C442.968 175.977 442.892 175.635 442.892 175.264ZM443.906 174.727V175.264C443.906 175.572 443.979 175.849 444.125 176.094C444.271 176.336 444.523 176.457 444.881 176.457C445.229 176.457 445.474 176.336 445.616 176.094C445.762 175.849 445.835 175.572 445.835 175.264V174.727C445.835 174.419 445.766 174.144 445.626 173.902C445.487 173.657 445.239 173.534 444.881 173.534C444.533 173.534 444.282 173.657 444.13 173.902C443.981 174.144 443.906 174.419 443.906 174.727ZM443.27 183L450.27 172.818H451.403L444.403 183H443.27Z" fill="#039708"/>
<circle cx="78" cy="222.5" r="7" fill="#FFE100"/>
<path d="M109.716 218.591C109.631 217.871 109.285 217.312 108.679 216.915C108.073 216.517 107.33 216.318 106.449 216.318C105.805 216.318 105.241 216.422 104.759 216.631C104.28 216.839 103.906 217.125 103.636 217.49C103.371 217.855 103.239 218.269 103.239 218.733C103.239 219.121 103.331 219.455 103.516 219.734C103.705 220.009 103.946 220.239 104.24 220.423C104.534 220.603 104.841 220.752 105.163 220.871C105.485 220.984 105.781 221.077 106.051 221.148L107.528 221.545C107.907 221.645 108.329 221.782 108.793 221.957C109.261 222.133 109.709 222.372 110.135 222.675C110.566 222.973 110.921 223.357 111.2 223.825C111.48 224.294 111.619 224.869 111.619 225.551C111.619 226.337 111.413 227.047 111.001 227.682C110.594 228.316 109.998 228.821 109.212 229.195C108.43 229.569 107.481 229.756 106.364 229.756C105.322 229.756 104.42 229.588 103.658 229.251C102.9 228.915 102.304 228.446 101.868 227.845C101.437 227.244 101.193 226.545 101.136 225.75H102.955C103.002 226.299 103.187 226.754 103.509 227.114C103.835 227.469 104.247 227.734 104.744 227.909C105.246 228.08 105.786 228.165 106.364 228.165C107.036 228.165 107.64 228.056 108.175 227.838C108.71 227.616 109.134 227.308 109.446 226.915C109.759 226.517 109.915 226.053 109.915 225.523C109.915 225.04 109.78 224.647 109.51 224.344C109.24 224.041 108.885 223.795 108.445 223.605C108.004 223.416 107.528 223.25 107.017 223.108L105.227 222.597C104.091 222.27 103.191 221.804 102.528 221.197C101.866 220.591 101.534 219.798 101.534 218.818C101.534 218.004 101.754 217.294 102.195 216.688C102.64 216.077 103.236 215.603 103.984 215.267C104.737 214.926 105.578 214.756 106.506 214.756C107.443 214.756 108.277 214.924 109.006 215.26C109.735 215.591 110.313 216.046 110.739 216.624C111.17 217.201 111.397 217.857 111.42 218.591H109.716ZM121.163 225.04V218.591H122.839V229.5H121.163V227.653H121.049C120.794 228.207 120.396 228.679 119.856 229.067C119.316 229.45 118.635 229.642 117.811 229.642C117.129 229.642 116.523 229.493 115.993 229.195C115.462 228.892 115.046 228.437 114.743 227.831C114.44 227.22 114.288 226.451 114.288 225.523V218.591H115.964V225.409C115.964 226.205 116.187 226.839 116.632 227.312C117.082 227.786 117.654 228.023 118.35 228.023C118.767 228.023 119.191 227.916 119.622 227.703C120.057 227.49 120.422 227.163 120.716 226.723C121.014 226.283 121.163 225.722 121.163 225.04ZM133.636 221.034L132.131 221.46C132.036 221.209 131.896 220.965 131.712 220.729C131.532 220.487 131.286 220.288 130.973 220.132C130.661 219.976 130.26 219.898 129.773 219.898C129.105 219.898 128.549 220.052 128.104 220.359C127.663 220.662 127.443 221.048 127.443 221.517C127.443 221.934 127.595 222.263 127.898 222.504C128.201 222.746 128.674 222.947 129.318 223.108L130.938 223.506C131.913 223.742 132.64 224.105 133.118 224.592C133.596 225.075 133.835 225.698 133.835 226.46C133.835 227.085 133.655 227.644 133.295 228.136C132.94 228.629 132.443 229.017 131.804 229.301C131.165 229.585 130.421 229.727 129.574 229.727C128.461 229.727 127.54 229.486 126.811 229.003C126.082 228.52 125.62 227.814 125.426 226.886L127.017 226.489C127.169 227.076 127.455 227.516 127.876 227.81C128.303 228.103 128.859 228.25 129.545 228.25C130.327 228.25 130.947 228.084 131.406 227.753C131.87 227.417 132.102 227.014 132.102 226.545C132.102 226.167 131.97 225.849 131.705 225.594C131.439 225.333 131.032 225.139 130.483 225.011L128.665 224.585C127.666 224.348 126.932 223.982 126.463 223.484C125.999 222.982 125.767 222.355 125.767 221.602C125.767 220.987 125.94 220.442 126.286 219.969C126.636 219.495 127.112 219.124 127.713 218.854C128.319 218.584 129.006 218.449 129.773 218.449C130.852 218.449 131.7 218.686 132.315 219.159C132.936 219.633 133.376 220.258 133.636 221.034ZM136.358 233.591V218.591H137.978V220.324H138.176C138.3 220.134 138.47 219.893 138.688 219.599C138.91 219.301 139.228 219.036 139.64 218.804C140.056 218.567 140.62 218.449 141.33 218.449C142.248 218.449 143.058 218.679 143.759 219.138C144.46 219.597 145.007 220.248 145.4 221.091C145.792 221.934 145.989 222.928 145.989 224.074C145.989 225.229 145.792 226.231 145.4 227.078C145.007 227.921 144.462 228.574 143.766 229.038C143.07 229.498 142.267 229.727 141.358 229.727C140.658 229.727 140.096 229.611 139.675 229.379C139.254 229.143 138.929 228.875 138.702 228.577C138.475 228.274 138.3 228.023 138.176 227.824H138.034V233.591H136.358ZM138.006 224.045C138.006 224.869 138.127 225.596 138.368 226.226C138.61 226.851 138.962 227.341 139.426 227.696C139.891 228.046 140.459 228.222 141.131 228.222C141.832 228.222 142.417 228.037 142.885 227.668C143.359 227.294 143.714 226.792 143.951 226.162C144.192 225.527 144.313 224.822 144.313 224.045C144.313 223.278 144.194 222.587 143.958 221.972C143.726 221.351 143.373 220.861 142.9 220.501C142.431 220.137 141.841 219.955 141.131 219.955C140.449 219.955 139.876 220.127 139.412 220.473C138.948 220.814 138.598 221.292 138.361 221.908C138.124 222.518 138.006 223.231 138.006 224.045ZM148.546 229.5V218.591H150.222V229.5H148.546ZM149.398 216.773C149.071 216.773 148.79 216.661 148.553 216.439C148.321 216.216 148.205 215.949 148.205 215.636C148.205 215.324 148.321 215.056 148.553 214.834C148.79 214.611 149.071 214.5 149.398 214.5C149.725 214.5 150.004 214.611 150.236 214.834C150.473 215.056 150.591 215.324 150.591 215.636C150.591 215.949 150.473 216.216 150.236 216.439C150.004 216.661 149.725 216.773 149.398 216.773ZM157.724 229.727C156.701 229.727 155.82 229.486 155.082 229.003C154.343 228.52 153.775 227.855 153.377 227.007C152.979 226.16 152.781 225.191 152.781 224.102C152.781 222.994 152.984 222.017 153.391 221.169C153.803 220.317 154.376 219.652 155.11 219.173C155.849 218.69 156.71 218.449 157.695 218.449C158.462 218.449 159.154 218.591 159.769 218.875C160.385 219.159 160.889 219.557 161.282 220.068C161.675 220.58 161.919 221.176 162.013 221.858H160.337C160.21 221.361 159.925 220.92 159.485 220.537C159.049 220.149 158.462 219.955 157.724 219.955C157.07 219.955 156.497 220.125 156.005 220.466C155.517 220.802 155.136 221.278 154.862 221.893C154.592 222.504 154.457 223.222 154.457 224.045C154.457 224.888 154.589 225.622 154.854 226.247C155.124 226.872 155.503 227.357 155.991 227.703C156.483 228.049 157.061 228.222 157.724 228.222C158.159 228.222 158.555 228.146 158.91 227.994C159.265 227.843 159.566 227.625 159.812 227.341C160.058 227.057 160.233 226.716 160.337 226.318H162.013C161.919 226.962 161.684 227.542 161.31 228.058C160.941 228.57 160.451 228.977 159.84 229.28C159.234 229.578 158.529 229.727 157.724 229.727ZM164.464 229.5V218.591H166.14V229.5H164.464ZM165.316 216.773C164.989 216.773 164.708 216.661 164.471 216.439C164.239 216.216 164.123 215.949 164.123 215.636C164.123 215.324 164.239 215.056 164.471 214.834C164.708 214.611 164.989 214.5 165.316 214.5C165.643 214.5 165.922 214.611 166.154 214.834C166.391 215.056 166.509 215.324 166.509 215.636C166.509 215.949 166.391 216.216 166.154 216.439C165.922 216.661 165.643 216.773 165.316 216.773ZM173.642 229.727C172.657 229.727 171.793 229.493 171.049 229.024C170.311 228.555 169.733 227.9 169.316 227.057C168.904 226.214 168.699 225.229 168.699 224.102C168.699 222.966 168.904 221.974 169.316 221.126C169.733 220.279 170.311 219.621 171.049 219.152C171.793 218.683 172.657 218.449 173.642 218.449C174.627 218.449 175.488 218.683 176.227 219.152C176.97 219.621 177.548 220.279 177.96 221.126C178.377 221.974 178.585 222.966 178.585 224.102C178.585 225.229 178.377 226.214 177.96 227.057C177.548 227.9 176.97 228.555 176.227 229.024C175.488 229.493 174.627 229.727 173.642 229.727ZM173.642 228.222C174.39 228.222 175.005 228.03 175.488 227.646C175.971 227.263 176.329 226.759 176.561 226.134C176.793 225.509 176.909 224.831 176.909 224.102C176.909 223.373 176.793 222.694 176.561 222.064C176.329 221.434 175.971 220.925 175.488 220.537C175.005 220.149 174.39 219.955 173.642 219.955C172.894 219.955 172.278 220.149 171.795 220.537C171.312 220.925 170.955 221.434 170.723 222.064C170.491 222.694 170.375 223.373 170.375 224.102C170.375 224.831 170.491 225.509 170.723 226.134C170.955 226.759 171.312 227.263 171.795 227.646C172.278 228.03 172.894 228.222 173.642 228.222ZM188.018 225.04V218.591H189.695V229.5H188.018V227.653H187.905C187.649 228.207 187.251 228.679 186.712 229.067C186.172 229.45 185.49 229.642 184.666 229.642C183.984 229.642 183.378 229.493 182.848 229.195C182.318 228.892 181.901 228.437 181.598 227.831C181.295 227.22 181.143 226.451 181.143 225.523V218.591H182.82V225.409C182.82 226.205 183.042 226.839 183.487 227.312C183.937 227.786 184.51 228.023 185.206 228.023C185.623 228.023 186.046 227.916 186.477 227.703C186.913 227.49 187.277 227.163 187.571 226.723C187.869 226.283 188.018 225.722 188.018 225.04ZM200.492 221.034L198.986 221.46C198.891 221.209 198.752 220.965 198.567 220.729C198.387 220.487 198.141 220.288 197.828 220.132C197.516 219.976 197.116 219.898 196.628 219.898C195.961 219.898 195.404 220.052 194.959 220.359C194.519 220.662 194.299 221.048 194.299 221.517C194.299 221.934 194.45 222.263 194.753 222.504C195.056 222.746 195.53 222.947 196.174 223.108L197.793 223.506C198.768 223.742 199.495 224.105 199.973 224.592C200.452 225.075 200.691 225.698 200.691 226.46C200.691 227.085 200.511 227.644 200.151 228.136C199.796 228.629 199.299 229.017 198.659 229.301C198.02 229.585 197.277 229.727 196.429 229.727C195.317 229.727 194.396 229.486 193.667 229.003C192.937 228.52 192.476 227.814 192.282 226.886L193.873 226.489C194.024 227.076 194.31 227.516 194.732 227.81C195.158 228.103 195.714 228.25 196.401 228.25C197.182 228.25 197.802 228.084 198.262 227.753C198.726 227.417 198.958 227.014 198.958 226.545C198.958 226.167 198.825 225.849 198.56 225.594C198.295 225.333 197.888 225.139 197.338 225.011L195.52 224.585C194.521 224.348 193.787 223.982 193.319 223.484C192.855 222.982 192.623 222.355 192.623 221.602C192.623 220.987 192.795 220.442 193.141 219.969C193.491 219.495 193.967 219.124 194.569 218.854C195.175 218.584 195.861 218.449 196.628 218.449C197.708 218.449 198.555 218.686 199.171 219.159C199.791 219.633 200.231 220.258 200.492 221.034ZM204.435 229.614C204.085 229.614 203.784 229.488 203.533 229.237C203.282 228.986 203.157 228.686 203.157 228.335C203.157 227.985 203.282 227.684 203.533 227.433C203.784 227.182 204.085 227.057 204.435 227.057C204.786 227.057 205.086 227.182 205.337 227.433C205.588 227.684 205.714 227.985 205.714 228.335C205.714 228.567 205.655 228.78 205.536 228.974C205.423 229.169 205.269 229.325 205.075 229.443C204.885 229.557 204.672 229.614 204.435 229.614ZM204.435 221.517C204.085 221.517 203.784 221.392 203.533 221.141C203.282 220.89 203.157 220.589 203.157 220.239C203.157 219.888 203.282 219.588 203.533 219.337C203.784 219.086 204.085 218.96 204.435 218.96C204.786 218.96 205.086 219.086 205.337 219.337C205.588 219.588 205.714 219.888 205.714 220.239C205.714 220.471 205.655 220.684 205.536 220.878C205.423 221.072 205.269 221.228 205.075 221.347C204.885 221.46 204.672 221.517 204.435 221.517Z" fill="black"/>
<path d="M365.2 229.699C364.31 229.699 363.51 229.528 362.8 229.188C362.094 228.842 361.531 228.368 361.109 227.767C360.688 227.166 360.463 226.479 360.435 225.707H362.565C362.617 226.332 362.894 226.846 363.396 227.249C363.898 227.651 364.5 227.852 365.2 227.852C365.759 227.852 366.254 227.724 366.685 227.469C367.12 227.208 367.461 226.851 367.707 226.396C367.958 225.942 368.084 225.423 368.084 224.841C368.084 224.249 367.956 223.721 367.7 223.257C367.445 222.793 367.092 222.429 366.642 222.163C366.197 221.898 365.686 221.763 365.108 221.759C364.668 221.759 364.225 221.834 363.78 221.986C363.335 222.137 362.975 222.336 362.7 222.582L360.69 222.284L361.507 214.955H369.504V216.837H363.332L362.871 220.906H362.956C363.24 220.632 363.616 220.402 364.085 220.217C364.559 220.033 365.065 219.94 365.605 219.94C366.491 219.94 367.279 220.151 367.97 220.572C368.666 220.994 369.213 221.569 369.611 222.298C370.013 223.023 370.212 223.856 370.207 224.798C370.212 225.741 369.999 226.581 369.568 227.32C369.142 228.058 368.55 228.641 367.793 229.067C367.04 229.488 366.176 229.699 365.2 229.699ZM377.865 229.741C376.743 229.737 375.784 229.441 374.989 228.854C374.194 228.267 373.585 227.412 373.164 226.29C372.742 225.168 372.532 223.816 372.532 222.234C372.532 220.658 372.742 219.311 373.164 218.193C373.59 217.076 374.201 216.223 374.996 215.636C375.796 215.049 376.753 214.756 377.865 214.756C378.978 214.756 379.932 215.052 380.728 215.643C381.523 216.231 382.132 217.083 382.553 218.2C382.979 219.313 383.192 220.658 383.192 222.234C383.192 223.821 382.981 225.175 382.56 226.297C382.139 227.414 381.53 228.269 380.735 228.861C379.939 229.448 378.983 229.741 377.865 229.741ZM377.865 227.845C378.85 227.845 379.62 227.365 380.174 226.403C380.732 225.442 381.012 224.053 381.012 222.234C381.012 221.027 380.884 220.007 380.628 219.173C380.377 218.335 380.015 217.701 379.542 217.27C379.073 216.834 378.514 216.616 377.865 216.616C376.885 216.616 376.116 217.099 375.557 218.065C374.998 219.031 374.717 220.421 374.712 222.234C374.712 223.446 374.837 224.472 375.088 225.31C375.344 226.143 375.706 226.775 376.175 227.206C376.644 227.632 377.207 227.845 377.865 227.845ZM390.776 229.741C389.653 229.737 388.695 229.441 387.899 228.854C387.104 228.267 386.495 227.412 386.074 226.29C385.652 225.168 385.442 223.816 385.442 222.234C385.442 220.658 385.652 219.311 386.074 218.193C386.5 217.076 387.111 216.223 387.906 215.636C388.706 215.049 389.663 214.756 390.776 214.756C391.888 214.756 392.842 215.052 393.638 215.643C394.433 216.231 395.042 217.083 395.463 218.2C395.889 219.313 396.102 220.658 396.102 222.234C396.102 223.821 395.892 225.175 395.47 226.297C395.049 227.414 394.44 228.269 393.645 228.861C392.849 229.448 391.893 229.741 390.776 229.741ZM390.776 227.845C391.76 227.845 392.53 227.365 393.084 226.403C393.643 225.442 393.922 224.053 393.922 222.234C393.922 221.027 393.794 220.007 393.538 219.173C393.287 218.335 392.925 217.701 392.452 217.27C391.983 216.834 391.424 216.616 390.776 216.616C389.795 216.616 389.026 217.099 388.467 218.065C387.909 219.031 387.627 220.421 387.622 222.234C387.622 223.446 387.748 224.472 387.999 225.31C388.254 226.143 388.616 226.775 389.085 227.206C389.554 227.632 390.117 227.845 390.776 227.845Z" fill="black"/>
<rect x="410" y="210" width="58" height="25" rx="12.5" fill="#FFFAD1"/>
<path d="M429.315 225.912V224.898L433.79 217.818H434.526V219.389H434.028L430.648 224.739V224.818H436.673V225.912H429.315ZM434.108 228V225.604V225.131V217.818H435.281V228H434.108ZM443.727 226.091V225.554C443.727 225.183 443.803 224.843 443.955 224.535C444.111 224.223 444.337 223.975 444.632 223.789C444.93 223.6 445.291 223.506 445.715 223.506C446.146 223.506 446.508 223.6 446.799 223.789C447.091 223.975 447.311 224.223 447.46 224.535C447.61 224.843 447.684 225.183 447.684 225.554V226.091C447.684 226.462 447.608 226.804 447.455 227.115C447.306 227.423 447.084 227.672 446.789 227.861C446.498 228.046 446.14 228.139 445.715 228.139C445.285 228.139 444.922 228.046 444.627 227.861C444.332 227.672 444.108 227.423 443.955 227.115C443.803 226.804 443.727 226.462 443.727 226.091ZM444.741 225.554V226.091C444.741 226.399 444.814 226.676 444.96 226.921C445.106 227.163 445.357 227.284 445.715 227.284C446.063 227.284 446.309 227.163 446.451 226.921C446.597 226.676 446.67 226.399 446.67 226.091V225.554C446.67 225.246 446.6 224.971 446.461 224.729C446.322 224.483 446.073 224.361 445.715 224.361C445.367 224.361 445.117 224.483 444.965 224.729C444.816 224.971 444.741 225.246 444.741 225.554ZM438.656 220.264V219.727C438.656 219.356 438.732 219.016 438.884 218.708C439.04 218.397 439.266 218.148 439.561 217.962C439.859 217.773 440.22 217.679 440.644 217.679C441.075 217.679 441.436 217.773 441.728 217.962C442.02 218.148 442.24 218.397 442.389 218.708C442.539 219.016 442.613 219.356 442.613 219.727V220.264C442.613 220.635 442.537 220.977 442.384 221.288C442.235 221.597 442.013 221.845 441.718 222.034C441.427 222.22 441.069 222.312 440.644 222.312C440.213 222.312 439.851 222.22 439.556 222.034C439.261 221.845 439.037 221.597 438.884 221.288C438.732 220.977 438.656 220.635 438.656 220.264ZM439.67 219.727V220.264C439.67 220.572 439.743 220.849 439.889 221.094C440.035 221.336 440.286 221.457 440.644 221.457C440.992 221.457 441.238 221.336 441.38 221.094C441.526 220.849 441.599 220.572 441.599 220.264V219.727C441.599 219.419 441.529 219.144 441.39 218.902C441.251 218.657 441.002 218.534 440.644 218.534C440.296 218.534 440.046 218.657 439.894 218.902C439.744 219.144 439.67 219.419 439.67 219.727ZM439.034 228L446.034 217.818H447.167L440.167 228H439.034Z" fill="#FFE100"/>
<circle cx="78" cy="267.5" r="7" fill="#DD0B0B"/>
<path d="M109.716 263.591C109.631 262.871 109.285 262.312 108.679 261.915C108.073 261.517 107.33 261.318 106.449 261.318C105.805 261.318 105.241 261.422 104.759 261.631C104.28 261.839 103.906 262.125 103.636 262.49C103.371 262.855 103.239 263.269 103.239 263.733C103.239 264.121 103.331 264.455 103.516 264.734C103.705 265.009 103.946 265.239 104.24 265.423C104.534 265.603 104.841 265.752 105.163 265.871C105.485 265.984 105.781 266.077 106.051 266.148L107.528 266.545C107.907 266.645 108.329 266.782 108.793 266.957C109.261 267.133 109.709 267.372 110.135 267.675C110.566 267.973 110.921 268.357 111.2 268.825C111.48 269.294 111.619 269.869 111.619 270.551C111.619 271.337 111.413 272.047 111.001 272.682C110.594 273.316 109.998 273.821 109.212 274.195C108.43 274.569 107.481 274.756 106.364 274.756C105.322 274.756 104.42 274.588 103.658 274.251C102.9 273.915 102.304 273.446 101.868 272.845C101.437 272.244 101.193 271.545 101.136 270.75H102.955C103.002 271.299 103.187 271.754 103.509 272.114C103.835 272.469 104.247 272.734 104.744 272.909C105.246 273.08 105.786 273.165 106.364 273.165C107.036 273.165 107.64 273.056 108.175 272.838C108.71 272.616 109.134 272.308 109.446 271.915C109.759 271.517 109.915 271.053 109.915 270.523C109.915 270.04 109.78 269.647 109.51 269.344C109.24 269.041 108.885 268.795 108.445 268.605C108.004 268.416 107.528 268.25 107.017 268.108L105.227 267.597C104.091 267.27 103.191 266.804 102.528 266.197C101.866 265.591 101.534 264.798 101.534 263.818C101.534 263.004 101.754 262.294 102.195 261.688C102.64 261.077 103.236 260.603 103.984 260.267C104.737 259.926 105.578 259.756 106.506 259.756C107.443 259.756 108.277 259.924 109.006 260.26C109.735 260.591 110.313 261.046 110.739 261.624C111.17 262.201 111.397 262.857 111.42 263.591H109.716ZM114.288 278.591V263.591H115.907V265.324H116.106C116.229 265.134 116.4 264.893 116.618 264.599C116.84 264.301 117.157 264.036 117.569 263.804C117.986 263.567 118.549 263.449 119.26 263.449C120.178 263.449 120.988 263.679 121.689 264.138C122.389 264.597 122.936 265.248 123.329 266.091C123.722 266.934 123.919 267.928 123.919 269.074C123.919 270.229 123.722 271.231 123.329 272.078C122.936 272.921 122.392 273.574 121.696 274.038C121 274.498 120.197 274.727 119.288 274.727C118.587 274.727 118.026 274.611 117.605 274.379C117.183 274.143 116.859 273.875 116.632 273.577C116.404 273.274 116.229 273.023 116.106 272.824H115.964V278.591H114.288ZM115.936 269.045C115.936 269.869 116.056 270.596 116.298 271.226C116.539 271.851 116.892 272.341 117.356 272.696C117.82 273.046 118.388 273.222 119.061 273.222C119.761 273.222 120.346 273.037 120.815 272.668C121.288 272.294 121.644 271.792 121.88 271.162C122.122 270.527 122.243 269.822 122.243 269.045C122.243 268.278 122.124 267.587 121.887 266.972C121.655 266.351 121.303 265.861 120.829 265.501C120.36 265.137 119.771 264.955 119.061 264.955C118.379 264.955 117.806 265.127 117.342 265.473C116.878 265.814 116.528 266.292 116.291 266.908C116.054 267.518 115.936 268.231 115.936 269.045ZM129.686 274.756C128.994 274.756 128.367 274.625 127.804 274.365C127.24 274.1 126.793 273.719 126.461 273.222C126.13 272.72 125.964 272.114 125.964 271.403C125.964 270.778 126.087 270.272 126.333 269.884C126.58 269.491 126.909 269.183 127.321 268.96C127.733 268.738 128.187 268.572 128.684 268.463C129.186 268.349 129.69 268.259 130.197 268.193C130.86 268.108 131.397 268.044 131.809 268.001C132.226 267.954 132.529 267.876 132.718 267.767C132.913 267.658 133.01 267.469 133.01 267.199V267.142C133.01 266.441 132.818 265.897 132.434 265.509C132.056 265.12 131.48 264.926 130.708 264.926C129.908 264.926 129.281 265.101 128.826 265.452C128.372 265.802 128.052 266.176 127.868 266.574L126.277 266.006C126.561 265.343 126.94 264.827 127.413 264.457C127.891 264.083 128.412 263.823 128.975 263.676C129.544 263.525 130.102 263.449 130.652 263.449C131.002 263.449 131.404 263.491 131.859 263.577C132.318 263.657 132.761 263.825 133.187 264.081C133.618 264.337 133.975 264.723 134.26 265.239C134.544 265.755 134.686 266.446 134.686 267.312V274.5H133.01V273.023H132.924C132.811 273.259 132.621 273.513 132.356 273.783C132.091 274.053 131.738 274.282 131.298 274.472C130.858 274.661 130.32 274.756 129.686 274.756ZM129.941 273.25C130.604 273.25 131.163 273.12 131.618 272.859C132.077 272.599 132.422 272.263 132.654 271.851C132.891 271.439 133.01 271.006 133.01 270.551V269.017C132.939 269.102 132.782 269.18 132.541 269.251C132.304 269.318 132.029 269.377 131.717 269.429C131.409 269.476 131.109 269.519 130.815 269.557C130.526 269.59 130.292 269.618 130.112 269.642C129.676 269.699 129.269 269.791 128.89 269.919C128.516 270.042 128.213 270.229 127.981 270.48C127.754 270.726 127.64 271.062 127.64 271.489C127.64 272.071 127.856 272.511 128.287 272.81C128.722 273.103 129.274 273.25 129.941 273.25ZM137.745 274.5V263.591H139.364V265.295H139.506C139.734 264.713 140.101 264.261 140.607 263.939C141.114 263.612 141.722 263.449 142.433 263.449C143.152 263.449 143.751 263.612 144.229 263.939C144.712 264.261 145.089 264.713 145.359 265.295H145.472C145.752 264.732 146.171 264.285 146.729 263.953C147.288 263.617 147.958 263.449 148.739 263.449C149.715 263.449 150.513 263.754 151.133 264.365C151.753 264.971 152.063 265.916 152.063 267.199V274.5H150.387V267.199C150.387 266.394 150.167 265.819 149.727 265.473C149.286 265.127 148.768 264.955 148.171 264.955C147.404 264.955 146.81 265.187 146.388 265.651C145.967 266.11 145.756 266.692 145.756 267.398V274.5H144.052V267.028C144.052 266.408 143.851 265.909 143.448 265.53C143.046 265.146 142.527 264.955 141.893 264.955C141.457 264.955 141.05 265.071 140.671 265.303C140.297 265.535 139.994 265.857 139.762 266.268C139.535 266.676 139.421 267.147 139.421 267.682V274.5H137.745ZM160.185 261.517V259.955H171.094V261.517H166.52V274.5H164.759V261.517H160.185ZM172.452 274.5V263.591H174.071V265.239H174.185C174.384 264.699 174.744 264.261 175.265 263.925C175.785 263.589 176.373 263.42 177.026 263.42C177.149 263.42 177.303 263.423 177.488 263.428C177.672 263.432 177.812 263.439 177.907 263.449V265.153C177.85 265.139 177.72 265.118 177.516 265.089C177.317 265.056 177.106 265.04 176.884 265.04C176.354 265.04 175.88 265.151 175.463 265.374C175.051 265.591 174.725 265.894 174.483 266.283C174.247 266.666 174.128 267.104 174.128 267.597V274.5H172.452ZM183.104 274.756C182.412 274.756 181.785 274.625 181.222 274.365C180.658 274.1 180.211 273.719 179.879 273.222C179.548 272.72 179.382 272.114 179.382 271.403C179.382 270.778 179.505 270.272 179.751 269.884C179.998 269.491 180.327 269.183 180.739 268.96C181.151 268.738 181.605 268.572 182.102 268.463C182.604 268.349 183.108 268.259 183.615 268.193C184.278 268.108 184.815 268.044 185.227 268.001C185.644 267.954 185.947 267.876 186.136 267.767C186.33 267.658 186.428 267.469 186.428 267.199V267.142C186.428 266.441 186.236 265.897 185.852 265.509C185.473 265.12 184.898 264.926 184.126 264.926C183.326 264.926 182.699 265.101 182.244 265.452C181.79 265.802 181.47 266.176 181.286 266.574L179.695 266.006C179.979 265.343 180.357 264.827 180.831 264.457C181.309 264.083 181.83 263.823 182.393 263.676C182.962 263.525 183.52 263.449 184.07 263.449C184.42 263.449 184.822 263.491 185.277 263.577C185.736 263.657 186.179 263.825 186.605 264.081C187.036 264.337 187.393 264.723 187.678 265.239C187.962 265.755 188.104 266.446 188.104 267.312V274.5H186.428V273.023H186.342C186.229 273.259 186.039 273.513 185.774 273.783C185.509 274.053 185.156 274.282 184.716 274.472C184.276 274.661 183.738 274.756 183.104 274.756ZM183.359 273.25C184.022 273.25 184.581 273.12 185.036 272.859C185.495 272.599 185.84 272.263 186.072 271.851C186.309 271.439 186.428 271.006 186.428 270.551V269.017C186.357 269.102 186.2 269.18 185.959 269.251C185.722 269.318 185.447 269.377 185.135 269.429C184.827 269.476 184.527 269.519 184.233 269.557C183.944 269.59 183.71 269.618 183.53 269.642C183.094 269.699 182.687 269.791 182.308 269.919C181.934 270.042 181.631 270.229 181.399 270.48C181.172 270.726 181.058 271.062 181.058 271.489C181.058 272.071 181.274 272.511 181.705 272.81C182.14 273.103 182.692 273.25 183.359 273.25ZM191.163 278.591V263.591H192.782V265.324H192.981C193.104 265.134 193.275 264.893 193.493 264.599C193.715 264.301 194.032 264.036 194.444 263.804C194.861 263.567 195.424 263.449 196.135 263.449C197.053 263.449 197.863 263.679 198.564 264.138C199.264 264.597 199.811 265.248 200.204 266.091C200.597 266.934 200.794 267.928 200.794 269.074C200.794 270.229 200.597 271.231 200.204 272.078C199.811 272.921 199.267 273.574 198.571 274.038C197.875 274.498 197.072 274.727 196.163 274.727C195.462 274.727 194.901 274.611 194.48 274.379C194.058 274.143 193.734 273.875 193.507 273.577C193.279 273.274 193.104 273.023 192.981 272.824H192.839V278.591H191.163ZM192.811 269.045C192.811 269.869 192.931 270.596 193.173 271.226C193.414 271.851 193.767 272.341 194.231 272.696C194.695 273.046 195.263 273.222 195.936 273.222C196.636 273.222 197.221 273.037 197.69 272.668C198.163 272.294 198.519 271.792 198.755 271.162C198.997 270.527 199.118 269.822 199.118 269.045C199.118 268.278 198.999 267.587 198.762 266.972C198.53 266.351 198.178 265.861 197.704 265.501C197.235 265.137 196.646 264.955 195.936 264.955C195.254 264.955 194.681 265.127 194.217 265.473C193.753 265.814 193.403 266.292 193.166 266.908C192.929 267.518 192.811 268.231 192.811 269.045ZM211.078 266.034L209.572 266.46C209.477 266.209 209.338 265.965 209.153 265.729C208.973 265.487 208.727 265.288 208.414 265.132C208.102 264.976 207.702 264.898 207.214 264.898C206.547 264.898 205.99 265.052 205.545 265.359C205.105 265.662 204.885 266.048 204.885 266.517C204.885 266.934 205.036 267.263 205.339 267.504C205.642 267.746 206.116 267.947 206.76 268.108L208.379 268.506C209.354 268.742 210.081 269.105 210.559 269.592C211.038 270.075 211.277 270.698 211.277 271.46C211.277 272.085 211.097 272.644 210.737 273.136C210.382 273.629 209.885 274.017 209.245 274.301C208.606 274.585 207.863 274.727 207.015 274.727C205.903 274.727 204.982 274.486 204.252 274.003C203.523 273.52 203.062 272.814 202.868 271.886L204.458 271.489C204.61 272.076 204.896 272.516 205.318 272.81C205.744 273.103 206.3 273.25 206.987 273.25C207.768 273.25 208.388 273.084 208.848 272.753C209.312 272.417 209.544 272.014 209.544 271.545C209.544 271.167 209.411 270.849 209.146 270.594C208.881 270.333 208.474 270.139 207.924 270.011L206.106 269.585C205.107 269.348 204.373 268.982 203.904 268.484C203.44 267.982 203.208 267.355 203.208 266.602C203.208 265.987 203.381 265.442 203.727 264.969C204.077 264.495 204.553 264.124 205.154 263.854C205.761 263.584 206.447 263.449 207.214 263.449C208.294 263.449 209.141 263.686 209.757 264.159C210.377 264.633 210.817 265.258 211.078 266.034ZM215.021 274.614C214.671 274.614 214.37 274.488 214.119 274.237C213.868 273.986 213.743 273.686 213.743 273.335C213.743 272.985 213.868 272.684 214.119 272.433C214.37 272.182 214.671 272.057 215.021 272.057C215.372 272.057 215.672 272.182 215.923 272.433C216.174 272.684 216.3 272.985 216.3 273.335C216.3 273.567 216.241 273.78 216.122 273.974C216.009 274.169 215.855 274.325 215.661 274.443C215.471 274.557 215.258 274.614 215.021 274.614ZM215.021 266.517C214.671 266.517 214.37 266.392 214.119 266.141C213.868 265.89 213.743 265.589 213.743 265.239C213.743 264.888 213.868 264.588 214.119 264.337C214.37 264.086 214.671 263.96 215.021 263.96C215.372 263.96 215.672 264.086 215.923 264.337C216.174 264.588 216.3 264.888 216.3 265.239C216.3 265.471 216.241 265.684 216.122 265.878C216.009 266.072 215.855 266.228 215.661 266.347C215.471 266.46 215.258 266.517 215.021 266.517Z" fill="black"/>
<path d="M343.399 274.5V272.909L348.321 267.81C348.847 267.256 349.28 266.77 349.621 266.354C349.966 265.932 350.224 265.532 350.395 265.153C350.565 264.775 350.651 264.372 350.651 263.946C350.651 263.463 350.537 263.046 350.31 262.696C350.082 262.341 349.772 262.069 349.379 261.879C348.986 261.685 348.544 261.588 348.051 261.588C347.53 261.588 347.076 261.695 346.688 261.908C346.299 262.121 346.001 262.421 345.793 262.81C345.584 263.198 345.48 263.652 345.48 264.173H343.385C343.385 263.288 343.589 262.514 343.996 261.851C344.403 261.188 344.962 260.674 345.672 260.31C346.382 259.94 347.189 259.756 348.094 259.756C349.008 259.756 349.813 259.938 350.509 260.303C351.209 260.662 351.756 261.155 352.149 261.78C352.542 262.4 352.739 263.101 352.739 263.882C352.739 264.422 352.637 264.95 352.433 265.466C352.234 265.982 351.886 266.557 351.389 267.192C350.892 267.821 350.201 268.586 349.315 269.486L346.425 272.511V272.618H352.973V274.5H343.399ZM358.456 272.511L358.349 273.286C358.278 273.854 358.158 274.446 357.987 275.061C357.821 275.681 357.649 276.257 357.469 276.787C357.294 277.317 357.149 277.739 357.036 278.051H355.53C355.591 277.758 355.677 277.36 355.786 276.858C355.894 276.361 356.001 275.804 356.105 275.189C356.209 274.573 356.287 273.946 356.339 273.307L356.411 272.511H358.456ZM361.426 274.5V272.909L366.348 267.81C366.874 267.256 367.307 266.77 367.648 266.354C367.994 265.932 368.252 265.532 368.422 265.153C368.593 264.775 368.678 264.372 368.678 263.946C368.678 263.463 368.564 263.046 368.337 262.696C368.11 262.341 367.8 262.069 367.407 261.879C367.014 261.685 366.571 261.588 366.078 261.588C365.558 261.588 365.103 261.695 364.715 261.908C364.327 262.121 364.028 262.421 363.82 262.81C363.612 263.198 363.507 263.652 363.507 264.173H361.412C361.412 263.288 361.616 262.514 362.023 261.851C362.43 261.188 362.989 260.674 363.699 260.31C364.409 259.94 365.217 259.756 366.121 259.756C367.035 259.756 367.84 259.938 368.536 260.303C369.237 260.662 369.783 261.155 370.176 261.78C370.569 262.4 370.766 263.101 370.766 263.882C370.766 264.422 370.664 264.95 370.461 265.466C370.262 265.982 369.914 266.557 369.417 267.192C368.919 267.821 368.228 268.586 367.343 269.486L364.452 272.511V272.618H371V274.5H361.426ZM378.493 274.699C377.603 274.699 376.803 274.528 376.093 274.188C375.387 273.842 374.824 273.368 374.402 272.767C373.981 272.166 373.756 271.479 373.728 270.707H375.858C375.91 271.332 376.187 271.846 376.689 272.249C377.191 272.651 377.792 272.852 378.493 272.852C379.052 272.852 379.547 272.724 379.978 272.469C380.413 272.208 380.754 271.851 381 271.396C381.251 270.942 381.377 270.423 381.377 269.841C381.377 269.249 381.249 268.721 380.993 268.257C380.738 267.793 380.385 267.429 379.935 267.163C379.49 266.898 378.979 266.763 378.401 266.759C377.961 266.759 377.518 266.834 377.073 266.986C376.628 267.137 376.268 267.336 375.993 267.582L373.983 267.284L374.8 259.955H382.797V261.837H376.625L376.164 265.906H376.249C376.533 265.632 376.909 265.402 377.378 265.217C377.852 265.033 378.358 264.94 378.898 264.94C379.783 264.94 380.572 265.151 381.263 265.572C381.959 265.994 382.506 266.569 382.904 267.298C383.306 268.023 383.505 268.856 383.5 269.798C383.505 270.741 383.292 271.581 382.861 272.32C382.435 273.058 381.843 273.641 381.086 274.067C380.333 274.488 379.469 274.699 378.493 274.699ZM391.158 274.741C390.036 274.737 389.077 274.441 388.282 273.854C387.487 273.267 386.878 272.412 386.457 271.29C386.035 270.168 385.825 268.816 385.825 267.234C385.825 265.658 386.035 264.311 386.457 263.193C386.883 262.076 387.494 261.223 388.289 260.636C389.089 260.049 390.046 259.756 391.158 259.756C392.271 259.756 393.225 260.052 394.021 260.643C394.816 261.231 395.424 262.083 395.846 263.2C396.272 264.313 396.485 265.658 396.485 267.234C396.485 268.821 396.274 270.175 395.853 271.297C395.432 272.414 394.823 273.269 394.028 273.861C393.232 274.448 392.276 274.741 391.158 274.741ZM391.158 272.845C392.143 272.845 392.913 272.365 393.467 271.403C394.025 270.442 394.305 269.053 394.305 267.234C394.305 266.027 394.177 265.007 393.921 264.173C393.67 263.335 393.308 262.701 392.835 262.27C392.366 261.834 391.807 261.616 391.158 261.616C390.178 261.616 389.409 262.099 388.85 263.065C388.291 264.031 388.01 265.421 388.005 267.234C388.005 268.446 388.13 269.472 388.381 270.31C388.637 271.143 388.999 271.775 389.468 272.206C389.937 272.632 390.5 272.845 391.158 272.845Z" fill="black"/>
<rect x="410" y="255" width="58" height="25" rx="12.5" fill="#FFC7C7"/>
<path d="M430.054 273V272.105L433.415 268.426C433.809 267.995 434.134 267.621 434.389 267.303C434.644 266.981 434.833 266.679 434.956 266.398C435.082 266.113 435.145 265.814 435.145 265.503C435.145 265.145 435.059 264.835 434.886 264.573C434.717 264.311 434.485 264.109 434.19 263.967C433.895 263.824 433.564 263.753 433.196 263.753C432.805 263.753 432.464 263.834 432.172 263.996C431.884 264.156 431.66 264.379 431.501 264.668C431.345 264.956 431.267 265.294 431.267 265.682H430.094C430.094 265.085 430.231 264.562 430.506 264.111C430.781 263.66 431.156 263.309 431.63 263.057C432.107 262.805 432.643 262.679 433.236 262.679C433.832 262.679 434.361 262.805 434.822 263.057C435.282 263.309 435.644 263.648 435.906 264.076C436.167 264.504 436.298 264.979 436.298 265.503C436.298 265.877 436.23 266.244 436.094 266.602C435.962 266.956 435.73 267.352 435.398 267.79C435.07 268.224 434.615 268.754 434.031 269.381L431.744 271.827V271.906H436.477V273H430.054ZM443.721 271.091V270.554C443.721 270.183 443.797 269.843 443.95 269.535C444.105 269.223 444.331 268.975 444.626 268.789C444.924 268.6 445.285 268.506 445.71 268.506C446.14 268.506 446.502 268.6 446.793 268.789C447.085 268.975 447.305 269.223 447.455 269.535C447.604 269.843 447.678 270.183 447.678 270.554V271.091C447.678 271.462 447.602 271.804 447.45 272.115C447.3 272.423 447.078 272.672 446.783 272.861C446.492 273.046 446.134 273.139 445.71 273.139C445.279 273.139 444.916 273.046 444.621 272.861C444.326 272.672 444.102 272.423 443.95 272.115C443.797 271.804 443.721 271.462 443.721 271.091ZM444.735 270.554V271.091C444.735 271.399 444.808 271.676 444.954 271.921C445.1 272.163 445.352 272.284 445.71 272.284C446.058 272.284 446.303 272.163 446.445 271.921C446.591 271.676 446.664 271.399 446.664 271.091V270.554C446.664 270.246 446.594 269.971 446.455 269.729C446.316 269.483 446.067 269.361 445.71 269.361C445.362 269.361 445.111 269.483 444.959 269.729C444.81 269.971 444.735 270.246 444.735 270.554ZM438.65 265.264V264.727C438.65 264.356 438.726 264.016 438.879 263.708C439.034 263.397 439.26 263.148 439.555 262.962C439.853 262.773 440.214 262.679 440.638 262.679C441.069 262.679 441.431 262.773 441.722 262.962C442.014 263.148 442.234 263.397 442.384 263.708C442.533 264.016 442.607 264.356 442.607 264.727V265.264C442.607 265.635 442.531 265.977 442.379 266.288C442.229 266.597 442.007 266.845 441.712 267.034C441.421 267.22 441.063 267.312 440.638 267.312C440.208 267.312 439.845 267.22 439.55 267.034C439.255 266.845 439.031 266.597 438.879 266.288C438.726 265.977 438.65 265.635 438.65 265.264ZM439.664 264.727V265.264C439.664 265.572 439.737 265.849 439.883 266.094C440.029 266.336 440.281 266.457 440.638 266.457C440.987 266.457 441.232 266.336 441.374 266.094C441.52 265.849 441.593 265.572 441.593 265.264V264.727C441.593 264.419 441.523 264.144 441.384 263.902C441.245 263.657 440.996 263.534 440.638 263.534C440.29 263.534 440.04 263.657 439.888 263.902C439.739 264.144 439.664 264.419 439.664 264.727ZM439.028 273L446.028 262.818H447.161L440.161 273H439.028Z" fill="#DD0B0B"/>
</g>
<defs>
<filter id="filter0_d_303_1785" x="0" y="0" width="533" height="335" filterUnits="userSpaceOnUse" color-interpolation-filters="sRGB">
<feFlood flood-opacity="0" result="BackgroundImageFix"/>
<feColorMatrix in="SourceAlpha" type="matrix" values="0 0 0 0 0 0 0 0 0 0 0 0 0 0 0 0 0 0 127 0" result="hardAlpha"/>
<feOffset dx="-4" dy="4"/>
<feGaussianBlur stdDeviation="7.5"/>
<feComposite in2="hardAlpha" operator="out"/>
<feColorMatrix type="matrix" values="0 0 0 0 0 0 0 0 0 0 0 0 0 0 0 0 0 0 0.15 0"/>
<feBlend mode="normal" in2="BackgroundImageFix" result="effect1_dropShadow_303_1785"/>
<feBlend mode="normal" in="SourceGraphic" in2="effect1_dropShadow_303_1785" result="shape"/>
</filter>
</defs>
</svg>
