<svg xmlns="http://www.w3.org/2000/svg" width="533" height="335" fill="none" viewBox="0 0 533 335"><g filter="url(#a)"><rect width="503" height="305" x="19" y="11" fill="#fffbf2" rx="10" shape-rendering="crispEdges"/><rect width="461" height="275" x="40" y="26" fill="#fff" rx="10"/><path fill="#000" d="M72.145 55.547V53.09h14.634v2.456h-5.9V72h-2.844V55.547zm20.407 8.033V72h-2.76V53.09h2.723v7.036h.175q.499-1.145 1.524-1.819t2.677-.674q1.459 0 2.549.6 1.099.6 1.699 1.792.609 1.182.609 2.954V72h-2.76v-8.688q0-1.56-.804-2.42-.803-.867-2.234-.867-.979 0-1.755.415-.766.416-1.209 1.22-.435.793-.434 1.92m12.88 8.42V57.818h2.668v2.253h.148a3.43 3.43 0 0 1 1.367-1.8 3.9 3.9 0 0 1 2.234-.665 12 12 0 0 1 1.172.064v2.641a5 5 0 0 0-.59-.102 6 6 0 0 0-.85-.064q-.978 0-1.745.415-.758.407-1.2 1.136-.444.72-.443 1.644V72zm15.583.286q-2.096 0-3.61-.895-1.505-.906-2.327-2.54-.812-1.643-.812-3.85 0-2.179.812-3.84.822-1.662 2.29-2.595 1.477-.933 3.453-.933 1.2 0 2.327.398 1.126.397 2.022 1.246.896.85 1.412 2.207.517 1.347.517 3.277v.98h-11.273v-2.07h8.568q0-1.088-.443-1.929a3.35 3.35 0 0 0-1.246-1.339q-.794-.489-1.866-.489-1.162 0-2.031.572a3.85 3.85 0 0 0-1.329 1.478 4.26 4.26 0 0 0-.462 1.966v1.616q0 1.421.499 2.42.507.996 1.412 1.523.904.516 2.115.517.784 0 1.431-.222a3.1 3.1 0 0 0 1.117-.683q.471-.453.72-1.117l2.613.47a4.74 4.74 0 0 1-1.126 2.023q-.804.858-2.022 1.338-1.21.471-2.761.471m13.275.028q-1.349 0-2.438-.499a4.1 4.1 0 0 1-1.726-1.468q-.628-.96-.628-2.354 0-1.2.461-1.976a3.4 3.4 0 0 1 1.247-1.228 6.5 6.5 0 0 1 1.754-.683 17 17 0 0 1 1.976-.351l2.068-.24q.794-.102 1.154-.323t.36-.72v-.065q0-1.21-.683-1.874-.674-.666-2.013-.665-1.394 0-2.197.618-.795.61-1.099 1.358l-2.594-.591q.461-1.293 1.348-2.087a5.5 5.5 0 0 1 2.059-1.163 8 8 0 0 1 2.446-.37q.85 0 1.801.204.96.193 1.791.72.84.525 1.376 1.505.535.969.535 2.52V72h-2.696v-1.939h-.111a3.9 3.9 0 0 1-.803 1.053q-.535.516-1.376.858t-2.012.342m.6-2.216q1.144 0 1.957-.452.822-.453 1.247-1.182a3.07 3.07 0 0 0 .434-1.58v-1.827q-.148.147-.573.277a9 9 0 0 1-.951.212q-.536.084-1.043.157l-.85.11a7 7 0 0 0-1.468.343q-.656.24-1.052.692-.388.444-.388 1.182 0 1.024.757 1.551.757.517 1.93.517m16.695-12.28v2.216h-7.746v-2.216zm-5.669-3.398h2.761v13.416q0 .803.24 1.21.24.396.619.544.387.14.84.139.332 0 .581-.046l.388-.074.499 2.28q-.24.093-.683.185a5.4 5.4 0 0 1-1.108.11 4.9 4.9 0 0 1-2.032-.387 3.5 3.5 0 0 1-1.523-1.256q-.582-.849-.582-2.133zM167.863 72h-6.122V53.09h6.316q2.78 0 4.773 1.137 1.995 1.125 3.056 3.24 1.071 2.106 1.071 5.05 0 2.955-1.08 5.079-1.071 2.124-3.102 3.268Q170.743 72 167.863 72m-3.269-2.493h3.112q2.16 0 3.592-.812 1.431-.823 2.142-2.373.711-1.56.711-3.804 0-2.225-.711-3.776-.702-1.553-2.096-2.355-1.395-.803-3.463-.803h-3.287zm21.802 2.78q-2.096-.001-3.61-.896-1.506-.906-2.327-2.54-.813-1.643-.813-3.85 0-2.179.813-3.84.822-1.662 2.29-2.595 1.477-.933 3.453-.933 1.2 0 2.327.398 1.127.397 2.022 1.246.896.85 1.412 2.207.517 1.347.517 3.277v.98h-11.273v-2.07h8.568q0-1.088-.443-1.929a3.35 3.35 0 0 0-1.247-1.339q-.794-.489-1.865-.489-1.162 0-2.031.572a3.84 3.84 0 0 0-1.329 1.478 4.26 4.26 0 0 0-.462 1.966v1.616q0 1.421.498 2.42.508.996 1.413 1.523.905.516 2.114.517.786 0 1.432-.222.645-.231 1.117-.683.471-.453.72-1.117l2.613.47a4.7 4.7 0 0 1-1.127 2.023q-.803.858-2.022 1.338-1.209.471-2.76.471m15.767-14.469v2.216h-7.746v-2.216zm-5.669-3.398h2.761v13.416q0 .803.24 1.21.24.396.619.544.387.14.84.139.332 0 .582-.046l.387-.074.499 2.28q-.24.093-.683.185a5.4 5.4 0 0 1-1.108.11 4.9 4.9 0 0 1-2.032-.387 3.5 3.5 0 0 1-1.523-1.256q-.582-.849-.582-2.133zm14.683 17.866q-2.096 0-3.61-.895-1.505-.906-2.327-2.54-.812-1.643-.812-3.85 0-2.179.812-3.84.822-1.662 2.29-2.595 1.478-.933 3.453-.933 1.2 0 2.327.398 1.127.397 2.022 1.246.896.85 1.412 2.207.518 1.347.518 3.277v.98h-11.274v-2.07h8.568q0-1.088-.443-1.929a3.35 3.35 0 0 0-1.246-1.339q-.794-.489-1.865-.489-1.164 0-2.032.572a3.85 3.85 0 0 0-1.329 1.478 4.26 4.26 0 0 0-.462 1.966v1.616q0 1.421.499 2.42.507.996 1.412 1.523.905.516 2.115.517.784 0 1.431-.222a3.1 3.1 0 0 0 1.117-.683q.471-.453.72-1.117l2.613.47a4.74 4.74 0 0 1-1.126 2.023q-.804.858-2.022 1.338-1.21.471-2.761.471m15.121 0q-2.058 0-3.545-.932-1.478-.942-2.271-2.595-.794-1.653-.794-3.785 0-2.16.812-3.814.813-1.66 2.29-2.594t3.481-.933q1.616 0 2.88.6a5.16 5.16 0 0 1 2.041 1.663q.785 1.071.932 2.502h-2.686a3.22 3.22 0 0 0-1.016-1.718q-.785-.72-2.105-.72-1.155 0-2.022.61-.86.6-1.339 1.717-.48 1.108-.48 2.622 0 1.551.471 2.678.471 1.125 1.329 1.745.868.618 2.041.618.784 0 1.422-.286a2.9 2.9 0 0 0 1.08-.84q.443-.544.619-1.311h2.686a5.2 5.2 0 0 1-.895 2.456q-.749 1.08-2.004 1.699-1.246.618-2.927.618m15.399-14.468v2.216h-7.747v-2.216zm-5.669-3.398h2.76v13.416q0 .803.24 1.21.24.396.619.544.387.14.84.139.333 0 .582-.046l.387-.074.499 2.28q-.24.093-.683.185a5.4 5.4 0 0 1-1.108.11 4.9 4.9 0 0 1-2.031-.387 3.5 3.5 0 0 1-1.524-1.256q-.582-.849-.581-2.133zM244.75 72V57.818h2.761V72zm1.395-16.37q-.721 0-1.238-.48a1.56 1.56 0 0 1-.507-1.163q0-.684.507-1.164.517-.49 1.238-.49.72 0 1.228.49.517.48.517 1.163 0 .675-.517 1.164-.508.48-1.228.48m11.054 16.656q-1.995 0-3.481-.914-1.487-.915-2.308-2.557-.822-1.644-.822-3.841 0-2.207.822-3.86.821-1.652 2.308-2.566 1.486-.915 3.481-.915t3.481.915 2.308 2.566.821 3.86q0 2.198-.821 3.84-.822 1.644-2.308 2.558-1.487.915-3.481.914m.009-2.317q1.293 0 2.142-.683.85-.684 1.256-1.82.415-1.134.415-2.501 0-1.358-.415-2.493-.407-1.145-1.256-1.838-.849-.692-2.142-.692-1.302 0-2.161.692-.85.693-1.265 1.838-.405 1.136-.406 2.492 0 1.368.406 2.503.416 1.135 1.265 1.819.86.683 2.161.683m12.444-6.39V72h-2.761V57.818h2.65v2.308h.175a4.05 4.05 0 0 1 1.533-1.81q1.053-.683 2.65-.683 1.45 0 2.539.61 1.089.6 1.689 1.791t.601 2.945V72h-2.761v-8.688q0-1.542-.803-2.41-.803-.877-2.207-.877-.96 0-1.708.415a3 3 0 0 0-1.173 1.22q-.424.793-.424 1.92"/><path fill="#000" fill-opacity=".7" d="M71.87 106.815v-1.406h9.817v1.406h-4.116V118.5h-1.585v-11.685zm14.624 11.89q-1.33 0-2.333-.633-.997-.633-1.56-1.771-.555-1.137-.555-2.659 0-1.534.556-2.678.562-1.144 1.56-1.777 1.002-.633 2.332-.633t2.327.633q1.004.633 1.56 1.777.562 1.144.562 2.678 0 1.521-.562 2.659-.556 1.138-1.56 1.771-.997.633-2.327.633m0-1.356q1.011 0 1.662-.517a3.05 3.05 0 0 0 .965-1.362 5.2 5.2 0 0 0 .314-1.828q0-.985-.314-1.834a3.1 3.1 0 0 0-.965-1.375q-.651-.524-1.662-.524t-1.662.524q-.651.525-.965 1.375a5.3 5.3 0 0 0-.313 1.834q0 .984.313 1.828a3.05 3.05 0 0 0 .965 1.362q.653.517 1.662.517m11.022-8.667v1.278h-5.088v-1.278zm-3.605-2.352h1.508v9.358q0 .639.186.958.191.314.485.422.3.102.633.102.25 0 .41-.025l.255-.051.307 1.355a3 3 0 0 1-.428.115 3 3 0 0 1-.697.064 3 3 0 0 1-1.253-.275 2.5 2.5 0 0 1-1.01-.837q-.396-.563-.396-1.419zm8.763 12.4a4 4 0 0 1-1.694-.351 2.9 2.9 0 0 1-1.208-1.03q-.447-.677-.447-1.636 0-.843.332-1.368.333-.531.889-.831.555-.3 1.227-.447.677-.154 1.361-.243a65 65 0 0 1 1.451-.173q.563-.064.819-.211.262-.147.262-.511v-.051q0-.947-.518-1.47-.512-.525-1.553-.524-1.081 0-1.694.473-.614.473-.863 1.009l-1.432-.511q.384-.894 1.023-1.393.645-.505 1.406-.703a5.8 5.8 0 0 1 1.509-.205q.473 0 1.086.115.62.109 1.195.454.582.345.966 1.042.383.696.383 1.866v6.469h-1.508v-1.33h-.077q-.154.321-.511.684-.359.365-.953.62-.594.256-1.451.256m.23-1.355q.895 0 1.509-.352a2.39 2.39 0 0 0 1.253-2.077v-1.381q-.096.115-.422.211-.32.09-.742.16a32 32 0 0 1-1.444.192 6 6 0 0 0-1.1.249 1.9 1.9 0 0 0-.818.505q-.306.332-.307.908 0 .786.582 1.189.588.396 1.489.396m8.532-11.966V118.5h-1.508v-13.091zm8.567 13.091h-1.662l4.807-13.091h1.636l4.807 13.091h-1.662l-3.912-11.02h-.102zm.614-5.114h6.699v1.407h-6.699zm12.317-.792v5.906h-1.508v-9.818h1.457v1.534h.128q.345-.748 1.048-1.202.703-.46 1.815-.46.998 0 1.745.409.749.404 1.164 1.227.415.819.415 2.071v6.239h-1.508v-6.136q0-1.158-.601-1.803-.601-.652-1.649-.652-.723 0-1.291.313a2.25 2.25 0 0 0-.889.914q-.326.601-.326 1.458m11.91 6.136a4 4 0 0 1-1.694-.351 2.9 2.9 0 0 1-1.208-1.03q-.447-.677-.447-1.636 0-.843.332-1.368.333-.531.889-.831.555-.3 1.227-.447.678-.154 1.361-.243a65 65 0 0 1 1.451-.173q.563-.064.819-.211.262-.147.262-.511v-.051q0-.947-.518-1.47-.512-.525-1.553-.524-1.081 0-1.694.473-.614.473-.863 1.009l-1.432-.511q.384-.894 1.023-1.393.645-.505 1.406-.703a5.8 5.8 0 0 1 1.508-.205q.474 0 1.087.115.62.109 1.195.454.582.345.966 1.042.383.696.383 1.866v6.469h-1.508v-1.33h-.077q-.153.321-.511.684-.359.365-.953.62-.594.256-1.451.256m.23-1.355q.896 0 1.509-.352a2.39 2.39 0 0 0 1.253-2.077v-1.381q-.096.115-.422.211a7 7 0 0 1-.742.16q-.415.064-.812.115-.39.045-.632.077a6 6 0 0 0-1.1.249 1.9 1.9 0 0 0-.818.505q-.307.332-.307.908 0 .786.582 1.189.588.396 1.489.396m8.532-11.966V118.5h-1.509v-13.091zm3.735 16.773q-.384 0-.684-.064a1.8 1.8 0 0 1-.416-.115l.384-1.33q.55.14.971.103.422-.039.748-.378.333-.332.607-1.08l.282-.767-3.631-9.869h1.636l2.711 7.824h.102l2.71-7.824h1.636l-4.167 11.25q-.282.76-.697 1.259a2.6 2.6 0 0 1-.965.748 3 3 0 0 1-1.227.243m8.766-3.682v-1.151l5.574-7.159v-.102h-5.395v-1.406h7.338v1.202l-5.42 7.107v.103h5.599v1.406zm13.855.205q-1.419 0-2.448-.627a4.2 4.2 0 0 1-1.579-1.764q-.55-1.139-.55-2.646 0-1.509.55-2.659.556-1.158 1.547-1.803.997-.652 2.327-.652.767 0 1.515.256.747.255 1.361.831.613.569.978 1.508.364.94.364 2.314v.639h-7.568v-1.304h6.034q0-.83-.332-1.483a2.5 2.5 0 0 0-.933-1.029q-.601-.377-1.419-.377-.901 0-1.56.448a2.95 2.95 0 0 0-1.004 1.15q-.351.71-.351 1.521v.87q0 1.112.383 1.885.39.768 1.081 1.17.69.396 1.604.396.594 0 1.074-.166a2.3 2.3 0 0 0 .837-.511q.352-.345.544-.857l1.457.409a3.2 3.2 0 0 1-.774 1.304 3.8 3.8 0 0 1-1.342.87q-.799.306-1.796.307m10.067 0q-1.227 0-2.166-.62-.94-.627-1.471-1.765-.53-1.144-.53-2.704 0-1.547.53-2.684.53-1.139 1.477-1.758.946-.62 2.186-.62.959 0 1.515.32.562.313.856.715.301.397.467.652h.128v-4.832h1.508V118.5h-1.457v-1.509h-.179a10 10 0 0 1-.473.678q-.306.402-.876.722-.568.314-1.515.314m.205-1.356q.907 0 1.534-.473.626-.478.953-1.323.326-.85.326-1.962 0-1.1-.32-1.924-.32-.83-.946-1.291-.627-.467-1.547-.467-.959 0-1.598.492-.633.486-.952 1.323-.314.832-.314 1.867 0 1.049.32 1.905.326.85.959 1.355.639.498 1.585.498m8.367 1.253q-.473 0-.812-.339a1.1 1.1 0 0 1-.338-.811q0-.473.338-.812.34-.339.812-.339.474 0 .812.339t.339.812q0 .313-.16.575a1.2 1.2 0 0 1-.416.422q-.255.153-.575.153m0-7.287q-.473 0-.812-.338a1.1 1.1 0 0 1-.338-.812q0-.474.338-.812.34-.339.812-.339.474 0 .812.339.339.338.339.812 0 .313-.16.575a1.2 1.2 0 0 1-.416.422q-.255.153-.575.153"/><path fill="#000" d="M391.609 104v16h-2.421v-13.578h-.094l-3.828 2.5v-2.313l3.992-2.609zm4.329 16v-1.75l5.414-5.609a30 30 0 0 0 1.429-1.602q.57-.695.852-1.32a3.2 3.2 0 0 0 .281-1.328q0-.798-.375-1.375a2.46 2.46 0 0 0-1.023-.899 3.3 3.3 0 0 0-1.461-.32q-.86 0-1.5.351a2.4 2.4 0 0 0-.985.993q-.343.64-.343 1.5h-2.305q0-1.461.672-2.555a4.56 4.56 0 0 1 1.844-1.695q1.171-.61 2.664-.61 1.507 0 2.656.602 1.156.594 1.804 1.625.65 1.023.649 2.312 0 .891-.336 1.742-.329.852-1.148 1.899-.82 1.04-2.282 2.523l-3.179 3.328v.118h7.203V120zm18.773.219q-1.468 0-2.641-.563-1.164-.57-1.859-1.562a4.1 4.1 0 0 1-.742-2.266h2.344q.085 1.032.914 1.695.828.664 1.984.664.922 0 1.633-.421.719-.43 1.125-1.18.414-.75.414-1.711 0-.977-.422-1.742a3.1 3.1 0 0 0-1.164-1.203q-.735-.437-1.688-.446-.726 0-1.461.25-.734.25-1.187.657l-2.211-.329.898-8.062h8.797v2.07h-6.789l-.508 4.477h.094q.47-.453 1.242-.758a4.6 4.6 0 0 1 1.672-.305q1.46 0 2.602.696a4.95 4.95 0 0 1 1.805 1.898q.663 1.196.656 2.75.008 1.555-.703 2.774a5.1 5.1 0 0 1-1.953 1.921q-1.243.696-2.852.696m10.852-2.407-.118.852a14 14 0 0 1-.398 1.953 31 31 0 0 1-.57 1.899 52 52 0 0 1-.477 1.39h-1.656q.1-.484.281-1.312.18-.82.352-1.836.171-1.015.257-2.071l.079-.875zm2.931-.937v-1.953L435.408 104h1.539v2.875h-.976l-4.946 7.828v.125h9.477v2.047zM436.08 120v-3.719l.016-.89V104h2.289v16zm12.426.219q-1.469 0-2.641-.563-1.164-.57-1.859-1.562a4.1 4.1 0 0 1-.742-2.266h2.343q.087 1.032.914 1.695.829.664 1.985.664.922 0 1.633-.421.719-.43 1.125-1.18.414-.75.414-1.711 0-.977-.422-1.742a3.1 3.1 0 0 0-1.164-1.203q-.735-.437-1.688-.446-.726 0-1.461.25-.734.25-1.187.657l-2.211-.329.898-8.062h8.797v2.07h-6.789l-.508 4.477h.094q.47-.453 1.242-.758a4.6 4.6 0 0 1 1.672-.305q1.46 0 2.602.696a4.94 4.94 0 0 1 1.804 1.898q.665 1.196.657 2.75.008 1.555-.703 2.774a5.1 5.1 0 0 1-1.954 1.921q-1.242.696-2.851.696m13.931.047q-1.851-.008-3.164-.977-1.312-.969-2.007-2.82-.696-1.852-.696-4.461 0-2.602.696-4.446.702-1.843 2.015-2.812 1.32-.969 3.156-.969t3.149.977q1.312.969 2.008 2.812.703 1.836.703 4.438 0 2.617-.695 4.469-.696 1.843-2.008 2.82-1.312.969-3.157.969m0-2.086q1.625 0 2.54-1.586.921-1.587.921-4.586 0-1.992-.421-3.367-.414-1.383-1.196-2.094a2.62 2.62 0 0 0-1.844-.719q-1.617 0-2.539 1.594-.921 1.593-.929 4.586 0 2 .414 3.383.422 1.374 1.195 2.086.774.703 1.859.703"/><path stroke="#dd0b0b" stroke-linecap="round" stroke-width="13" d="M71 145h398"/><path stroke="#ffe100" stroke-linecap="round" stroke-width="13" d="M71 145h384"/><path stroke="#039708" stroke-linecap="round" stroke-width="13" d="M71 145h364"/><circle cx="78" cy="177.5" r="7" fill="#039708"/><path fill="#000" d="M109.716 173.591a2.23 2.23 0 0 0-1.037-1.676q-.909-.597-2.23-.597-.967 0-1.69.313-.718.312-1.123.859a2.06 2.06 0 0 0-.397 1.243q0 .582.277 1.001.283.413.724.689.44.27.923.448.483.17.888.277l1.477.397q.569.15 1.265.412.703.264 1.342.718a3.65 3.65 0 0 1 1.065 1.15q.42.703.419 1.726a3.83 3.83 0 0 1-.618 2.131q-.61.951-1.789 1.513-1.173.561-2.848.561-1.563 0-2.706-.505-1.136-.504-1.79-1.406-.647-.902-.732-2.095h1.819q.07.824.554 1.364.49.532 1.235.795a5 5 0 0 0 1.62.256q1.008 0 1.811-.327.803-.333 1.271-.923.47-.597.469-1.392 0-.725-.405-1.179t-1.065-.739a11 11 0 0 0-1.428-.497l-1.79-.511q-1.704-.49-2.699-1.4-.993-.909-.994-2.379 0-1.221.661-2.13.667-.917 1.789-1.421 1.13-.511 2.522-.511 1.406 0 2.5.504 1.094.497 1.733 1.364.647.866.681 1.967zm7.782 11.165a4.4 4.4 0 0 1-1.882-.391 3.23 3.23 0 0 1-1.342-1.143q-.497-.753-.497-1.819 0-.937.369-1.519a2.6 2.6 0 0 1 .987-.924 5.2 5.2 0 0 1 1.364-.497 16 16 0 0 1 1.513-.27q.993-.127 1.612-.192.625-.07.909-.234.291-.163.291-.568v-.057q0-1.051-.575-1.633-.568-.583-1.726-.583-1.2 0-1.882.526-.682.525-.959 1.122l-1.591-.568q.426-.994 1.136-1.549.718-.56 1.563-.781a6.5 6.5 0 0 1 1.676-.227q.526 0 1.208.128.689.12 1.328.504.646.384 1.072 1.158t.426 2.073v7.188h-1.676v-1.477h-.085q-.17.354-.568.76-.397.405-1.059.689-.66.284-1.612.284m.256-1.506q.994 0 1.676-.391.689-.39 1.037-1.008.355-.618.355-1.3v-1.534q-.106.127-.469.234a8 8 0 0 1-.824.178q-.46.07-.902.128a41 41 0 0 0-.703.085 6.4 6.4 0 0 0-1.221.277q-.561.184-.909.561-.341.369-.341 1.009 0 .873.646 1.321.653.44 1.655.44m12.661-9.659v1.42h-5.88v-1.42zm-4.119 10.909v-12.415q0-.938.441-1.562a2.73 2.73 0 0 1 1.143-.938 3.6 3.6 0 0 1 1.484-.312q.618 0 1.009.099.39.1.582.185l-.483 1.449a8 8 0 0 0-.355-.107 2.2 2.2 0 0 0-.582-.064q-.831 0-1.2.419-.363.42-.363 1.229V184.5zm10.593.227q-1.577 0-2.72-.696-1.137-.703-1.754-1.96-.61-1.265-.611-2.94 0-1.677.611-2.955.618-1.285 1.719-2.003 1.107-.724 2.585-.724.852 0 1.683.284a4.2 4.2 0 0 1 1.513.923q.682.632 1.086 1.676.405 1.044.405 2.571v.711h-8.409v-1.449h6.705q0-.924-.37-1.648a2.8 2.8 0 0 0-1.037-1.143q-.667-.42-1.576-.419-1.002 0-1.733.497a3.26 3.26 0 0 0-1.115 1.278 3.75 3.75 0 0 0-.391 1.69v.966q0 1.236.426 2.096a3.07 3.07 0 0 0 1.201 1.299q.766.441 1.782.441.661 0 1.193-.185.54-.192.931-.568.39-.384.603-.952l1.62.455a3.6 3.6 0 0 1-.86 1.448 4.2 4.2 0 0 1-1.491.966q-.888.342-1.996.341m8.289-.113a1.23 1.23 0 0 1-.902-.377 1.23 1.23 0 0 1-.377-.902q0-.525.377-.902.376-.376.902-.376.525 0 .902.376.375.377.376.902 0 .348-.178.639a1.3 1.3 0 0 1-.461.469q-.285.171-.639.171m0-8.097q-.526 0-.902-.376a1.23 1.23 0 0 1-.377-.902q0-.526.377-.902a1.23 1.23 0 0 1 .902-.377q.525 0 .902.377.375.376.376.902 0 .348-.178.639-.17.29-.461.469-.285.17-.639.17m184.74-6.562V184.5h-2.202v-12.344h-.085l-3.48 2.273v-2.102l3.629-2.372zm9.453 0V184.5h-2.202v-12.344h-.085l-3.48 2.273v-2.102l3.629-2.372zm8.849 14.744q-1.526 0-2.699-.526-1.164-.525-1.825-1.449a3.5 3.5 0 0 1-.653-2.102 3.7 3.7 0 0 1 1.434-2.997q.668-.525 1.492-.668v-.085a2.93 2.93 0 0 1-1.74-1.165q-.654-.901-.647-2.073-.006-1.116.59-1.989.603-.88 1.655-1.385 1.05-.504 2.393-.504 1.329 0 2.372.511 1.052.504 1.655 1.385a3.44 3.44 0 0 1 .611 1.982q-.007 1.172-.668 2.073-.66.903-1.718 1.165v.085a3.2 3.2 0 0 1 1.47.668q.66.519 1.051 1.3.397.774.405 1.697a3.56 3.56 0 0 1-.668 2.102q-.66.924-1.832 1.449-1.165.526-2.678.526m0-1.797q.902 0 1.563-.298.66-.306 1.022-.845.363-.547.37-1.279a2.4 2.4 0 0 0-.398-1.342 2.66 2.66 0 0 0-1.044-.916q-.66-.334-1.513-.334-.86 0-1.527.334a2.65 2.65 0 0 0-1.051.916 2.34 2.34 0 0 0-.376 1.342q-.007.732.348 1.279.361.539 1.029.845.668.298 1.577.298m0-6.768q.725 0 1.286-.292.56-.291.88-.809.327-.519.334-1.215-.007-.681-.327-1.193a2.07 2.07 0 0 0-.873-.788q-.56-.284-1.3-.284-.753 0-1.321.284a2.07 2.07 0 0 0-.873.788q-.314.512-.306 1.193-.007.696.313 1.215.32.518.88.809a2.8 2.8 0 0 0 1.307.292m10.084 6.377-.107.775q-.107.852-.362 1.775-.249.93-.519 1.726-.262.795-.433 1.264h-1.506q.093-.44.256-1.193.164-.746.32-1.669.156-.924.234-1.882l.071-.796zm2.97 1.989v-1.591l4.922-5.099q.789-.832 1.3-1.456.518-.633.774-1.201.255-.567.256-1.207 0-.725-.341-1.25a2.24 2.24 0 0 0-.931-.817 2.96 2.96 0 0 0-1.328-.291q-.781 0-1.364.32a2.2 2.2 0 0 0-.894.902q-.313.582-.313 1.363h-2.095q0-1.327.611-2.322a4.14 4.14 0 0 1 1.676-1.541q1.065-.554 2.422-.554 1.371 0 2.415.547 1.05.539 1.64 1.477.59.93.59 2.102 0 .81-.306 1.584-.298.774-1.044 1.726-.745.944-2.074 2.294l-2.89 3.025v.107h6.548v1.882zm17.33.241q-1.683-.006-2.877-.887-1.193-.88-1.825-2.564-.632-1.683-.632-4.056 0-2.364.632-4.041.64-1.676 1.832-2.557 1.201-.88 2.87-.88 1.668 0 2.862.887 1.193.882 1.825 2.557.639 1.67.639 4.034 0 2.38-.632 4.063-.632 1.676-1.825 2.564-1.193.88-2.869.88m0-1.896q1.477 0 2.308-1.442.838-1.441.838-4.169 0-1.81-.384-3.061-.376-1.257-1.086-1.903a2.38 2.38 0 0 0-1.676-.654q-1.47 0-2.309 1.449-.837 1.45-.845 4.169 0 1.819.377 3.076.383 1.25 1.086 1.896.704.639 1.691.639m12.91 1.896q-1.683-.006-2.877-.887-1.192-.88-1.825-2.564-.632-1.683-.632-4.056 0-2.364.632-4.041.639-1.676 1.833-2.557 1.2-.88 2.869-.88t2.862.887q1.194.882 1.825 2.557.64 1.67.64 4.034 0 2.38-.633 4.063-.631 1.676-1.825 2.564-1.193.88-2.869.88m0-1.896q1.477 0 2.308-1.442.838-1.441.838-4.169 0-1.81-.383-3.061-.377-1.257-1.087-1.903a2.38 2.38 0 0 0-1.676-.654q-1.47 0-2.308 1.449-.839 1.45-.846 4.169 0 1.819.377 3.076.384 1.25 1.087 1.896.703.639 1.69.639"/><rect width="58" height="25" x="410" y="165" fill="#a8f9ab" rx="12.5"/><path fill="#039708" d="M428.295 172.679q.627.005 1.253.239.627.233 1.144.775.516.537.83 1.467t.313 2.331q0 1.358-.258 2.412-.254 1.048-.736 1.77a3.26 3.26 0 0 1-1.163 1.093 3.16 3.16 0 0 1-1.542.373q-.854 0-1.526-.338a3 3 0 0 1-1.094-.949 3.3 3.3 0 0 1-.542-1.417h1.214q.163.7.651 1.158.492.453 1.297.452 1.179 0 1.86-1.029.686-1.029.686-2.908h-.08a3.1 3.1 0 0 1-.661.721 2.9 2.9 0 0 1-1.844.631 3.1 3.1 0 0 1-1.606-.432 3.3 3.3 0 0 1-1.164-1.198q-.432-.766-.432-1.75 0-.936.417-1.711.423-.78 1.184-1.243.765-.462 1.799-.447m0 1.094q-.626 0-1.128.313a2.25 2.25 0 0 0-.791.835 2.36 2.36 0 0 0-.288 1.159q0 .636.278 1.158.284.518.771.825a2.1 2.1 0 0 0 1.119.303q.472 0 .88-.183.406-.189.711-.513a2.5 2.5 0 0 0 .482-.74q.174-.418.174-.87a2.27 2.27 0 0 0-.289-1.119 2.3 2.3 0 0 0-.785-.845 2.03 2.03 0 0 0-1.134-.323m5.257 7.139v-1.014l4.474-7.08h.736v1.571h-.497l-3.381 5.35v.079h6.026v1.094zm4.792 2.088v-10.182h1.174V183zm9.619-1.909v-.537q0-.557.229-1.019.234-.468.676-.746.447-.283 1.084-.283.646 0 1.084.283.437.279.661.746.223.462.223 1.019v.537q0 .557-.228 1.024a1.8 1.8 0 0 1-.666.746q-.438.278-1.074.278-.646 0-1.089-.278a1.84 1.84 0 0 1-.671-.746 2.3 2.3 0 0 1-.229-1.024m1.014-.537v.537q0 .462.219.83.219.363.756.363.522 0 .736-.363a1.6 1.6 0 0 0 .218-.83v-.537q0-.462-.209-.825-.208-.368-.745-.368-.523 0-.751.368a1.54 1.54 0 0 0-.224.825m-6.085-5.29v-.537q0-.557.229-1.019.234-.467.676-.746.447-.283 1.084-.283.646 0 1.083.283.438.28.662.746.223.462.223 1.019v.537q0 .557-.228 1.024a1.8 1.8 0 0 1-.666.746q-.438.278-1.074.278-.646 0-1.089-.278a1.83 1.83 0 0 1-.671-.746 2.3 2.3 0 0 1-.229-1.024m1.014-.537v.537q0 .462.219.83.219.363.756.363.522 0 .735-.363a1.6 1.6 0 0 0 .219-.83v-.537q0-.462-.209-.825-.208-.368-.745-.368-.522 0-.751.368a1.54 1.54 0 0 0-.224.825M443.27 183l7-10.182h1.133l-7 10.182z"/><circle cx="78" cy="222.5" r="7" fill="#ffe100"/><path fill="#000" d="M109.716 218.591a2.23 2.23 0 0 0-1.037-1.676q-.909-.597-2.23-.597-.967 0-1.69.313-.718.312-1.123.859a2.06 2.06 0 0 0-.397 1.243q0 .582.277 1.001.283.413.724.689.44.27.923.448.483.17.888.277l1.477.397q.569.15 1.265.412.703.264 1.342.718a3.65 3.65 0 0 1 1.065 1.15q.42.703.419 1.726a3.83 3.83 0 0 1-.618 2.131q-.61.951-1.789 1.513-1.173.561-2.848.561-1.563 0-2.706-.505-1.136-.504-1.79-1.406-.647-.902-.732-2.095h1.819q.07.824.554 1.364.49.532 1.235.795a5 5 0 0 0 1.62.256q1.008 0 1.811-.327.803-.333 1.271-.923.47-.597.469-1.392 0-.725-.405-1.179t-1.065-.739a11 11 0 0 0-1.428-.497l-1.79-.511q-1.704-.49-2.699-1.4-.993-.909-.994-2.379 0-1.221.661-2.13.667-.917 1.789-1.421 1.13-.511 2.522-.511 1.406 0 2.5.504 1.094.497 1.733 1.364.647.866.681 1.967zm11.447 6.449v-6.449h1.676V229.5h-1.676v-1.847h-.114a3.57 3.57 0 0 1-1.193 1.414q-.81.575-2.045.575-1.023 0-1.818-.447-.796-.455-1.25-1.364-.455-.916-.455-2.308v-6.932h1.676v6.818q0 1.194.668 1.903.675.711 1.718.711.625 0 1.272-.32.653-.32 1.094-.98.447-.66.447-1.683m12.473-4.006-1.505.426a2.8 2.8 0 0 0-.419-.731 2 2 0 0 0-.739-.597q-.469-.234-1.2-.234-1.002 0-1.669.461-.661.454-.661 1.158 0 .625.455.987.454.363 1.42.604l1.62.398q1.463.355 2.18 1.086.717.725.717 1.868 0 .938-.54 1.676-.532.74-1.491 1.165t-2.23.426q-1.67 0-2.763-.724-1.094-.725-1.385-2.117l1.591-.397q.228.88.859 1.321.64.44 1.669.44 1.173 0 1.861-.497.696-.504.696-1.208 0-.568-.397-.951-.399-.391-1.222-.583l-1.818-.426q-1.499-.355-2.202-1.101-.696-.753-.696-1.882 0-.923.519-1.633.525-.71 1.427-1.115.91-.405 2.06-.405 1.619 0 2.542.71a3.83 3.83 0 0 1 1.321 1.875m2.722 12.557v-15h1.62v1.733h.198q.185-.285.512-.725.334-.447.952-.795.624-.355 1.69-.355 1.377 0 2.429.689t1.641 1.953q.588 1.264.589 2.983 0 1.733-.589 3.004-.59 1.264-1.634 1.96-1.044.69-2.408.689-1.05 0-1.683-.348-.632-.355-.973-.802a11 11 0 0 1-.526-.753h-.142v5.767zm1.648-9.546q0 1.236.362 2.181.362.938 1.058 1.47.697.525 1.705.526 1.052 0 1.754-.554.71-.561 1.066-1.506.362-.952.362-2.117 0-1.15-.355-2.073-.348-.931-1.058-1.471-.704-.546-1.769-.546-1.023 0-1.719.518-.696.511-1.051 1.435-.355.916-.355 2.137m10.54 5.455v-10.909h1.676V229.5zm.852-12.727q-.49 0-.845-.334a1.07 1.07 0 0 1-.348-.803q0-.469.348-.802a1.2 1.2 0 0 1 .845-.334q.49 0 .838.334.355.334.355.802t-.355.803a1.17 1.17 0 0 1-.838.334m8.326 12.954q-1.535 0-2.642-.724-1.108-.724-1.705-1.996-.596-1.271-.596-2.905 0-1.662.61-2.933.618-1.278 1.719-1.996 1.108-.724 2.585-.724 1.151 0 2.074.426a4 4 0 0 1 1.513 1.193q.59.768.731 1.79h-1.676q-.191-.746-.852-1.321-.654-.582-1.761-.582-.981 0-1.719.511-.732.504-1.143 1.427-.405.917-.405 2.152 0 1.265.397 2.202.405.937 1.137 1.456.738.519 1.733.519.653 0 1.186-.228a2.44 2.44 0 0 0 .902-.653q.369-.426.525-1.023h1.676a3.87 3.87 0 0 1-2.173 2.962q-.909.447-2.116.447m6.74-.227v-10.909h1.676V229.5zm.852-12.727q-.49 0-.845-.334a1.07 1.07 0 0 1-.348-.803q0-.469.348-.802a1.2 1.2 0 0 1 .845-.334q.49 0 .838.334.355.334.355.802t-.355.803a1.17 1.17 0 0 1-.838.334m8.326 12.954q-1.477 0-2.593-.703-1.107-.703-1.733-1.967-.618-1.264-.617-2.955 0-1.704.617-2.976.626-1.27 1.733-1.974 1.116-.703 2.593-.703t2.585.703q1.115.704 1.733 1.974.625 1.272.625 2.976 0 1.69-.625 2.955-.618 1.264-1.733 1.967-1.108.703-2.585.703m0-1.505q1.122 0 1.846-.576a3.4 3.4 0 0 0 1.073-1.512 5.8 5.8 0 0 0 .348-2.032 5.9 5.9 0 0 0-.348-2.038 3.43 3.43 0 0 0-1.073-1.527q-.724-.582-1.846-.582t-1.847.582q-.724.582-1.072 1.527a5.9 5.9 0 0 0-.348 2.038q0 1.094.348 2.032t1.072 1.512q.725.576 1.847.576m14.376-3.182v-6.449h1.677V229.5h-1.677v-1.847h-.113a3.6 3.6 0 0 1-1.193 1.414q-.81.575-2.046.575-1.023 0-1.818-.447-.795-.455-1.25-1.364-.455-.916-.455-2.308v-6.932h1.677v6.818q0 1.194.667 1.903.675.711 1.719.711.625 0 1.271-.32.654-.32 1.094-.98.447-.66.447-1.683m12.474-4.006-1.506.426a2.8 2.8 0 0 0-.419-.731 2 2 0 0 0-.739-.597q-.468-.234-1.2-.234-1.001 0-1.669.461-.66.454-.66 1.158 0 .625.454.987.455.363 1.421.604l1.619.398q1.463.355 2.18 1.086.718.725.718 1.868 0 .938-.54 1.676-.532.74-1.492 1.165-.958.426-2.23.426-1.668 0-2.762-.724-1.095-.725-1.385-2.117l1.591-.397q.226.88.859 1.321.639.44 1.669.44 1.171 0 1.861-.497.696-.504.696-1.208 0-.568-.398-.951-.397-.391-1.222-.583l-1.818-.426q-1.499-.355-2.201-1.101-.696-.753-.696-1.882 0-.923.518-1.633.525-.71 1.428-1.115.909-.405 2.059-.405 1.62 0 2.543.71a3.84 3.84 0 0 1 1.321 1.875m3.943 8.58q-.525 0-.902-.377a1.23 1.23 0 0 1-.376-.902q0-.525.376-.902a1.23 1.23 0 0 1 .902-.376q.526 0 .902.376.377.377.377.902 0 .348-.178.639a1.3 1.3 0 0 1-.461.469q-.285.171-.64.171m0-8.097a1.23 1.23 0 0 1-.902-.376 1.23 1.23 0 0 1-.376-.902q0-.526.376-.902.377-.377.902-.377.526 0 .902.377.377.376.377.902 0 .348-.178.639-.17.29-.461.469-.285.17-.64.17m160.765 8.182q-1.335 0-2.4-.511a4.4 4.4 0 0 1-1.691-1.421 3.75 3.75 0 0 1-.674-2.06h2.13q.078.938.831 1.542.753.603 1.804.603.839 0 1.485-.383a2.76 2.76 0 0 0 1.022-1.073q.377-.682.377-1.555 0-.888-.384-1.584a2.83 2.83 0 0 0-1.058-1.094q-.667-.398-1.534-.404-.66 0-1.328.227t-1.08.596l-2.01-.298.817-7.329h7.997v1.882h-6.172l-.461 4.069h.085q.426-.411 1.129-.689.71-.276 1.52-.277 1.329 0 2.365.632a4.5 4.5 0 0 1 1.641 1.726q.603 1.087.596 2.5.007 1.414-.639 2.522a4.63 4.63 0 0 1-1.775 1.747q-1.13.632-2.593.632m12.665.042q-1.683-.006-2.876-.887-1.193-.88-1.825-2.564-.632-1.683-.632-4.056 0-2.364.632-4.041.64-1.676 1.832-2.557 1.2-.88 2.869-.88t2.863.887q1.193.882 1.825 2.557.639 1.67.639 4.034 0 2.38-.632 4.063-.632 1.676-1.825 2.564-1.193.88-2.87.88m0-1.896q1.478 0 2.309-1.442.838-1.441.838-4.169 0-1.81-.384-3.061-.376-1.257-1.086-1.903a2.38 2.38 0 0 0-1.677-.654q-1.47 0-2.308 1.449t-.845 4.169q0 1.819.376 3.076.384 1.25 1.087 1.896.703.639 1.69.639m12.911 1.896q-1.684-.006-2.877-.887-1.193-.88-1.825-2.564-.633-1.683-.632-4.056 0-2.364.632-4.041.64-1.676 1.832-2.557 1.2-.88 2.87-.88 1.668 0 2.862.887 1.193.882 1.825 2.557.639 1.67.639 4.034 0 2.38-.632 4.063-.632 1.676-1.825 2.564-1.194.88-2.869.88m0-1.896q1.476 0 2.308-1.442.838-1.441.838-4.169 0-1.81-.384-3.061-.376-1.257-1.086-1.903a2.38 2.38 0 0 0-1.676-.654q-1.471 0-2.309 1.449-.837 1.45-.845 4.169 0 1.819.377 3.076.383 1.25 1.086 1.896.703.639 1.691.639"/><rect width="58" height="25" x="410" y="210" fill="#fffad1" rx="12.5"/><path fill="#ffe100" d="M429.315 225.912v-1.014l4.475-7.08h.736v1.571h-.498l-3.38 5.35v.079h6.025v1.094zm4.793 2.088v-10.182h1.173V228zm9.619-1.909v-.537q0-.557.228-1.019.234-.468.677-.746.447-.283 1.083-.283.647 0 1.084.283.438.279.661.746.224.462.224 1.019v.537q0 .557-.229 1.024a1.8 1.8 0 0 1-.666.746q-.436.278-1.074.278-.645 0-1.088-.278a1.85 1.85 0 0 1-.672-.746 2.3 2.3 0 0 1-.228-1.024m1.014-.537v.537q0 .462.219.83.219.363.755.363.522 0 .736-.363a1.6 1.6 0 0 0 .219-.83v-.537q0-.462-.209-.825-.209-.368-.746-.368-.522 0-.75.368a1.54 1.54 0 0 0-.224.825m-6.085-5.29v-.537q0-.557.228-1.019.234-.467.677-.746.447-.283 1.083-.283.646 0 1.084.283.438.28.661.746.224.462.224 1.019v.537q0 .557-.229 1.024a1.8 1.8 0 0 1-.666.746q-.437.278-1.074.278-.646 0-1.088-.278a1.84 1.84 0 0 1-.672-.746 2.3 2.3 0 0 1-.228-1.024m1.014-.537v.537q0 .462.219.83.218.363.755.363.523 0 .736-.363a1.6 1.6 0 0 0 .219-.83v-.537q0-.462-.209-.825-.209-.368-.746-.368-.522 0-.75.368-.225.363-.224.825m-.636 8.273 7-10.182h1.133l-7 10.182z"/><circle cx="78" cy="267.5" r="7" fill="#dd0b0b"/><path fill="#000" d="M109.716 263.591a2.23 2.23 0 0 0-1.037-1.676q-.909-.597-2.23-.597-.967 0-1.69.313-.718.312-1.123.859a2.06 2.06 0 0 0-.397 1.243q0 .582.277 1.001.283.413.724.689.44.27.923.448.483.17.888.277l1.477.397q.569.15 1.265.412.703.264 1.342.718a3.65 3.65 0 0 1 1.065 1.15q.42.703.419 1.726a3.83 3.83 0 0 1-.618 2.131q-.61.952-1.789 1.513-1.173.561-2.848.561-1.563 0-2.706-.505-1.136-.504-1.79-1.406-.647-.902-.732-2.095h1.819q.07.824.554 1.364.49.532 1.235.795a5 5 0 0 0 1.62.256q1.008 0 1.811-.327.803-.333 1.271-.923.47-.597.469-1.392 0-.724-.405-1.179-.405-.454-1.065-.739a11 11 0 0 0-1.428-.497l-1.79-.511q-1.704-.49-2.699-1.4-.993-.909-.994-2.379 0-1.221.661-2.13.667-.917 1.789-1.421 1.13-.511 2.522-.511 1.406 0 2.5.504 1.094.497 1.733 1.364.647.866.681 1.967zm4.572 15v-15h1.619v1.733h.199q.185-.284.512-.725.333-.447.951-.795.625-.355 1.691-.355 1.377 0 2.429.689 1.05.689 1.64 1.953t.59 2.983q0 1.733-.59 3.004-.59 1.264-1.633 1.96-1.044.69-2.408.689-1.051 0-1.683-.348-.633-.355-.973-.802a11 11 0 0 1-.526-.753h-.142v5.767zm1.648-9.546q0 1.236.362 2.181.362.938 1.058 1.47.696.526 1.705.526 1.05 0 1.754-.554.71-.561 1.065-1.506.363-.952.363-2.117 0-1.15-.356-2.073-.347-.931-1.058-1.471-.703-.546-1.768-.546-1.023 0-1.719.518-.696.511-1.051 1.435-.355.915-.355 2.137m13.75 5.711a4.4 4.4 0 0 1-1.882-.391 3.23 3.23 0 0 1-1.343-1.143q-.497-.753-.497-1.819 0-.937.369-1.519a2.6 2.6 0 0 1 .988-.924 5.2 5.2 0 0 1 1.363-.497 16 16 0 0 1 1.513-.27q.994-.127 1.612-.192.626-.07.909-.234.292-.163.292-.568v-.057q0-1.051-.576-1.633-.567-.583-1.726-.583-1.2 0-1.882.526-.681.525-.958 1.122l-1.591-.568q.426-.994 1.136-1.549a4.3 4.3 0 0 1 1.562-.781 6.5 6.5 0 0 1 1.677-.227q.525 0 1.207.128.689.12 1.328.504.646.384 1.073 1.158t.426 2.073v7.188h-1.676v-1.477h-.086q-.17.355-.568.76-.398.404-1.058.689t-1.612.284m.255-1.506q.994 0 1.677-.391.688-.39 1.036-1.008.356-.618.356-1.3v-1.534q-.107.127-.469.234a8 8 0 0 1-.824.178q-.462.07-.902.128-.433.05-.703.085a6.4 6.4 0 0 0-1.222.277q-.561.184-.909.561-.34.369-.341 1.009 0 .873.647 1.321.653.44 1.654.44m7.804 1.25v-10.909h1.619v1.704h.142a2.75 2.75 0 0 1 1.101-1.356q.76-.49 1.826-.49 1.079 0 1.796.49.725.483 1.13 1.356h.113q.42-.844 1.257-1.342.839-.504 2.01-.504 1.464 0 2.394.916.93.91.93 2.834v7.301h-1.676v-7.301q0-1.207-.66-1.726-.661-.518-1.556-.518-1.15 0-1.783.696-.632.688-.632 1.747v7.102h-1.704v-7.472q0-.93-.604-1.498-.603-.575-1.555-.575-.654 0-1.222.348a2.63 2.63 0 0 0-.909.965q-.34.612-.341 1.414v6.818zm22.44-12.983v-1.562h10.909v1.562h-4.574V274.5h-1.761v-12.983zm12.267 12.983v-10.909h1.619v1.648h.114q.298-.81 1.08-1.314a3.2 3.2 0 0 1 1.761-.505q.184 0 .462.008.276.006.419.021v1.704a5 5 0 0 0-.391-.064 4 4 0 0 0-.632-.049q-.795 0-1.421.334a2.5 2.5 0 0 0-.98.909 2.45 2.45 0 0 0-.355 1.314v6.903zm10.652.256a4.4 4.4 0 0 1-1.882-.391 3.23 3.23 0 0 1-1.343-1.143q-.497-.753-.497-1.819 0-.937.369-1.519a2.6 2.6 0 0 1 .988-.924 5.2 5.2 0 0 1 1.363-.497 16 16 0 0 1 1.513-.27q.994-.127 1.612-.192.626-.07.909-.234.292-.163.292-.568v-.057q0-1.051-.576-1.633-.568-.583-1.726-.583-1.2 0-1.882.526-.681.525-.958 1.122l-1.591-.568q.425-.994 1.136-1.549a4.3 4.3 0 0 1 1.562-.781 6.5 6.5 0 0 1 1.677-.227q.525 0 1.207.128.689.12 1.328.504.646.384 1.073 1.158t.426 2.073v7.188h-1.676v-1.477h-.086q-.17.355-.568.76-.398.404-1.058.689t-1.612.284m.255-1.506q.994 0 1.677-.391.688-.39 1.036-1.008.356-.618.356-1.3v-1.534q-.107.127-.469.234a8 8 0 0 1-.824.178q-.462.07-.902.128-.433.05-.703.085a6.4 6.4 0 0 0-1.222.277q-.561.184-.909.561-.34.369-.341 1.009 0 .873.647 1.321.653.44 1.654.44m7.804 5.341v-15h1.619v1.733h.199q.185-.284.512-.725.333-.447.951-.795.625-.355 1.691-.355 1.377 0 2.429.689 1.05.689 1.64 1.953t.59 2.983q0 1.733-.59 3.004-.59 1.264-1.633 1.96-1.044.69-2.408.689-1.052 0-1.683-.348-.633-.355-.973-.802a11 11 0 0 1-.526-.753h-.142v5.767zm1.648-9.546q0 1.236.362 2.181.362.938 1.058 1.47.696.526 1.705.526 1.05 0 1.754-.554.71-.561 1.065-1.506.363-.952.363-2.117 0-1.15-.356-2.073-.347-.931-1.058-1.471-.703-.546-1.768-.546-1.023 0-1.719.518-.696.511-1.051 1.435-.355.915-.355 2.137m18.267-3.011-1.506.426a2.8 2.8 0 0 0-.419-.731 2 2 0 0 0-.739-.597q-.468-.234-1.2-.234-1.001 0-1.669.461-.66.454-.66 1.158 0 .625.454.987.455.363 1.421.604l1.619.398q1.463.355 2.18 1.086.718.725.718 1.868 0 .938-.54 1.676-.532.74-1.492 1.165-.958.426-2.23.426-1.668 0-2.763-.724-1.093-.725-1.384-2.117l1.59-.397q.227.88.86 1.321.639.44 1.669.44 1.171 0 1.861-.497.696-.504.696-1.208 0-.568-.398-.951-.397-.391-1.222-.583l-1.818-.426q-1.499-.355-2.202-1.101-.696-.753-.696-1.882 0-.923.519-1.633.525-.71 1.427-1.115.91-.405 2.06-.405 1.62 0 2.543.71a3.84 3.84 0 0 1 1.321 1.875m3.943 8.58q-.525 0-.902-.377a1.23 1.23 0 0 1-.376-.902q0-.525.376-.902a1.23 1.23 0 0 1 .902-.376q.526 0 .902.376.377.377.377.902 0 .348-.178.639a1.3 1.3 0 0 1-.461.469q-.285.171-.64.171m0-8.097a1.23 1.23 0 0 1-.902-.376 1.23 1.23 0 0 1-.376-.902q0-.526.376-.902.377-.377.902-.377.526 0 .902.377.377.376.377.902 0 .348-.178.639-.17.29-.461.469-.285.17-.64.17m128.378 7.983v-1.591l4.922-5.099q.789-.832 1.3-1.456.518-.633.774-1.201.255-.567.256-1.207 0-.725-.341-1.25a2.24 2.24 0 0 0-.931-.817 2.96 2.96 0 0 0-1.328-.291q-.781 0-1.363.32a2.2 2.2 0 0 0-.895.902q-.313.582-.313 1.363h-2.095q0-1.327.611-2.322a4.14 4.14 0 0 1 1.676-1.541q1.065-.555 2.422-.554 1.371 0 2.415.547 1.05.539 1.64 1.477.59.93.59 2.102 0 .81-.306 1.584-.298.774-1.044 1.726-.745.944-2.074 2.294l-2.89 3.025v.107h6.548v1.882zm15.057-1.989-.107.775q-.106.852-.362 1.775-.248.93-.518 1.726-.263.795-.433 1.264h-1.506q.092-.44.256-1.193a37 37 0 0 0 .319-1.669q.156-.924.234-1.882l.072-.796zm2.97 1.989v-1.591l4.922-5.099q.789-.832 1.3-1.456.519-.633.774-1.201.256-.567.256-1.207 0-.725-.341-1.25a2.23 2.23 0 0 0-.93-.817 2.96 2.96 0 0 0-1.329-.291q-.78 0-1.363.32a2.2 2.2 0 0 0-.895.902q-.313.582-.313 1.363h-2.095q0-1.327.611-2.322a4.14 4.14 0 0 1 1.676-1.541q1.065-.555 2.422-.554 1.371 0 2.415.547a4.1 4.1 0 0 1 1.64 1.477q.59.93.59 2.102 0 .81-.305 1.584-.298.774-1.044 1.726-.747.944-2.074 2.294l-2.891 3.025v.107H371v1.882zm17.067.199q-1.335 0-2.4-.511a4.4 4.4 0 0 1-1.691-1.421 3.75 3.75 0 0 1-.674-2.06h2.13q.078.938.831 1.542.753.603 1.804.603.838 0 1.485-.383a2.76 2.76 0 0 0 1.022-1.073q.377-.681.377-1.555 0-.888-.384-1.584a2.83 2.83 0 0 0-1.058-1.094q-.667-.398-1.534-.404-.66 0-1.328.227t-1.08.596l-2.01-.298.817-7.329h7.997v1.882h-6.172l-.461 4.069h.085q.426-.411 1.129-.689.71-.277 1.52-.277 1.328 0 2.365.632a4.5 4.5 0 0 1 1.641 1.726q.603 1.087.596 2.5.007 1.414-.639 2.522a4.63 4.63 0 0 1-1.775 1.747q-1.13.632-2.593.632m12.665.042q-1.683-.006-2.876-.887-1.193-.88-1.825-2.564-.633-1.683-.632-4.056 0-2.364.632-4.041.64-1.676 1.832-2.557 1.2-.88 2.869-.88t2.863.887q1.192.882 1.825 2.557.639 1.67.639 4.034 0 2.38-.632 4.063-.632 1.676-1.825 2.564-1.193.88-2.87.88m0-1.896q1.478 0 2.309-1.442.837-1.441.838-4.169 0-1.81-.384-3.061-.377-1.257-1.086-1.903a2.38 2.38 0 0 0-1.677-.654q-1.47 0-2.308 1.449t-.845 4.169q0 1.819.376 3.076.384 1.25 1.087 1.896.703.639 1.69.639"/><rect width="58" height="25" x="410" y="255" fill="#ffc7c7" rx="12.5"/><path fill="#dd0b0b" d="M430.054 273v-.895l3.361-3.679q.591-.646.974-1.123.382-.483.567-.905.189-.428.189-.895 0-.537-.259-.93a1.67 1.67 0 0 0-.696-.606 2.25 2.25 0 0 0-.994-.214q-.586 0-1.024.243-.432.24-.671.672a2.1 2.1 0 0 0-.234 1.014h-1.173q0-.895.412-1.571.413-.676 1.124-1.054a3.4 3.4 0 0 1 1.606-.378q.894 0 1.586.378.69.378 1.084 1.019.392.642.392 1.427 0 .562-.204 1.099-.198.531-.696 1.188-.491.65-1.367 1.591l-2.287 2.446v.079h4.733V273zm13.667-1.909v-.537q0-.557.229-1.019.233-.468.676-.746.447-.283 1.084-.283.646 0 1.083.283.438.279.662.746.223.462.223 1.019v.537q0 .557-.228 1.024-.225.462-.667.746-.437.278-1.073.278-.647 0-1.089-.278a1.84 1.84 0 0 1-.671-.746 2.3 2.3 0 0 1-.229-1.024m1.014-.537v.537q0 .462.219.83.219.363.756.363.522 0 .735-.363a1.6 1.6 0 0 0 .219-.83v-.537q0-.462-.209-.825-.209-.368-.745-.368-.523 0-.751.368a1.54 1.54 0 0 0-.224.825m-6.085-5.29v-.537q0-.557.229-1.019.233-.467.676-.746.447-.283 1.083-.283.647 0 1.084.283.438.28.662.746.223.462.223 1.019v.537q0 .557-.228 1.024a1.8 1.8 0 0 1-.667.746q-.437.279-1.074.278-.645 0-1.088-.278a1.83 1.83 0 0 1-.671-.746 2.3 2.3 0 0 1-.229-1.024m1.014-.537v.537q0 .462.219.83.22.363.755.363.523 0 .736-.363a1.6 1.6 0 0 0 .219-.83v-.537q0-.462-.209-.825-.209-.368-.746-.368-.522 0-.75.368a1.54 1.54 0 0 0-.224.825m-.636 8.273 7-10.182h1.133l-7 10.182z"/></g><defs><filter id="a" width="533" height="335" x="0" y="0" color-interpolation-filters="sRGB" filterUnits="userSpaceOnUse"><feFlood flood-opacity="0" result="BackgroundImageFix"/><feColorMatrix in="SourceAlpha" result="hardAlpha" values="0 0 0 0 0 0 0 0 0 0 0 0 0 0 0 0 0 0 127 0"/><feOffset dx="-4" dy="4"/><feGaussianBlur stdDeviation="7.5"/><feComposite in2="hardAlpha" operator="out"/><feColorMatrix values="0 0 0 0 0 0 0 0 0 0 0 0 0 0 0 0 0 0 0.15 0"/><feBlend in2="BackgroundImageFix" result="effect1_dropShadow_303_1785"/><feBlend in="SourceGraphic" in2="effect1_dropShadow_303_1785" result="shape"/></filter></defs></svg>