<svg width="533" height="291" viewBox="0 0 533 291" fill="none" xmlns="http://www.w3.org/2000/svg">
<g filter="url(#filter0_d_303_1865)">
<rect x="19" y="11" width="503" height="261" rx="10" fill="#E6FFFA" shape-rendering="crispEdges"/>
<rect x="40" y="26" width="461" height="231" rx="10" fill="white"/>
<path d="M88.7827 59.7401H85.902C85.7912 59.1245 85.585 58.5829 85.2834 58.1151C84.9818 57.6473 84.6125 57.2502 84.1754 56.924C83.7384 56.5978 83.2491 56.3516 82.7074 56.1854C82.1719 56.0192 81.6025 55.9361 80.9993 55.9361C79.9098 55.9361 78.9342 56.21 78.0724 56.7578C77.2169 57.3056 76.5398 58.1089 76.0412 59.1676C75.5488 60.2263 75.3026 61.5189 75.3026 63.0455C75.3026 64.5843 75.5488 65.883 76.0412 66.9418C76.5398 68.0005 77.2199 68.8007 78.0817 69.3423C78.9434 69.884 79.9129 70.1548 80.9901 70.1548C81.5871 70.1548 82.1534 70.0748 82.6889 69.9148C83.2306 69.7486 83.7199 69.5054 84.157 69.1854C84.594 68.8653 84.9633 68.4744 85.2649 68.0128C85.5727 67.545 85.785 67.0095 85.902 66.4062L88.7827 66.4155C88.6288 67.3449 88.3303 68.2005 87.8871 68.9822C87.45 69.7578 86.8868 70.4287 86.1974 70.995C85.5142 71.5552 84.7325 71.9891 83.8523 72.2969C82.9721 72.6046 82.0118 72.7585 80.9716 72.7585C79.3343 72.7585 77.8755 72.3707 76.5952 71.5952C75.3149 70.8134 74.3054 69.6963 73.5668 68.2436C72.8343 66.791 72.468 65.0582 72.468 63.0455C72.468 61.0265 72.8374 59.2938 73.576 57.8473C74.3146 56.3946 75.3241 55.2805 76.6044 54.505C77.8847 53.7232 79.3404 53.3324 80.9716 53.3324C81.9749 53.3324 82.9105 53.477 83.7784 53.7663C84.6525 54.0495 85.4373 54.468 86.1328 55.022C86.8284 55.5698 87.4039 56.2408 87.8594 57.0348C88.3149 57.8227 88.6226 58.7244 88.7827 59.7401ZM96.1021 72.8139C95.2034 72.8139 94.3909 72.6477 93.6646 72.3153C92.9383 71.9768 92.3627 71.4875 91.938 70.8473C91.5195 70.2071 91.3102 69.4223 91.3102 68.4929C91.3102 67.6927 91.4641 67.0341 91.7718 66.517C92.0796 66 92.4951 65.5907 93.0183 65.2891C93.5415 64.9875 94.1262 64.7597 94.7725 64.6058C95.4189 64.4519 96.0775 64.335 96.7484 64.255C97.5978 64.1565 98.2872 64.0765 98.8166 64.0149C99.3459 63.9472 99.7306 63.8395 99.9707 63.6918C100.211 63.544 100.331 63.304 100.331 62.9716V62.907C100.331 62.1006 100.103 61.4759 99.6475 61.0327C99.1982 60.5895 98.5273 60.3679 97.6348 60.3679C96.7053 60.3679 95.9728 60.5741 95.4373 60.9865C94.908 61.3928 94.5417 61.8452 94.3386 62.3438L91.7441 61.7528C92.0519 60.8911 92.5012 60.1955 93.0922 59.6662C93.6892 59.1307 94.3755 58.7429 95.1511 58.5028C95.9267 58.2566 96.7422 58.1335 97.5978 58.1335C98.1641 58.1335 98.7643 58.2012 99.3983 58.3366C100.038 58.4659 100.635 58.706 101.189 59.0568C101.75 59.4077 102.208 59.9093 102.565 60.5618C102.922 61.2081 103.101 62.0483 103.101 63.0824V72.5H100.405V70.5611H100.294C100.115 70.9181 99.8476 71.2689 99.4906 71.6136C99.1336 71.9583 98.675 72.2446 98.1149 72.4723C97.5547 72.7 96.8838 72.8139 96.1021 72.8139ZM96.7022 70.598C97.4655 70.598 98.118 70.4472 98.6596 70.1456C99.2074 69.844 99.6229 69.45 99.9061 68.9638C100.195 68.4714 100.34 67.9451 100.34 67.3849V65.5568C100.242 65.6553 100.051 65.7476 99.7676 65.8338C99.4906 65.9138 99.1736 65.9846 98.8166 66.0462C98.4596 66.1016 98.1118 66.1539 97.7733 66.2031C97.4347 66.2462 97.1516 66.2831 96.9238 66.3139C96.3883 66.3816 95.899 66.4955 95.4558 66.6555C95.0188 66.8156 94.6679 67.0464 94.4032 67.348C94.1447 67.6435 94.0154 68.0374 94.0154 68.5298C94.0154 69.2131 94.2678 69.7301 94.7725 70.081C95.2773 70.4257 95.9205 70.598 96.7022 70.598ZM113.398 58.3182V60.5341H105.651V58.3182H113.398ZM107.729 54.9205H110.489V68.3359C110.489 68.8714 110.569 69.2746 110.729 69.5455C110.889 69.8101 111.096 69.9917 111.348 70.0902C111.607 70.1825 111.887 70.2287 112.188 70.2287C112.41 70.2287 112.604 70.2133 112.77 70.1825C112.936 70.1518 113.065 70.1271 113.158 70.1087L113.656 72.3892C113.496 72.4508 113.268 72.5123 112.973 72.5739C112.678 72.6416 112.308 72.6785 111.865 72.6847C111.139 72.697 110.462 72.5677 109.834 72.2969C109.206 72.026 108.698 71.6075 108.31 71.0412C107.923 70.4749 107.729 69.764 107.729 68.9084V54.9205ZM122.273 72.7862C120.9 72.7862 119.718 72.4754 118.727 71.8537C117.743 71.2259 116.985 70.361 116.456 69.2592C115.927 68.1574 115.662 66.8956 115.662 65.4737C115.662 64.0334 115.933 62.7623 116.475 61.6605C117.016 60.5526 117.78 59.6877 118.764 59.0661C119.749 58.4444 120.91 58.1335 122.245 58.1335C123.322 58.1335 124.283 58.3336 125.126 58.7337C125.969 59.1276 126.649 59.6816 127.166 60.3956C127.69 61.1096 128 61.9437 128.099 62.8977H125.412C125.264 62.233 124.926 61.6605 124.396 61.1804C123.873 60.7003 123.172 60.4602 122.291 60.4602C121.522 60.4602 120.848 60.6634 120.269 61.0696C119.697 61.4697 119.251 62.0421 118.931 62.7869C118.61 63.5256 118.45 64.3996 118.45 65.4091C118.45 66.4432 118.607 67.3357 118.921 68.0866C119.235 68.8376 119.678 69.4193 120.251 69.8317C120.829 70.2441 121.51 70.4503 122.291 70.4503C122.815 70.4503 123.289 70.3549 123.713 70.1641C124.144 69.9671 124.504 69.687 124.794 69.3239C125.089 68.9607 125.295 68.5237 125.412 68.0128H128.099C128 68.9299 127.702 69.7486 127.203 70.4688C126.705 71.1889 126.037 71.7552 125.2 72.1676C124.369 72.58 123.393 72.7862 122.273 72.7862ZM133.812 64.0795V72.5H131.051V53.5909H133.775V60.6264H133.95C134.283 59.8632 134.79 59.2569 135.474 58.8075C136.157 58.3582 137.049 58.1335 138.151 58.1335C139.124 58.1335 139.973 58.3336 140.7 58.7337C141.432 59.1338 141.998 59.7308 142.398 60.5249C142.805 61.3127 143.008 62.2976 143.008 63.4794V72.5H140.247V63.8118C140.247 62.7715 139.979 61.9652 139.444 61.3928C138.908 60.8142 138.164 60.5249 137.21 60.5249C136.557 60.5249 135.972 60.6634 135.455 60.9403C134.944 61.2173 134.541 61.6236 134.246 62.1591C133.956 62.6884 133.812 63.3286 133.812 64.0795ZM155.048 63.3132V65.7045H146.664V63.3132H155.048ZM160.546 72.5H157.517L164.322 53.5909H167.618L174.423 72.5H171.395L166.049 57.0256H165.901L160.546 72.5ZM161.054 65.0952H170.877V67.4957H161.054V65.0952ZM179.693 53.5909V72.5H176.932V53.5909H179.693ZM186.167 53.5909V72.5H183.407V53.5909H186.167ZM203.105 72.5H196.984V53.5909H203.299C205.152 53.5909 206.743 53.9695 208.072 54.7266C209.402 55.4775 210.421 56.5578 211.129 57.9673C211.843 59.3707 212.2 61.0542 212.2 63.0178C212.2 64.9875 211.839 66.6802 211.119 68.0959C210.405 69.5116 209.371 70.6011 208.017 71.3643C206.663 72.1214 205.026 72.5 203.105 72.5ZM199.837 70.0071H202.948C204.388 70.0071 205.586 69.7363 206.54 69.1946C207.494 68.6468 208.208 67.8558 208.682 66.8217C209.156 65.7815 209.393 64.5135 209.393 63.0178C209.393 61.5343 209.156 60.2756 208.682 59.2415C208.214 58.2074 207.515 57.4226 206.586 56.8871C205.656 56.3516 204.502 56.0838 203.124 56.0838H199.837V70.0071ZM221.638 72.7862C220.241 72.7862 219.037 72.4877 218.028 71.8906C217.025 71.2874 216.249 70.4411 215.701 69.3516C215.16 68.2559 214.889 66.9725 214.889 65.5014C214.889 64.0488 215.16 62.7685 215.701 61.6605C216.249 60.5526 217.012 59.6877 217.991 59.0661C218.976 58.4444 220.127 58.1335 221.444 58.1335C222.244 58.1335 223.02 58.2659 223.771 58.5305C224.522 58.7952 225.196 59.2107 225.793 59.777C226.39 60.3433 226.861 61.0788 227.205 61.9837C227.55 62.8823 227.722 63.9749 227.722 65.2614V66.2401H216.449V64.1719H225.017C225.017 63.4455 224.869 62.8023 224.574 62.2422C224.279 61.6759 223.863 61.2296 223.328 60.9034C222.798 60.5772 222.177 60.4141 221.463 60.4141C220.687 60.4141 220.01 60.6049 219.431 60.9865C218.859 61.362 218.416 61.8544 218.102 62.4638C217.794 63.067 217.64 63.7225 217.64 64.4304V66.0462C217.64 66.9941 217.806 67.8004 218.139 68.4652C218.477 69.13 218.948 69.6378 219.551 69.9886C220.155 70.3333 220.859 70.5057 221.666 70.5057C222.189 70.5057 222.666 70.4318 223.097 70.2841C223.528 70.1302 223.9 69.9025 224.214 69.6009C224.528 69.2992 224.768 68.9268 224.934 68.4837L227.547 68.9545C227.338 69.724 226.962 70.398 226.421 70.9766C225.885 71.549 225.211 71.9953 224.399 72.3153C223.592 72.6293 222.672 72.7862 221.638 72.7862ZM237.406 58.3182V60.5341H229.659V58.3182H237.406ZM231.737 54.9205H234.497V68.3359C234.497 68.8714 234.577 69.2746 234.737 69.5455C234.897 69.8101 235.103 69.9917 235.356 70.0902C235.614 70.1825 235.894 70.2287 236.196 70.2287C236.418 70.2287 236.612 70.2133 236.778 70.1825C236.944 70.1518 237.073 70.1271 237.165 70.1087L237.664 72.3892C237.504 72.4508 237.276 72.5123 236.981 72.5739C236.685 72.6416 236.316 72.6785 235.873 72.6847C235.147 72.697 234.469 72.5677 233.842 72.2969C233.214 72.026 232.706 71.6075 232.318 71.0412C231.93 70.4749 231.737 69.764 231.737 68.9084V54.9205ZM246.419 72.7862C245.022 72.7862 243.819 72.4877 242.809 71.8906C241.806 71.2874 241.03 70.4411 240.482 69.3516C239.941 68.2559 239.67 66.9725 239.67 65.5014C239.67 64.0488 239.941 62.7685 240.482 61.6605C241.03 60.5526 241.794 59.6877 242.772 59.0661C243.757 58.4444 244.908 58.1335 246.225 58.1335C247.026 58.1335 247.801 58.2659 248.552 58.5305C249.303 58.7952 249.977 59.2107 250.574 59.777C251.171 60.3433 251.642 61.0788 251.987 61.9837C252.331 62.8823 252.504 63.9749 252.504 65.2614V66.2401H241.23V64.1719H249.798C249.798 63.4455 249.651 62.8023 249.355 62.2422C249.06 61.6759 248.644 61.2296 248.109 60.9034C247.579 60.5772 246.958 60.4141 246.244 60.4141C245.468 60.4141 244.791 60.6049 244.213 60.9865C243.64 61.362 243.197 61.8544 242.883 62.4638C242.575 63.067 242.421 63.7225 242.421 64.4304V66.0462C242.421 66.9941 242.588 67.8004 242.92 68.4652C243.258 69.13 243.729 69.6378 244.333 69.9886C244.936 70.3333 245.641 70.5057 246.447 70.5057C246.97 70.5057 247.447 70.4318 247.878 70.2841C248.309 70.1302 248.681 69.9025 248.995 69.6009C249.309 69.2992 249.549 68.9268 249.715 68.4837L252.328 68.9545C252.119 69.724 251.744 70.398 251.202 70.9766C250.666 71.549 249.992 71.9953 249.18 72.3153C248.374 72.6293 247.453 72.7862 246.419 72.7862ZM261.54 72.7862C260.168 72.7862 258.986 72.4754 257.995 71.8537C257.01 71.2259 256.253 70.361 255.724 69.2592C255.194 68.1574 254.93 66.8956 254.93 65.4737C254.93 64.0334 255.201 62.7623 255.742 61.6605C256.284 60.5526 257.047 59.6877 258.032 59.0661C259.017 58.4444 260.177 58.1335 261.513 58.1335C262.59 58.1335 263.55 58.3336 264.393 58.7337C265.237 59.1276 265.917 59.6816 266.434 60.3956C266.957 61.1096 267.268 61.9437 267.366 62.8977H264.68C264.532 62.233 264.193 61.6605 263.664 61.1804C263.141 60.7003 262.439 60.4602 261.559 60.4602C260.79 60.4602 260.116 60.6634 259.537 61.0696C258.964 61.4697 258.518 62.0421 258.198 62.7869C257.878 63.5256 257.718 64.3996 257.718 65.4091C257.718 66.4432 257.875 67.3357 258.189 68.0866C258.503 68.8376 258.946 69.4193 259.518 69.8317C260.097 70.2441 260.777 70.4503 261.559 70.4503C262.082 70.4503 262.556 70.3549 262.981 70.1641C263.412 69.9671 263.772 69.687 264.061 69.3239C264.357 68.9607 264.563 68.5237 264.68 68.0128H267.366C267.268 68.9299 266.969 69.7486 266.471 70.4688C265.972 71.1889 265.304 71.7552 264.467 72.1676C263.636 72.58 262.661 72.7862 261.54 72.7862ZM276.939 58.3182V60.5341H269.192V58.3182H276.939ZM271.27 54.9205H274.03V68.3359C274.03 68.8714 274.11 69.2746 274.27 69.5455C274.43 69.8101 274.637 69.9917 274.889 70.0902C275.148 70.1825 275.428 70.2287 275.729 70.2287C275.951 70.2287 276.145 70.2133 276.311 70.1825C276.477 70.1518 276.606 70.1271 276.699 70.1087L277.197 72.3892C277.037 72.4508 276.809 72.5123 276.514 72.5739C276.219 72.6416 275.849 72.6785 275.406 72.6847C274.68 72.697 274.003 72.5677 273.375 72.2969C272.747 72.026 272.239 71.6075 271.851 71.0412C271.464 70.4749 271.27 69.764 271.27 68.9084V54.9205ZM279.993 72.5V58.3182H282.753V72.5H279.993ZM281.387 56.13C280.907 56.13 280.494 55.9699 280.15 55.6499C279.811 55.3236 279.642 54.9358 279.642 54.4865C279.642 54.031 279.811 53.6432 280.15 53.3232C280.494 52.9969 280.907 52.8338 281.387 52.8338C281.867 52.8338 282.276 52.9969 282.615 53.3232C282.959 53.6432 283.132 54.031 283.132 54.4865C283.132 54.9358 282.959 55.3236 282.615 55.6499C282.276 55.9699 281.867 56.13 281.387 56.13ZM292.441 72.7862C291.111 72.7862 289.951 72.4815 288.96 71.8722C287.969 71.2628 287.2 70.4103 286.652 69.3146C286.104 68.219 285.83 66.9387 285.83 65.4737C285.83 64.0026 286.104 62.7161 286.652 61.6143C287.2 60.5125 287.969 59.657 288.96 59.0476C289.951 58.4382 291.111 58.1335 292.441 58.1335C293.77 58.1335 294.931 58.4382 295.922 59.0476C296.913 59.657 297.682 60.5125 298.23 61.6143C298.778 62.7161 299.052 64.0026 299.052 65.4737C299.052 66.9387 298.778 68.219 298.23 69.3146C297.682 70.4103 296.913 71.2628 295.922 71.8722C294.931 72.4815 293.77 72.7862 292.441 72.7862ZM292.45 70.4688C293.312 70.4688 294.026 70.241 294.592 69.7855C295.158 69.33 295.577 68.7237 295.848 67.9666C296.125 67.2095 296.263 66.3755 296.263 65.4645C296.263 64.5597 296.125 63.7287 295.848 62.9716C295.577 62.2083 295.158 61.5959 294.592 61.1342C294.026 60.6726 293.312 60.4418 292.45 60.4418C291.582 60.4418 290.862 60.6726 290.29 61.1342C289.723 61.5959 289.302 62.2083 289.025 62.9716C288.754 63.7287 288.618 64.5597 288.618 65.4645C288.618 66.3755 288.754 67.2095 289.025 67.9666C289.302 68.7237 289.723 69.33 290.29 69.7855C290.862 70.241 291.582 70.4688 292.45 70.4688ZM304.894 64.0795V72.5H302.133V58.3182H304.783V60.6264H304.958C305.285 59.8755 305.796 59.2723 306.491 58.8168C307.193 58.3613 308.076 58.1335 309.141 58.1335C310.107 58.1335 310.954 58.3366 311.68 58.7429C312.406 59.143 312.97 59.7401 313.37 60.5341C313.77 61.3281 313.97 62.3099 313.97 63.4794V72.5H311.209V63.8118C311.209 62.7839 310.941 61.9806 310.406 61.402C309.87 60.8172 309.135 60.5249 308.199 60.5249C307.559 60.5249 306.99 60.6634 306.491 60.9403C305.999 61.2173 305.608 61.6236 305.319 62.1591C305.035 62.6884 304.894 63.3286 304.894 64.0795Z" fill="black"/>
<g clip-path="url(#clip0_303_1865)">
<path d="M454.667 49.9333C451.95 49.9333 449.295 50.7388 447.037 52.2478C444.778 53.7569 443.018 55.9017 441.979 58.4112C440.939 60.9206 440.667 63.6819 441.197 66.3459C441.727 69.0099 443.035 71.457 444.956 73.3776C446.876 75.2983 449.323 76.6062 451.987 77.1361C454.651 77.666 457.413 77.3941 459.922 76.3546C462.432 75.3152 464.576 73.5549 466.086 71.2965C467.595 69.0381 468.4 66.3829 468.4 63.6667C468.4 61.8631 468.045 60.0772 467.355 58.411C466.665 56.7447 465.653 55.2307 464.378 53.9554C463.103 52.6801 461.589 51.6685 459.922 50.9784C458.256 50.2883 456.47 49.9332 454.667 49.9333ZM454 56.3334H455.333V65.6667H454V56.3334ZM454.667 70.3334C454.403 70.3334 454.145 70.2552 453.926 70.1086C453.707 69.9621 453.536 69.7539 453.435 69.5103C453.334 69.2666 453.308 68.9985 453.359 68.7399C453.41 68.4813 453.537 68.2437 453.724 68.0572C453.91 67.8707 454.148 67.7437 454.407 67.6923C454.665 67.6409 454.933 67.6673 455.177 67.7682C455.421 67.8691 455.629 68.04 455.775 68.2593C455.922 68.4785 456 68.7363 456 69C455.999 69.3534 455.859 69.6922 455.609 69.942C455.359 70.1919 455.02 70.3326 454.667 70.3334Z" fill="#FFD459"/>
</g>
<path d="M76.625 119.5H72.5852V106.409H76.804C78.0739 106.409 79.1605 106.671 80.0639 107.195C80.9673 107.715 81.6598 108.463 82.1413 109.439C82.6229 110.411 82.8636 111.574 82.8636 112.929C82.8636 114.293 82.6207 115.467 82.1349 116.451C81.6491 117.431 80.9418 118.185 80.0128 118.714C79.0838 119.238 77.9545 119.5 76.625 119.5ZM74.1705 118.094H76.5227C77.6051 118.094 78.5021 117.885 79.2138 117.467C79.9254 117.05 80.456 116.455 80.8054 115.684C81.1548 114.913 81.3295 113.994 81.3295 112.929C81.3295 111.872 81.157 110.962 80.8118 110.2C80.4666 109.433 79.951 108.844 79.2649 108.435C78.5788 108.022 77.7244 107.815 76.7017 107.815H74.1705V118.094ZM89.3068 119.705C88.4205 119.705 87.6428 119.494 86.9737 119.072C86.3089 118.65 85.7891 118.06 85.4141 117.301C85.0433 116.543 84.858 115.656 84.858 114.642C84.858 113.619 85.0433 112.727 85.4141 111.964C85.7891 111.201 86.3089 110.609 86.9737 110.187C87.6428 109.765 88.4205 109.554 89.3068 109.554C90.1932 109.554 90.9688 109.765 91.6335 110.187C92.3026 110.609 92.8224 111.201 93.1932 111.964C93.5682 112.727 93.7557 113.619 93.7557 114.642C93.7557 115.656 93.5682 116.543 93.1932 117.301C92.8224 118.06 92.3026 118.65 91.6335 119.072C90.9688 119.494 90.1932 119.705 89.3068 119.705ZM89.3068 118.349C89.9801 118.349 90.5341 118.177 90.9688 117.832C91.4034 117.487 91.7251 117.033 91.9339 116.47C92.1428 115.908 92.2472 115.298 92.2472 114.642C92.2472 113.986 92.1428 113.374 91.9339 112.808C91.7251 112.241 91.4034 111.783 90.9688 111.433C90.5341 111.084 89.9801 110.909 89.3068 110.909C88.6335 110.909 88.0795 111.084 87.6449 111.433C87.2102 111.783 86.8885 112.241 86.6797 112.808C86.4709 113.374 86.3665 113.986 86.3665 114.642C86.3665 115.298 86.4709 115.908 86.6797 116.47C86.8885 117.033 87.2102 117.487 87.6449 117.832C88.0795 118.177 88.6335 118.349 89.3068 118.349ZM96.0584 119.5V109.682H97.5158V111.216H97.6436C97.8482 110.692 98.1784 110.285 98.6344 109.995C99.0904 109.701 99.638 109.554 100.277 109.554C100.925 109.554 101.464 109.701 101.894 109.995C102.329 110.285 102.668 110.692 102.911 111.216H103.013C103.264 110.709 103.642 110.306 104.144 110.008C104.647 109.705 105.25 109.554 105.953 109.554C106.831 109.554 107.549 109.829 108.107 110.379C108.666 110.924 108.945 111.774 108.945 112.929V119.5H107.436V112.929C107.436 112.205 107.238 111.687 106.842 111.376C106.445 111.065 105.979 110.909 105.442 110.909C104.752 110.909 104.217 111.118 103.838 111.536C103.458 111.949 103.269 112.473 103.269 113.108V119.5H101.735V112.776C101.735 112.217 101.553 111.768 101.191 111.427C100.829 111.082 100.362 110.909 99.7914 110.909C99.3993 110.909 99.0328 111.013 98.6919 111.222C98.3553 111.431 98.0826 111.721 97.8738 112.092C97.6692 112.458 97.5669 112.882 97.5669 113.364V119.5H96.0584ZM114.592 119.73C113.97 119.73 113.405 119.613 112.898 119.379C112.391 119.14 111.988 118.797 111.69 118.349C111.392 117.898 111.243 117.352 111.243 116.713C111.243 116.151 111.354 115.695 111.575 115.345C111.797 114.991 112.093 114.714 112.464 114.514C112.834 114.314 113.243 114.165 113.691 114.067C114.143 113.964 114.596 113.884 115.052 113.824C115.649 113.747 116.133 113.69 116.503 113.651C116.878 113.609 117.151 113.538 117.322 113.44C117.496 113.342 117.584 113.172 117.584 112.929V112.878C117.584 112.247 117.411 111.757 117.066 111.408C116.725 111.058 116.207 110.884 115.513 110.884C114.792 110.884 114.228 111.041 113.819 111.357C113.41 111.672 113.122 112.009 112.956 112.366L111.524 111.855C111.78 111.259 112.121 110.794 112.547 110.462C112.977 110.125 113.446 109.891 113.953 109.759C114.464 109.622 114.967 109.554 115.461 109.554C115.777 109.554 116.139 109.592 116.548 109.669C116.961 109.741 117.36 109.893 117.743 110.123C118.131 110.353 118.453 110.7 118.709 111.165C118.964 111.629 119.092 112.251 119.092 113.031V119.5H117.584V118.17H117.507C117.405 118.384 117.234 118.612 116.996 118.854C116.757 119.097 116.439 119.304 116.043 119.474C115.647 119.645 115.163 119.73 114.592 119.73ZM114.822 118.375C115.419 118.375 115.922 118.258 116.331 118.023C116.744 117.789 117.055 117.487 117.264 117.116C117.477 116.745 117.584 116.355 117.584 115.946V114.565C117.52 114.642 117.379 114.712 117.162 114.776C116.949 114.836 116.702 114.889 116.42 114.936C116.143 114.979 115.873 115.017 115.608 115.051C115.349 115.081 115.138 115.107 114.976 115.128C114.584 115.179 114.217 115.262 113.876 115.377C113.54 115.488 113.267 115.656 113.058 115.882C112.854 116.104 112.751 116.406 112.751 116.79C112.751 117.314 112.945 117.71 113.333 117.979C113.725 118.243 114.221 118.375 114.822 118.375ZM121.846 119.5V109.682H123.354V119.5H121.846ZM122.613 108.045C122.319 108.045 122.065 107.945 121.852 107.745C121.643 107.545 121.539 107.304 121.539 107.023C121.539 106.741 121.643 106.501 121.852 106.3C122.065 106.1 122.319 106 122.613 106C122.907 106 123.158 106.1 123.367 106.3C123.58 106.501 123.686 106.741 123.686 107.023C123.686 107.304 123.58 107.545 123.367 107.745C123.158 107.945 122.907 108.045 122.613 108.045ZM127.626 113.594V119.5H126.117V109.682H127.574V111.216H127.702C127.932 110.717 128.282 110.317 128.751 110.014C129.219 109.707 129.824 109.554 130.566 109.554C131.231 109.554 131.812 109.69 132.311 109.963C132.809 110.232 133.197 110.641 133.474 111.19C133.751 111.736 133.89 112.426 133.89 113.261V119.5H132.381V113.364C132.381 112.592 132.181 111.991 131.78 111.561C131.38 111.126 130.83 110.909 130.131 110.909C129.65 110.909 129.219 111.013 128.84 111.222C128.465 111.431 128.169 111.736 127.952 112.136C127.734 112.537 127.626 113.023 127.626 113.594ZM143.601 111.881L142.246 112.264C142.161 112.038 142.035 111.819 141.869 111.606C141.707 111.388 141.485 111.21 141.204 111.069C140.923 110.928 140.562 110.858 140.124 110.858C139.523 110.858 139.022 110.996 138.621 111.273C138.225 111.546 138.027 111.893 138.027 112.315C138.027 112.69 138.163 112.987 138.436 113.204C138.709 113.421 139.135 113.602 139.714 113.747L141.172 114.105C142.05 114.318 142.704 114.644 143.134 115.083C143.565 115.518 143.78 116.078 143.78 116.764C143.78 117.327 143.618 117.83 143.294 118.273C142.974 118.716 142.527 119.065 141.952 119.321C141.376 119.577 140.707 119.705 139.945 119.705C138.943 119.705 138.114 119.487 137.458 119.053C136.802 118.618 136.386 117.983 136.212 117.148L137.643 116.79C137.78 117.318 138.038 117.714 138.417 117.979C138.8 118.243 139.301 118.375 139.919 118.375C140.622 118.375 141.18 118.226 141.594 117.928C142.011 117.625 142.22 117.263 142.22 116.841C142.22 116.5 142.101 116.214 141.862 115.984C141.624 115.75 141.257 115.575 140.763 115.46L139.126 115.077C138.227 114.864 137.567 114.533 137.145 114.086C136.727 113.634 136.518 113.07 136.518 112.392C136.518 111.838 136.674 111.348 136.985 110.922C137.3 110.496 137.729 110.161 138.27 109.918C138.815 109.675 139.433 109.554 140.124 109.554C141.095 109.554 141.858 109.767 142.412 110.193C142.97 110.619 143.366 111.182 143.601 111.881ZM151.855 119.5H150.193L154.999 106.409H156.636L161.443 119.5H159.781L155.869 108.48H155.767L151.855 119.5ZM152.468 114.386H159.167V115.793H152.468V114.386ZM164.786 113.594V119.5H163.277V109.682H164.735V111.216H164.862C165.093 110.717 165.442 110.317 165.911 110.014C166.379 109.707 166.985 109.554 167.726 109.554C168.391 109.554 168.972 109.69 169.471 109.963C169.97 110.232 170.357 110.641 170.634 111.19C170.911 111.736 171.05 112.426 171.05 113.261V119.5H169.541V113.364C169.541 112.592 169.341 111.991 168.941 111.561C168.54 111.126 167.99 110.909 167.291 110.909C166.81 110.909 166.379 111.013 166 111.222C165.625 111.431 165.329 111.736 165.112 112.136C164.894 112.537 164.786 113.023 164.786 113.594ZM176.696 119.73C176.074 119.73 175.509 119.613 175.002 119.379C174.495 119.14 174.092 118.797 173.794 118.349C173.495 117.898 173.346 117.352 173.346 116.713C173.346 116.151 173.457 115.695 173.679 115.345C173.9 114.991 174.196 114.714 174.567 114.514C174.938 114.314 175.347 114.165 175.794 114.067C176.246 113.964 176.7 113.884 177.156 113.824C177.752 113.747 178.236 113.69 178.607 113.651C178.982 113.609 179.255 113.538 179.425 113.44C179.6 113.342 179.687 113.172 179.687 112.929V112.878C179.687 112.247 179.515 111.757 179.169 111.408C178.828 111.058 178.311 110.884 177.616 110.884C176.896 110.884 176.331 111.041 175.922 111.357C175.513 111.672 175.225 112.009 175.059 112.366L173.627 111.855C173.883 111.259 174.224 110.794 174.65 110.462C175.081 110.125 175.549 109.891 176.056 109.759C176.568 109.622 177.071 109.554 177.565 109.554C177.88 109.554 178.243 109.592 178.652 109.669C179.065 109.741 179.463 109.893 179.847 110.123C180.235 110.353 180.556 110.7 180.812 111.165C181.068 111.629 181.196 112.251 181.196 113.031V119.5H179.687V118.17H179.61C179.508 118.384 179.338 118.612 179.099 118.854C178.86 119.097 178.543 119.304 178.147 119.474C177.75 119.645 177.267 119.73 176.696 119.73ZM176.926 118.375C177.522 118.375 178.025 118.258 178.434 118.023C178.848 117.789 179.159 117.487 179.368 117.116C179.581 116.745 179.687 116.355 179.687 115.946V114.565C179.623 114.642 179.483 114.712 179.265 114.776C179.052 114.836 178.805 114.889 178.524 114.936C178.247 114.979 177.976 115.017 177.712 115.051C177.452 115.081 177.241 115.107 177.079 115.128C176.687 115.179 176.321 115.262 175.98 115.377C175.643 115.488 175.37 115.656 175.162 115.882C174.957 116.104 174.855 116.406 174.855 116.79C174.855 117.314 175.049 117.71 175.436 117.979C175.828 118.243 176.325 118.375 176.926 118.375ZM185.458 106.409V119.5H183.949V106.409H185.458ZM189.192 123.182C188.936 123.182 188.708 123.161 188.508 123.118C188.308 123.08 188.169 123.041 188.093 123.003L188.476 121.673C188.843 121.767 189.167 121.801 189.448 121.776C189.729 121.75 189.978 121.624 190.196 121.398C190.417 121.177 190.62 120.817 190.803 120.318L191.084 119.551L187.453 109.682H189.09L191.8 117.506H191.902L194.613 109.682H196.249L192.081 120.932C191.894 121.439 191.662 121.859 191.385 122.191C191.108 122.528 190.786 122.777 190.419 122.939C190.057 123.101 189.648 123.182 189.192 123.182ZM197.959 119.5V118.349L203.533 111.19V111.088H198.138V109.682H205.476V110.884L200.055 117.991V118.094H205.655V119.5H197.959ZM211.814 119.705C210.868 119.705 210.051 119.496 209.365 119.078C208.684 118.656 208.157 118.068 207.787 117.314C207.42 116.555 207.237 115.673 207.237 114.668C207.237 113.662 207.42 112.776 207.787 112.009C208.157 111.237 208.673 110.636 209.333 110.206C209.998 109.771 210.774 109.554 211.66 109.554C212.172 109.554 212.676 109.639 213.175 109.81C213.674 109.98 214.127 110.257 214.537 110.641C214.946 111.02 215.272 111.523 215.515 112.149C215.757 112.776 215.879 113.547 215.879 114.463V115.102H208.311V113.798H214.345C214.345 113.244 214.234 112.75 214.012 112.315C213.795 111.881 213.484 111.538 213.079 111.286C212.679 111.035 212.206 110.909 211.66 110.909C211.059 110.909 210.539 111.058 210.1 111.357C209.666 111.651 209.331 112.034 209.097 112.507C208.863 112.98 208.745 113.487 208.745 114.028V114.898C208.745 115.639 208.873 116.268 209.129 116.783C209.389 117.295 209.749 117.685 210.209 117.953C210.669 118.217 211.204 118.349 211.814 118.349C212.21 118.349 212.568 118.294 212.887 118.183C213.211 118.068 213.49 117.898 213.725 117.672C213.959 117.442 214.14 117.156 214.268 116.815L215.725 117.224C215.572 117.719 215.314 118.153 214.952 118.528C214.59 118.899 214.142 119.189 213.61 119.398C213.077 119.602 212.478 119.705 211.814 119.705ZM221.881 119.705C221.063 119.705 220.341 119.498 219.714 119.085C219.088 118.667 218.598 118.079 218.244 117.32C217.89 116.558 217.713 115.656 217.713 114.616C217.713 113.585 217.89 112.69 218.244 111.932C218.598 111.173 219.09 110.587 219.721 110.174C220.351 109.761 221.08 109.554 221.907 109.554C222.546 109.554 223.051 109.661 223.422 109.874C223.797 110.082 224.082 110.321 224.278 110.589C224.478 110.854 224.634 111.071 224.745 111.241H224.873V106.409H226.381V119.5H224.924V117.991H224.745C224.634 118.17 224.476 118.396 224.272 118.669C224.067 118.937 223.775 119.178 223.396 119.391C223.017 119.6 222.512 119.705 221.881 119.705ZM222.086 118.349C222.691 118.349 223.202 118.192 223.62 117.876C224.037 117.557 224.355 117.116 224.572 116.553C224.789 115.987 224.898 115.332 224.898 114.591C224.898 113.858 224.792 113.217 224.578 112.667C224.365 112.113 224.05 111.683 223.632 111.376C223.215 111.065 222.699 110.909 222.086 110.909C221.446 110.909 220.914 111.073 220.488 111.401C220.066 111.725 219.748 112.166 219.535 112.724C219.326 113.278 219.222 113.901 219.222 114.591C219.222 115.29 219.328 115.925 219.542 116.496C219.759 117.062 220.078 117.514 220.5 117.851C220.926 118.183 221.455 118.349 222.086 118.349ZM230.453 119.602C230.137 119.602 229.867 119.489 229.641 119.263C229.415 119.038 229.302 118.767 229.302 118.452C229.302 118.136 229.415 117.866 229.641 117.64C229.867 117.414 230.137 117.301 230.453 117.301C230.768 117.301 231.039 117.414 231.265 117.64C231.49 117.866 231.603 118.136 231.603 118.452C231.603 118.661 231.55 118.852 231.444 119.027C231.341 119.202 231.203 119.342 231.028 119.449C230.858 119.551 230.666 119.602 230.453 119.602ZM230.453 112.315C230.137 112.315 229.867 112.202 229.641 111.977C229.415 111.751 229.302 111.48 229.302 111.165C229.302 110.849 229.415 110.579 229.641 110.353C229.867 110.127 230.137 110.014 230.453 110.014C230.768 110.014 231.039 110.127 231.265 110.353C231.49 110.579 231.603 110.849 231.603 111.165C231.603 111.374 231.55 111.565 231.444 111.74C231.341 111.915 231.203 112.055 231.028 112.162C230.858 112.264 230.666 112.315 230.453 112.315Z" fill="black" fill-opacity="0.7"/>
<path d="M416.109 121.219C415.036 121.219 414.078 121.034 413.234 120.664C412.396 120.294 411.732 119.781 411.242 119.125C410.758 118.464 410.497 117.698 410.461 116.828H412.914C412.945 117.302 413.104 117.714 413.391 118.062C413.682 118.406 414.063 118.672 414.531 118.859C415 119.047 415.521 119.141 416.094 119.141C416.724 119.141 417.281 119.031 417.766 118.812C418.255 118.594 418.638 118.289 418.914 117.898C419.19 117.503 419.328 117.047 419.328 116.531C419.328 115.995 419.19 115.523 418.914 115.117C418.643 114.706 418.245 114.383 417.719 114.148C417.198 113.914 416.568 113.797 415.828 113.797H414.477V111.828H415.828C416.422 111.828 416.943 111.721 417.391 111.508C417.844 111.294 418.198 110.997 418.453 110.617C418.708 110.232 418.836 109.781 418.836 109.266C418.836 108.771 418.724 108.341 418.5 107.977C418.281 107.607 417.969 107.318 417.563 107.109C417.161 106.901 416.688 106.797 416.141 106.797C415.62 106.797 415.133 106.893 414.68 107.086C414.232 107.273 413.867 107.544 413.586 107.898C413.305 108.247 413.154 108.667 413.133 109.156H410.797C410.823 108.292 411.078 107.531 411.563 106.875C412.052 106.219 412.698 105.706 413.5 105.336C414.302 104.966 415.193 104.781 416.172 104.781C417.198 104.781 418.083 104.982 418.828 105.383C419.578 105.779 420.156 106.307 420.563 106.969C420.974 107.63 421.177 108.354 421.172 109.141C421.177 110.036 420.927 110.797 420.422 111.422C419.922 112.047 419.255 112.466 418.422 112.68V112.805C419.484 112.966 420.307 113.388 420.891 114.07C421.479 114.753 421.771 115.599 421.766 116.609C421.771 117.49 421.526 118.279 421.031 118.977C420.542 119.674 419.872 120.224 419.023 120.625C418.174 121.021 417.203 121.219 416.109 121.219ZM427.316 118.812L427.199 119.664C427.121 120.289 426.988 120.94 426.801 121.617C426.618 122.299 426.428 122.932 426.23 123.516C426.038 124.099 425.879 124.563 425.754 124.906H424.098C424.165 124.583 424.259 124.146 424.379 123.594C424.499 123.047 424.616 122.435 424.73 121.758C424.845 121.081 424.931 120.391 424.988 119.687L425.066 118.812H427.316ZM430.584 121V119.25L435.998 113.641C436.576 113.031 437.053 112.497 437.428 112.039C437.808 111.576 438.092 111.135 438.279 110.719C438.467 110.302 438.561 109.859 438.561 109.391C438.561 108.859 438.436 108.401 438.186 108.016C437.936 107.625 437.594 107.326 437.162 107.117C436.73 106.904 436.243 106.797 435.701 106.797C435.128 106.797 434.628 106.914 434.201 107.148C433.774 107.383 433.446 107.714 433.217 108.141C432.988 108.568 432.873 109.068 432.873 109.641H430.568C430.568 108.667 430.792 107.815 431.24 107.086C431.688 106.357 432.303 105.792 433.084 105.391C433.865 104.984 434.753 104.781 435.748 104.781C436.753 104.781 437.639 104.982 438.404 105.383C439.175 105.779 439.777 106.32 440.209 107.008C440.641 107.69 440.857 108.461 440.857 109.32C440.857 109.914 440.745 110.495 440.521 111.062C440.303 111.63 439.92 112.263 439.373 112.961C438.826 113.654 438.066 114.495 437.092 115.484L433.912 118.812V118.93H441.115V121H430.584ZM443.396 117.875V115.922L450.311 105H451.85V107.875H450.873L445.928 115.703V115.828H455.404V117.875H443.396ZM450.982 121V117.281L450.998 116.391V105H453.287V121H450.982ZM458.666 121L465.65 107.187V107.07H457.572V105H468.15V107.141L461.189 121H458.666Z" fill="black"/>
<path d="M71 146H469" stroke="#09B4D4" stroke-width="13" stroke-linecap="round"/>
<path d="M71 146H368" stroke="#02665A" stroke-width="13" stroke-linecap="round"/>
<circle cx="78" cy="178.5" r="7" fill="#02665A"/>
<path d="M109.716 174.591C109.631 173.871 109.285 173.312 108.679 172.915C108.073 172.517 107.33 172.318 106.449 172.318C105.805 172.318 105.241 172.422 104.759 172.631C104.28 172.839 103.906 173.125 103.636 173.49C103.371 173.855 103.239 174.269 103.239 174.733C103.239 175.121 103.331 175.455 103.516 175.734C103.705 176.009 103.946 176.239 104.24 176.423C104.534 176.603 104.841 176.752 105.163 176.871C105.485 176.984 105.781 177.077 106.051 177.148L107.528 177.545C107.907 177.645 108.329 177.782 108.793 177.957C109.261 178.133 109.709 178.372 110.135 178.675C110.566 178.973 110.921 179.357 111.2 179.825C111.48 180.294 111.619 180.869 111.619 181.551C111.619 182.337 111.413 183.047 111.001 183.682C110.594 184.316 109.998 184.821 109.212 185.195C108.43 185.569 107.481 185.756 106.364 185.756C105.322 185.756 104.42 185.588 103.658 185.251C102.9 184.915 102.304 184.446 101.868 183.845C101.437 183.244 101.193 182.545 101.136 181.75H102.955C103.002 182.299 103.187 182.754 103.509 183.114C103.835 183.469 104.247 183.734 104.744 183.909C105.246 184.08 105.786 184.165 106.364 184.165C107.036 184.165 107.64 184.056 108.175 183.838C108.71 183.616 109.134 183.308 109.446 182.915C109.759 182.517 109.915 182.053 109.915 181.523C109.915 181.04 109.78 180.647 109.51 180.344C109.24 180.041 108.885 179.795 108.445 179.605C108.004 179.416 107.528 179.25 107.017 179.108L105.227 178.597C104.091 178.27 103.191 177.804 102.528 177.197C101.866 176.591 101.534 175.798 101.534 174.818C101.534 174.004 101.754 173.294 102.195 172.688C102.64 172.077 103.236 171.603 103.984 171.267C104.737 170.926 105.578 170.756 106.506 170.756C107.443 170.756 108.277 170.924 109.006 171.26C109.735 171.591 110.313 172.046 110.739 172.624C111.17 173.201 111.397 173.857 111.42 174.591H109.716ZM119.032 174.591V176.011H113.379V174.591H119.032ZM115.027 171.977H116.703V182.375C116.703 182.848 116.771 183.204 116.909 183.44C117.051 183.672 117.231 183.829 117.449 183.909C117.671 183.985 117.905 184.023 118.152 184.023C118.336 184.023 118.488 184.013 118.606 183.994C118.725 183.971 118.819 183.952 118.89 183.938L119.231 185.443C119.118 185.486 118.959 185.528 118.755 185.571C118.552 185.618 118.294 185.642 117.981 185.642C117.508 185.642 117.044 185.54 116.589 185.337C116.139 185.133 115.765 184.823 115.467 184.406C115.173 183.99 115.027 183.464 115.027 182.83V171.977ZM124.764 185.756C124.073 185.756 123.445 185.625 122.882 185.365C122.318 185.1 121.871 184.719 121.539 184.222C121.208 183.72 121.042 183.114 121.042 182.403C121.042 181.778 121.165 181.272 121.412 180.884C121.658 180.491 121.987 180.183 122.399 179.96C122.811 179.738 123.265 179.572 123.762 179.463C124.264 179.349 124.769 179.259 125.275 179.193C125.938 179.108 126.475 179.044 126.887 179.001C127.304 178.954 127.607 178.876 127.797 178.767C127.991 178.658 128.088 178.469 128.088 178.199V178.142C128.088 177.441 127.896 176.897 127.512 176.509C127.134 176.12 126.558 175.926 125.787 175.926C124.986 175.926 124.359 176.101 123.904 176.452C123.45 176.802 123.13 177.176 122.946 177.574L121.355 177.006C121.639 176.343 122.018 175.827 122.491 175.457C122.969 175.083 123.49 174.823 124.054 174.676C124.622 174.525 125.181 174.449 125.73 174.449C126.08 174.449 126.483 174.491 126.937 174.577C127.396 174.657 127.839 174.825 128.265 175.081C128.696 175.337 129.054 175.723 129.338 176.239C129.622 176.755 129.764 177.446 129.764 178.312V185.5H128.088V184.023H128.002C127.889 184.259 127.699 184.513 127.434 184.783C127.169 185.053 126.816 185.282 126.376 185.472C125.936 185.661 125.398 185.756 124.764 185.756ZM125.02 184.25C125.682 184.25 126.241 184.12 126.696 183.859C127.155 183.599 127.501 183.263 127.733 182.851C127.969 182.439 128.088 182.006 128.088 181.551V180.017C128.017 180.102 127.86 180.18 127.619 180.251C127.382 180.318 127.108 180.377 126.795 180.429C126.487 180.476 126.187 180.519 125.893 180.557C125.604 180.59 125.37 180.618 125.19 180.642C124.754 180.699 124.347 180.791 123.968 180.919C123.594 181.042 123.291 181.229 123.059 181.48C122.832 181.726 122.718 182.062 122.718 182.489C122.718 183.071 122.934 183.511 123.365 183.81C123.8 184.103 124.352 184.25 125.02 184.25ZM134.499 178.938V185.5H132.823V174.591H134.442V176.295H134.585C134.84 175.741 135.228 175.296 135.749 174.96C136.27 174.619 136.942 174.449 137.766 174.449C138.505 174.449 139.151 174.6 139.705 174.903C140.259 175.202 140.69 175.656 140.998 176.267C141.306 176.873 141.46 177.64 141.46 178.568V185.5H139.783V178.682C139.783 177.825 139.561 177.157 139.116 176.679C138.671 176.196 138.06 175.955 137.283 175.955C136.748 175.955 136.27 176.071 135.849 176.303C135.432 176.535 135.103 176.873 134.862 177.318C134.62 177.763 134.499 178.303 134.499 178.938ZM148.642 185.727C147.733 185.727 146.93 185.498 146.234 185.038C145.538 184.574 144.993 183.921 144.6 183.078C144.208 182.231 144.011 181.229 144.011 180.074C144.011 178.928 144.208 177.934 144.6 177.091C144.993 176.248 145.54 175.597 146.241 175.138C146.942 174.679 147.752 174.449 148.67 174.449C149.38 174.449 149.941 174.567 150.353 174.804C150.77 175.036 151.087 175.301 151.305 175.599C151.528 175.893 151.7 176.134 151.824 176.324H151.966V170.955H153.642V185.5H152.022V183.824H151.824C151.7 184.023 151.525 184.274 151.298 184.577C151.071 184.875 150.746 185.143 150.325 185.379C149.904 185.611 149.342 185.727 148.642 185.727ZM148.869 184.222C149.541 184.222 150.109 184.046 150.574 183.696C151.038 183.341 151.39 182.851 151.632 182.226C151.873 181.596 151.994 180.869 151.994 180.045C151.994 179.231 151.876 178.518 151.639 177.908C151.402 177.292 151.052 176.814 150.588 176.473C150.124 176.127 149.551 175.955 148.869 175.955C148.159 175.955 147.567 176.137 147.093 176.501C146.625 176.861 146.272 177.351 146.035 177.972C145.803 178.587 145.687 179.278 145.687 180.045C145.687 180.822 145.806 181.527 146.042 182.162C146.284 182.792 146.639 183.294 147.108 183.668C147.581 184.037 148.168 184.222 148.869 184.222ZM160.154 185.756C159.463 185.756 158.836 185.625 158.272 185.365C157.709 185.1 157.261 184.719 156.93 184.222C156.599 183.72 156.433 183.114 156.433 182.403C156.433 181.778 156.556 181.272 156.802 180.884C157.048 180.491 157.377 180.183 157.789 179.96C158.201 179.738 158.656 179.572 159.153 179.463C159.655 179.349 160.159 179.259 160.666 179.193C161.329 179.108 161.866 179.044 162.278 179.001C162.695 178.954 162.998 178.876 163.187 178.767C163.381 178.658 163.478 178.469 163.478 178.199V178.142C163.478 177.441 163.287 176.897 162.903 176.509C162.524 176.12 161.949 175.926 161.177 175.926C160.377 175.926 159.75 176.101 159.295 176.452C158.841 176.802 158.521 177.176 158.336 177.574L156.745 177.006C157.029 176.343 157.408 175.827 157.882 175.457C158.36 175.083 158.881 174.823 159.444 174.676C160.012 174.525 160.571 174.449 161.12 174.449C161.471 174.449 161.873 174.491 162.328 174.577C162.787 174.657 163.23 174.825 163.656 175.081C164.087 175.337 164.444 175.723 164.728 176.239C165.012 176.755 165.154 177.446 165.154 178.312V185.5H163.478V184.023H163.393C163.279 184.259 163.09 184.513 162.825 184.783C162.56 185.053 162.207 185.282 161.767 185.472C161.326 185.661 160.789 185.756 160.154 185.756ZM160.41 184.25C161.073 184.25 161.632 184.12 162.086 183.859C162.546 183.599 162.891 183.263 163.123 182.851C163.36 182.439 163.478 182.006 163.478 181.551V180.017C163.407 180.102 163.251 180.18 163.01 180.251C162.773 180.318 162.498 180.377 162.186 180.429C161.878 180.476 161.577 180.519 161.284 180.557C160.995 180.59 160.761 180.618 160.581 180.642C160.145 180.699 159.738 180.791 159.359 180.919C158.985 181.042 158.682 181.229 158.45 181.48C158.223 181.726 158.109 182.062 158.109 182.489C158.109 183.071 158.324 183.511 158.755 183.81C159.191 184.103 159.743 184.25 160.41 184.25ZM168.214 185.5V174.591H169.833V176.239H169.947C170.146 175.699 170.505 175.261 171.026 174.925C171.547 174.589 172.134 174.42 172.788 174.42C172.911 174.42 173.065 174.423 173.249 174.428C173.434 174.432 173.574 174.439 173.668 174.449V176.153C173.612 176.139 173.481 176.118 173.278 176.089C173.079 176.056 172.868 176.04 172.646 176.04C172.115 176.04 171.642 176.151 171.225 176.374C170.813 176.591 170.487 176.894 170.245 177.283C170.008 177.666 169.89 178.104 169.89 178.597V185.5H168.214ZM179.442 185.727C178.533 185.727 177.731 185.498 177.035 185.038C176.339 184.574 175.794 183.921 175.401 183.078C175.008 182.231 174.812 181.229 174.812 180.074C174.812 178.928 175.008 177.934 175.401 177.091C175.794 176.248 176.341 175.597 177.042 175.138C177.743 174.679 178.552 174.449 179.471 174.449C180.181 174.449 180.742 174.567 181.154 174.804C181.571 175.036 181.888 175.301 182.106 175.599C182.328 175.893 182.501 176.134 182.624 176.324H182.766V170.955H184.442V185.5H182.823V183.824H182.624C182.501 184.023 182.326 184.274 182.099 184.577C181.871 184.875 181.547 185.143 181.126 185.379C180.704 185.611 180.143 185.727 179.442 185.727ZM179.67 184.222C180.342 184.222 180.91 184.046 181.374 183.696C181.838 183.341 182.191 182.851 182.433 182.226C182.674 181.596 182.795 180.869 182.795 180.045C182.795 179.231 182.676 178.518 182.44 177.908C182.203 177.292 181.853 176.814 181.388 176.473C180.924 176.127 180.352 175.955 179.67 175.955C178.96 175.955 178.368 176.137 177.894 176.501C177.425 176.861 177.073 177.351 176.836 177.972C176.604 178.587 176.488 179.278 176.488 180.045C176.488 180.822 176.606 181.527 176.843 182.162C177.085 182.792 177.44 183.294 177.908 183.668C178.382 184.037 178.969 184.222 179.67 184.222ZM198.086 185.5H193.597V170.955H198.285C199.696 170.955 200.903 171.246 201.907 171.828C202.911 172.406 203.68 173.237 204.215 174.321C204.75 175.401 205.018 176.693 205.018 178.199C205.018 179.714 204.748 181.018 204.208 182.112C203.668 183.201 202.882 184.039 201.85 184.626C200.818 185.209 199.563 185.5 198.086 185.5ZM195.359 183.938H197.972C199.175 183.938 200.172 183.705 200.962 183.241C201.753 182.777 202.343 182.117 202.731 181.26C203.119 180.403 203.313 179.383 203.313 178.199C203.313 177.025 203.121 176.014 202.738 175.166C202.354 174.314 201.781 173.661 201.019 173.206C200.257 172.747 199.308 172.517 198.171 172.517H195.359V183.938ZM212.177 185.727C211.192 185.727 210.328 185.493 209.585 185.024C208.846 184.555 208.268 183.9 207.852 183.057C207.44 182.214 207.234 181.229 207.234 180.102C207.234 178.966 207.44 177.974 207.852 177.126C208.268 176.279 208.846 175.621 209.585 175.152C210.328 174.683 211.192 174.449 212.177 174.449C213.162 174.449 214.023 174.683 214.762 175.152C215.505 175.621 216.083 176.279 216.495 177.126C216.912 177.974 217.12 178.966 217.12 180.102C217.12 181.229 216.912 182.214 216.495 183.057C216.083 183.9 215.505 184.555 214.762 185.024C214.023 185.493 213.162 185.727 212.177 185.727ZM212.177 184.222C212.925 184.222 213.54 184.03 214.023 183.646C214.506 183.263 214.864 182.759 215.096 182.134C215.328 181.509 215.444 180.831 215.444 180.102C215.444 179.373 215.328 178.694 215.096 178.064C214.864 177.434 214.506 176.925 214.023 176.537C213.54 176.149 212.925 175.955 212.177 175.955C211.429 175.955 210.813 176.149 210.33 176.537C209.847 176.925 209.49 177.434 209.258 178.064C209.026 178.694 208.91 179.373 208.91 180.102C208.91 180.831 209.026 181.509 209.258 182.134C209.49 182.759 209.847 183.263 210.33 183.646C210.813 184.03 211.429 184.222 212.177 184.222ZM219.679 185.5V174.591H221.298V176.295H221.44C221.667 175.713 222.034 175.261 222.541 174.939C223.047 174.612 223.656 174.449 224.366 174.449C225.086 174.449 225.685 174.612 226.163 174.939C226.646 175.261 227.022 175.713 227.292 176.295H227.406C227.685 175.732 228.104 175.285 228.663 174.953C229.222 174.617 229.892 174.449 230.673 174.449C231.648 174.449 232.446 174.754 233.066 175.365C233.687 175.971 233.997 176.916 233.997 178.199V185.5H232.321V178.199C232.321 177.394 232.1 176.819 231.66 176.473C231.22 176.127 230.701 175.955 230.105 175.955C229.338 175.955 228.743 176.187 228.322 176.651C227.901 177.11 227.69 177.692 227.69 178.398V185.5H225.985V178.028C225.985 177.408 225.784 176.909 225.382 176.53C224.979 176.146 224.461 175.955 223.826 175.955C223.391 175.955 222.984 176.071 222.605 176.303C222.231 176.535 221.928 176.857 221.696 177.268C221.468 177.676 221.355 178.147 221.355 178.682V185.5H219.679ZM240.272 185.756C239.58 185.756 238.953 185.625 238.39 185.365C237.826 185.1 237.379 184.719 237.047 184.222C236.716 183.72 236.55 183.114 236.55 182.403C236.55 181.778 236.673 181.272 236.919 180.884C237.166 180.491 237.495 180.183 237.907 179.96C238.319 179.738 238.773 179.572 239.27 179.463C239.772 179.349 240.276 179.259 240.783 179.193C241.446 179.108 241.983 179.044 242.395 179.001C242.812 178.954 243.115 178.876 243.304 178.767C243.498 178.658 243.596 178.469 243.596 178.199V178.142C243.596 177.441 243.404 176.897 243.02 176.509C242.641 176.12 242.066 175.926 241.294 175.926C240.494 175.926 239.867 176.101 239.412 176.452C238.958 176.802 238.638 177.176 238.453 177.574L236.863 177.006C237.147 176.343 237.525 175.827 237.999 175.457C238.477 175.083 238.998 174.823 239.561 174.676C240.13 174.525 240.688 174.449 241.238 174.449C241.588 174.449 241.99 174.491 242.445 174.577C242.904 174.657 243.347 174.825 243.773 175.081C244.204 175.337 244.561 175.723 244.846 176.239C245.13 176.755 245.272 177.446 245.272 178.312V185.5H243.596V184.023H243.51C243.397 184.259 243.207 184.513 242.942 184.783C242.677 185.053 242.324 185.282 241.884 185.472C241.444 185.661 240.906 185.756 240.272 185.756ZM240.527 184.25C241.19 184.25 241.749 184.12 242.203 183.859C242.663 183.599 243.008 183.263 243.24 182.851C243.477 182.439 243.596 182.006 243.596 181.551V180.017C243.525 180.102 243.368 180.18 243.127 180.251C242.89 180.318 242.615 180.377 242.303 180.429C241.995 180.476 241.694 180.519 241.401 180.557C241.112 180.59 240.878 180.618 240.698 180.642C240.262 180.699 239.855 180.791 239.476 180.919C239.102 181.042 238.799 181.229 238.567 181.48C238.34 181.726 238.226 182.062 238.226 182.489C238.226 183.071 238.442 183.511 238.873 183.81C239.308 184.103 239.86 184.25 240.527 184.25ZM248.331 185.5V174.591H250.007V185.5H248.331ZM249.183 172.773C248.857 172.773 248.575 172.661 248.338 172.439C248.106 172.216 247.99 171.949 247.99 171.636C247.99 171.324 248.106 171.056 248.338 170.834C248.575 170.611 248.857 170.5 249.183 170.5C249.51 170.5 249.789 170.611 250.021 170.834C250.258 171.056 250.376 171.324 250.376 171.636C250.376 171.949 250.258 172.216 250.021 172.439C249.789 172.661 249.51 172.773 249.183 172.773ZM254.753 178.938V185.5H253.077V174.591H254.696V176.295H254.838C255.094 175.741 255.482 175.296 256.003 174.96C256.524 174.619 257.196 174.449 258.02 174.449C258.759 174.449 259.405 174.6 259.959 174.903C260.513 175.202 260.944 175.656 261.252 176.267C261.56 176.873 261.713 177.64 261.713 178.568V185.5H260.037V178.682C260.037 177.825 259.815 177.157 259.37 176.679C258.925 176.196 258.314 175.955 257.537 175.955C257.002 175.955 256.524 176.071 256.103 176.303C255.686 176.535 255.357 176.873 255.115 177.318C254.874 177.763 254.753 178.303 254.753 178.938ZM272.504 177.034L270.998 177.46C270.903 177.209 270.763 176.965 270.579 176.729C270.399 176.487 270.153 176.288 269.84 176.132C269.528 175.976 269.128 175.898 268.64 175.898C267.972 175.898 267.416 176.052 266.971 176.359C266.531 176.662 266.31 177.048 266.31 177.517C266.31 177.934 266.462 178.263 266.765 178.504C267.068 178.746 267.541 178.947 268.185 179.108L269.805 179.506C270.78 179.742 271.507 180.105 271.985 180.592C272.463 181.075 272.702 181.698 272.702 182.46C272.702 183.085 272.522 183.644 272.163 184.136C271.808 184.629 271.31 185.017 270.671 185.301C270.032 185.585 269.289 185.727 268.441 185.727C267.328 185.727 266.407 185.486 265.678 185.003C264.949 184.52 264.487 183.814 264.293 182.886L265.884 182.489C266.036 183.076 266.322 183.516 266.744 183.81C267.17 184.103 267.726 184.25 268.413 184.25C269.194 184.25 269.814 184.084 270.273 183.753C270.737 183.417 270.969 183.014 270.969 182.545C270.969 182.167 270.837 181.849 270.572 181.594C270.307 181.333 269.899 181.139 269.35 181.011L267.532 180.585C266.533 180.348 265.799 179.982 265.33 179.484C264.866 178.982 264.634 178.355 264.634 177.602C264.634 176.987 264.807 176.442 265.153 175.969C265.503 175.495 265.979 175.124 266.58 174.854C267.186 174.584 267.873 174.449 268.64 174.449C269.719 174.449 270.567 174.686 271.183 175.159C271.803 175.633 272.243 176.258 272.504 177.034ZM276.447 185.614C276.097 185.614 275.796 185.488 275.545 185.237C275.294 184.986 275.169 184.686 275.169 184.335C275.169 183.985 275.294 183.684 275.545 183.433C275.796 183.182 276.097 183.057 276.447 183.057C276.797 183.057 277.098 183.182 277.349 183.433C277.6 183.684 277.725 183.985 277.725 184.335C277.725 184.567 277.666 184.78 277.548 184.974C277.434 185.169 277.28 185.325 277.086 185.443C276.897 185.557 276.684 185.614 276.447 185.614ZM276.447 177.517C276.097 177.517 275.796 177.392 275.545 177.141C275.294 176.89 275.169 176.589 275.169 176.239C275.169 175.888 275.294 175.588 275.545 175.337C275.796 175.086 276.097 174.96 276.447 174.96C276.797 174.96 277.098 175.086 277.349 175.337C277.6 175.588 277.725 175.888 277.725 176.239C277.725 176.471 277.666 176.684 277.548 176.878C277.434 177.072 277.28 177.228 277.086 177.347C276.897 177.46 276.684 177.517 276.447 177.517Z" fill="black"/>
<path d="M343.399 185.5V183.909L348.321 178.81C348.847 178.256 349.28 177.77 349.621 177.354C349.966 176.932 350.224 176.532 350.395 176.153C350.565 175.775 350.651 175.372 350.651 174.946C350.651 174.463 350.537 174.046 350.31 173.696C350.082 173.341 349.772 173.069 349.379 172.879C348.986 172.685 348.544 172.588 348.051 172.588C347.53 172.588 347.076 172.695 346.688 172.908C346.299 173.121 346.001 173.421 345.793 173.81C345.584 174.198 345.48 174.652 345.48 175.173H343.385C343.385 174.288 343.589 173.514 343.996 172.851C344.403 172.188 344.962 171.674 345.672 171.31C346.382 170.94 347.189 170.756 348.094 170.756C349.008 170.756 349.813 170.938 350.509 171.303C351.209 171.662 351.756 172.155 352.149 172.78C352.542 173.4 352.739 174.101 352.739 174.882C352.739 175.422 352.637 175.95 352.433 176.466C352.234 176.982 351.886 177.557 351.389 178.192C350.892 178.821 350.201 179.586 349.315 180.486L346.425 183.511V183.618H352.973V185.5H343.399ZM358.456 183.511L358.349 184.286C358.278 184.854 358.158 185.446 357.987 186.061C357.821 186.681 357.649 187.257 357.469 187.787C357.294 188.317 357.149 188.739 357.036 189.051H355.53C355.591 188.758 355.677 188.36 355.786 187.858C355.894 187.361 356.001 186.804 356.105 186.189C356.209 185.573 356.287 184.946 356.339 184.307L356.411 183.511H358.456ZM361.426 185.5V183.909L366.348 178.81C366.874 178.256 367.307 177.77 367.648 177.354C367.994 176.932 368.252 176.532 368.422 176.153C368.593 175.775 368.678 175.372 368.678 174.946C368.678 174.463 368.564 174.046 368.337 173.696C368.11 173.341 367.8 173.069 367.407 172.879C367.014 172.685 366.571 172.588 366.078 172.588C365.558 172.588 365.103 172.695 364.715 172.908C364.327 173.121 364.028 173.421 363.82 173.81C363.612 174.198 363.507 174.652 363.507 175.173H361.412C361.412 174.288 361.616 173.514 362.023 172.851C362.43 172.188 362.989 171.674 363.699 171.31C364.409 170.94 365.217 170.756 366.121 170.756C367.035 170.756 367.84 170.938 368.536 171.303C369.237 171.662 369.783 172.155 370.176 172.78C370.569 173.4 370.766 174.101 370.766 174.882C370.766 175.422 370.664 175.95 370.461 176.466C370.262 176.982 369.914 177.557 369.417 178.192C368.919 178.821 368.228 179.586 367.343 180.486L364.452 183.511V183.618H371V185.5H361.426ZM378.77 185.699C378.122 185.689 377.482 185.571 376.853 185.344C376.228 185.116 375.659 184.738 375.148 184.207C374.637 183.677 374.227 182.964 373.919 182.07C373.616 181.175 373.465 180.057 373.465 178.717C373.465 177.448 373.59 176.321 373.841 175.337C374.097 174.352 374.464 173.521 374.942 172.844C375.42 172.162 375.998 171.643 376.675 171.288C377.352 170.933 378.112 170.756 378.955 170.756C379.821 170.756 380.591 170.926 381.263 171.267C381.935 171.608 382.48 172.079 382.897 172.68C383.318 173.282 383.586 173.966 383.699 174.733H381.533C381.386 174.127 381.095 173.632 380.659 173.249C380.224 172.865 379.656 172.673 378.955 172.673C377.89 172.673 377.059 173.137 376.462 174.065C375.87 174.993 375.572 176.284 375.567 177.936H375.674C375.925 177.524 376.232 177.174 376.597 176.885C376.966 176.591 377.378 176.366 377.833 176.21C378.292 176.049 378.775 175.969 379.282 175.969C380.124 175.969 380.887 176.175 381.569 176.587C382.255 176.994 382.802 177.557 383.209 178.277C383.616 178.997 383.82 179.821 383.82 180.749C383.82 181.677 383.609 182.517 383.188 183.27C382.771 184.023 382.184 184.619 381.426 185.06C380.669 185.495 379.783 185.708 378.77 185.699ZM378.763 183.852C379.322 183.852 379.821 183.715 380.262 183.44C380.702 183.166 381.05 182.796 381.306 182.332C381.561 181.868 381.689 181.35 381.689 180.777C381.689 180.218 381.564 179.709 381.313 179.25C381.067 178.791 380.726 178.426 380.29 178.156C379.859 177.886 379.367 177.751 378.813 177.751C378.391 177.751 378.001 177.832 377.641 177.993C377.286 178.154 376.973 178.376 376.703 178.661C376.434 178.945 376.221 179.271 376.064 179.641C375.913 180.005 375.837 180.391 375.837 180.798C375.837 181.343 375.962 181.847 376.213 182.311C376.469 182.775 376.817 183.149 377.257 183.433C377.703 183.713 378.204 183.852 378.763 183.852ZM391.471 185.699C390.496 185.699 389.624 185.531 388.857 185.195C388.095 184.858 387.491 184.392 387.046 183.795C386.606 183.194 386.369 182.498 386.336 181.707H388.566C388.594 182.138 388.739 182.512 388.999 182.83C389.264 183.142 389.61 183.384 390.036 183.554C390.462 183.724 390.936 183.81 391.457 183.81C392.03 183.81 392.536 183.71 392.977 183.511C393.422 183.312 393.77 183.036 394.021 182.68C394.272 182.321 394.397 181.906 394.397 181.438C394.397 180.95 394.272 180.521 394.021 180.152C393.774 179.778 393.412 179.484 392.934 179.271C392.46 179.058 391.888 178.952 391.215 178.952H389.987V177.162H391.215C391.755 177.162 392.228 177.065 392.636 176.871C393.048 176.677 393.37 176.407 393.602 176.061C393.834 175.711 393.95 175.301 393.95 174.832C393.95 174.383 393.848 173.992 393.644 173.661C393.445 173.324 393.161 173.062 392.792 172.872C392.427 172.683 391.996 172.588 391.499 172.588C391.026 172.588 390.583 172.676 390.171 172.851C389.764 173.021 389.433 173.268 389.177 173.589C388.921 173.907 388.784 174.288 388.765 174.733H386.641C386.665 173.947 386.897 173.256 387.337 172.659C387.782 172.062 388.37 171.596 389.099 171.26C389.828 170.924 390.638 170.756 391.528 170.756C392.46 170.756 393.265 170.938 393.942 171.303C394.624 171.662 395.15 172.143 395.519 172.744C395.893 173.346 396.078 174.004 396.073 174.719C396.078 175.533 395.851 176.224 395.391 176.793C394.937 177.361 394.331 177.742 393.573 177.936V178.05C394.539 178.196 395.287 178.58 395.817 179.2C396.353 179.821 396.618 180.59 396.613 181.509C396.618 182.309 396.395 183.026 395.945 183.661C395.5 184.295 394.892 184.795 394.12 185.159C393.348 185.519 392.465 185.699 391.471 185.699Z" fill="black"/>
<rect x="410" y="166" width="58" height="25" rx="12.5" fill="#B7F4ED"/>
<path d="M429.315 181.912V180.898L433.79 173.818H434.526V175.389H434.028L430.648 180.739V180.818H436.673V181.912H429.315ZM434.108 184V181.604V181.131V173.818H435.281V184H434.108ZM443.727 182.091V181.554C443.727 181.183 443.803 180.843 443.955 180.535C444.111 180.223 444.337 179.975 444.632 179.789C444.93 179.6 445.291 179.506 445.715 179.506C446.146 179.506 446.508 179.6 446.799 179.789C447.091 179.975 447.311 180.223 447.46 180.535C447.61 180.843 447.684 181.183 447.684 181.554V182.091C447.684 182.462 447.608 182.804 447.455 183.115C447.306 183.423 447.084 183.672 446.789 183.861C446.498 184.046 446.14 184.139 445.715 184.139C445.285 184.139 444.922 184.046 444.627 183.861C444.332 183.672 444.108 183.423 443.955 183.115C443.803 182.804 443.727 182.462 443.727 182.091ZM444.741 181.554V182.091C444.741 182.399 444.814 182.676 444.96 182.921C445.106 183.163 445.357 183.284 445.715 183.284C446.063 183.284 446.309 183.163 446.451 182.921C446.597 182.676 446.67 182.399 446.67 182.091V181.554C446.67 181.246 446.6 180.971 446.461 180.729C446.322 180.483 446.073 180.361 445.715 180.361C445.367 180.361 445.117 180.483 444.965 180.729C444.816 180.971 444.741 181.246 444.741 181.554ZM438.656 176.264V175.727C438.656 175.356 438.732 175.016 438.884 174.708C439.04 174.397 439.266 174.148 439.561 173.962C439.859 173.773 440.22 173.679 440.644 173.679C441.075 173.679 441.436 173.773 441.728 173.962C442.02 174.148 442.24 174.397 442.389 174.708C442.539 175.016 442.613 175.356 442.613 175.727V176.264C442.613 176.635 442.537 176.977 442.384 177.288C442.235 177.597 442.013 177.845 441.718 178.034C441.427 178.22 441.069 178.312 440.644 178.312C440.213 178.312 439.851 178.22 439.556 178.034C439.261 177.845 439.037 177.597 438.884 177.288C438.732 176.977 438.656 176.635 438.656 176.264ZM439.67 175.727V176.264C439.67 176.572 439.743 176.849 439.889 177.094C440.035 177.336 440.286 177.457 440.644 177.457C440.992 177.457 441.238 177.336 441.38 177.094C441.526 176.849 441.599 176.572 441.599 176.264V175.727C441.599 175.419 441.529 175.144 441.39 174.902C441.251 174.657 441.002 174.534 440.644 174.534C440.296 174.534 440.046 174.657 439.894 174.902C439.744 175.144 439.67 175.419 439.67 175.727ZM439.034 184L446.034 173.818H447.167L440.167 184H439.034Z" fill="#02665A"/>
<circle cx="78" cy="223.5" r="7" fill="#09B4D4"/>
<path d="M113.466 220.5H111.705C111.6 219.993 111.418 219.548 111.158 219.165C110.902 218.781 110.589 218.459 110.22 218.199C109.856 217.934 109.451 217.735 109.006 217.602C108.561 217.47 108.097 217.403 107.614 217.403C106.733 217.403 105.935 217.626 105.22 218.071C104.51 218.516 103.944 219.172 103.523 220.038C103.106 220.905 102.898 221.968 102.898 223.227C102.898 224.487 103.106 225.55 103.523 226.416C103.944 227.283 104.51 227.938 105.22 228.384C105.935 228.829 106.733 229.051 107.614 229.051C108.097 229.051 108.561 228.985 109.006 228.852C109.451 228.72 109.856 228.523 110.22 228.263C110.589 227.998 110.902 227.673 111.158 227.29C111.418 226.902 111.6 226.456 111.705 225.955H113.466C113.333 226.698 113.092 227.363 112.741 227.95C112.391 228.537 111.955 229.037 111.435 229.449C110.914 229.856 110.329 230.166 109.68 230.379C109.036 230.592 108.348 230.699 107.614 230.699C106.373 230.699 105.27 230.396 104.304 229.79C103.338 229.184 102.578 228.322 102.024 227.205C101.47 226.087 101.193 224.761 101.193 223.227C101.193 221.693 101.47 220.367 102.024 219.25C102.578 218.133 103.338 217.271 104.304 216.665C105.27 216.059 106.373 215.756 107.614 215.756C108.348 215.756 109.036 215.862 109.68 216.075C110.329 216.288 110.914 216.601 111.435 217.013C111.955 217.42 112.391 217.917 112.741 218.504C113.092 219.087 113.333 219.752 113.466 220.5ZM119.295 230.756C118.604 230.756 117.976 230.625 117.413 230.365C116.85 230.1 116.402 229.719 116.071 229.222C115.739 228.72 115.574 228.114 115.574 227.403C115.574 226.778 115.697 226.272 115.943 225.884C116.189 225.491 116.518 225.183 116.93 224.96C117.342 224.738 117.797 224.572 118.294 224.463C118.796 224.349 119.3 224.259 119.806 224.193C120.469 224.108 121.007 224.044 121.419 224.001C121.835 223.954 122.138 223.876 122.328 223.767C122.522 223.658 122.619 223.469 122.619 223.199V223.142C122.619 222.441 122.427 221.897 122.044 221.509C121.665 221.12 121.09 220.926 120.318 220.926C119.518 220.926 118.89 221.101 118.436 221.452C117.981 221.802 117.662 222.176 117.477 222.574L115.886 222.006C116.17 221.343 116.549 220.827 117.022 220.457C117.501 220.083 118.021 219.823 118.585 219.676C119.153 219.525 119.712 219.449 120.261 219.449C120.611 219.449 121.014 219.491 121.468 219.577C121.928 219.657 122.37 219.825 122.797 220.081C123.227 220.337 123.585 220.723 123.869 221.239C124.153 221.755 124.295 222.446 124.295 223.312V230.5H122.619V229.023H122.534C122.42 229.259 122.231 229.513 121.966 229.783C121.7 230.053 121.348 230.282 120.907 230.472C120.467 230.661 119.93 230.756 119.295 230.756ZM119.551 229.25C120.214 229.25 120.772 229.12 121.227 228.859C121.686 228.599 122.032 228.263 122.264 227.851C122.501 227.439 122.619 227.006 122.619 226.551V225.017C122.548 225.102 122.392 225.18 122.15 225.251C121.913 225.318 121.639 225.377 121.326 225.429C121.019 225.476 120.718 225.519 120.424 225.557C120.136 225.59 119.901 225.618 119.721 225.642C119.286 225.699 118.878 225.791 118.5 225.919C118.126 226.042 117.823 226.229 117.591 226.48C117.363 226.726 117.25 227.062 117.25 227.489C117.25 228.071 117.465 228.511 117.896 228.81C118.332 229.103 118.883 229.25 119.551 229.25ZM132.099 219.591V221.011H126.445V219.591H132.099ZM128.093 216.977H129.769V227.375C129.769 227.848 129.838 228.204 129.975 228.44C130.117 228.672 130.297 228.829 130.515 228.909C130.737 228.985 130.972 229.023 131.218 229.023C131.403 229.023 131.554 229.013 131.673 228.994C131.791 228.971 131.886 228.952 131.957 228.938L132.298 230.443C132.184 230.486 132.025 230.528 131.822 230.571C131.618 230.618 131.36 230.642 131.048 230.642C130.574 230.642 130.11 230.54 129.656 230.337C129.206 230.133 128.832 229.823 128.533 229.406C128.24 228.99 128.093 228.464 128.093 227.83V216.977ZM138.935 230.727C137.912 230.727 137.031 230.486 136.293 230.003C135.554 229.52 134.986 228.855 134.588 228.007C134.19 227.16 133.991 226.191 133.991 225.102C133.991 223.994 134.195 223.017 134.602 222.169C135.014 221.317 135.587 220.652 136.321 220.173C137.06 219.69 137.921 219.449 138.906 219.449C139.673 219.449 140.365 219.591 140.98 219.875C141.596 220.159 142.1 220.557 142.493 221.068C142.886 221.58 143.13 222.176 143.224 222.858H141.548C141.42 222.361 141.136 221.92 140.696 221.537C140.26 221.149 139.673 220.955 138.935 220.955C138.281 220.955 137.708 221.125 137.216 221.466C136.728 221.802 136.347 222.278 136.072 222.893C135.803 223.504 135.668 224.222 135.668 225.045C135.668 225.888 135.8 226.622 136.065 227.247C136.335 227.872 136.714 228.357 137.202 228.703C137.694 229.049 138.272 229.222 138.935 229.222C139.37 229.222 139.766 229.146 140.121 228.994C140.476 228.843 140.777 228.625 141.023 228.341C141.269 228.057 141.444 227.716 141.548 227.318H143.224C143.13 227.962 142.895 228.542 142.521 229.058C142.152 229.57 141.662 229.977 141.051 230.28C140.445 230.578 139.74 230.727 138.935 230.727ZM147.351 223.938V230.5H145.675V215.955H147.351V221.295H147.493C147.749 220.732 148.132 220.285 148.643 219.953C149.16 219.617 149.846 219.449 150.703 219.449C151.446 219.449 152.098 219.598 152.656 219.896C153.215 220.19 153.648 220.642 153.956 221.253C154.268 221.859 154.425 222.631 154.425 223.568V230.5H152.749V223.682C152.749 222.815 152.524 222.145 152.074 221.672C151.629 221.194 151.011 220.955 150.22 220.955C149.671 220.955 149.179 221.071 148.743 221.303C148.312 221.535 147.971 221.873 147.72 222.318C147.474 222.763 147.351 223.303 147.351 223.938ZM163.741 223.483V225.045H157.377V223.483H163.741ZM167.514 230.5H165.668L171.009 215.955H172.827L178.168 230.5H176.321L171.974 218.256H171.861L167.514 230.5ZM168.196 224.818H175.639V226.381H168.196V224.818ZM181.882 215.955V230.5H180.206V215.955H181.882ZM186.628 215.955V230.5H184.952V215.955H186.628ZM200.039 230.5H195.55V215.955H200.238C201.649 215.955 202.856 216.246 203.86 216.828C204.864 217.406 205.633 218.237 206.168 219.321C206.703 220.401 206.971 221.693 206.971 223.199C206.971 224.714 206.701 226.018 206.161 227.112C205.621 228.201 204.835 229.039 203.803 229.626C202.771 230.209 201.516 230.5 200.039 230.5ZM197.312 228.938H199.925C201.128 228.938 202.125 228.705 202.915 228.241C203.706 227.777 204.296 227.117 204.684 226.26C205.072 225.403 205.266 224.383 205.266 223.199C205.266 222.025 205.075 221.014 204.691 220.166C204.308 219.314 203.735 218.661 202.972 218.206C202.21 217.747 201.261 217.517 200.124 217.517H197.312V228.938ZM214.13 230.727C213.145 230.727 212.281 230.493 211.538 230.024C210.799 229.555 210.221 228.9 209.805 228.057C209.393 227.214 209.187 226.229 209.187 225.102C209.187 223.966 209.393 222.974 209.805 222.126C210.221 221.279 210.799 220.621 211.538 220.152C212.281 219.683 213.145 219.449 214.13 219.449C215.115 219.449 215.977 219.683 216.715 220.152C217.459 220.621 218.036 221.279 218.448 222.126C218.865 222.974 219.073 223.966 219.073 225.102C219.073 226.229 218.865 227.214 218.448 228.057C218.036 228.9 217.459 229.555 216.715 230.024C215.977 230.493 215.115 230.727 214.13 230.727ZM214.13 229.222C214.878 229.222 215.494 229.03 215.977 228.646C216.46 228.263 216.817 227.759 217.049 227.134C217.281 226.509 217.397 225.831 217.397 225.102C217.397 224.373 217.281 223.694 217.049 223.064C216.817 222.434 216.46 221.925 215.977 221.537C215.494 221.149 214.878 220.955 214.13 220.955C213.382 220.955 212.766 221.149 212.283 221.537C211.8 221.925 211.443 222.434 211.211 223.064C210.979 223.694 210.863 224.373 210.863 225.102C210.863 225.831 210.979 226.509 211.211 227.134C211.443 227.759 211.8 228.263 212.283 228.646C212.766 229.03 213.382 229.222 214.13 229.222ZM221.632 230.5V219.591H223.251V221.295H223.393C223.62 220.713 223.987 220.261 224.494 219.939C225.001 219.612 225.609 219.449 226.319 219.449C227.039 219.449 227.638 219.612 228.116 219.939C228.599 220.261 228.975 220.713 229.245 221.295H229.359C229.638 220.732 230.057 220.285 230.616 219.953C231.175 219.617 231.845 219.449 232.626 219.449C233.601 219.449 234.399 219.754 235.02 220.365C235.64 220.971 235.95 221.916 235.95 223.199V230.5H234.274V223.199C234.274 222.394 234.054 221.819 233.613 221.473C233.173 221.127 232.654 220.955 232.058 220.955C231.291 220.955 230.697 221.187 230.275 221.651C229.854 222.11 229.643 222.692 229.643 223.398V230.5H227.939V223.028C227.939 222.408 227.737 221.909 227.335 221.53C226.932 221.146 226.414 220.955 225.779 220.955C225.344 220.955 224.937 221.071 224.558 221.303C224.184 221.535 223.881 221.857 223.649 222.268C223.422 222.676 223.308 223.147 223.308 223.682V230.5H221.632ZM242.225 230.756C241.533 230.756 240.906 230.625 240.343 230.365C239.779 230.1 239.332 229.719 239 229.222C238.669 228.72 238.503 228.114 238.503 227.403C238.503 226.778 238.626 226.272 238.873 225.884C239.119 225.491 239.448 225.183 239.86 224.96C240.272 224.738 240.726 224.572 241.223 224.463C241.725 224.349 242.23 224.259 242.736 224.193C243.399 224.108 243.936 224.044 244.348 224.001C244.765 223.954 245.068 223.876 245.257 223.767C245.452 223.658 245.549 223.469 245.549 223.199V223.142C245.549 222.441 245.357 221.897 244.973 221.509C244.595 221.12 244.019 220.926 243.248 220.926C242.447 220.926 241.82 221.101 241.365 221.452C240.911 221.802 240.591 222.176 240.407 222.574L238.816 222.006C239.1 221.343 239.479 220.827 239.952 220.457C240.43 220.083 240.951 219.823 241.515 219.676C242.083 219.525 242.641 219.449 243.191 219.449C243.541 219.449 243.944 219.491 244.398 219.577C244.857 219.657 245.3 219.825 245.726 220.081C246.157 220.337 246.515 220.723 246.799 221.239C247.083 221.755 247.225 222.446 247.225 223.312V230.5H245.549V229.023H245.463C245.35 229.259 245.16 229.513 244.895 229.783C244.63 230.053 244.277 230.282 243.837 230.472C243.397 230.661 242.859 230.756 242.225 230.756ZM242.48 229.25C243.143 229.25 243.702 229.12 244.157 228.859C244.616 228.599 244.962 228.263 245.194 227.851C245.43 227.439 245.549 227.006 245.549 226.551V225.017C245.478 225.102 245.321 225.18 245.08 225.251C244.843 225.318 244.569 225.377 244.256 225.429C243.948 225.476 243.648 225.519 243.354 225.557C243.065 225.59 242.831 225.618 242.651 225.642C242.215 225.699 241.808 225.791 241.429 225.919C241.055 226.042 240.752 226.229 240.52 226.48C240.293 226.726 240.179 227.062 240.179 227.489C240.179 228.071 240.395 228.511 240.826 228.81C241.261 229.103 241.813 229.25 242.48 229.25ZM250.284 230.5V219.591H251.96V230.5H250.284ZM251.136 217.773C250.81 217.773 250.528 217.661 250.291 217.439C250.059 217.216 249.943 216.949 249.943 216.636C249.943 216.324 250.059 216.056 250.291 215.834C250.528 215.611 250.81 215.5 251.136 215.5C251.463 215.5 251.742 215.611 251.974 215.834C252.211 216.056 252.33 216.324 252.33 216.636C252.33 216.949 252.211 217.216 251.974 217.439C251.742 217.661 251.463 217.773 251.136 217.773ZM256.706 223.938V230.5H255.03V219.591H256.65V221.295H256.792C257.047 220.741 257.435 220.296 257.956 219.96C258.477 219.619 259.15 219.449 259.973 219.449C260.712 219.449 261.358 219.6 261.912 219.903C262.466 220.202 262.897 220.656 263.205 221.267C263.513 221.873 263.667 222.64 263.667 223.568V230.5H261.99V223.682C261.99 222.825 261.768 222.157 261.323 221.679C260.878 221.196 260.267 220.955 259.49 220.955C258.955 220.955 258.477 221.071 258.056 221.303C257.639 221.535 257.31 221.873 257.069 222.318C256.827 222.763 256.706 223.303 256.706 223.938ZM274.457 222.034L272.951 222.46C272.856 222.209 272.717 221.965 272.532 221.729C272.352 221.487 272.106 221.288 271.793 221.132C271.481 220.976 271.081 220.898 270.593 220.898C269.925 220.898 269.369 221.052 268.924 221.359C268.484 221.662 268.263 222.048 268.263 222.517C268.263 222.934 268.415 223.263 268.718 223.504C269.021 223.746 269.495 223.947 270.138 224.108L271.758 224.506C272.733 224.742 273.46 225.105 273.938 225.592C274.416 226.075 274.656 226.698 274.656 227.46C274.656 228.085 274.476 228.644 274.116 229.136C273.761 229.629 273.263 230.017 272.624 230.301C271.985 230.585 271.242 230.727 270.394 230.727C269.281 230.727 268.361 230.486 267.631 230.003C266.902 229.52 266.441 228.814 266.246 227.886L267.837 227.489C267.989 228.076 268.275 228.516 268.697 228.81C269.123 229.103 269.679 229.25 270.366 229.25C271.147 229.25 271.767 229.084 272.227 228.753C272.691 228.417 272.923 228.014 272.923 227.545C272.923 227.167 272.79 226.849 272.525 226.594C272.26 226.333 271.853 226.139 271.303 226.011L269.485 225.585C268.486 225.348 267.752 224.982 267.283 224.484C266.819 223.982 266.587 223.355 266.587 222.602C266.587 221.987 266.76 221.442 267.106 220.969C267.456 220.495 267.932 220.124 268.533 219.854C269.139 219.584 269.826 219.449 270.593 219.449C271.673 219.449 272.52 219.686 273.136 220.159C273.756 220.633 274.196 221.258 274.457 222.034ZM278.4 230.614C278.05 230.614 277.749 230.488 277.498 230.237C277.247 229.986 277.122 229.686 277.122 229.335C277.122 228.985 277.247 228.684 277.498 228.433C277.749 228.182 278.05 228.057 278.4 228.057C278.751 228.057 279.051 228.182 279.302 228.433C279.553 228.684 279.679 228.985 279.679 229.335C279.679 229.567 279.619 229.78 279.501 229.974C279.387 230.169 279.234 230.325 279.039 230.443C278.85 230.557 278.637 230.614 278.4 230.614ZM278.4 222.517C278.05 222.517 277.749 222.392 277.498 222.141C277.247 221.89 277.122 221.589 277.122 221.239C277.122 220.888 277.247 220.588 277.498 220.337C277.749 220.086 278.05 219.96 278.4 219.96C278.751 219.96 279.051 220.086 279.302 220.337C279.553 220.588 279.679 220.888 279.679 221.239C279.679 221.471 279.619 221.684 279.501 221.878C279.387 222.072 279.234 222.228 279.039 222.347C278.85 222.46 278.637 222.517 278.4 222.517Z" fill="black"/>
<path d="M365.236 215.756C365.884 215.76 366.524 215.879 367.153 216.111C367.783 216.343 368.351 216.722 368.858 217.247C369.369 217.773 369.777 218.483 370.08 219.378C370.387 220.268 370.544 221.376 370.548 222.702C370.548 223.975 370.42 225.109 370.165 226.104C369.909 227.093 369.542 227.929 369.064 228.611C368.59 229.293 368.015 229.811 367.338 230.166C366.661 230.521 365.899 230.699 365.051 230.699C364.185 230.699 363.415 230.528 362.743 230.188C362.071 229.847 361.524 229.375 361.102 228.774C360.681 228.168 360.418 227.472 360.314 226.686H362.48C362.622 227.311 362.911 227.818 363.347 228.206C363.787 228.589 364.355 228.781 365.051 228.781C366.116 228.781 366.947 228.317 367.544 227.389C368.141 226.456 368.441 225.154 368.446 223.483H368.332C368.086 223.89 367.778 224.241 367.409 224.534C367.045 224.828 366.635 225.055 366.18 225.216C365.726 225.377 365.241 225.457 364.724 225.457C363.886 225.457 363.124 225.251 362.438 224.839C361.751 224.428 361.204 223.862 360.797 223.142C360.39 222.422 360.186 221.601 360.186 220.678C360.186 219.759 360.394 218.926 360.811 218.178C361.232 217.429 361.82 216.838 362.572 216.402C363.33 215.962 364.218 215.746 365.236 215.756ZM365.243 217.602C364.689 217.602 364.189 217.74 363.744 218.014C363.304 218.284 362.956 218.651 362.7 219.115C362.445 219.574 362.317 220.086 362.317 220.649C362.317 221.213 362.44 221.724 362.686 222.183C362.937 222.638 363.278 223 363.709 223.27C364.144 223.535 364.642 223.668 365.2 223.668C365.617 223.668 366.005 223.587 366.365 223.426C366.725 223.265 367.04 223.043 367.31 222.759C367.58 222.47 367.79 222.143 367.942 221.778C368.093 221.414 368.169 221.03 368.169 220.628C368.169 220.093 368.041 219.596 367.786 219.136C367.535 218.677 367.189 218.308 366.749 218.028C366.308 217.744 365.806 217.602 365.243 217.602ZM378.029 230.699C377.011 230.699 376.111 230.524 375.33 230.173C374.553 229.823 373.945 229.34 373.505 228.724C373.064 228.109 372.846 227.408 372.851 226.622C372.846 226.007 372.972 225.441 373.228 224.925C373.488 224.404 373.841 223.971 374.286 223.625C374.731 223.275 375.228 223.052 375.777 222.957V222.872C375.053 222.697 374.473 222.309 374.037 221.707C373.602 221.106 373.386 220.415 373.391 219.634C373.386 218.89 373.583 218.227 373.98 217.645C374.383 217.058 374.935 216.596 375.635 216.26C376.336 215.924 377.134 215.756 378.029 215.756C378.914 215.756 379.705 215.926 380.401 216.267C381.102 216.603 381.653 217.065 382.056 217.652C382.458 218.234 382.662 218.895 382.667 219.634C382.662 220.415 382.439 221.106 381.999 221.707C381.559 222.309 380.986 222.697 380.28 222.872V222.957C380.825 223.052 381.315 223.275 381.75 223.625C382.191 223.971 382.541 224.404 382.801 224.925C383.067 225.441 383.202 226.007 383.206 226.622C383.202 227.408 382.979 228.109 382.539 228.724C382.098 229.34 381.488 229.823 380.706 230.173C379.93 230.524 379.037 230.699 378.029 230.699ZM378.029 228.902C378.63 228.902 379.151 228.803 379.591 228.604C380.032 228.4 380.373 228.118 380.614 227.759C380.855 227.394 380.979 226.968 380.983 226.48C380.979 225.973 380.846 225.526 380.586 225.138C380.33 224.75 379.982 224.444 379.542 224.222C379.101 223.999 378.597 223.888 378.029 223.888C377.456 223.888 376.947 223.999 376.502 224.222C376.057 224.444 375.706 224.75 375.451 225.138C375.195 225.526 375.069 225.973 375.074 226.48C375.069 226.968 375.185 227.394 375.422 227.759C375.664 228.118 376.007 228.4 376.452 228.604C376.897 228.803 377.423 228.902 378.029 228.902ZM378.029 222.134C378.512 222.134 378.94 222.036 379.314 221.842C379.688 221.648 379.982 221.378 380.195 221.033C380.413 220.687 380.524 220.282 380.529 219.818C380.524 219.364 380.415 218.966 380.202 218.625C379.994 218.284 379.703 218.021 379.328 217.837C378.954 217.647 378.521 217.553 378.029 217.553C377.527 217.553 377.087 217.647 376.708 217.837C376.334 218.021 376.042 218.284 375.834 218.625C375.626 218.966 375.524 219.364 375.529 219.818C375.524 220.282 375.628 220.687 375.841 221.033C376.054 221.378 376.348 221.648 376.722 221.842C377.101 222.036 377.536 222.134 378.029 222.134ZM385.445 227.659V225.884L391.731 215.955H393.13V218.568H392.242L387.746 225.685V225.798H396.362V227.659H385.445ZM392.342 230.5V227.119L392.356 226.31V215.955H394.437V230.5H392.342Z" fill="black"/>
<rect x="410" y="211" width="58" height="25" rx="12.5" fill="#B4EDF8"/>
<path d="M429.315 226.912V225.898L433.79 218.818H434.526V220.389H434.028L430.648 225.739V225.818H436.673V226.912H429.315ZM434.108 229V226.604V226.131V218.818H435.281V229H434.108ZM443.727 227.091V226.554C443.727 226.183 443.803 225.843 443.955 225.535C444.111 225.223 444.337 224.975 444.632 224.789C444.93 224.6 445.291 224.506 445.715 224.506C446.146 224.506 446.508 224.6 446.799 224.789C447.091 224.975 447.311 225.223 447.46 225.535C447.61 225.843 447.684 226.183 447.684 226.554V227.091C447.684 227.462 447.608 227.804 447.455 228.115C447.306 228.423 447.084 228.672 446.789 228.861C446.498 229.046 446.14 229.139 445.715 229.139C445.285 229.139 444.922 229.046 444.627 228.861C444.332 228.672 444.108 228.423 443.955 228.115C443.803 227.804 443.727 227.462 443.727 227.091ZM444.741 226.554V227.091C444.741 227.399 444.814 227.676 444.96 227.921C445.106 228.163 445.357 228.284 445.715 228.284C446.063 228.284 446.309 228.163 446.451 227.921C446.597 227.676 446.67 227.399 446.67 227.091V226.554C446.67 226.246 446.6 225.971 446.461 225.729C446.322 225.483 446.073 225.361 445.715 225.361C445.367 225.361 445.117 225.483 444.965 225.729C444.816 225.971 444.741 226.246 444.741 226.554ZM438.656 221.264V220.727C438.656 220.356 438.732 220.016 438.884 219.708C439.04 219.397 439.266 219.148 439.561 218.962C439.859 218.773 440.22 218.679 440.644 218.679C441.075 218.679 441.436 218.773 441.728 218.962C442.02 219.148 442.24 219.397 442.389 219.708C442.539 220.016 442.613 220.356 442.613 220.727V221.264C442.613 221.635 442.537 221.977 442.384 222.288C442.235 222.597 442.013 222.845 441.718 223.034C441.427 223.22 441.069 223.312 440.644 223.312C440.213 223.312 439.851 223.22 439.556 223.034C439.261 222.845 439.037 222.597 438.884 222.288C438.732 221.977 438.656 221.635 438.656 221.264ZM439.67 220.727V221.264C439.67 221.572 439.743 221.849 439.889 222.094C440.035 222.336 440.286 222.457 440.644 222.457C440.992 222.457 441.238 222.336 441.38 222.094C441.526 221.849 441.599 221.572 441.599 221.264V220.727C441.599 220.419 441.529 220.144 441.39 219.902C441.251 219.657 441.002 219.534 440.644 219.534C440.296 219.534 440.046 219.657 439.894 219.902C439.744 220.144 439.67 220.419 439.67 220.727ZM439.034 229L446.034 218.818H447.167L440.167 229H439.034Z" fill="#09B4D4"/>
</g>
<defs>
<filter id="filter0_d_303_1865" x="0" y="0" width="533" height="291" filterUnits="userSpaceOnUse" color-interpolation-filters="sRGB">
<feFlood flood-opacity="0" result="BackgroundImageFix"/>
<feColorMatrix in="SourceAlpha" type="matrix" values="0 0 0 0 0 0 0 0 0 0 0 0 0 0 0 0 0 0 127 0" result="hardAlpha"/>
<feOffset dx="-4" dy="4"/>
<feGaussianBlur stdDeviation="7.5"/>
<feComposite in2="hardAlpha" operator="out"/>
<feColorMatrix type="matrix" values="0 0 0 0 0 0 0 0 0 0 0 0 0 0 0 0 0 0 0.15 0"/>
<feBlend mode="normal" in2="BackgroundImageFix" result="effect1_dropShadow_303_1865"/>
<feBlend mode="normal" in="SourceGraphic" in2="effect1_dropShadow_303_1865" result="shape"/>
</filter>
<clipPath id="clip0_303_1865">
<rect width="32" height="32" fill="white" transform="translate(438 47)"/>
</clipPath>
</defs>
</svg>
