<svg xmlns="http://www.w3.org/2000/svg" width="533" height="291" fill="none" viewBox="0 0 533 291"><g filter="url(#a)"><rect width="503" height="261" x="19" y="11" fill="#e6fffa" rx="10" shape-rendering="crispEdges"/><rect width="461" height="231" x="40" y="26" fill="#fff" rx="10"/><path fill="#000" d="M88.783 59.74h-2.881a4.4 4.4 0 0 0-.619-1.625 4.6 4.6 0 0 0-1.108-1.191 4.8 4.8 0 0 0-1.468-.739A5.7 5.7 0 0 0 81 55.936q-1.635 0-2.927.822-1.283.821-2.03 2.41-.74 1.587-.74 3.877 0 2.31.74 3.897.747 1.588 2.04 2.4 1.291.813 2.908.813.895 0 1.699-.24a4.9 4.9 0 0 0 1.468-.73q.655-.48 1.108-1.172a4.4 4.4 0 0 0 .637-1.607l2.88.01a7.7 7.7 0 0 1-.895 2.566q-.655 1.164-1.69 2.013a7.6 7.6 0 0 1-2.345 1.302q-1.32.462-2.88.462-2.456 0-4.377-1.164-1.92-1.173-3.028-3.351-1.1-2.18-1.099-5.199 0-3.028 1.108-5.198 1.108-2.178 3.028-3.342 1.92-1.173 4.368-1.173 1.505 0 2.806.434a7.4 7.4 0 0 1 2.355 1.256 6.9 6.9 0 0 1 1.726 2.013q.684 1.182.924 2.705m7.32 13.074q-1.35 0-2.438-.499a4.1 4.1 0 0 1-1.727-1.468q-.628-.96-.628-2.354 0-1.2.462-1.976a3.4 3.4 0 0 1 1.246-1.228 6.5 6.5 0 0 1 1.754-.683q.97-.231 1.976-.351l2.069-.24q.794-.102 1.154-.323t.36-.72v-.065q0-1.21-.684-1.874-.674-.666-2.012-.665-1.395 0-2.198.618-.793.61-1.098 1.358l-2.595-.591q.462-1.293 1.348-2.087a5.5 5.5 0 0 1 2.06-1.163 8 8 0 0 1 2.446-.37q.849 0 1.8.204.96.193 1.791.72.841.525 1.376 1.505.536.969.536 2.52V72.5h-2.696v-1.939h-.111a4 4 0 0 1-.803 1.053q-.536.516-1.376.858t-2.013.342m.6-2.216q1.144 0 1.957-.452.821-.453 1.246-1.182a3.07 3.07 0 0 0 .434-1.58v-1.827q-.147.147-.572.277a9 9 0 0 1-.951.212q-.536.084-1.044.157l-.85.11a7 7 0 0 0-1.467.343q-.656.24-1.053.692-.387.444-.388 1.182 0 1.024.757 1.551.757.517 1.93.517m16.695-12.28v2.216h-7.747v-2.216zm-5.669-3.398h2.76v13.416q0 .803.24 1.21.24.396.619.544.389.14.84.139.333 0 .582-.046l.388-.074.498 2.28q-.24.093-.683.185a5.4 5.4 0 0 1-1.108.11 4.9 4.9 0 0 1-2.031-.387 3.5 3.5 0 0 1-1.524-1.256q-.58-.849-.581-2.133zm14.544 17.866q-2.06 0-3.546-.932-1.477-.942-2.271-2.595t-.794-3.785q0-2.16.813-3.814.812-1.66 2.289-2.594t3.481-.933q1.616 0 2.881.6a5.17 5.17 0 0 1 2.04 1.663q.785 1.071.933 2.502h-2.687a3.2 3.2 0 0 0-1.016-1.718q-.784-.72-2.105-.72-1.154 0-2.022.61-.858.6-1.338 1.717-.481 1.108-.481 2.622 0 1.551.471 2.678.47 1.125 1.33 1.745.868.618 2.04.618.786 0 1.422-.286a2.9 2.9 0 0 0 1.081-.84q.443-.544.618-1.311h2.687a5.2 5.2 0 0 1-.896 2.456q-.747 1.08-2.003 1.699-1.247.618-2.927.618m11.539-8.707V72.5h-2.761V53.59h2.724v7.036h.175q.499-1.145 1.524-1.819t2.677-.674q1.459 0 2.549.6 1.098.6 1.698 1.792.61 1.182.61 2.954V72.5h-2.761v-8.688q0-1.56-.803-2.42-.804-.867-2.234-.867-.98 0-1.755.415a3 3 0 0 0-1.209 1.22q-.434.793-.434 1.92m21.236-.766v2.391h-8.384v-2.39zm5.498 9.187h-3.029l6.805-18.91h3.296l6.805 18.91h-3.028l-5.346-15.474h-.148zm.508-7.405h9.823v2.4h-9.823zm18.639-11.504V72.5h-2.761V53.59zm6.474 0V72.5h-2.76V53.59zM203.105 72.5h-6.121V53.59h6.315q2.78 0 4.773 1.137 1.995 1.125 3.057 3.24 1.071 2.106 1.071 5.05 0 2.955-1.081 5.079-1.071 2.124-3.102 3.268-2.03 1.136-4.912 1.136m-3.268-2.493h3.111q2.16 0 3.592-.812 1.431-.823 2.142-2.373.711-1.56.711-3.804 0-2.225-.711-3.776-.702-1.553-2.096-2.355-1.395-.803-3.462-.803h-3.287zm21.801 2.78q-2.096-.001-3.61-.896-1.505-.906-2.327-2.54-.812-1.643-.812-3.85 0-2.179.812-3.84.822-1.662 2.29-2.595 1.478-.933 3.453-.933 1.2 0 2.327.398 1.127.397 2.022 1.246.896.85 1.412 2.207.517 1.347.517 3.277v.98h-11.273v-2.07h8.568q0-1.089-.443-1.929a3.35 3.35 0 0 0-1.246-1.339q-.794-.489-1.865-.489-1.164 0-2.032.572a3.85 3.85 0 0 0-1.329 1.478 4.26 4.26 0 0 0-.462 1.966v1.616q0 1.421.499 2.42.507.996 1.412 1.523.905.516 2.115.517.785 0 1.431-.222a3.1 3.1 0 0 0 1.117-.683q.471-.453.72-1.117l2.613.47a4.74 4.74 0 0 1-1.126 2.023q-.804.858-2.022 1.338-1.21.471-2.761.471m15.768-14.469v2.216h-7.747v-2.216zm-5.669-3.398h2.76v13.416q0 .803.24 1.21.24.396.619.544.387.14.84.139.333 0 .582-.046l.387-.074.499 2.28q-.24.093-.683.185a5.4 5.4 0 0 1-1.108.11 4.9 4.9 0 0 1-2.031-.387 3.5 3.5 0 0 1-1.524-1.256q-.582-.849-.581-2.133zm14.682 17.866q-2.095 0-3.61-.895-1.505-.906-2.327-2.54-.812-1.643-.812-3.85 0-2.179.812-3.84.823-1.662 2.29-2.595 1.477-.933 3.453-.933a7 7 0 0 1 2.327.398q1.127.397 2.022 1.246.895.85 1.413 2.207.516 1.347.517 3.277v.98H241.23v-2.07h8.568q0-1.089-.443-1.929a3.35 3.35 0 0 0-1.246-1.339q-.794-.489-1.865-.489-1.164 0-2.031.572a3.84 3.84 0 0 0-1.33 1.478 4.26 4.26 0 0 0-.462 1.966v1.616q0 1.421.499 2.42.507.996 1.413 1.523.905.516 2.114.517.784 0 1.431-.222a3.1 3.1 0 0 0 1.117-.683q.471-.453.72-1.117l2.613.47a4.7 4.7 0 0 1-1.126 2.023q-.804.858-2.022 1.338-1.21.471-2.761.471m15.121 0q-2.058 0-3.545-.932-1.478-.942-2.271-2.595-.794-1.653-.794-3.785 0-2.16.812-3.814.813-1.66 2.29-2.594t3.481-.933q1.615 0 2.88.6a5.16 5.16 0 0 1 2.041 1.663q.785 1.071.932 2.502h-2.686a3.22 3.22 0 0 0-1.016-1.718q-.785-.72-2.105-.72-1.153 0-2.022.61-.86.6-1.339 1.717-.48 1.108-.48 2.622 0 1.551.471 2.678.471 1.125 1.329 1.745.868.618 2.041.618.785 0 1.422-.286a2.9 2.9 0 0 0 1.08-.84q.444-.544.619-1.311h2.686a5.2 5.2 0 0 1-.895 2.456q-.749 1.08-2.004 1.699-1.246.618-2.927.618m15.399-14.468v2.216h-7.747v-2.216zm-5.669-3.398h2.76v13.416q0 .803.24 1.21.24.396.619.544.389.14.84.139.333 0 .582-.046l.388-.074.498 2.28q-.24.093-.683.185a5.4 5.4 0 0 1-1.108.11 4.9 4.9 0 0 1-2.031-.387 3.5 3.5 0 0 1-1.524-1.256q-.58-.849-.581-2.133zm8.723 17.58V58.318h2.76V72.5zm1.394-16.37q-.72 0-1.237-.48a1.56 1.56 0 0 1-.508-1.163q0-.684.508-1.164.517-.49 1.237-.49t1.228.49q.516.48.517 1.163 0 .675-.517 1.164-.508.48-1.228.48m11.054 16.656q-1.995 0-3.481-.914-1.486-.915-2.308-2.557-.822-1.644-.822-3.841 0-2.207.822-3.86.822-1.652 2.308-2.566 1.486-.915 3.481-.915t3.481.915 2.308 2.566.822 3.86q0 2.198-.822 3.84-.822 1.644-2.308 2.558-1.487.915-3.481.914m.009-2.317q1.293 0 2.142-.683.85-.684 1.256-1.82.415-1.134.415-2.501 0-1.358-.415-2.493-.407-1.145-1.256-1.838-.849-.692-2.142-.692-1.302 0-2.16.692-.85.693-1.265 1.838-.407 1.136-.407 2.492 0 1.368.407 2.503.415 1.135 1.265 1.819.858.683 2.16.683m12.444-6.39V72.5h-2.761V58.318h2.65v2.308h.175a4.06 4.06 0 0 1 1.533-1.81q1.053-.683 2.65-.683 1.45 0 2.539.61 1.09.6 1.69 1.791t.6 2.945V72.5h-2.761v-8.688q0-1.542-.803-2.41-.804-.877-2.207-.877-.96 0-1.708.415a3 3 0 0 0-1.172 1.22q-.425.793-.425 1.92"/><g clip-path="url(#b)"><path fill="#ffd459" d="M454.667 49.933a13.73 13.73 0 0 0-13.47 16.413 13.732 13.732 0 0 0 18.725 10.009 13.74 13.74 0 0 0 8.478-12.688 13.74 13.74 0 0 0-8.478-12.689 13.7 13.7 0 0 0-5.255-1.045m-.667 6.4h1.333v9.334H454zm.667 14a1.332 1.332 0 1 1 0-2.664 1.332 1.332 0 0 1 0 2.664"/></g><path fill="#000" fill-opacity=".7" d="M76.625 119.5h-4.04v-13.091h4.219q1.904 0 3.26.786 1.355.78 2.077 2.244.723 1.458.723 3.49 0 2.046-.73 3.522a5.2 5.2 0 0 1-2.121 2.263q-1.395.786-3.388.786m-2.454-1.406h2.352q1.624 0 2.69-.627a3.86 3.86 0 0 0 1.592-1.783q.524-1.157.524-2.755 0-1.586-.517-2.729-.518-1.151-1.547-1.765-1.029-.62-2.563-.62H74.17zm15.136 1.611q-1.33 0-2.333-.633-.998-.633-1.56-1.771-.556-1.137-.556-2.659 0-1.534.556-2.678.562-1.144 1.56-1.777 1.004-.633 2.333-.633t2.326.633q1.005.633 1.56 1.777.563 1.144.563 2.678 0 1.521-.563 2.659-.555 1.138-1.56 1.771-.996.633-2.326.633m0-1.356q1.01 0 1.662-.517a3.05 3.05 0 0 0 .965-1.362 5.2 5.2 0 0 0 .313-1.828q0-.985-.313-1.834a3.1 3.1 0 0 0-.965-1.375q-.653-.524-1.662-.524-1.011 0-1.662.524-.653.525-.965 1.375a5.3 5.3 0 0 0-.314 1.834q0 .984.314 1.828a3.05 3.05 0 0 0 .965 1.362q.652.517 1.662.517m6.751 1.151v-9.818h1.458v1.534h.128a2.47 2.47 0 0 1 .99-1.221q.684-.441 1.643-.441.972 0 1.617.441.653.435 1.017 1.221h.102a2.86 2.86 0 0 1 1.131-1.208q.755-.454 1.809-.454 1.317 0 2.154.825.838.818.838 2.55v6.571h-1.509v-6.571q0-1.086-.594-1.553a2.2 2.2 0 0 0-1.4-.467q-1.035 0-1.604.627-.57.62-.569 1.572v6.392h-1.534v-6.724q0-.838-.544-1.349-.543-.518-1.4-.518-.588 0-1.1.313-.504.314-.817.87-.307.549-.307 1.272v6.136zm18.534.23a4 4 0 0 1-1.694-.351 2.9 2.9 0 0 1-1.208-1.03q-.447-.677-.447-1.636 0-.843.332-1.368.333-.531.889-.831.555-.3 1.227-.447.677-.154 1.361-.243a65 65 0 0 1 1.451-.173q.563-.064.819-.211.262-.147.262-.511v-.051q0-.947-.518-1.47-.512-.525-1.553-.524-1.081 0-1.694.473-.614.473-.863 1.009l-1.432-.511q.384-.894 1.023-1.393.645-.505 1.406-.703a5.8 5.8 0 0 1 1.508-.205q.474 0 1.087.115.62.109 1.195.454.582.345.966 1.042.383.696.383 1.866v6.469h-1.508v-1.33h-.077q-.154.321-.511.684-.359.365-.953.62-.594.256-1.451.256m.23-1.355q.895 0 1.509-.352a2.39 2.39 0 0 0 1.253-2.077v-1.381q-.096.115-.422.211-.32.09-.742.16-.415.064-.812.115-.389.045-.632.077a6 6 0 0 0-1.1.249 1.9 1.9 0 0 0-.818.505q-.306.332-.307.908 0 .786.582 1.189.588.396 1.489.396m7.024 1.125v-9.818h1.508v9.818zm.767-11.455q-.441 0-.761-.3a.96.96 0 0 1-.313-.722q0-.422.313-.723.32-.3.761-.3.44 0 .754.3a.96.96 0 0 1 .319.723.96.96 0 0 1-.319.722q-.313.3-.754.3m5.013 5.549v5.906h-1.509v-9.818h1.457v1.534h.128q.345-.748 1.049-1.202.702-.46 1.815-.46.997 0 1.745.409.747.404 1.163 1.227.416.819.416 2.071v6.239h-1.509v-6.136q0-1.158-.601-1.803-.6-.652-1.649-.652a2.63 2.63 0 0 0-1.291.313 2.24 2.24 0 0 0-.888.914q-.326.601-.326 1.458m15.975-1.713-1.355.383a2.5 2.5 0 0 0-.377-.658 1.8 1.8 0 0 0-.665-.537q-.422-.211-1.08-.211-.902 0-1.503.415-.594.41-.594 1.042 0 .563.409.889.41.325 1.278.543l1.458.358q1.317.32 1.962.978.646.652.646 1.681 0 .844-.486 1.509-.48.664-1.342 1.048-.864.384-2.007.384-1.503 0-2.487-.652-.984-.653-1.246-1.905l1.431-.358q.206.792.774 1.189.575.396 1.502.396 1.054 0 1.675-.447.626-.454.626-1.087 0-.512-.358-.857-.357-.351-1.099-.524l-1.637-.383q-1.348-.32-1.981-.991-.627-.678-.627-1.694 0-.831.467-1.47.473-.64 1.285-1.004.817-.364 1.854-.364 1.457 0 2.288.639.837.64 1.189 1.688m8.254 7.619h-1.662l4.806-13.091h1.637l4.807 13.091h-1.662l-3.912-11.02h-.102zm.613-5.114h6.699v1.407h-6.699zm12.318-.792v5.906h-1.509v-9.818h1.458v1.534h.127a2.8 2.8 0 0 1 1.049-1.202q.703-.46 1.815-.46.997 0 1.745.409.748.404 1.163 1.227.416.819.416 2.071v6.239h-1.509v-6.136q0-1.158-.6-1.803-.602-.652-1.65-.652a2.63 2.63 0 0 0-1.291.313 2.24 2.24 0 0 0-.888.914q-.326.601-.326 1.458m11.91 6.136a4 4 0 0 1-1.694-.351 2.9 2.9 0 0 1-1.208-1.03q-.448-.677-.448-1.636 0-.843.333-1.368.332-.531.888-.831.557-.3 1.227-.447.678-.154 1.362-.243.894-.115 1.451-.173.563-.064.818-.211.262-.147.262-.511v-.051q0-.947-.518-1.47-.511-.525-1.553-.524-1.08 0-1.694.473t-.863 1.009l-1.432-.511q.384-.894 1.023-1.393a3.8 3.8 0 0 1 1.406-.703 5.8 5.8 0 0 1 1.509-.205q.473 0 1.087.115.62.109 1.195.454.582.345.965 1.042.384.696.384 1.866v6.469h-1.509v-1.33h-.077a2.6 2.6 0 0 1-.511.684q-.358.365-.952.62-.595.256-1.451.256m.23-1.355q.894 0 1.508-.352a2.39 2.39 0 0 0 1.253-2.077v-1.381q-.095.115-.422.211-.32.09-.741.16a32 32 0 0 1-1.445.192 6 6 0 0 0-1.099.249q-.506.166-.818.505-.307.332-.307.908 0 .786.581 1.189.588.396 1.49.396m8.532-11.966V119.5h-1.509v-13.091zm3.734 16.773q-.384 0-.684-.064a1.8 1.8 0 0 1-.415-.115l.383-1.33q.55.14.972.103a1.17 1.17 0 0 0 .748-.378q.332-.332.607-1.08l.281-.767-3.631-9.869h1.637l2.71 7.824h.102l2.711-7.824h1.636l-4.168 11.25q-.28.76-.696 1.259a2.6 2.6 0 0 1-.966.748 3 3 0 0 1-1.227.243m8.767-3.682v-1.151l5.574-7.159v-.102h-5.395v-1.406h7.338v1.202l-5.421 7.107v.103h5.6v1.406zm13.855.205q-1.42 0-2.449-.627a4.2 4.2 0 0 1-1.578-1.764q-.55-1.139-.55-2.646 0-1.509.55-2.659.555-1.158 1.546-1.803.998-.652 2.327-.652a4.6 4.6 0 0 1 1.515.256q.748.255 1.362.831.613.569.978 1.508.363.94.364 2.314v.639h-7.568v-1.304h6.034q0-.83-.333-1.483a2.5 2.5 0 0 0-.933-1.029q-.6-.377-1.419-.377-.901 0-1.56.448a2.94 2.94 0 0 0-1.003 1.15q-.352.71-.352 1.521v.87q0 1.112.384 1.885.39.768 1.08 1.17.69.396 1.605.396.594 0 1.073-.166.486-.172.838-.511a2.3 2.3 0 0 0 .543-.857l1.457.409a3.2 3.2 0 0 1-.773 1.304q-.544.556-1.342.87a5 5 0 0 1-1.796.307m10.067 0q-1.227 0-2.167-.62-.939-.627-1.47-1.765-.531-1.144-.531-2.704 0-1.547.531-2.684.53-1.139 1.477-1.758.945-.62 2.186-.62.958 0 1.515.32.562.313.856.715.3.397.467.652h.128v-4.832h1.508V119.5h-1.457v-1.509h-.179a10 10 0 0 1-.473.678q-.308.402-.876.722-.568.314-1.515.314m.205-1.356q.907 0 1.534-.473.626-.478.952-1.323.326-.85.326-1.962 0-1.1-.32-1.924-.32-.83-.946-1.291-.626-.467-1.546-.467-.96 0-1.598.492-.633.486-.953 1.323-.313.832-.313 1.867 0 1.049.32 1.905.325.85.958 1.355.64.498 1.586.498m8.367 1.253q-.473 0-.812-.339a1.1 1.1 0 0 1-.339-.811q0-.473.339-.812t.812-.339.812.339.338.812q0 .313-.159.575a1.2 1.2 0 0 1-.416.422q-.255.153-.575.153m0-7.287a1.1 1.1 0 0 1-.812-.338 1.1 1.1 0 0 1-.339-.812q0-.474.339-.812t.812-.339.812.339q.338.338.338.812 0 .313-.159.575a1.2 1.2 0 0 1-.416.422q-.255.153-.575.153"/><path fill="#000" d="M416.109 121.219q-1.61 0-2.875-.555-1.257-.555-1.992-1.539-.726-.992-.781-2.297h2.453q.047.712.477 1.234.437.516 1.14.797.704.282 1.563.282.945 0 1.672-.329.734-.327 1.148-.914.414-.593.414-1.367 0-.805-.414-1.414-.406-.617-1.195-.969-.781-.351-1.891-.351h-1.351v-1.969h1.351q.891 0 1.563-.32a2.56 2.56 0 0 0 1.062-.891q.383-.578.383-1.351 0-.743-.336-1.289a2.26 2.26 0 0 0-.937-.868q-.602-.312-1.422-.312-.781 0-1.461.289a2.7 2.7 0 0 0-1.094.812q-.422.524-.453 1.258h-2.336q.039-1.297.766-2.281.734-.984 1.937-1.539t2.672-.555q1.539 0 2.656.602 1.125.594 1.735 1.586.616.992.609 2.172.007 1.343-.75 2.281-.75.937-2 1.258v.125q1.593.242 2.469 1.265.882 1.024.875 2.539.007 1.321-.735 2.368-.734 1.046-2.008 1.648-1.273.594-2.914.594m11.207-2.407-.117.852a14 14 0 0 1-.398 1.953 31 31 0 0 1-.571 1.899 49 49 0 0 1-.476 1.39h-1.656q.1-.484.281-1.312.18-.82.351-1.836.173-1.015.258-2.071l.078-.875zm3.268 2.188v-1.75l5.414-5.609a30 30 0 0 0 1.43-1.602q.57-.695.851-1.32t.282-1.328q0-.798-.375-1.375a2.46 2.46 0 0 0-1.024-.899 3.26 3.26 0 0 0-1.461-.32q-.86 0-1.5.351a2.4 2.4 0 0 0-.984.993q-.344.64-.344 1.5h-2.305q0-1.461.672-2.555a4.57 4.57 0 0 1 1.844-1.695q1.171-.61 2.664-.61 1.508 0 2.656.602 1.157.594 1.805 1.625.648 1.023.648 2.312 0 .891-.336 1.742-.327.852-1.148 1.899-.82 1.04-2.281 2.523l-3.18 3.328v.118h7.203V121zm12.812-3.125v-1.953L450.311 105h1.539v2.875h-.977l-4.945 7.828v.125h9.476v2.047zm7.586 3.125v-3.719l.016-.89V105h2.289v16zm7.684 0 6.984-13.813v-.117h-8.078V105h10.578v2.141L461.189 121z"/><path stroke="#09b4d4" stroke-linecap="round" stroke-width="13" d="M71 146h398"/><path stroke="#02665a" stroke-linecap="round" stroke-width="13" d="M71 146h297"/><circle cx="78" cy="178.5" r="7" fill="#02665a"/><path fill="#000" d="M109.716 174.591a2.23 2.23 0 0 0-1.037-1.676q-.909-.597-2.23-.597-.967 0-1.69.313-.718.312-1.123.859a2.06 2.06 0 0 0-.397 1.243q0 .582.277 1.001.283.413.724.689.44.27.923.448.483.17.888.277l1.477.397q.569.15 1.265.412.703.264 1.342.718a3.65 3.65 0 0 1 1.065 1.15q.42.703.419 1.726a3.83 3.83 0 0 1-.618 2.131q-.61.951-1.789 1.513-1.173.561-2.848.561-1.563 0-2.706-.505-1.136-.504-1.79-1.406-.647-.902-.732-2.095h1.819q.07.824.554 1.364.49.532 1.235.795a5 5 0 0 0 1.62.256q1.008 0 1.811-.327.803-.333 1.271-.923.47-.597.469-1.392 0-.725-.405-1.179t-1.065-.739a11 11 0 0 0-1.428-.497l-1.79-.511q-1.704-.49-2.699-1.4-.993-.909-.994-2.379 0-1.221.661-2.13.667-.917 1.789-1.421 1.13-.511 2.522-.511 1.406 0 2.5.504 1.094.497 1.733 1.364.647.866.681 1.967zm9.316 0v1.42h-5.653v-1.42zm-4.005-2.614h1.676v10.398q0 .71.206 1.065.213.349.54.469.333.114.703.114.276 0 .454-.029l.284-.056.341 1.505a3.4 3.4 0 0 1-.476.128 3.5 3.5 0 0 1-.774.071q-.71 0-1.392-.305a2.76 2.76 0 0 1-1.122-.931q-.44-.625-.44-1.576zm9.737 13.779a4.4 4.4 0 0 1-1.882-.391 3.23 3.23 0 0 1-1.343-1.143q-.497-.753-.497-1.819 0-.937.37-1.519a2.6 2.6 0 0 1 .987-.924 5.2 5.2 0 0 1 1.363-.497 16 16 0 0 1 1.513-.27q.994-.127 1.612-.192.625-.07.91-.234.291-.163.291-.568v-.057q0-1.051-.576-1.633-.568-.583-1.725-.583-1.201 0-1.883.526-.681.525-.958 1.122l-1.591-.568q.426-.994 1.136-1.549a4.3 4.3 0 0 1 1.563-.781 6.5 6.5 0 0 1 1.676-.227q.525 0 1.207.128.689.12 1.328.504.647.384 1.073 1.158t.426 2.073v7.188h-1.676v-1.477h-.086q-.17.354-.568.76-.398.405-1.058.689t-1.612.284m.256-1.506q.993 0 1.676-.391.689-.39 1.037-1.008.355-.618.355-1.3v-1.534q-.107.127-.469.234a8 8 0 0 1-.824.178q-.462.07-.902.128-.433.05-.703.085a6.4 6.4 0 0 0-1.222.277q-.561.184-.909.561-.34.369-.341 1.009 0 .873.647 1.321.653.44 1.655.44m9.479-5.312v6.562h-1.676v-10.909h1.619v1.704h.143a3.1 3.1 0 0 1 1.164-1.335q.781-.511 2.017-.511 1.108 0 1.939.454.831.448 1.293 1.364.462.909.462 2.301v6.932h-1.677v-6.818q0-1.286-.667-2.003-.667-.724-1.833-.724-.802 0-1.434.348-.625.348-.987 1.015-.363.668-.363 1.62m14.143 6.789q-1.364 0-2.408-.689-1.044-.696-1.634-1.96-.588-1.271-.589-3.004 0-1.719.589-2.983.59-1.264 1.641-1.953t2.429-.689q1.065 0 1.683.355.625.348.952.795.334.44.519.725h.142v-5.369h1.676V185.5h-1.62v-1.676h-.198q-.186.298-.526.753-.341.447-.973.802-.632.348-1.683.348m.227-1.505q1.008 0 1.705-.526.696-.532 1.058-1.47.362-.945.362-2.181 0-1.221-.355-2.137-.355-.924-1.051-1.435-.696-.519-1.719-.518-1.065 0-1.776.546-.702.54-1.058 1.471-.348.923-.348 2.073 0 1.165.355 2.117.363.945 1.066 1.506.71.554 1.761.554m11.285 1.534a4.4 4.4 0 0 1-1.882-.391 3.23 3.23 0 0 1-1.342-1.143q-.497-.753-.497-1.819 0-.937.369-1.519a2.6 2.6 0 0 1 .987-.924 5.2 5.2 0 0 1 1.364-.497 16 16 0 0 1 1.513-.27q.994-.127 1.612-.192.626-.07.909-.234.291-.163.291-.568v-.057q0-1.051-.575-1.633-.568-.583-1.726-.583-1.2 0-1.882.526-.681.525-.959 1.122l-1.591-.568q.426-.994 1.137-1.549a4.3 4.3 0 0 1 1.562-.781 6.5 6.5 0 0 1 1.676-.227q.526 0 1.208.128.689.12 1.328.504.646.384 1.072 1.158t.426 2.073v7.188h-1.676v-1.477h-.085q-.17.354-.568.76-.398.405-1.058.689-.661.284-1.613.284m.256-1.506q.995 0 1.676-.391.69-.39 1.037-1.008.355-.618.355-1.3v-1.534q-.106.127-.468.234a8 8 0 0 1-.824.178q-.462.07-.902.128-.433.05-.703.085a6.4 6.4 0 0 0-1.222.277q-.561.184-.909.561-.34.369-.341 1.009 0 .873.646 1.321.654.44 1.655.44m7.804 1.25v-10.909h1.619v1.648h.114q.298-.81 1.079-1.314a3.2 3.2 0 0 1 1.762-.505q.185 0 .461.008.278.006.419.021v1.704a5 5 0 0 0-.39-.064 4 4 0 0 0-.632-.049q-.796 0-1.421.334a2.5 2.5 0 0 0-.98.909 2.44 2.44 0 0 0-.355 1.314v6.903zm11.228.227q-1.363 0-2.407-.689-1.044-.696-1.634-1.96-.59-1.271-.589-3.004 0-1.719.589-2.983.59-1.264 1.641-1.953t2.429-.689q1.065 0 1.683.355.625.348.952.795.333.44.518.725h.142v-5.369h1.676V185.5h-1.619v-1.676h-.199q-.184.298-.525.753-.342.447-.973.802-.633.348-1.684.348m.228-1.505q1.008 0 1.704-.526.696-.532 1.059-1.47.362-.945.362-2.181 0-1.221-.355-2.137-.355-.924-1.052-1.435-.696-.519-1.718-.518-1.065 0-1.776.546-.703.54-1.058 1.471-.348.923-.348 2.073 0 1.165.355 2.117.363.945 1.065 1.506.71.554 1.762.554m18.416 1.278h-4.489v-14.545h4.688q2.116 0 3.622.873 1.506.867 2.308 2.493.803 1.62.803 3.878 0 2.272-.81 3.913a5.77 5.77 0 0 1-2.358 2.514q-1.548.874-3.764.874m-2.727-1.562h2.613q1.805 0 2.99-.697a4.3 4.3 0 0 0 1.769-1.981q.582-1.285.582-3.061 0-1.761-.575-3.033-.576-1.278-1.719-1.96-1.143-.689-2.848-.689h-2.812zm16.818 1.789q-1.477 0-2.592-.703-1.109-.703-1.733-1.967-.618-1.264-.618-2.955 0-1.704.618-2.976.624-1.27 1.733-1.974 1.114-.703 2.592-.703t2.585.703q1.115.704 1.733 1.974.625 1.272.625 2.976 0 1.69-.625 2.955-.618 1.264-1.733 1.967-1.108.703-2.585.703m0-1.505q1.122 0 1.846-.576a3.4 3.4 0 0 0 1.073-1.512 5.8 5.8 0 0 0 .348-2.032 5.9 5.9 0 0 0-.348-2.038 3.43 3.43 0 0 0-1.073-1.527q-.724-.582-1.846-.582t-1.847.582-1.072 1.527a5.9 5.9 0 0 0-.348 2.038q0 1.094.348 2.032t1.072 1.512q.725.576 1.847.576m7.502 1.278v-10.909h1.619v1.704h.142a2.74 2.74 0 0 1 1.101-1.356q.76-.49 1.825-.49 1.08 0 1.797.49.724.483 1.129 1.356h.114a3.2 3.2 0 0 1 1.257-1.342q.839-.504 2.01-.504 1.463 0 2.393.916.931.91.931 2.834v7.301h-1.676v-7.301q0-1.207-.661-1.726-.66-.519-1.555-.518-1.151 0-1.783.696-.632.688-.632 1.747v7.102h-1.705v-7.472q0-.93-.603-1.498-.604-.575-1.556-.575-.653 0-1.221.348a2.63 2.63 0 0 0-.909.965q-.342.612-.341 1.414v6.818zm20.593.256a4.4 4.4 0 0 1-1.882-.391 3.23 3.23 0 0 1-1.343-1.143q-.497-.753-.497-1.819 0-.937.369-1.519a2.6 2.6 0 0 1 .988-.924 5.2 5.2 0 0 1 1.363-.497 16 16 0 0 1 1.513-.27q.994-.127 1.612-.192.626-.07.909-.234.291-.163.292-.568v-.057q0-1.051-.576-1.633-.568-.583-1.726-.583-1.2 0-1.882.526-.681.525-.959 1.122l-1.59-.568q.425-.994 1.136-1.549a4.3 4.3 0 0 1 1.562-.781 6.5 6.5 0 0 1 1.677-.227q.525 0 1.207.128.689.12 1.328.504.646.384 1.073 1.158t.426 2.073v7.188h-1.676v-1.477h-.086q-.17.354-.568.76-.398.405-1.058.689t-1.612.284m.255-1.506q.995 0 1.676-.391.69-.39 1.037-1.008.356-.618.356-1.3v-1.534q-.107.127-.469.234a8 8 0 0 1-.824.178q-.462.07-.902.128-.433.05-.703.085a6.4 6.4 0 0 0-1.222.277q-.561.184-.909.561-.34.369-.341 1.009 0 .873.647 1.321.653.44 1.654.44m7.804 1.25v-10.909h1.676V185.5zm.852-12.727q-.49 0-.845-.334a1.07 1.07 0 0 1-.348-.803q0-.469.348-.802.356-.334.845-.334.49 0 .838.334.355.334.355.802t-.355.803a1.17 1.17 0 0 1-.838.334m5.57 6.165v6.562h-1.676v-10.909h1.619v1.704h.142a3.1 3.1 0 0 1 1.165-1.335q.781-.511 2.017-.511 1.108 0 1.939.454.831.448 1.293 1.364.462.909.461 2.301v6.932h-1.676v-6.818q0-1.286-.667-2.003-.668-.724-1.833-.724-.803 0-1.434.348-.625.348-.988 1.015-.362.668-.362 1.62m17.751-1.904-1.506.426a2.8 2.8 0 0 0-.419-.731 2 2 0 0 0-.739-.597q-.468-.234-1.2-.234-1.002 0-1.669.461-.66.454-.661 1.158 0 .625.455.987.454.363 1.42.604l1.62.398q1.463.355 2.18 1.086.717.725.717 1.868 0 .938-.539 1.676-.533.74-1.492 1.165-.958.426-2.23.426-1.67 0-2.763-.724-1.094-.725-1.385-2.117l1.591-.397q.227.88.86 1.321.639.44 1.669.44 1.172 0 1.86-.497.696-.504.696-1.208 0-.568-.397-.951-.398-.391-1.222-.583l-1.818-.426q-1.498-.355-2.202-1.101-.696-.753-.696-1.882 0-.923.519-1.633.525-.71 1.427-1.115.91-.405 2.06-.405 1.619 0 2.543.71a3.84 3.84 0 0 1 1.321 1.875m3.943 8.58q-.525 0-.902-.377a1.23 1.23 0 0 1-.376-.902q0-.525.376-.902a1.23 1.23 0 0 1 .902-.376q.525 0 .902.376.376.377.376.902 0 .348-.177.639a1.3 1.3 0 0 1-.462.469 1.2 1.2 0 0 1-.639.171m0-8.097a1.23 1.23 0 0 1-.902-.376 1.23 1.23 0 0 1-.376-.902q0-.526.376-.902.377-.377.902-.377t.902.377q.376.376.376.902 0 .348-.177.639-.171.29-.462.469-.284.17-.639.17m66.952 7.983v-1.591l4.922-5.099q.789-.832 1.3-1.456.518-.633.774-1.201.255-.567.256-1.207 0-.725-.341-1.25a2.24 2.24 0 0 0-.931-.817 2.96 2.96 0 0 0-1.328-.291q-.781 0-1.363.32a2.2 2.2 0 0 0-.895.902q-.313.582-.313 1.363h-2.095q0-1.327.611-2.322a4.14 4.14 0 0 1 1.676-1.541q1.065-.555 2.422-.554 1.371 0 2.415.547 1.05.539 1.64 1.477.59.93.59 2.102 0 .81-.306 1.584-.298.774-1.044 1.726-.745.944-2.074 2.294l-2.89 3.025v.107h6.548v1.882zm15.057-1.989-.107.775q-.106.852-.362 1.775-.248.93-.518 1.726-.263.795-.433 1.264h-1.506q.092-.44.256-1.193a37 37 0 0 0 .319-1.669q.156-.924.234-1.882l.072-.796zm2.97 1.989v-1.591l4.922-5.099q.789-.832 1.3-1.456.519-.633.774-1.201.256-.567.256-1.207 0-.725-.341-1.25a2.23 2.23 0 0 0-.93-.817 2.96 2.96 0 0 0-1.329-.291q-.78 0-1.363.32a2.2 2.2 0 0 0-.895.902q-.313.582-.313 1.363h-2.095q0-1.327.611-2.322a4.14 4.14 0 0 1 1.676-1.541q1.065-.555 2.422-.554 1.371 0 2.415.547a4.1 4.1 0 0 1 1.64 1.477q.59.93.59 2.102 0 .81-.305 1.584-.298.774-1.044 1.726-.747.944-2.074 2.294l-2.891 3.025v.107H371v1.882zm17.344.199a5.9 5.9 0 0 1-1.917-.355 4.5 4.5 0 0 1-1.705-1.137q-.767-.796-1.229-2.137-.454-1.343-.454-3.353 0-1.904.376-3.38.384-1.478 1.101-2.493.717-1.023 1.733-1.556 1.016-.532 2.28-.532 1.3 0 2.308.511a4.35 4.35 0 0 1 1.634 1.413q.632.903.802 2.053h-2.166q-.22-.91-.874-1.484-.652-.576-1.704-.576-1.597 0-2.493 1.392-.888 1.392-.895 3.871h.107a4 4 0 0 1 .923-1.051 4.1 4.1 0 0 1 1.236-.675 4.4 4.4 0 0 1 1.449-.241q1.264 0 2.287.618 1.03.61 1.64 1.69t.611 2.472-.632 2.521a4.64 4.64 0 0 1-1.762 1.79q-1.136.653-2.656.639m-.007-1.847q.838 0 1.499-.412.66-.411 1.044-1.108.383-.696.383-1.555a3.13 3.13 0 0 0-.376-1.527 2.84 2.84 0 0 0-1.023-1.094 2.7 2.7 0 0 0-1.477-.405 2.84 2.84 0 0 0-2.11.91q-.404.426-.639.98-.227.546-.227 1.157 0 .817.376 1.513a3.1 3.1 0 0 0 1.044 1.122q.668.42 1.506.419m12.708 1.847q-1.463 0-2.614-.504-1.143-.505-1.811-1.4-.66-.901-.71-2.088h2.23q.042.646.433 1.123.398.469 1.037.724.64.256 1.421.256.859 0 1.52-.299a2.5 2.5 0 0 0 1.044-.831q.376-.54.376-1.242 0-.732-.376-1.286-.37-.561-1.087-.881-.71-.32-1.719-.319h-1.228v-1.79h1.228q.81 0 1.421-.291.618-.291.966-.81.348-.525.348-1.229 0-.674-.306-1.171a2.05 2.05 0 0 0-.852-.789q-.548-.284-1.293-.284-.71 0-1.328.263-.61.256-.994.738a1.9 1.9 0 0 0-.412 1.144h-2.124q.036-1.179.696-2.074.668-.895 1.762-1.399t2.429-.504q1.398 0 2.414.547 1.023.539 1.577 1.441a3.6 3.6 0 0 1 .554 1.975q.008 1.22-.682 2.074-.681.852-1.818 1.143v.114q1.449.22 2.244 1.15.804.931.796 2.309.007 1.2-.668 2.152-.667.952-1.825 1.498-1.158.54-2.649.54"/><rect width="58" height="25" x="410" y="166" fill="#b7f4ed" rx="12.5"/><path fill="#02665a" d="M429.315 181.912v-1.014l4.475-7.08h.736v1.571h-.498l-3.38 5.35v.079h6.025v1.094zm4.793 2.088v-10.182h1.173V184zm9.619-1.909v-.537q0-.557.228-1.019.234-.468.677-.746.447-.283 1.083-.283.647 0 1.084.283.438.279.661.746.224.462.224 1.019v.537q0 .557-.229 1.024a1.8 1.8 0 0 1-.666.746q-.436.278-1.074.278-.645 0-1.088-.278a1.85 1.85 0 0 1-.672-.746 2.3 2.3 0 0 1-.228-1.024m1.014-.537v.537q0 .462.219.83.219.363.755.363.522 0 .736-.363a1.6 1.6 0 0 0 .219-.83v-.537q0-.462-.209-.825-.209-.368-.746-.368-.522 0-.75.368a1.54 1.54 0 0 0-.224.825m-6.085-5.29v-.537q0-.557.228-1.019.234-.467.677-.746.447-.283 1.083-.283.646 0 1.084.283.438.28.661.746.224.462.224 1.019v.537q0 .557-.229 1.024a1.8 1.8 0 0 1-.666.746q-.437.278-1.074.278-.646 0-1.088-.278a1.84 1.84 0 0 1-.672-.746 2.3 2.3 0 0 1-.228-1.024m1.014-.537v.537q0 .462.219.83.218.363.755.363.523 0 .736-.363a1.6 1.6 0 0 0 .219-.83v-.537q0-.462-.209-.825-.209-.368-.746-.368-.522 0-.75.368-.225.363-.224.825m-.636 8.273 7-10.182h1.133l-7 10.182z"/><circle cx="78" cy="223.5" r="7" fill="#09b4d4"/><path fill="#000" d="M113.466 220.5h-1.761a3.68 3.68 0 0 0-1.485-2.301 4 4 0 0 0-1.214-.597 4.9 4.9 0 0 0-1.392-.199 4.44 4.44 0 0 0-2.394.668q-1.065.668-1.697 1.967-.625 1.3-.625 3.189t.625 3.189q.632 1.3 1.697 1.968a4.44 4.44 0 0 0 2.394.667q.725 0 1.392-.199a4 4 0 0 0 1.214-.589 3.8 3.8 0 0 0 .938-.973q.39-.583.547-1.335h1.761a5.9 5.9 0 0 1-.725 1.995 5.5 5.5 0 0 1-1.306 1.499 5.7 5.7 0 0 1-1.755.93 6.5 6.5 0 0 1-2.066.32q-1.861 0-3.31-.909-1.449-.91-2.28-2.585-.831-1.677-.831-3.978t.831-3.977 2.28-2.585 3.31-.909q1.1 0 2.066.319a5.6 5.6 0 0 1 1.755.938q.78.61 1.306 1.491.526.874.725 1.996m5.829 10.256a4.4 4.4 0 0 1-1.882-.391 3.23 3.23 0 0 1-1.342-1.143q-.498-.753-.497-1.819 0-.937.369-1.519a2.6 2.6 0 0 1 .987-.924 5.2 5.2 0 0 1 1.364-.497 16 16 0 0 1 1.512-.27 72 72 0 0 1 1.613-.192q.624-.07.909-.234.291-.163.291-.568v-.057q0-1.051-.575-1.633-.568-.583-1.726-.583-1.2 0-1.882.526-.682.525-.959 1.122l-1.591-.568q.426-.994 1.136-1.549a4.3 4.3 0 0 1 1.563-.781 6.5 6.5 0 0 1 1.676-.227q.525 0 1.207.128.69.12 1.329.504.646.384 1.072 1.158t.426 2.073v7.188h-1.676v-1.477h-.085q-.17.354-.568.76-.398.405-1.059.689t-1.612.284m.256-1.506q.994 0 1.676-.391.689-.39 1.037-1.008.355-.618.355-1.3v-1.534q-.106.127-.469.234a8 8 0 0 1-.824.178q-.46.07-.902.128a41 41 0 0 0-.703.085 6.4 6.4 0 0 0-1.221.277q-.561.184-.909.561-.341.369-.341 1.009 0 .873.646 1.321.654.44 1.655.44m12.548-9.659v1.42h-5.654v-1.42zm-4.006-2.614h1.676v10.398q0 .71.206 1.065.213.349.54.469.334.114.703.114.277 0 .455-.029l.284-.056.341 1.505a3.5 3.5 0 0 1-.476.128 3.5 3.5 0 0 1-.774.071q-.711 0-1.392-.305a2.8 2.8 0 0 1-1.123-.931q-.44-.625-.44-1.576zm10.842 13.75q-1.535 0-2.642-.724-1.108-.724-1.705-1.996-.597-1.271-.597-2.905 0-1.662.611-2.933.618-1.278 1.719-1.996 1.108-.724 2.585-.724 1.151 0 2.074.426a4 4 0 0 1 1.513 1.193q.59.768.731 1.79h-1.676q-.192-.746-.852-1.321-.654-.582-1.761-.582-.981 0-1.719.511-.732.504-1.144 1.427-.404.917-.404 2.152 0 1.265.397 2.202.405.937 1.137 1.456.738.519 1.733.519.653 0 1.186-.228a2.44 2.44 0 0 0 .902-.653q.369-.426.525-1.023h1.676a3.87 3.87 0 0 1-2.173 2.962q-.909.447-2.116.447m8.416-6.789v6.562h-1.676v-14.545h1.676v5.34h.142a3.1 3.1 0 0 1 1.15-1.342q.775-.504 2.06-.504 1.115 0 1.953.447.838.44 1.3 1.357.469.91.469 2.315v6.932h-1.676v-6.818q0-1.3-.675-2.01-.667-.717-1.854-.717-.823 0-1.477.348-.647.348-1.023 1.015-.369.668-.369 1.62m16.39-.455v1.562h-6.364v-1.562zm3.773 7.017h-1.846l5.341-14.545h1.818l5.341 14.545h-1.847l-4.347-12.244h-.113zm.682-5.682h7.443v1.563h-7.443zm13.686-8.863V230.5h-1.676v-14.545zm4.746 0V230.5h-1.676v-14.545zm13.411 14.545h-4.489v-14.545h4.688q2.116 0 3.622.873 1.506.867 2.308 2.493.803 1.62.803 3.878 0 2.272-.81 3.913a5.77 5.77 0 0 1-2.358 2.514q-1.548.874-3.764.874m-2.727-1.562h2.613q1.805 0 2.99-.697a4.3 4.3 0 0 0 1.769-1.981q.582-1.285.582-3.061 0-1.761-.575-3.033-.575-1.278-1.719-1.96-1.143-.689-2.848-.689h-2.812zm16.818 1.789q-1.477 0-2.592-.703-1.109-.703-1.733-1.967-.618-1.264-.618-2.955 0-1.704.618-2.976.624-1.27 1.733-1.974 1.115-.703 2.592-.703t2.585.703q1.115.704 1.733 1.974.625 1.272.625 2.976 0 1.69-.625 2.955-.618 1.264-1.733 1.967-1.107.703-2.585.703m0-1.505q1.122 0 1.847-.576.724-.575 1.072-1.512a5.8 5.8 0 0 0 .348-2.032 5.9 5.9 0 0 0-.348-2.038q-.348-.945-1.072-1.527t-1.847-.582q-1.122 0-1.847.582t-1.072 1.527a5.9 5.9 0 0 0-.348 2.038q0 1.094.348 2.032t1.072 1.512q.725.576 1.847.576m7.502 1.278v-10.909h1.619v1.704h.142a2.74 2.74 0 0 1 1.101-1.356q.76-.49 1.825-.49 1.08 0 1.797.49.724.483 1.129 1.356h.114a3.2 3.2 0 0 1 1.257-1.342q.839-.504 2.01-.504 1.463 0 2.394.916.93.91.93 2.834v7.301h-1.676v-7.301q0-1.207-.661-1.726-.66-.519-1.555-.518-1.15 0-1.783.696-.632.688-.632 1.747v7.102h-1.704v-7.472q0-.93-.604-1.498-.604-.575-1.556-.575-.653 0-1.221.348a2.63 2.63 0 0 0-.909.965q-.34.612-.341 1.414v6.818zm20.593.256a4.4 4.4 0 0 1-1.882-.391 3.23 3.23 0 0 1-1.343-1.143q-.497-.753-.497-1.819 0-.937.37-1.519a2.6 2.6 0 0 1 .987-.924 5.2 5.2 0 0 1 1.363-.497 16 16 0 0 1 1.513-.27q.994-.127 1.612-.192.626-.07.909-.234.292-.163.292-.568v-.057q0-1.051-.576-1.633-.568-.583-1.725-.583-1.201 0-1.883.526-.682.525-.958 1.122l-1.591-.568q.426-.994 1.136-1.549a4.3 4.3 0 0 1 1.563-.781 6.5 6.5 0 0 1 1.676-.227q.525 0 1.207.128.689.12 1.328.504.647.384 1.073 1.158t.426 2.073v7.188h-1.676v-1.477h-.086q-.17.354-.568.76-.398.405-1.058.689t-1.612.284m.255-1.506q.994 0 1.677-.391.689-.39 1.037-1.008.355-.618.355-1.3v-1.534q-.107.127-.469.234a8 8 0 0 1-.824.178q-.462.07-.902.128-.433.05-.703.085a6.4 6.4 0 0 0-1.222.277q-.561.184-.909.561-.34.369-.341 1.009 0 .873.647 1.321.653.44 1.654.44m7.804 1.25v-10.909h1.676V230.5zm.852-12.727q-.49 0-.845-.334a1.07 1.07 0 0 1-.348-.803q0-.469.348-.802.356-.334.845-.334.49 0 .838.334.356.334.356.802t-.356.803a1.17 1.17 0 0 1-.838.334m5.57 6.165v6.562h-1.676v-10.909h1.62v1.704h.142a3.1 3.1 0 0 1 1.164-1.335q.782-.511 2.017-.511 1.108 0 1.939.454.831.448 1.293 1.364.462.909.462 2.301v6.932h-1.677v-6.818q0-1.286-.667-2.003-.668-.724-1.833-.724-.803 0-1.434.348-.625.348-.987 1.015-.363.668-.363 1.62m17.751-1.904-1.506.426a2.8 2.8 0 0 0-.419-.731 2 2 0 0 0-.739-.597q-.468-.234-1.2-.234-1.002 0-1.669.461-.66.454-.661 1.158 0 .625.455.987.455.363 1.42.604l1.62.398q1.463.355 2.18 1.086.718.725.718 1.868 0 .938-.54 1.676-.533.74-1.492 1.165-.958.426-2.23.426-1.669 0-2.763-.724-1.093-.725-1.385-2.117l1.591-.397q.227.88.86 1.321.639.44 1.669.44 1.171 0 1.861-.497.696-.504.696-1.208 0-.568-.398-.951-.397-.391-1.222-.583l-1.818-.426q-1.499-.355-2.202-1.101-.696-.753-.696-1.882 0-.923.519-1.633.525-.71 1.427-1.115.91-.405 2.06-.405 1.62 0 2.543.71a3.84 3.84 0 0 1 1.321 1.875m3.943 8.58q-.525 0-.902-.377a1.23 1.23 0 0 1-.376-.902q0-.525.376-.902a1.23 1.23 0 0 1 .902-.376q.526 0 .902.376.377.377.377.902 0 .348-.178.639a1.3 1.3 0 0 1-.462.469 1.2 1.2 0 0 1-.639.171m0-8.097a1.23 1.23 0 0 1-.902-.376 1.23 1.23 0 0 1-.376-.902q0-.526.376-.902.377-.377.902-.377.526 0 .902.377.377.376.377.902 0 .348-.178.639a1.3 1.3 0 0 1-.462.469q-.284.17-.639.17m86.836-6.761a5.6 5.6 0 0 1 1.917.355 4.54 4.54 0 0 1 1.705 1.136q.767.789 1.222 2.131.461 1.335.468 3.324 0 1.91-.383 3.402-.384 1.484-1.101 2.507-.71 1.023-1.726 1.555-1.015.533-2.287.533-1.3 0-2.308-.511a4.4 4.4 0 0 1-1.641-1.414 4.7 4.7 0 0 1-.788-2.088h2.166q.213.938.867 1.52.66.575 1.704.575 1.598 0 2.493-1.392.895-1.4.902-3.906h-.114a3.9 3.9 0 0 1-.923 1.051 4.1 4.1 0 0 1-1.229.682 4.3 4.3 0 0 1-1.456.241q-1.257 0-2.286-.618a4.54 4.54 0 0 1-1.641-1.697q-.61-1.08-.611-2.464 0-1.378.625-2.5a4.66 4.66 0 0 1 1.761-1.776q1.137-.66 2.664-.646m.007 1.846q-.831 0-1.499.412-.66.405-1.044 1.101a3.1 3.1 0 0 0-.383 1.534q0 .846.369 1.534.376.682 1.023 1.087.653.398 1.491.398a2.8 2.8 0 0 0 1.165-.242q.54-.241.945-.667.405-.434.632-.981t.227-1.15q0-.802-.383-1.492a3 3 0 0 0-1.037-1.108 2.7 2.7 0 0 0-1.506-.426m12.786 13.097q-1.527 0-2.699-.526-1.165-.525-1.825-1.449a3.48 3.48 0 0 1-.654-2.102 3.7 3.7 0 0 1 1.435-2.997q.667-.525 1.491-.668v-.085a2.93 2.93 0 0 1-1.74-1.165q-.653-.901-.646-2.073a3.4 3.4 0 0 1 .589-1.989q.605-.88 1.655-1.385 1.052-.504 2.394-.504 1.328 0 2.372.511 1.051.504 1.655 1.385.603.873.611 1.982a3.46 3.46 0 0 1-.668 2.073q-.66.903-1.719 1.165v.085a3.2 3.2 0 0 1 1.47.668q.661.519 1.051 1.3.399.774.405 1.697a3.56 3.56 0 0 1-.667 2.102q-.66.924-1.833 1.449-1.164.526-2.677.526m0-1.797q.902 0 1.562-.298a2.4 2.4 0 0 0 1.023-.845q.362-.547.369-1.279a2.4 2.4 0 0 0-.397-1.342 2.66 2.66 0 0 0-1.044-.916q-.661-.334-1.513-.334-.86 0-1.527.334a2.64 2.64 0 0 0-1.051.916 2.34 2.34 0 0 0-.377 1.342q-.007.732.348 1.279.363.539 1.03.845.668.298 1.577.298m0-6.768a2.75 2.75 0 0 0 1.285-.292q.561-.291.881-.809.327-.519.334-1.215a2.25 2.25 0 0 0-.327-1.193 2.06 2.06 0 0 0-.874-.788q-.561-.284-1.299-.284-.753 0-1.321.284a2.07 2.07 0 0 0-.874.788q-.312.512-.305 1.193-.007.696.312 1.215.32.518.881.809.568.291 1.307.292m7.416 5.525v-1.775l6.286-9.929h1.399v2.613h-.888l-4.496 7.117v.113h8.616v1.861zm6.897 2.841v-3.381l.014-.809v-10.355h2.081V230.5z"/><rect width="58" height="25" x="410" y="211" fill="#b4edf8" rx="12.5"/><path fill="#09b4d4" d="M429.315 226.912v-1.014l4.475-7.08h.736v1.571h-.498l-3.38 5.35v.079h6.025v1.094zm4.793 2.088v-10.182h1.173V229zm9.619-1.909v-.537q0-.557.228-1.019.234-.468.677-.746.447-.283 1.083-.283.647 0 1.084.283.438.279.661.746.224.462.224 1.019v.537q0 .557-.229 1.024a1.8 1.8 0 0 1-.666.746q-.436.278-1.074.278-.645 0-1.088-.278a1.85 1.85 0 0 1-.672-.746 2.3 2.3 0 0 1-.228-1.024m1.014-.537v.537q0 .462.219.83.219.363.755.363.522 0 .736-.363a1.6 1.6 0 0 0 .219-.83v-.537q0-.462-.209-.825-.209-.368-.746-.368-.522 0-.75.368a1.54 1.54 0 0 0-.224.825m-6.085-5.29v-.537q0-.557.228-1.019.234-.467.677-.746.447-.283 1.083-.283.646 0 1.084.283.438.28.661.746.224.462.224 1.019v.537q0 .557-.229 1.024a1.8 1.8 0 0 1-.666.746q-.437.278-1.074.278-.646 0-1.088-.278a1.84 1.84 0 0 1-.672-.746 2.3 2.3 0 0 1-.228-1.024m1.014-.537v.537q0 .462.219.83.218.363.755.363.523 0 .736-.363a1.6 1.6 0 0 0 .219-.83v-.537q0-.462-.209-.825-.209-.368-.746-.368-.522 0-.75.368-.225.363-.224.825m-.636 8.273 7-10.182h1.133l-7 10.182z"/></g><defs><clipPath id="b"><path fill="#fff" d="M438 47h32v32h-32z"/></clipPath><filter id="a" width="533" height="291" x="0" y="0" color-interpolation-filters="sRGB" filterUnits="userSpaceOnUse"><feFlood flood-opacity="0" result="BackgroundImageFix"/><feColorMatrix in="SourceAlpha" result="hardAlpha" values="0 0 0 0 0 0 0 0 0 0 0 0 0 0 0 0 0 0 127 0"/><feOffset dx="-4" dy="4"/><feGaussianBlur stdDeviation="7.5"/><feComposite in2="hardAlpha" operator="out"/><feColorMatrix values="0 0 0 0 0 0 0 0 0 0 0 0 0 0 0 0 0 0 0.15 0"/><feBlend in2="BackgroundImageFix" result="effect1_dropShadow_303_1865"/><feBlend in="SourceGraphic" in2="effect1_dropShadow_303_1865" result="shape"/></filter></defs></svg>