<svg xmlns="http://www.w3.org/2000/svg" width="533" height="309" fill="none" viewBox="0 0 533 309"><g filter="url(#a)"><rect width="503" height="279" x="19" y="11" fill="#e9ebff" rx="10" shape-rendering="crispEdges"/><rect width="461" height="249" x="40" y="26" fill="#fff" rx="10"/><path fill="#000" d="m74.73 53.09 5.263 15.401h.212l5.263-15.4h3.084L81.747 72h-3.296l-6.805-18.91zm19.061 19.224q-1.347 0-2.437-.499a4.1 4.1 0 0 1-1.727-1.468Q89 69.387 89 67.993q0-1.2.461-1.976a3.4 3.4 0 0 1 1.247-1.228 6.5 6.5 0 0 1 1.754-.683 17 17 0 0 1 1.976-.351l2.068-.24q.794-.102 1.154-.323t.36-.72v-.065q0-1.21-.683-1.874-.674-.666-2.013-.665-1.395 0-2.197.618-.795.61-1.099 1.358l-2.594-.591q.461-1.293 1.348-2.087a5.5 5.5 0 0 1 2.059-1.163 8 8 0 0 1 2.446-.37q.85 0 1.8.204.96.193 1.792.72.84.525 1.376 1.505.535.969.535 2.52V72h-2.696v-1.939h-.11a3.9 3.9 0 0 1-.804 1.053q-.536.516-1.376.858t-2.013.342m.6-2.216q1.145 0 1.958-.452.822-.453 1.246-1.182.435-.739.434-1.58v-1.827q-.147.147-.572.277a9 9 0 0 1-.951.212q-.536.084-1.043.157l-.85.11a7 7 0 0 0-1.468.343q-.656.24-1.052.692-.388.444-.388 1.182 0 1.024.757 1.551.757.517 1.93.517m12.837-17.007V72h-2.761V53.09zM110.942 72V57.818h2.76V72zm1.394-16.37q-.72 0-1.237-.48a1.56 1.56 0 0 1-.508-1.163q0-.684.508-1.164.517-.49 1.237-.49t1.228.49q.517.48.517 1.163 0 .675-.517 1.164-.508.48-1.228.48m10.389 16.647q-1.717 0-3.065-.877-1.339-.886-2.105-2.52-.757-1.644-.757-3.943t.766-3.933q.775-1.635 2.124-2.503 1.347-.867 3.056-.867 1.32 0 2.123.443.813.434 1.256 1.015.453.582.702 1.025h.166v-7.026h2.761V72h-2.696v-2.207h-.231a7.3 7.3 0 0 1-.72 1.034q-.462.582-1.275 1.016t-2.105.434m.61-2.354q1.191 0 2.012-.628.831-.638 1.256-1.764.434-1.126.434-2.622 0-1.478-.425-2.585-.424-1.108-1.246-1.727-.822-.618-2.031-.618-1.247 0-2.078.646t-1.255 1.764q-.416 1.116-.416 2.52 0 1.421.425 2.558t1.256 1.8q.84.656 2.068.656m14.484 2.39q-1.348 0-2.438-.498a4.1 4.1 0 0 1-1.726-1.468q-.628-.96-.628-2.354 0-1.2.462-1.976a3.4 3.4 0 0 1 1.246-1.228 6.5 6.5 0 0 1 1.754-.683 18 18 0 0 1 1.976-.351l2.068-.24q.794-.102 1.155-.323.36-.222.36-.72v-.065q0-1.21-.684-1.874-.674-.666-2.012-.665-1.395 0-2.198.618-.793.61-1.099 1.358l-2.594-.591q.462-1.293 1.348-2.087a5.5 5.5 0 0 1 2.059-1.163 8 8 0 0 1 2.447-.37q.849 0 1.8.204.96.193 1.791.72.84.525 1.376 1.505.535.969.535 2.52V72h-2.696v-1.939h-.11a4 4 0 0 1-.804 1.053q-.535.516-1.375.858t-2.013.342m.6-2.215q1.145 0 1.957-.452.822-.453 1.247-1.182a3.07 3.07 0 0 0 .434-1.58v-1.827q-.148.147-.573.277a9 9 0 0 1-.951.212q-.535.084-1.043.157l-.849.11a7 7 0 0 0-1.468.343q-.656.24-1.053.692-.387.444-.388 1.182 0 1.024.757 1.551.757.517 1.93.517m16.696-12.28v2.216h-7.747v-2.216zm-5.67-3.398h2.761v13.416q0 .803.24 1.21.24.396.619.544.387.14.84.139.332 0 .582-.046l.387-.074.499 2.28q-.24.093-.683.185a5.4 5.4 0 0 1-1.108.11 4.9 4.9 0 0 1-2.031-.387 3.5 3.5 0 0 1-1.524-1.256q-.582-.849-.582-2.133zM158.168 72V57.818h2.761V72zm1.394-16.37q-.72 0-1.237-.48a1.56 1.56 0 0 1-.508-1.163q0-.684.508-1.164.517-.49 1.237-.49t1.228.49q.518.48.518 1.163 0 .675-.518 1.164a1.72 1.72 0 0 1-1.228.48m11.055 16.656q-1.995 0-3.481-.914-1.487-.915-2.308-2.557-.822-1.644-.822-3.841 0-2.207.822-3.86.821-1.652 2.308-2.566 1.486-.915 3.481-.915t3.48.915q1.487.914 2.309 2.566.822 1.653.821 3.86 0 2.198-.821 3.84-.822 1.644-2.309 2.558-1.487.915-3.48.914m.009-2.317q1.293 0 2.142-.683.85-.684 1.256-1.82.415-1.134.415-2.501 0-1.358-.415-2.493-.407-1.145-1.256-1.838-.849-.692-2.142-.692-1.302 0-2.161.692-.85.693-1.265 1.838-.406 1.136-.406 2.492 0 1.368.406 2.503.416 1.135 1.265 1.819.86.683 2.161.683m12.444-6.39V72h-2.761V57.818h2.65v2.308h.175a4.05 4.05 0 0 1 1.533-1.81q1.053-.683 2.65-.683 1.449 0 2.539.61 1.089.6 1.689 1.791t.601 2.945V72h-2.761v-8.688q0-1.542-.803-2.41-.804-.877-2.207-.877-.96 0-1.708.415a3 3 0 0 0-1.173 1.22q-.424.793-.424 1.92M202.95 72V53.09h6.741q2.196 0 3.647.758 1.458.757 2.179 2.096.72 1.329.72 3.075 0 1.735-.73 3.056-.72 1.311-2.179 2.04-1.45.73-3.647.73h-5.106v-2.456h4.848q1.385 0 2.253-.398.876-.396 1.283-1.154.406-.756.406-1.819 0-1.07-.415-1.855-.406-.786-1.284-1.2-.867-.425-2.28-.425h-3.583V72zm9.335-8.531L216.957 72h-3.25l-4.58-8.531zm13.136 8.817q-2.095 0-3.61-.895-1.505-.906-2.327-2.54-.812-1.643-.812-3.85 0-2.179.812-3.84.822-1.662 2.29-2.595 1.478-.933 3.453-.933 1.2 0 2.327.398 1.126.397 2.022 1.246.895.85 1.413 2.207.517 1.347.517 3.277v.98h-11.274v-2.07h8.568q0-1.088-.443-1.929a3.35 3.35 0 0 0-1.246-1.339q-.795-.489-1.865-.489-1.164 0-2.032.572a3.85 3.85 0 0 0-1.329 1.478 4.26 4.26 0 0 0-.462 1.966v1.616q0 1.421.499 2.42.507.996 1.413 1.523.905.516 2.114.517.784 0 1.431-.222a3.1 3.1 0 0 0 1.117-.683q.471-.453.72-1.117l2.613.47a4.7 4.7 0 0 1-1.126 2.023q-.804.858-2.022 1.338-1.21.471-2.761.471m19.775-11.005-2.502.443a3 3 0 0 0-.499-.914 2.46 2.46 0 0 0-.905-.711q-.571-.277-1.431-.277-1.173 0-1.957.526-.785.517-.785 1.339 0 .71.526 1.145.526.434 1.699.71l2.253.518q1.957.452 2.918 1.394.96.942.96 2.447 0 1.274-.739 2.27-.729.989-2.04 1.552-1.302.564-3.019.563-2.383 0-3.888-1.015-1.504-1.025-1.846-2.909l2.668-.406q.25 1.043 1.025 1.579.775.525 2.022.526 1.357 0 2.17-.563.812-.573.812-1.394a1.45 1.45 0 0 0-.498-1.117q-.49-.453-1.505-.684l-2.401-.526q-1.985-.453-2.936-1.44-.942-.988-.942-2.503 0-1.256.702-2.197t1.939-1.468q1.238-.535 2.834-.535 2.3 0 3.62.997 1.32.988 1.745 2.65m12.296 4.838v-8.3h2.77V72h-2.715v-2.456h-.147q-.49 1.136-1.57 1.893-1.072.748-2.668.748-1.367 0-2.419-.6-1.044-.61-1.644-1.8-.591-1.192-.591-2.946v-9.02h2.761v8.687q0 1.45.803 2.309.804.858 2.087.858.775 0 1.542-.388a3.25 3.25 0 0 0 1.283-1.172q.517-.785.508-1.994m9.24-13.028V72h-2.761V53.09zm10.334 4.727v2.216h-7.747v-2.216zm-5.669-3.398h2.76v13.416q0 .803.24 1.21.24.396.619.544.388.14.84.139.333 0 .582-.046l.388-.074.498 2.28q-.24.093-.683.185a5.4 5.4 0 0 1-1.108.11 4.9 4.9 0 0 1-2.031-.387 3.5 3.5 0 0 1-1.524-1.256q-.58-.849-.581-2.133zm19.121 6.86-2.502.444a3 3 0 0 0-.499-.914 2.46 2.46 0 0 0-.904-.711q-.573-.277-1.432-.277-1.172 0-1.957.526-.785.517-.785 1.339 0 .71.527 1.145.526.434 1.698.71l2.253.518q1.958.452 2.918 1.394t.96 2.447q0 1.274-.739 2.27-.729.989-2.04 1.552-1.302.564-3.019.563-2.382 0-3.887-1.015-1.506-1.025-1.847-2.909l2.668-.406q.25 1.043 1.025 1.579.775.525 2.022.526 1.357 0 2.17-.563.813-.573.813-1.394a1.45 1.45 0 0 0-.499-1.117q-.49-.453-1.505-.684l-2.401-.526q-1.985-.453-2.936-1.44-.94-.988-.941-2.503 0-1.256.701-2.197.702-.942 1.939-1.468 1.238-.535 2.835-.535 2.298 0 3.619.997 1.32.988 1.745 2.65"/><rect width="81" height="31" x="389" y="47" fill="#c6deff" fill-opacity=".6" rx="15.5"/><path fill="#1f5dd8" d="M410.909 56.205q.716.005 1.432.272t1.307.887q.59.613.949 1.676.358 1.062.358 2.665 0 1.55-.296 2.755-.29 1.2-.841 2.023-.545.824-1.329 1.25-.778.426-1.762.426-.977 0-1.744-.386a3.4 3.4 0 0 1-1.25-1.085 3.8 3.8 0 0 1-.619-1.62h1.386q.188.802.744 1.324.563.517 1.483.517 1.347 0 2.125-1.176.784-1.176.784-3.324h-.091a3.6 3.6 0 0 1-.755.824 3.34 3.34 0 0 1-2.108.722 3.53 3.53 0 0 1-1.835-.495 3.75 3.75 0 0 1-1.33-1.37q-.494-.874-.494-2 0-1.067.477-1.954a3.7 3.7 0 0 1 1.352-1.42q.875-.529 2.057-.511m0 1.25q-.715 0-1.29.358-.568.351-.903.954-.33.598-.33 1.324t.319 1.324q.323.59.88.943.562.347 1.279.347.54 0 1.005-.21.466-.217.813-.586.352-.375.551-.846.2-.478.199-.995a2.6 2.6 0 0 0-.33-1.278 2.6 2.6 0 0 0-.897-.966 2.33 2.33 0 0 0-1.296-.37m9.984-1.25q.717.005 1.432.272.716.267 1.307.887.59.613.949 1.676.358 1.062.358 2.665 0 1.55-.296 2.755-.29 1.2-.84 2.023-.546.824-1.33 1.25-.778.426-1.761.426-.977 0-1.745-.386a3.4 3.4 0 0 1-1.25-1.085 3.8 3.8 0 0 1-.619-1.62h1.386q.187.802.745 1.324.562.517 1.483.517 1.346 0 2.125-1.176.784-1.176.784-3.324h-.091a3.6 3.6 0 0 1-.756.824 3.33 3.33 0 0 1-2.108.722 3.54 3.54 0 0 1-1.835-.495 3.76 3.76 0 0 1-1.33-1.37q-.494-.874-.494-2 0-1.067.477-1.954a3.7 3.7 0 0 1 1.353-1.42q.875-.529 2.056-.511m0 1.25q-.716 0-1.289.358-.568.351-.904.954a2.7 2.7 0 0 0-.329 1.324q0 .727.318 1.324.324.59.881.943.563.347 1.278.347.54 0 1.006-.21a2.6 2.6 0 0 0 .812-.586q.353-.375.551-.846.2-.478.199-.995 0-.681-.329-1.278a2.6 2.6 0 0 0-.898-.966 2.33 2.33 0 0 0-1.296-.37m6.874 10.636q-.42 0-.722-.301a1 1 0 0 1-.301-.722q0-.42.301-.721a1 1 0 0 1 .722-.301q.42 0 .722.3.3.302.301.722a1.06 1.06 0 0 1-.512.886.97.97 0 0 1-.511.137m7.001-11.886q.717.005 1.432.272.716.267 1.307.887.59.613.949 1.676.358 1.062.358 2.665 0 1.55-.296 2.755-.29 1.2-.84 2.023-.546.824-1.33 1.25-.778.426-1.761.426-.977 0-1.745-.386a3.4 3.4 0 0 1-1.25-1.085 3.8 3.8 0 0 1-.619-1.62h1.386q.187.802.745 1.324.562.517 1.483.517 1.346 0 2.125-1.176.784-1.176.784-3.324h-.091a3.6 3.6 0 0 1-.756.824 3.33 3.33 0 0 1-2.108.722 3.54 3.54 0 0 1-1.835-.495 3.76 3.76 0 0 1-1.33-1.37q-.494-.874-.494-2 0-1.067.477-1.954a3.7 3.7 0 0 1 1.353-1.42q.875-.529 2.056-.511m0 1.25q-.716 0-1.289.358-.568.351-.904.954a2.7 2.7 0 0 0-.329 1.324q0 .727.318 1.324.324.59.881.943.563.347 1.278.347.54 0 1.006-.21a2.6 2.6 0 0 0 .812-.586q.353-.375.551-.846.2-.478.199-.995 0-.681-.329-1.278a2.6 2.6 0 0 0-.898-.966 2.33 2.33 0 0 0-1.296-.37m12.212 8.363v-.614q0-.636.261-1.164.268-.534.773-.853.512-.323 1.239-.323.738 0 1.238.324.501.318.756.852.256.528.256 1.164v.614q0 .637-.262 1.17a2.06 2.06 0 0 1-.761.853q-.5.318-1.227.318-.739 0-1.244-.318a2.1 2.1 0 0 1-.768-.852 2.6 2.6 0 0 1-.261-1.17m1.159-.614v.614q0 .53.25.949.25.415.864.415.597 0 .841-.415.25-.42.25-.949v-.614q0-.528-.239-.943-.238-.42-.852-.42-.597 0-.858.42-.256.415-.256.944m-6.954-6.045v-.614q0-.636.261-1.164.267-.534.773-.853.512-.323 1.238-.323.74 0 1.239.323.5.319.756.853.255.528.255 1.164v.614q0 .637-.261 1.17a2.06 2.06 0 0 1-.761.853q-.5.318-1.228.318-.738 0-1.244-.318a2.1 2.1 0 0 1-.767-.852 2.6 2.6 0 0 1-.261-1.17m1.159-.614v.614q0 .528.25.949.25.415.863.415.597 0 .841-.415.25-.42.25-.949v-.614q0-.528-.238-.943-.239-.42-.853-.42-.595 0-.858.42-.255.415-.255.944M441.616 68l8-11.636h1.296l-8 11.636z"/><circle cx="78" cy="110" r="7" fill="#039708"/><path fill="#000" d="M109.716 106.091a2.23 2.23 0 0 0-1.037-1.676q-.909-.597-2.23-.597-.967 0-1.69.313-.718.312-1.123.859a2.06 2.06 0 0 0-.397 1.243q0 .582.277 1.001.283.413.724.689.44.27.923.448.483.17.888.277l1.477.397q.569.15 1.265.412.703.264 1.342.718a3.65 3.65 0 0 1 1.065 1.15q.42.703.419 1.726a3.83 3.83 0 0 1-.618 2.131q-.61.951-1.789 1.513-1.173.561-2.848.561-1.563 0-2.706-.505-1.136-.504-1.79-1.406-.647-.902-.732-2.095h1.819q.07.824.554 1.364.49.532 1.235.795a5 5 0 0 0 1.62.256q1.008 0 1.811-.327.803-.333 1.271-.923.47-.597.469-1.392 0-.725-.405-1.179t-1.065-.739a11 11 0 0 0-1.428-.497l-1.79-.511q-1.704-.49-2.699-1.4-.993-.909-.994-2.379 0-1.221.661-2.13.667-.917 1.789-1.421 1.13-.511 2.522-.511 1.406 0 2.5.504 1.094.497 1.733 1.364.647.866.681 1.967zm5.652 15q-.427 0-.76-.071a2 2 0 0 1-.462-.128l.426-1.477q.61.156 1.08.113.468-.042.831-.419.37-.369.674-1.2l.313-.852-4.034-10.966h1.818l3.011 8.693h.114l3.011-8.693h1.818l-4.63 12.5q-.314.845-.774 1.399a2.9 2.9 0 0 1-1.073.831q-.604.27-1.363.27m11.729-10.653V117h-1.676v-10.909h1.619v1.704h.142a3.1 3.1 0 0 1 1.165-1.335q.781-.511 2.017-.511 1.108 0 1.939.454.831.448 1.293 1.364.46.909.461 2.301V117h-1.676v-6.818q0-1.286-.668-2.003-.667-.724-1.832-.724-.802 0-1.435.348-.624.348-.987 1.015-.362.668-.362 1.62m14.767-4.347v1.42h-5.653v-1.42zm-4.005-2.614h1.676v10.398q0 .71.206 1.065.213.348.54.469.333.114.703.114.276 0 .454-.029l.284-.056.341 1.505a3.4 3.4 0 0 1-.476.128 3.5 3.5 0 0 1-.774.071q-.71 0-1.392-.305a2.76 2.76 0 0 1-1.122-.931q-.44-.624-.44-1.576zm9.737 13.779a4.4 4.4 0 0 1-1.882-.391 3.23 3.23 0 0 1-1.343-1.143q-.497-.753-.497-1.819 0-.937.37-1.519a2.6 2.6 0 0 1 .987-.924 5.2 5.2 0 0 1 1.363-.497 16 16 0 0 1 1.513-.27 73 73 0 0 1 1.612-.192q.625-.07.91-.234.291-.163.291-.568v-.057q0-1.051-.576-1.633-.568-.583-1.725-.583-1.201 0-1.882.526-.683.525-.959 1.122l-1.591-.568q.426-.994 1.136-1.549a4.3 4.3 0 0 1 1.563-.781 6.5 6.5 0 0 1 1.676-.227q.525 0 1.207.128.689.12 1.328.504.647.384 1.073 1.158t.426 2.073V117h-1.676v-1.477h-.085q-.171.355-.569.76-.398.404-1.058.689t-1.612.284m.256-1.506q.993 0 1.676-.391.689-.39 1.037-1.008.355-.618.355-1.3v-1.534q-.107.127-.469.234a8 8 0 0 1-.824.178q-.462.07-.902.128-.433.05-.703.085a6.4 6.4 0 0 0-1.222.277q-.561.184-.909.561-.34.369-.341 1.009 0 .873.647 1.321.653.44 1.655.44m9.053-9.659 2.614 4.46 2.613-4.46h1.932l-3.522 5.454 3.522 5.455h-1.932l-2.613-4.233-2.614 4.233h-1.932l3.466-5.455-3.466-5.454zm19.608 11.136q-1.535 0-2.642-.724-1.108-.724-1.705-1.996-.596-1.271-.596-2.905 0-1.662.61-2.933.618-1.278 1.719-1.996 1.109-.724 2.585-.724 1.151 0 2.074.426a4 4 0 0 1 1.513 1.193q.59.768.732 1.79h-1.677q-.191-.746-.852-1.321-.653-.582-1.761-.582-.981 0-1.719.511-.732.504-1.143 1.427-.405.917-.405 2.152 0 1.264.397 2.202.405.937 1.137 1.456.738.519 1.733.519.653 0 1.186-.228a2.44 2.44 0 0 0 .902-.653q.369-.426.525-1.023h1.677a3.9 3.9 0 0 1-.704 1.74 3.9 3.9 0 0 1-1.47 1.222q-.909.447-2.116.447m8.416-6.789V117h-1.676v-14.545h1.676v5.34h.142a3.1 3.1 0 0 1 1.151-1.342q.774-.504 2.059-.504 1.116 0 1.953.447.838.44 1.3 1.357.47.91.469 2.315V117h-1.676v-6.818q0-1.3-.675-2.01-.667-.717-1.854-.717-.823 0-1.477.348-.647.348-1.023 1.015-.369.668-.369 1.62m14.714 6.789q-1.577 0-2.72-.696-1.137-.703-1.754-1.96-.611-1.264-.611-2.94 0-1.677.611-2.955.618-1.285 1.718-2.003 1.108-.724 2.586-.724.852 0 1.683.284a4.2 4.2 0 0 1 1.513.923q.681.633 1.086 1.676.405 1.044.405 2.571v.711h-8.409v-1.449h6.705q0-.924-.37-1.648a2.8 2.8 0 0 0-1.037-1.143q-.667-.42-1.576-.419-1.002 0-1.733.497a3.26 3.26 0 0 0-1.115 1.278 3.75 3.75 0 0 0-.391 1.69v.966q0 1.236.426 2.096a3.07 3.07 0 0 0 1.2 1.299q.768.441 1.783.441.66 0 1.193-.185.54-.192.931-.568.39-.384.603-.952l1.62.455a3.6 3.6 0 0 1-.86 1.448 4.2 4.2 0 0 1-1.491.966q-.888.341-1.996.341m11.499 0q-1.535 0-2.642-.724-1.108-.724-1.705-1.996-.596-1.271-.596-2.905 0-1.662.61-2.933.618-1.278 1.719-1.996 1.108-.724 2.585-.724 1.151 0 2.074.426a4 4 0 0 1 1.513 1.193q.59.768.731 1.79h-1.676q-.192-.746-.852-1.321-.654-.582-1.761-.582-.981 0-1.719.511-.732.504-1.144 1.427-.404.917-.404 2.152 0 1.264.397 2.202.405.937 1.137 1.456.738.519 1.733.519.653 0 1.186-.228a2.44 2.44 0 0 0 .902-.653q.369-.426.525-1.023h1.676a3.87 3.87 0 0 1-2.173 2.962q-.909.447-2.116.447m8.302-4.204-.028-2.074h.341l4.772-4.858h2.074l-5.085 5.142h-.142zM217.882 117v-14.545h1.676V117zm6.932 0-4.262-5.398 1.193-1.164 5.199 6.562zm5.168.114q-.525 0-.902-.377a1.23 1.23 0 0 1-.376-.902q0-.525.376-.902a1.23 1.23 0 0 1 .902-.376q.526 0 .902.376.377.377.377.902 0 .348-.178.639a1.3 1.3 0 0 1-.462.469 1.2 1.2 0 0 1-.639.171m0-8.097a1.23 1.23 0 0 1-.902-.376 1.23 1.23 0 0 1-.376-.902q0-.526.376-.902.377-.377.902-.377.526 0 .902.377.377.376.377.902 0 .348-.178.639a1.3 1.3 0 0 1-.462.469q-.283.17-.639.17"/><path fill="#039708" d="M399.598 117v-14.545h5.185q1.697 0 2.812.617 1.116.618 1.669 1.691.554 1.065.554 2.4 0 1.342-.561 2.415-.554 1.066-1.676 1.69-1.115.618-2.805.618h-3.566v-1.86h3.367q1.072 0 1.74-.37a2.32 2.32 0 0 0 .98-1.022q.312-.646.312-1.471 0-.824-.312-1.463a2.24 2.24 0 0 0-.987-1.001q-.668-.362-1.762-.362h-2.755V117zm15.7.241q-1.038 0-1.875-.383a3.16 3.16 0 0 1-1.329-1.129q-.483-.739-.482-1.811 0-.924.355-1.52.355-.597.958-.945a5 5 0 0 1 1.35-.525 13 13 0 0 1 1.52-.27l1.591-.185q.61-.078.887-.249t.277-.554v-.049q0-.931-.525-1.442-.519-.511-1.548-.511-1.073 0-1.691.475-.61.47-.845 1.045l-1.996-.455q.356-.994 1.037-1.605.69-.618 1.584-.895a6.2 6.2 0 0 1 1.882-.284q.653 0 1.385.156.74.15 1.378.554.647.405 1.058 1.158.412.745.412 1.939V117h-2.074v-1.491h-.085a3 3 0 0 1-.618.809 3.3 3.3 0 0 1-1.058.661q-.646.262-1.548.262m.461-1.704q.88 0 1.506-.348.632-.348.959-.909.334-.569.334-1.215v-1.406q-.114.114-.441.213a7 7 0 0 1-.731.164l-.803.12-.653.085q-.618.079-1.13.263a1.93 1.93 0 0 0-.809.533q-.299.34-.299.909 0 .788.583 1.193.582.398 1.484.398m15.925-6.783-1.924.341a2.3 2.3 0 0 0-.384-.703 1.9 1.9 0 0 0-.696-.547q-.44-.213-1.101-.213-.902 0-1.505.405-.604.397-.604 1.03 0 .546.405.88t1.306.547l1.733.398q1.506.349 2.245 1.072.738.725.738 1.883a2.86 2.86 0 0 1-.568 1.747q-.561.76-1.569 1.193-1.002.433-2.323.433-1.832 0-2.99-.781-1.158-.788-1.42-2.237l2.052-.313q.192.802.789 1.215.596.405 1.555.405 1.044 0 1.669-.434.625-.44.625-1.072 0-.512-.384-.86-.375-.348-1.157-.525l-1.847-.405q-1.527-.348-2.258-1.108-.725-.76-.725-1.925 0-.966.54-1.69t1.491-1.129q.953-.412 2.181-.412 1.769 0 2.784.767 1.016.76 1.342 2.038m10.723 0-1.925.341a2.3 2.3 0 0 0-.383-.703 1.9 1.9 0 0 0-.696-.547q-.441-.213-1.101-.213-.902 0-1.506.405-.603.397-.604 1.03 0 .546.405.88t1.307.547l1.733.398q1.506.349 2.244 1.072.74.725.739 1.883a2.86 2.86 0 0 1-.568 1.747q-.56.76-1.57 1.193-1.001.433-2.322.433-1.833 0-2.99-.781-1.158-.788-1.421-2.237l2.053-.313q.191.802.788 1.215.597.405 1.556.405 1.044 0 1.669-.434.624-.44.625-1.072 0-.512-.384-.86-.376-.348-1.158-.525l-1.846-.405q-1.527-.348-2.259-1.108-.724-.76-.724-1.925 0-.966.54-1.69t1.491-1.129q.952-.412 2.181-.412 1.769 0 2.784.767 1.015.76 1.342 2.038m7.25 8.466q-1.613 0-2.777-.689a4.67 4.67 0 0 1-1.79-1.953q-.625-1.264-.625-2.962 0-1.676.625-2.954.632-1.279 1.761-1.996 1.137-.717 2.656-.717.924 0 1.79.305a4.3 4.3 0 0 1 1.556.959q.689.653 1.086 1.698.398 1.036.398 2.521v.753h-8.672v-1.591h6.591q0-.838-.341-1.485a2.57 2.57 0 0 0-.959-1.029q-.61-.377-1.434-.377-.895 0-1.563.44-.66.433-1.023 1.137a3.3 3.3 0 0 0-.355 1.513v1.243q0 1.094.384 1.86.39.767 1.086 1.172.697.398 1.627.398.603 0 1.101-.171a2.4 2.4 0 0 0 .859-.525q.363-.349.554-.859l2.01.362a3.64 3.64 0 0 1-.866 1.555q-.618.66-1.556 1.03-.93.362-2.123.362m11.12-.007q-1.321 0-2.358-.675-1.03-.681-1.619-1.939-.583-1.263-.583-3.032t.59-3.026q.597-1.256 1.633-1.925 1.038-.667 2.351-.667 1.016 0 1.634.341.624.333.966.781.348.447.539.788h.128v-5.404h2.124V117h-2.074v-1.697h-.178a5.5 5.5 0 0 1-.554.795q-.354.447-.98.781-.624.334-1.619.334m.469-1.811q.916 0 1.548-.483.639-.49.966-1.357.333-.866.334-2.017 0-1.136-.327-1.988t-.959-1.328-1.562-.476q-.959 0-1.598.497t-.966 1.357q-.32.859-.32 1.938 0 1.094.327 1.968t.966 1.385q.646.504 1.591.504"/><circle cx="78" cy="154" r="7" fill="#039708"/><path fill="#000" d="M106.25 161h-4.489v-14.545h4.688q2.116 0 3.622.873 1.506.867 2.308 2.493.803 1.62.803 3.878 0 2.272-.81 3.913a5.77 5.77 0 0 1-2.358 2.514q-1.548.874-3.764.874m-2.727-1.562h2.613q1.805 0 2.99-.697a4.3 4.3 0 0 0 1.769-1.981q.582-1.285.582-3.061 0-1.761-.575-3.033-.575-1.278-1.719-1.96-1.143-.689-2.848-.689h-2.812zm16.818 1.789q-1.478 0-2.592-.703-1.109-.703-1.733-1.967-.618-1.264-.618-2.955 0-1.704.618-2.976.624-1.27 1.733-1.974 1.114-.703 2.592-.703t2.585.703q1.115.704 1.733 1.974.625 1.272.625 2.976 0 1.69-.625 2.955-.618 1.264-1.733 1.967-1.107.703-2.585.703m0-1.505q1.122 0 1.847-.576.724-.575 1.072-1.512a5.8 5.8 0 0 0 .348-2.032 5.9 5.9 0 0 0-.348-2.038 3.44 3.44 0 0 0-1.072-1.527q-.725-.582-1.847-.582t-1.847.582-1.072 1.527a5.9 5.9 0 0 0-.348 2.038q0 1.094.348 2.032t1.072 1.512q.725.576 1.847.576m7.502 1.278v-10.909h1.619v1.704h.142a2.74 2.74 0 0 1 1.101-1.356q.76-.49 1.825-.49 1.08 0 1.797.49.724.483 1.129 1.356h.114a3.2 3.2 0 0 1 1.257-1.342q.839-.504 2.01-.504 1.463 0 2.393.916.931.91.931 2.834V161h-1.676v-7.301q0-1.207-.661-1.726-.66-.519-1.555-.518-1.15 0-1.783.696-.632.688-.632 1.747V161h-1.704v-7.472q0-.93-.604-1.498-.604-.576-1.556-.575-.653 0-1.221.348a2.63 2.63 0 0 0-.909.965q-.341.612-.341 1.414V161zm20.593.256a4.4 4.4 0 0 1-1.882-.391 3.23 3.23 0 0 1-1.343-1.143q-.497-.753-.497-1.819 0-.937.369-1.519a2.6 2.6 0 0 1 .988-.924 5.2 5.2 0 0 1 1.363-.497 16 16 0 0 1 1.513-.27q.994-.127 1.612-.192.626-.07.909-.234.292-.163.292-.568v-.057q0-1.051-.576-1.633-.567-.583-1.726-.583-1.2 0-1.882.526-.681.525-.958 1.122l-1.591-.568q.426-.994 1.136-1.549a4.3 4.3 0 0 1 1.562-.781 6.5 6.5 0 0 1 1.677-.227q.525 0 1.207.128.689.12 1.328.504.646.384 1.073 1.158t.426 2.073V161h-1.676v-1.477h-.086q-.17.354-.568.76-.398.405-1.058.689t-1.612.284m.255-1.506q.994 0 1.677-.391.688-.39 1.036-1.008.356-.618.356-1.3v-1.534q-.107.127-.469.234a8 8 0 0 1-.824.178q-.462.07-.902.128-.433.05-.703.085a6.4 6.4 0 0 0-1.222.277q-.561.184-.909.561-.34.369-.341 1.009 0 .873.647 1.321.653.44 1.654.44m7.804 1.25v-10.909h1.676V161zm.852-12.727q-.49 0-.845-.334a1.07 1.07 0 0 1-.348-.803q0-.469.348-.802.356-.334.845-.334.49 0 .838.334.355.334.355.802t-.355.803a1.17 1.17 0 0 1-.838.334m5.57 6.165V161h-1.676v-10.909h1.619v1.704h.142a3.1 3.1 0 0 1 1.165-1.335q.781-.511 2.017-.511 1.108 0 1.939.454.831.448 1.293 1.364.462.909.461 2.301V161h-1.676v-6.818q0-1.286-.667-2.003-.668-.724-1.833-.724-.802 0-1.434.348-.625.348-.988 1.015-.362.668-.362 1.62m16.472-7.983 4.318 12.244h.171l4.318-12.244h1.847L184.702 161h-1.818l-5.341-14.545zm16.25 14.772q-1.577 0-2.72-.696-1.137-.703-1.754-1.96-.61-1.264-.611-2.94 0-1.677.611-2.955.618-1.285 1.719-2.003 1.107-.724 2.585-.724.852 0 1.683.284a4.2 4.2 0 0 1 1.513.923q.682.632 1.086 1.676.405 1.044.405 2.571v.711h-8.409v-1.449h6.705q0-.924-.37-1.648a2.8 2.8 0 0 0-1.037-1.143q-.667-.42-1.576-.419-1.002 0-1.733.497a3.26 3.26 0 0 0-1.115 1.278 3.75 3.75 0 0 0-.391 1.69v.966q0 1.236.426 2.096a3.07 3.07 0 0 0 1.201 1.299q.767.441 1.782.441.661 0 1.193-.185.54-.192.931-.568.39-.384.603-.952l1.62.455a3.6 3.6 0 0 1-.86 1.448 4.2 4.2 0 0 1-1.491.966q-.888.342-1.996.341m7.067-.227v-10.909h1.619v1.648h.114q.299-.81 1.079-1.314a3.2 3.2 0 0 1 1.762-.505q.185 0 .461.008.278.006.42.021v1.704a6 6 0 0 0-.391-.064 4 4 0 0 0-.632-.049q-.796 0-1.421.334a2.5 2.5 0 0 0-.98.909 2.44 2.44 0 0 0-.355 1.314V161zm7.441 0v-10.909h1.677V161zm.853-12.727q-.49 0-.846-.334a1.07 1.07 0 0 1-.348-.803q0-.469.348-.802.356-.334.846-.334t.838.334q.355.334.355.802t-.355.803a1.17 1.17 0 0 1-.838.334m8.751 1.818v1.42h-5.88v-1.42zM215.632 161v-12.415q0-.938.44-1.562a2.74 2.74 0 0 1 1.144-.938 3.6 3.6 0 0 1 1.484-.312q.618 0 1.009.099.39.1.582.185l-.483 1.449a8 8 0 0 0-.355-.107 2.2 2.2 0 0 0-.582-.064q-.83 0-1.201.419-.362.42-.362 1.229V161zm6.468 0v-10.909h1.677V161zm.853-12.727q-.49 0-.845-.334a1.07 1.07 0 0 1-.348-.803q0-.469.348-.802.354-.334.845-.334.49 0 .838.334.355.334.355.802t-.355.803a1.17 1.17 0 0 1-.838.334m8.325 12.954q-1.533 0-2.642-.724-1.107-.724-1.704-1.996-.597-1.271-.597-2.905 0-1.662.611-2.933.618-1.278 1.719-1.996 1.107-.724 2.585-.724 1.15 0 2.074.426t1.513 1.193.731 1.79h-1.676q-.192-.746-.852-1.321-.654-.582-1.762-.582-.98 0-1.718.511-.732.504-1.144 1.427-.405.917-.405 2.152 0 1.264.398 2.202.405.937 1.136 1.456.74.519 1.733.519.654 0 1.186-.228a2.43 2.43 0 0 0 1.428-1.676h1.676a3.9 3.9 0 0 1-.703 1.74 3.9 3.9 0 0 1-1.47 1.222q-.91.447-2.117.447m9.951.029a4.4 4.4 0 0 1-1.882-.391 3.23 3.23 0 0 1-1.343-1.143q-.497-.753-.497-1.819 0-.937.369-1.519a2.6 2.6 0 0 1 .988-.924 5.2 5.2 0 0 1 1.363-.497 16 16 0 0 1 1.513-.27q.994-.127 1.612-.192.626-.07.909-.234.292-.163.292-.568v-.057q0-1.051-.576-1.633-.568-.583-1.726-.583-1.2 0-1.882.526-.681.525-.958 1.122l-1.591-.568q.425-.994 1.136-1.549a4.3 4.3 0 0 1 1.562-.781 6.5 6.5 0 0 1 1.677-.227q.525 0 1.207.128.689.12 1.328.504.646.384 1.073 1.158t.426 2.073V161h-1.676v-1.477h-.086q-.17.354-.568.76-.398.405-1.058.689t-1.612.284m.255-1.506q.994 0 1.677-.391.688-.39 1.036-1.008.356-.618.356-1.3v-1.534q-.107.127-.469.234a8 8 0 0 1-.824.178q-.462.07-.902.128-.433.05-.703.085a6.4 6.4 0 0 0-1.222.277q-.561.184-.909.561-.34.369-.341 1.009 0 .873.647 1.321.653.44 1.654.44m12.548-9.659v1.42h-5.653v-1.42zm-4.005-2.614h1.676v10.398q0 .71.206 1.065.213.349.54.469.333.114.703.114.276 0 .454-.029l.284-.056.341 1.505a3.4 3.4 0 0 1-.476.128 3.5 3.5 0 0 1-.774.071q-.71 0-1.392-.305a2.76 2.76 0 0 1-1.122-.931q-.44-.625-.44-1.576zM256.554 161v-10.909h1.676V161zm.852-12.727q-.49 0-.845-.334a1.07 1.07 0 0 1-.348-.803q0-.469.348-.802.354-.334.845-.334.49 0 .838.334.355.334.355.802t-.355.803a1.17 1.17 0 0 1-.838.334m8.326 12.954q-1.477 0-2.593-.703-1.107-.703-1.733-1.967-.618-1.264-.618-2.955 0-1.704.618-2.976.626-1.27 1.733-1.974 1.116-.703 2.593-.703t2.585.703q1.115.704 1.733 1.974.625 1.272.625 2.976 0 1.69-.625 2.955-.618 1.264-1.733 1.967-1.109.703-2.585.703m0-1.505q1.122 0 1.846-.576a3.4 3.4 0 0 0 1.073-1.512 5.8 5.8 0 0 0 .348-2.032 5.9 5.9 0 0 0-.348-2.038 3.43 3.43 0 0 0-1.073-1.527q-.724-.582-1.846-.582t-1.847.582-1.073 1.527a5.9 5.9 0 0 0-.348 2.038q0 1.094.348 2.032.349.937 1.073 1.512.724.576 1.847.576m9.177-5.284V161h-1.676v-10.909h1.62v1.704h.142a3.1 3.1 0 0 1 1.164-1.335q.782-.511 2.017-.511 1.108 0 1.939.454.831.448 1.293 1.364.462.909.462 2.301V161h-1.676v-6.818q0-1.286-.668-2.003-.668-.724-1.832-.724-.804 0-1.435.348-.625.348-.987 1.015-.363.668-.363 1.62m11.245 6.676q-.525 0-.902-.377a1.23 1.23 0 0 1-.376-.902q0-.525.376-.902a1.23 1.23 0 0 1 .902-.376q.525 0 .902.376.377.377.377.902 0 .348-.178.639a1.3 1.3 0 0 1-.462.469 1.2 1.2 0 0 1-.639.171m0-8.097a1.23 1.23 0 0 1-.902-.376 1.23 1.23 0 0 1-.376-.902q0-.526.376-.902.377-.377.902-.377t.902.377.377.902q0 .348-.178.639-.171.29-.462.469-.284.17-.639.17"/><path fill="#039708" d="m423.869 146.455 4.049 11.846h.163l4.048-11.846h2.372L429.267 161h-2.535l-5.235-14.545zm14.663 14.786q-1.036 0-1.875-.383a3.16 3.16 0 0 1-1.328-1.129q-.483-.739-.483-1.811 0-.924.355-1.52.355-.597.959-.945a5 5 0 0 1 1.349-.525 13 13 0 0 1 1.52-.27l1.591-.185q.61-.078.888-.249.276-.17.277-.554v-.049q0-.931-.526-1.442-.518-.511-1.548-.511-1.072 0-1.69.475-.611.47-.846 1.045l-1.995-.455q.354-.995 1.037-1.605.689-.618 1.583-.895a6.2 6.2 0 0 1 1.883-.284q.653 0 1.384.156.74.15 1.378.554.647.405 1.059 1.158.411.745.411 1.939V161h-2.073v-1.491h-.086a3 3 0 0 1-.618.809 3.3 3.3 0 0 1-1.058.661q-.646.262-1.548.262m.462-1.704q.88 0 1.505-.348.632-.348.959-.909.334-.569.334-1.215v-1.406q-.114.114-.44.213a7 7 0 0 1-.732.164l-.803.12-.653.085q-.618.079-1.129.263a1.94 1.94 0 0 0-.81.533q-.298.34-.298.909 0 .788.582 1.193.582.398 1.485.398m9.874-13.082V161h-2.124v-14.545zM451.724 161v-10.909h2.124V161zm1.073-12.592q-.554 0-.952-.37a1.2 1.2 0 0 1-.39-.895q0-.525.39-.894.398-.377.952-.377t.944.377q.399.369.398.894 0 .519-.398.895a1.32 1.32 0 0 1-.944.37m7.992 12.805q-1.321 0-2.358-.675-1.03-.682-1.62-1.939-.582-1.263-.582-3.032t.59-3.026q.596-1.257 1.633-1.925 1.037-.667 2.351-.667 1.016 0 1.633.341.625.333.966.781.348.447.54.788h.128v-5.404h2.124V161h-2.074v-1.697h-.178a5.6 5.6 0 0 1-.554.795q-.355.447-.98.781t-1.619.334m.468-1.811q.916 0 1.549-.483.639-.49.966-1.357.333-.866.333-2.017 0-1.136-.326-1.988-.327-.852-.959-1.328t-1.563-.476q-.958 0-1.598.497t-.965 1.357q-.32.859-.32 1.938 0 1.094.327 1.968.325.873.966 1.385.646.504 1.59.504"/><circle cx="78" cy="198" r="7" fill="#039708"/><path fill="#000" d="M101.761 190.455h2.103l4.943 12.073h.17l4.943-12.073h2.103V205h-1.648v-11.051h-.142L109.688 205h-1.591l-4.546-11.051h-.142V205h-1.648zm18.646 0 3.75 6.051h.113l3.75-6.051h2.074l-4.574 7.272 4.574 7.273h-2.074l-3.75-5.938h-.113l-3.75 5.938h-2.074l4.687-7.273-4.687-7.272zM138.011 205v-14.545h4.915q1.705 0 2.798.582 1.094.575 1.62 1.584.525 1.008.525 2.294t-.525 2.28q-.526.993-1.612 1.562-1.088.561-2.777.561h-3.978v-1.591h3.921q1.164 0 1.875-.341.717-.34 1.037-.966.326-.632.326-1.505 0-.875-.326-1.527-.327-.654-1.044-1.009-.718-.362-1.897-.362h-3.096V205zm6.847-6.534 3.58 6.534h-2.046l-3.523-6.534zm10.176 6.761q-1.577 0-2.72-.696a4.67 4.67 0 0 1-1.755-1.96q-.61-1.265-.61-2.94 0-1.677.61-2.955.618-1.285 1.719-2.003 1.108-.724 2.585-.724.853 0 1.684.284a4.2 4.2 0 0 1 1.512.923q.682.632 1.087 1.676t.405 2.571v.711h-8.409v-1.449h6.704q0-.924-.369-1.648a2.8 2.8 0 0 0-1.037-1.143q-.668-.42-1.577-.419-1 0-1.733.497a3.3 3.3 0 0 0-1.115 1.278 3.76 3.76 0 0 0-.39 1.69v.966q0 1.236.426 2.096a3.07 3.07 0 0 0 1.2 1.299q.767.441 1.783.441.66 0 1.193-.185.54-.192.93-.568.391-.384.604-.952l1.619.455a3.6 3.6 0 0 1-.859 1.448q-.604.618-1.492.966-.887.342-1.995.341m11.498 0q-1.533 0-2.642-.724t-1.704-1.996q-.597-1.271-.597-2.905 0-1.662.611-2.933.618-1.278 1.719-1.996 1.107-.724 2.585-.724 1.15 0 2.074.426t1.513 1.193.731 1.79h-1.676q-.192-.746-.852-1.321-.654-.582-1.762-.582-.98 0-1.718.511-.732.504-1.144 1.427-.405.917-.405 2.152 0 1.265.398 2.202.405.937 1.136 1.456.739.519 1.733.519.654 0 1.186-.228a2.43 2.43 0 0 0 1.428-1.676h1.676a3.9 3.9 0 0 1-.703 1.74 3.9 3.9 0 0 1-1.47 1.222q-.91.447-2.117.447m11.172 0q-1.478 0-2.592-.703-1.108-.703-1.733-1.967-.618-1.264-.618-2.955 0-1.704.618-2.976.625-1.27 1.733-1.974 1.114-.703 2.592-.703t2.585.703q1.115.704 1.733 1.974.625 1.272.625 2.976 0 1.69-.625 2.955-.618 1.264-1.733 1.967-1.107.703-2.585.703m0-1.505q1.122 0 1.847-.576.724-.575 1.072-1.512a5.8 5.8 0 0 0 .348-2.032 5.9 5.9 0 0 0-.348-2.038q-.348-.945-1.072-1.527t-1.847-.582-1.846.582a3.43 3.43 0 0 0-1.073 1.527 5.9 5.9 0 0 0-.348 2.038q0 1.094.348 2.032t1.073 1.512q.724.576 1.846.576m7.502 1.278v-10.909h1.619v1.648h.114q.299-.81 1.079-1.314a3.2 3.2 0 0 1 1.762-.505q.185 0 .461.008.278.006.42.021v1.704a6 6 0 0 0-.391-.064 4 4 0 0 0-.632-.049q-.796 0-1.421.334a2.5 2.5 0 0 0-.98.909 2.44 2.44 0 0 0-.355 1.314V205zm11.229.227q-1.364 0-2.408-.689-1.044-.696-1.634-1.96-.59-1.271-.589-3.004 0-1.719.589-2.983.59-1.264 1.641-1.953t2.429-.689q1.065 0 1.683.355.625.348.952.795.334.44.518.725h.143v-5.369h1.676V205h-1.62v-1.676h-.199q-.184.298-.525.753-.341.447-.973.802-.633.348-1.683.348m.227-1.505q1.008 0 1.704-.526.696-.532 1.059-1.47.362-.945.362-2.181 0-1.221-.355-2.137-.355-.924-1.051-1.435-.696-.519-1.719-.518-1.065 0-1.776.546-.702.54-1.058 1.471-.348.923-.348 2.073 0 1.165.355 2.117.363.945 1.066 1.506.71.554 1.761.554m15.802-7.188-1.505.426a2.8 2.8 0 0 0-.419-.731 2 2 0 0 0-.739-.597q-.468-.234-1.2-.234-1.002 0-1.669.461-.661.454-.661 1.158 0 .625.455.987.454.363 1.42.604l1.62.398q1.463.355 2.18 1.086.717.725.717 1.868 0 .938-.539 1.676-.534.74-1.492 1.165t-2.23.426q-1.67 0-2.763-.724-1.094-.725-1.385-2.117l1.591-.397q.227.88.86 1.321.639.44 1.669.44 1.172 0 1.86-.497.696-.504.696-1.208 0-.568-.397-.951-.398-.391-1.222-.583l-1.818-.426q-1.499-.355-2.202-1.101-.696-.753-.696-1.882 0-.923.519-1.633.525-.71 1.427-1.115.91-.405 2.06-.405 1.619 0 2.542.71a3.83 3.83 0 0 1 1.321 1.875m3.944 8.58q-.525 0-.902-.377a1.23 1.23 0 0 1-.376-.902q0-.525.376-.902a1.23 1.23 0 0 1 .902-.376q.525 0 .902.376.376.377.376.902 0 .348-.177.639a1.3 1.3 0 0 1-.462.469 1.2 1.2 0 0 1-.639.171m0-8.097a1.23 1.23 0 0 1-.902-.376 1.23 1.23 0 0 1-.376-.902q0-.526.376-.902.377-.377.902-.377t.902.377q.376.376.376.902 0 .348-.177.639-.171.29-.462.469-.283.17-.639.17"/><path fill="#039708" d="M409.598 205v-14.545h9.02v1.889h-6.825v4.432h6.179v1.882h-6.179V205zm15.343.22q-1.535 0-2.678-.703t-1.775-1.967-.633-2.955q0-1.697.633-2.969.632-1.27 1.775-1.974 1.143-.703 2.678-.703t2.677.703q1.144.704 1.776 1.974.632 1.272.632 2.969 0 1.69-.632 2.955-.632 1.264-1.776 1.967-1.143.703-2.677.703m.007-1.782q.994 0 1.648-.526t.965-1.399q.32-.874.32-1.925 0-1.044-.32-1.918-.312-.88-.965-1.413-.654-.533-1.648-.533-1.002 0-1.662.533-.654.532-.973 1.413a5.7 5.7 0 0 0-.313 1.918q0 1.051.313 1.925.32.873.973 1.399.66.526 1.662.526m14.359-2.962v-6.385h2.131V205h-2.089v-1.889h-.113a3.4 3.4 0 0 1-1.208 1.456q-.823.575-2.052.575-1.051 0-1.861-.462-.802-.468-1.264-1.385-.455-.916-.455-2.265v-6.939h2.124v6.683q0 1.115.618 1.776.618.66 1.605.66.597 0 1.186-.298.597-.299.987-.902.398-.604.391-1.534m7.107-1.953V205h-2.123v-10.909h2.038v1.775h.135a3.13 3.13 0 0 1 1.179-1.392q.81-.525 2.038-.525 1.116 0 1.954.469.838.461 1.299 1.377.462.916.462 2.266V205h-2.124v-6.683q0-1.186-.618-1.854-.617-.675-1.697-.675-.738 0-1.314.32a2.3 2.3 0 0 0-.902.937q-.327.612-.327 1.478m13.914 6.69q-1.322 0-2.358-.675-1.03-.682-1.62-1.939-.582-1.263-.582-3.032t.59-3.026q.596-1.257 1.633-1.925 1.037-.667 2.351-.667 1.016 0 1.633.341.625.334.966.781.348.447.54.788h.128v-5.404h2.124V205h-2.074v-1.697h-.178a5.6 5.6 0 0 1-.554.795q-.355.447-.98.781t-1.619.334m.469-1.811q.915 0 1.548-.483.639-.49.966-1.357.334-.866.334-2.017 0-1.136-.327-1.988t-.959-1.328q-.632-.477-1.562-.476-.96 0-1.598.497-.64.497-.966 1.357-.32.859-.32 1.938 0 1.094.327 1.968.326.873.966 1.385.646.504 1.591.504"/><circle cx="78" cy="242" r="7" fill="#039708"/><path fill="#000" d="M109.716 238.091a2.23 2.23 0 0 0-1.037-1.676q-.909-.597-2.23-.597-.967 0-1.69.313-.718.312-1.123.859a2.06 2.06 0 0 0-.397 1.243q0 .582.277 1.001.283.413.724.689.44.27.923.448.483.17.888.277l1.477.397q.569.15 1.265.412.703.264 1.342.718a3.65 3.65 0 0 1 1.065 1.15q.42.703.419 1.726a3.83 3.83 0 0 1-.618 2.131q-.61.951-1.789 1.513-1.173.561-2.848.561-1.563 0-2.706-.505-1.136-.504-1.79-1.406-.647-.902-.732-2.095h1.819q.07.824.554 1.364.49.532 1.235.795a5 5 0 0 0 1.62.256q1.008 0 1.811-.327.803-.333 1.271-.923.47-.597.469-1.392 0-.725-.405-1.179t-1.065-.739a11 11 0 0 0-1.428-.497l-1.79-.511q-1.704-.49-2.699-1.4-.993-.909-.994-2.379 0-1.221.661-2.13.667-.917 1.789-1.421 1.13-.511 2.522-.511 1.406 0 2.5.504 1.094.497 1.733 1.364.647.866.681 1.967zm4.799-3.636h2.103l4.943 12.073h.17l4.943-12.073h2.103V249h-1.648v-11.051h-.142L122.441 249h-1.591l-4.545-11.051h-.142V249h-1.648zm16.998 1.562v-1.562h10.909v1.562h-4.574V249h-1.761v-12.983zM145.14 249v-14.545h4.915q1.712 0 2.798.617 1.094.612 1.62 1.655.525 1.044.525 2.33t-.525 2.336q-.519 1.051-1.605 1.677-1.087.618-2.785.618h-3.522v-1.563h3.466q1.171 0 1.882-.405a2.42 2.42 0 0 0 1.03-1.094 3.7 3.7 0 0 0 .326-1.569q0-.874-.326-1.563a2.34 2.34 0 0 0-1.037-1.079q-.718-.398-1.904-.398h-3.096V249zm30.025-10h-1.761a3.66 3.66 0 0 0-1.485-2.301 4 4 0 0 0-1.214-.597 4.9 4.9 0 0 0-1.392-.199 4.44 4.44 0 0 0-2.394.668q-1.065.668-1.697 1.967-.625 1.3-.625 3.189t.625 3.189q.632 1.3 1.697 1.968a4.44 4.44 0 0 0 2.394.667q.725 0 1.392-.199a4 4 0 0 0 1.214-.589q.555-.398.938-.973a3.7 3.7 0 0 0 .547-1.335h1.761a5.9 5.9 0 0 1-.724 1.995 5.5 5.5 0 0 1-1.307 1.499 5.7 5.7 0 0 1-1.754.93 6.5 6.5 0 0 1-2.067.32q-1.861 0-3.31-.909-1.449-.91-2.28-2.585-.831-1.677-.831-3.978t.831-3.977 2.28-2.585 3.31-.909q1.101 0 2.067.319a5.7 5.7 0 0 1 1.754.938q.781.61 1.307 1.491.526.874.724 1.996m4.295 3.438V249h-1.676v-14.545h1.676v5.34h.142a3.1 3.1 0 0 1 1.151-1.342q.774-.504 2.059-.504 1.116 0 1.954.447.838.44 1.299 1.357.47.91.469 2.315V249h-1.676v-6.818q0-1.3-.675-2.01-.668-.717-1.853-.717-.825 0-1.478.348-.647.348-1.022 1.015-.37.668-.37 1.62m14.714 6.789q-1.576 0-2.72-.696a4.7 4.7 0 0 1-1.754-1.96q-.61-1.265-.611-2.94 0-1.677.611-2.955.618-1.285 1.719-2.003 1.107-.724 2.585-.724.852 0 1.683.284a4.2 4.2 0 0 1 1.513.923q.681.632 1.087 1.676.404 1.044.404 2.571v.711h-8.409v-1.449h6.705q0-.924-.369-1.648a2.8 2.8 0 0 0-1.037-1.143q-.668-.42-1.577-.419-1.002 0-1.733.497a3.26 3.26 0 0 0-1.115 1.278 3.75 3.75 0 0 0-.391 1.69v.966q0 1.236.426 2.096a3.07 3.07 0 0 0 1.201 1.299q.767.441 1.782.441.66 0 1.194-.185.54-.192.93-.568.39-.384.604-.952l1.619.455a3.6 3.6 0 0 1-.859 1.448q-.604.618-1.492.966-.888.342-1.996.341m11.499 0q-1.534 0-2.642-.724t-1.705-1.996q-.596-1.271-.596-2.905 0-1.662.611-2.933.617-1.278 1.718-1.996 1.109-.724 2.586-.724 1.15 0 2.073.426a4 4 0 0 1 1.513 1.193q.59.768.732 1.79h-1.676q-.192-.746-.853-1.321-.653-.582-1.761-.582-.98 0-1.719.511-.731.504-1.143 1.427-.405.917-.405 2.152 0 1.265.398 2.202.405.937 1.136 1.456.738.519 1.733.519.654 0 1.186-.228a2.44 2.44 0 0 0 .902-.653q.369-.426.526-1.023h1.676a3.9 3.9 0 0 1-.703 1.74 3.9 3.9 0 0 1-1.471 1.222q-.909.447-2.116.447m8.302-4.204-.028-2.074h.341l4.773-4.858h2.074l-5.086 5.142h-.142zM212.413 249v-14.545h1.676V249zm6.932 0-4.262-5.398 1.194-1.164 5.198 6.562zm5.168.114q-.525 0-.901-.377a1.23 1.23 0 0 1-.377-.902q0-.525.377-.902.375-.376.901-.376.527 0 .902.376.377.377.377.902 0 .348-.178.639a1.3 1.3 0 0 1-.461.469q-.285.171-.64.171m0-8.097q-.525 0-.901-.376a1.23 1.23 0 0 1-.377-.902q0-.526.377-.902.375-.377.901-.377.527 0 .902.377.377.376.377.902 0 .348-.178.639-.17.29-.461.469-.285.17-.64.17"/><path fill="#039708" d="M409.827 249h-2.33l5.235-14.545h2.535L420.501 249h-2.329l-4.112-11.903h-.114zm.39-5.696h7.557v1.847h-7.557zm16.634 5.916q-1.584 0-2.727-.717a4.75 4.75 0 0 1-1.748-1.996q-.61-1.27-.61-2.912 0-1.662.625-2.933.624-1.278 1.761-1.996 1.137-.717 2.678-.717 1.243 0 2.215.462a4 4 0 0 1 1.57 1.278q.605.824.717 1.925h-2.066a2.47 2.47 0 0 0-.782-1.321q-.603-.555-1.619-.554-.888 0-1.555.468-.661.462-1.03 1.321-.369.853-.369 2.017 0 1.193.362 2.06t1.022 1.342q.669.477 1.57.476.604 0 1.094-.22.497-.227.831-.646a2.44 2.44 0 0 0 .476-1.009h2.066a4 4 0 0 1-.689 1.89 3.96 3.96 0 0 1-1.541 1.306q-.958.476-2.251.476m11.845-11.129v1.704h-5.959v-1.704zm-4.361-2.614h2.123v10.32q0 .618.185.93a.96.96 0 0 0 .476.419q.298.107.646.107.256 0 .448-.036t.298-.056l.384 1.754a4 4 0 0 1-.526.142 4 4 0 0 1-.852.085q-.839.014-1.563-.298a2.7 2.7 0 0 1-1.172-.966q-.447-.654-.447-1.641zm6.71 13.523v-10.909h2.123V249zm1.072-12.592a1.35 1.35 0 0 1-.952-.37 1.2 1.2 0 0 1-.39-.895q0-.525.39-.894a1.34 1.34 0 0 1 .952-.377q.554 0 .945.377.398.369.398.894 0 .519-.398.895-.39.37-.945.37m13.241 1.683L451.402 249h-2.273l-3.963-10.909h2.28l2.762 8.395h.114l2.756-8.395zm6.326 11.129q-1.613 0-2.777-.689a4.7 4.7 0 0 1-1.79-1.953q-.624-1.264-.625-2.962 0-1.676.625-2.954.633-1.278 1.762-1.996 1.136-.717 2.656-.717.923 0 1.79.305a4.3 4.3 0 0 1 1.555.959q.688.653 1.087 1.698.397 1.036.397 2.521v.753h-8.672v-1.591h6.591q0-.838-.341-1.485a2.57 2.57 0 0 0-.958-1.029q-.612-.377-1.435-.377-.895 0-1.562.44a2.95 2.95 0 0 0-1.023 1.137 3.3 3.3 0 0 0-.355 1.513v1.243q0 1.094.383 1.86.391.767 1.087 1.172.696.398 1.626.398.605 0 1.101-.171.498-.177.859-.525.363-.348.554-.859l2.01.362a3.6 3.6 0 0 1-.866 1.555 4.2 4.2 0 0 1-1.555 1.03q-.931.362-2.124.362"/></g><defs><filter id="a" width="533" height="309" x="0" y="0" color-interpolation-filters="sRGB" filterUnits="userSpaceOnUse"><feFlood flood-opacity="0" result="BackgroundImageFix"/><feColorMatrix in="SourceAlpha" result="hardAlpha" values="0 0 0 0 0 0 0 0 0 0 0 0 0 0 0 0 0 0 127 0"/><feOffset dx="-4" dy="4"/><feGaussianBlur stdDeviation="7.5"/><feComposite in2="hardAlpha" operator="out"/><feColorMatrix values="0 0 0 0 0 0 0 0 0 0 0 0 0 0 0 0 0 0 0.15 0"/><feBlend in2="BackgroundImageFix" result="effect1_dropShadow_303_1744"/><feBlend in="SourceGraphic" in2="effect1_dropShadow_303_1744" result="shape"/></filter></defs></svg>