<svg xmlns="http://www.w3.org/2000/svg" width="533" height="298" fill="none" viewBox="0 0 533 298"><g filter="url(#a)"><rect width="503" height="268" x="19" y="11" fill="#fff0f1" rx="10" shape-rendering="crispEdges"/><rect width="460" height="147" x="40" y="26" fill="#fff" rx="10"/><path stroke="#1f5dd8" stroke-linecap="round" stroke-linejoin="round" stroke-width="3" d="M86 51.25v15m6.25-8.75L86 51.25l-6.25 6.25m17.5 8.75v5a2.5 2.5 0 0 1-2.5 2.5h-17.5a2.5 2.5 0 0 1-2.5-2.5v-5"/><path fill="#000" d="M128.968 72.286q-2.096 0-3.61-.895-1.505-.906-2.327-2.54-.812-1.643-.812-3.85 0-2.179.812-3.84.822-1.662 2.29-2.595 1.477-.933 3.453-.933 1.2 0 2.327.398 1.127.397 2.022 1.246.895.85 1.413 2.207.517 1.347.517 3.277v.98h-11.274v-2.07h8.568q0-1.088-.443-1.929a3.35 3.35 0 0 0-1.246-1.339q-.794-.489-1.865-.489-1.164 0-2.032.572a3.85 3.85 0 0 0-1.329 1.478 4.26 4.26 0 0 0-.462 1.966v1.616q0 1.421.499 2.42.507.996 1.412 1.523.905.516 2.115.517.785 0 1.431-.222a3.1 3.1 0 0 0 1.117-.683q.471-.453.72-1.117l2.613.47a4.74 4.74 0 0 1-1.126 2.023q-.804.858-2.022 1.338-1.21.471-2.761.471m9.148-.286V57.818h2.649v2.308h.176a3.67 3.67 0 0 1 1.449-1.828q1.007-.665 2.41-.665 1.422 0 2.382.665.97.666 1.431 1.828h.148a4 4 0 0 1 1.616-1.81q1.108-.683 2.641-.683 1.93 0 3.148 1.21 1.228 1.21 1.228 3.647V72h-2.761v-9.251q0-1.44-.784-2.087-.785-.645-1.875-.646-1.347 0-2.096.83-.747.822-.747 2.115V72h-2.752v-9.427q0-1.154-.72-1.856t-1.874-.701q-.786 0-1.45.415-.656.406-1.062 1.136-.397.73-.397 1.69V72zm27.105.314q-1.347 0-2.437-.499a4.1 4.1 0 0 1-1.727-1.468q-.627-.96-.628-2.354 0-1.2.462-1.976a3.4 3.4 0 0 1 1.246-1.228 6.5 6.5 0 0 1 1.755-.683 17 17 0 0 1 1.976-.351l2.068-.24q.794-.102 1.154-.323t.36-.72v-.065q0-1.21-.683-1.874-.675-.666-2.013-.665-1.395 0-2.198.618-.794.61-1.098 1.358l-2.595-.591q.462-1.293 1.348-2.087a5.5 5.5 0 0 1 2.059-1.163 8 8 0 0 1 2.447-.37q.849 0 1.8.204a5.3 5.3 0 0 1 1.792.72q.84.525 1.375 1.505.536.969.536 2.52V72h-2.696v-1.939h-.111a4 4 0 0 1-.803 1.053q-.536.516-1.376.858t-2.013.342m.6-2.216q1.145 0 1.958-.452.822-.453 1.246-1.182.434-.739.434-1.58v-1.827q-.147.147-.572.277a9 9 0 0 1-.951.212q-.535.084-1.044.157l-.849.11a7 7 0 0 0-1.468.343q-.656.24-1.053.692-.387.444-.387 1.182 0 1.024.757 1.551.757.517 1.929.517M175.897 72V57.818h2.76V72zm1.394-16.37q-.72 0-1.237-.48a1.56 1.56 0 0 1-.508-1.163q0-.684.508-1.164.516-.49 1.237-.49.72 0 1.228.49.517.48.517 1.163 0 .675-.517 1.164-.508.48-1.228.48m7.841-2.54V72h-2.761V53.09zm14.341 8.19-2.502.444a3 3 0 0 0-.499-.914 2.46 2.46 0 0 0-.904-.711q-.573-.277-1.431-.277-1.173 0-1.958.526-.785.517-.785 1.339 0 .71.527 1.145.526.434 1.698.71l2.253.518q1.958.452 2.918 1.394t.96 2.447a3.72 3.72 0 0 1-.738 2.27q-.73.989-2.041 1.552-1.302.564-3.019.563-2.382 0-3.887-1.015-1.505-1.025-1.847-2.909l2.669-.406q.249 1.043 1.024 1.579.776.525 2.022.526 1.357 0 2.17-.563.813-.573.813-1.394a1.45 1.45 0 0 0-.499-1.117q-.49-.453-1.505-.684l-2.4-.526q-1.986-.453-2.937-1.44-.94-.988-.941-2.503 0-1.256.701-2.197.702-.942 1.939-1.468 1.238-.535 2.835-.535 2.3 0 3.619.997 1.32.988 1.745 2.65M212.914 72v2.345h-12.012V72zm4.591-18.91V72h-2.761V53.09zM221.219 72V57.818h2.761V72zm1.394-16.37q-.72 0-1.237-.48a1.56 1.56 0 0 1-.508-1.163q0-.684.508-1.164.517-.49 1.237-.49t1.228.49q.517.48.517 1.163 0 .675-.517 1.164-.507.48-1.228.48m15.708 5.65-2.502.444a3 3 0 0 0-.499-.914 2.46 2.46 0 0 0-.905-.711q-.571-.277-1.431-.277-1.173 0-1.957.526-.785.517-.785 1.339 0 .71.526 1.145.526.434 1.699.71l2.253.518q1.957.452 2.918 1.394.96.942.96 2.447 0 1.274-.739 2.27-.729.989-2.04 1.552-1.302.564-3.019.563-2.383 0-3.888-1.015-1.504-1.025-1.846-2.909l2.668-.406q.25 1.043 1.025 1.579.775.525 2.022.526 1.357 0 2.17-.563.812-.573.812-1.394a1.45 1.45 0 0 0-.498-1.117q-.49-.453-1.505-.684l-2.401-.526q-1.985-.453-2.936-1.44-.942-.988-.942-2.503 0-1.256.702-2.197t1.939-1.468q1.238-.535 2.834-.535 2.3 0 3.62.997 1.32.988 1.745 2.65m9.932-3.462v2.216h-7.746v-2.216zm-5.669-3.398h2.761v13.416q0 .803.24 1.21.24.396.618.544.388.14.841.139.332 0 .581-.046l.388-.074.499 2.28q-.24.093-.684.185a5.4 5.4 0 0 1-1.107.11 4.9 4.9 0 0 1-2.032-.387 3.5 3.5 0 0 1-1.523-1.256q-.582-.849-.582-2.133zm10.542 17.755q-.757 0-1.302-.535a1.8 1.8 0 0 1-.545-1.311q0-.757.545-1.293a1.78 1.78 0 0 1 1.302-.544q.757 0 1.302.544.544.535.544 1.293 0 .508-.258.932a1.9 1.9 0 0 1-.665.665 1.76 1.76 0 0 1-.923.25m11.518.111q-2.059 0-3.545-.932-1.477-.942-2.272-2.595t-.794-3.785q0-2.16.813-3.814.812-1.66 2.289-2.594t3.481-.933q1.616 0 2.881.6a5.17 5.17 0 0 1 2.04 1.663q.786 1.071.933 2.502h-2.687a3.22 3.22 0 0 0-1.015-1.718q-.785-.72-2.106-.72-1.154 0-2.022.61-.858.6-1.338 1.717-.48 1.108-.48 2.622 0 1.551.47 2.678.472 1.125 1.33 1.745.868.618 2.04.618.786 0 1.422-.286a2.9 2.9 0 0 0 1.081-.84q.443-.544.618-1.311h2.687a5.2 5.2 0 0 1-.896 2.456q-.747 1.08-2.003 1.699-1.247.618-2.927.618m19.405-11.005-2.502.443a3 3 0 0 0-.498-.914 2.5 2.5 0 0 0-.905-.711q-.573-.277-1.431-.277-1.172 0-1.958.526-.784.517-.784 1.339 0 .71.526 1.145.526.434 1.699.71l2.253.518q1.956.452 2.917 1.394t.96 2.447a3.72 3.72 0 0 1-.738 2.27q-.73.989-2.041 1.552-1.302.564-3.019.563-2.382 0-3.887-1.015-1.505-1.025-1.847-2.909l2.669-.406q.25 1.043 1.025 1.579.776.525 2.022.526 1.357 0 2.169-.563.813-.573.813-1.394 0-.666-.499-1.117-.49-.453-1.505-.684l-2.4-.526q-1.986-.453-2.936-1.44-.942-.988-.942-2.503 0-1.256.702-2.197.701-.942 1.938-1.468 1.237-.535 2.835-.535 2.3 0 3.619.997 1.321.988 1.745 2.65m15.445-3.463L294.351 72h-2.955l-5.152-14.182h2.964l3.592 10.914h.148l3.582-10.914z"/><rect width="105" height="26" x="364" y="49.5" fill="#039708" rx="5"/><path fill="#fff" d="M380.119 68V57.818h3.629q1.188 0 1.969.433.78.432 1.168 1.183.387.745.388 1.68a3.6 3.6 0 0 1-.393 1.69q-.389.747-1.173 1.184-.781.432-1.964.433h-2.496v-1.303h2.357q.75 0 1.218-.259.467-.263.686-.715.219-.453.219-1.03a2.3 2.3 0 0 0-.219-1.024 1.57 1.57 0 0 0-.691-.7q-.468-.254-1.233-.254h-1.929V68zm8.835 0v-7.636h1.437v1.213h.08q.208-.616.735-.97a2.1 2.1 0 0 1 1.204-.358 6 6 0 0 1 .631.035v1.422a3 3 0 0 0-.318-.055 3 3 0 0 0-.458-.035q-.527 0-.939.224a1.66 1.66 0 0 0-.885 1.497V68zm8.317.154q-1.074 0-1.875-.492a3.3 3.3 0 0 1-1.243-1.377q-.442-.885-.442-2.068 0-1.188.442-2.078a3.3 3.3 0 0 1 1.243-1.383q.801-.492 1.875-.492t1.874.492a3.3 3.3 0 0 1 1.243 1.383q.442.889.442 2.078 0 1.183-.442 2.068a3.3 3.3 0 0 1-1.243 1.377q-.8.492-1.874.492m.005-1.248q.696 0 1.153-.368.457-.367.676-.98.224-.61.224-1.346 0-.731-.224-1.343a2.2 2.2 0 0 0-.676-.989q-.457-.373-1.153-.373-.702 0-1.164.373a2.2 2.2 0 0 0-.681.99 4 4 0 0 0-.219 1.342q0 .736.219 1.347.224.611.681.98.462.367 1.164.367m8.43 1.248q-1.108 0-1.909-.502a3.33 3.33 0 0 1-1.223-1.397q-.428-.89-.428-2.038 0-1.163.438-2.054a3.36 3.36 0 0 1 1.233-1.397q.795-.502 1.874-.502.87 0 1.551.323.682.318 1.099.895a2.7 2.7 0 0 1 .502 1.348h-1.447a1.73 1.73 0 0 0-.546-.925q-.423-.388-1.134-.388-.621 0-1.089.328-.462.324-.721.925-.258.596-.258 1.412 0 .835.253 1.442.254.606.716.94.468.332 1.099.332.423 0 .766-.154.348-.16.581-.452.24-.294.333-.706h1.447a2.8 2.8 0 0 1-.482 1.322 2.77 2.77 0 0 1-1.079.915q-.671.333-1.576.333m8.018 0q-1.128 0-1.944-.482a3.27 3.27 0 0 1-1.253-1.367q-.437-.885-.437-2.074 0-1.173.437-2.068a3.4 3.4 0 0 1 1.233-1.397q.796-.502 1.86-.502.646 0 1.253.214a3 3 0 0 1 1.088.671q.483.458.761 1.188.279.727.278 1.765v.527h-6.07v-1.113h4.614q0-.588-.239-1.04a1.8 1.8 0 0 0-.671-.72 1.9 1.9 0 0 0-1.004-.264 1.94 1.94 0 0 0-1.094.308 2.07 2.07 0 0 0-.716.796 2.3 2.3 0 0 0-.249 1.059v.87q0 .765.269 1.302.274.537.76.82.488.28 1.139.28.423 0 .771-.12.348-.125.601-.368t.388-.602l1.407.254a2.55 2.55 0 0 1-.607 1.089 2.94 2.94 0 0 1-1.088.72q-.652.254-1.487.254m10.648-5.926-1.347.239a1.6 1.6 0 0 0-.269-.493 1.3 1.3 0 0 0-.487-.382q-.308-.15-.771-.15-.631 0-1.054.284-.422.278-.422.72 0 .384.283.617.284.234.915.383l1.213.278q1.054.244 1.571.751t.517 1.318q0 .686-.398 1.223-.392.532-1.098.835-.702.303-1.626.303-1.283 0-2.093-.547-.81-.552-.994-1.566l1.436-.219q.135.562.552.85.419.285 1.089.284.731 0 1.168-.303.438-.309.438-.751a.78.78 0 0 0-.269-.602q-.262-.244-.81-.367l-1.293-.284q-1.068-.243-1.581-.775-.507-.532-.507-1.348 0-.675.378-1.183.378-.507 1.044-.79.666-.29 1.526-.289 1.239 0 1.949.537.712.532.94 1.427m7.506 0-1.347.239a1.6 1.6 0 0 0-.269-.493 1.3 1.3 0 0 0-.487-.382q-.308-.15-.771-.15-.631 0-1.054.284-.422.278-.422.72 0 .384.283.617.284.234.915.383l1.213.278q1.054.244 1.571.751t.517 1.318q0 .686-.398 1.223-.393.532-1.098.835-.702.303-1.626.303-1.283 0-2.093-.547-.81-.552-.995-1.566l1.437-.219q.135.562.552.85.418.285 1.089.284.731 0 1.168-.303.438-.309.438-.751a.78.78 0 0 0-.269-.602q-.263-.244-.81-.367l-1.293-.284q-1.068-.243-1.581-.775-.507-.532-.507-1.348 0-.675.378-1.183.378-.507 1.044-.79.666-.29 1.526-.289 1.238 0 1.949.537.71.532.94 1.427M433.661 68v-7.636h1.487V68zm.751-8.815a.95.95 0 0 1-.666-.258.84.84 0 0 1-.274-.627q0-.368.274-.626a.94.94 0 0 1 .666-.264q.388 0 .661.264a.82.82 0 0 1 .279.626q0 .363-.279.627a.93.93 0 0 1-.661.258m4.222 4.28V68h-1.486v-7.636h1.427v1.242h.094q.264-.606.825-.974.567-.368 1.427-.368.781 0 1.367.328.587.324.91.965.323.64.323 1.586V68h-1.486v-4.678q0-.83-.433-1.298-.432-.472-1.188-.472-.517 0-.92.224a1.6 1.6 0 0 0-.631.656q-.23.428-.229 1.034m10.083 7.558q-.91 0-1.566-.239-.652-.239-1.064-.631a2.7 2.7 0 0 1-.617-.86l1.278-.527q.134.218.358.462.228.249.616.423.393.174 1.01.174.845 0 1.397-.413.55-.408.551-1.303v-1.501h-.094q-.135.243-.388.542a2.1 2.1 0 0 1-.686.517q-.438.219-1.138.219a3.2 3.2 0 0 1-1.631-.423q-.721-.427-1.144-1.258-.417-.835-.417-2.053t.412-2.088q.418-.87 1.144-1.333a2.97 2.97 0 0 1 1.646-.467q.71 0 1.148.239.438.234.681.547.249.314.383.552h.109v-1.238h1.457v7.805q0 .984-.457 1.616-.458.63-1.238.934-.776.304-1.75.304m-.015-4.37q.641 0 1.084-.299.447-.303.676-.865.233-.566.233-1.357 0-.77-.228-1.357a2 2 0 0 0-.672-.915q-.442-.333-1.093-.333-.672 0-1.119.348-.448.343-.676.935a3.7 3.7 0 0 0-.224 1.322q0 .75.229 1.318.228.565.676.885.453.318 1.114.318"/><path stroke="#dd0b0b" stroke-linecap="round" stroke-width="18" d="M71 103h398"/><path stroke="#ffe100" stroke-linecap="round" stroke-width="18" d="M71 103h301"/><path fill="#000" d="M72.761 147v-14.545h4.915q1.712 0 2.798.617 1.095.611 1.62 1.655t.525 2.33-.525 2.336q-.518 1.052-1.605 1.677-1.087.618-2.785.618h-3.522v-1.563h3.466q1.171 0 1.882-.405.71-.404 1.03-1.094.327-.696.326-1.569 0-.874-.326-1.563a2.33 2.33 0 0 0-1.037-1.079q-.717-.398-1.904-.398h-3.096V147zm12.468 0v-10.909h1.62v1.648h.113q.3-.81 1.08-1.314a3.2 3.2 0 0 1 1.761-.505q.185 0 .462.008.277.006.419.021v1.704a5 5 0 0 0-.39-.064 4 4 0 0 0-.633-.049q-.796 0-1.42.334-.618.326-.98.909a2.45 2.45 0 0 0-.355 1.314V147zm11.542.227q-1.478 0-2.593-.703-1.107-.703-1.733-1.967-.618-1.264-.618-2.955 0-1.704.618-2.976.626-1.27 1.733-1.974 1.116-.703 2.593-.703t2.585.703q1.115.704 1.733 1.974.624 1.272.625 2.976 0 1.69-.625 2.955-.618 1.264-1.733 1.967-1.108.703-2.585.703m0-1.505q1.122 0 1.846-.576.724-.575 1.073-1.512a5.8 5.8 0 0 0 .348-2.032 5.9 5.9 0 0 0-.348-2.038q-.348-.945-1.073-1.527-.724-.582-1.846-.582t-1.847.582-1.072 1.527a5.9 5.9 0 0 0-.348 2.038q0 1.094.348 2.032.349.937 1.072 1.512.724.576 1.847.576m11.933 1.505q-1.534 0-2.642-.724t-1.704-1.996-.597-2.905q0-1.662.611-2.933.618-1.278 1.719-1.996 1.107-.724 2.585-.724 1.15 0 2.074.426a4 4 0 0 1 1.512 1.193q.59.768.732 1.79h-1.676q-.192-.746-.852-1.321-.654-.582-1.762-.582-.98 0-1.719.511-.73.504-1.143 1.427-.405.917-.405 2.152 0 1.264.398 2.202.405.937 1.136 1.456.739.519 1.733.519.654 0 1.186-.228a2.44 2.44 0 0 0 .902-.653q.37-.426.526-1.023h1.676a3.9 3.9 0 0 1-.703 1.74q-.554.768-1.47 1.222-.91.447-2.117.447m11.314 0q-1.577 0-2.72-.696-1.136-.703-1.754-1.96-.611-1.264-.611-2.94 0-1.677.611-2.955.618-1.285 1.718-2.003 1.109-.724 2.586-.724.852 0 1.683.284a4.2 4.2 0 0 1 1.513.923q.681.632 1.086 1.676t.405 2.571v.711h-8.409v-1.449h6.705q0-.924-.37-1.648a2.8 2.8 0 0 0-1.037-1.143q-.667-.42-1.576-.419-1.002 0-1.733.497A3.26 3.26 0 0 0 117 139.23a3.75 3.75 0 0 0-.391 1.69v.966q0 1.236.426 2.096a3.07 3.07 0 0 0 1.2 1.299q.768.441 1.783.441.66 0 1.193-.185.54-.192.931-.568.39-.384.603-.952l1.62.455a3.6 3.6 0 0 1-.86 1.448 4.2 4.2 0 0 1-1.491.966q-.888.342-1.996.341m14.794-8.693-1.506.426a2.8 2.8 0 0 0-.419-.731 2 2 0 0 0-.738-.597q-.47-.234-1.2-.234-1.001 0-1.67.461-.66.454-.66 1.158 0 .625.455.987.454.363 1.42.604l1.619.398q1.463.355 2.181 1.086.717.725.717 1.868 0 .938-.54 1.676-.532.74-1.491 1.165t-2.23.426q-1.67 0-2.763-.724-1.094-.725-1.385-2.117l1.591-.397q.227.88.859 1.321.64.44 1.669.44 1.172 0 1.861-.497.696-.504.696-1.208 0-.568-.398-.951-.397-.391-1.221-.583l-1.818-.426q-1.498-.355-2.202-1.101-.696-.753-.696-1.882a2.7 2.7 0 0 1 .518-1.633q.526-.71 1.428-1.115.909-.405 2.06-.405 1.619 0 2.542.71a3.83 3.83 0 0 1 1.321 1.875m10.449 0-1.505.426a2.8 2.8 0 0 0-.419-.731 2 2 0 0 0-.739-.597q-.469-.234-1.2-.234-1.002 0-1.669.461-.661.454-.661 1.158 0 .625.455.987.454.363 1.42.604l1.619.398q1.464.355 2.181 1.086.717.725.717 1.868 0 .938-.54 1.676-.532.74-1.491 1.165t-2.23.426q-1.67 0-2.763-.724-1.094-.725-1.385-2.117l1.591-.397q.228.88.859 1.321.64.44 1.669.44 1.173 0 1.861-.497.696-.504.696-1.208 0-.568-.397-.951-.399-.391-1.222-.583l-1.818-.426q-1.499-.355-2.202-1.101-.696-.753-.696-1.882 0-.923.519-1.633.525-.71 1.427-1.115.91-.405 2.06-.405 1.619 0 2.542.71a3.83 3.83 0 0 1 1.321 1.875m2.722 8.466v-10.909h1.676V147zm.853-12.727q-.49 0-.846-.334a1.07 1.07 0 0 1-.348-.803q0-.469.348-.802.356-.334.846-.334t.838.334q.355.334.355.802t-.355.803a1.17 1.17 0 0 1-.838.334m5.57 6.165V147h-1.677v-10.909h1.62v1.704h.142a3.1 3.1 0 0 1 1.165-1.335q.78-.511 2.017-.511 1.108 0 1.939.454.83.448 1.292 1.364.462.909.462 2.301V147h-1.676v-6.818q0-1.286-.668-2.003-.668-.724-1.832-.724-.803 0-1.435.348-.626.348-.987 1.015-.362.668-.362 1.62m14.426 10.88q-1.215 0-2.088-.312-.874-.306-1.456-.81a4.4 4.4 0 0 1-.916-1.065l1.335-.938q.227.298.575.682.349.39.952.675.61.291 1.598.291 1.322 0 2.18-.639.86-.64.86-2.003v-2.216h-.142a9 9 0 0 1-.526.739q-.333.432-.966.774-.625.333-1.69.334-1.321 0-2.372-.625-1.044-.625-1.655-1.819-.604-1.193-.604-2.897 0-1.677.59-2.919.59-1.251 1.64-1.932 1.052-.689 2.429-.689 1.066 0 1.691.355.631.348.966.795.34.44.525.725h.171v-1.733h1.619v11.221q0 1.407-.639 2.287a3.64 3.64 0 0 1-1.705 1.3q-1.065.42-2.372.419m-.057-5.994q1.01 0 1.705-.462.696-.461 1.058-1.328t.362-2.074q0-1.179-.355-2.081t-1.051-1.413-1.719-.511q-1.065 0-1.775.539-.704.54-1.059 1.449-.348.91-.348 2.017 0 1.137.356 2.01.362.867 1.065 1.364.71.49 1.761.49m9.063 1.79a1.23 1.23 0 0 1-.902-.377 1.23 1.23 0 0 1-.377-.902q0-.525.377-.902.376-.376.902-.376.525 0 .902.376.376.377.376.902 0 .348-.177.639a1.3 1.3 0 0 1-.462.469 1.2 1.2 0 0 1-.639.171m0-8.097q-.526 0-.902-.376a1.23 1.23 0 0 1-.377-.902q0-.526.377-.902a1.23 1.23 0 0 1 .902-.377q.525 0 .902.377.376.376.376.902 0 .348-.177.639-.171.29-.462.469-.284.17-.639.17M188.175 147l6.506-12.869v-.114h-7.5v-1.562h9.318v1.647L190.022 147zm15.321.199q-1.25 0-2.251-.497a4.2 4.2 0 0 1-1.605-1.364 3.7 3.7 0 0 1-.661-1.974h1.705q.1.987.895 1.633.803.639 1.917.639.895 0 1.591-.419a2.96 2.96 0 0 0 1.101-1.15q.405-.74.405-1.669 0-.953-.419-1.698a3.1 3.1 0 0 0-1.136-1.186q-.725-.433-1.655-.44a4.5 4.5 0 0 0-1.371.206q-.704.206-1.158.532l-1.647-.198.88-7.159h7.557v1.562h-6.079l-.512 4.29h.085a3.8 3.8 0 0 1 1.123-.59 4.3 4.3 0 0 1 1.406-.234q1.335 0 2.379.639 1.051.632 1.648 1.733.603 1.101.604 2.514 0 1.392-.625 2.486a4.6 4.6 0 0 1-1.705 1.719q-1.086.625-2.472.625m18.418-15.426-4.687 17.415h-1.534l4.687-17.415zm12.698.682V147h-1.762v-12.699h-.085l-3.551 2.358v-1.79l3.636-2.414zm8.927 14.744q-1.605 0-2.734-.874-1.13-.88-1.726-2.549-.597-1.676-.597-4.049 0-2.358.597-4.027.603-1.675 1.733-2.557 1.136-.887 2.727-.887t2.72.887q1.136.882 1.733 2.557.604 1.67.604 4.027 0 2.373-.597 4.049-.596 1.668-1.726 2.549-1.129.874-2.734.874m0-1.563q1.591 0 2.472-1.534.88-1.533.88-4.375 0-1.889-.404-3.217-.398-1.328-1.151-2.024-.745-.696-1.797-.696-1.577 0-2.464 1.555-.888 1.548-.888 4.382 0 1.89.398 3.211.397 1.32 1.143 2.009.753.69 1.811.689m12.5 1.563q-1.605 0-2.734-.874-1.13-.88-1.726-2.549-.597-1.676-.597-4.049 0-2.358.597-4.027.603-1.675 1.733-2.557 1.136-.887 2.727-.887t2.72.887q1.136.882 1.733 2.557.604 1.67.604 4.027 0 2.373-.597 4.049-.596 1.668-1.726 2.549-1.129.874-2.734.874m0-1.563q1.591 0 2.472-1.534.88-1.533.88-4.375 0-1.889-.404-3.217-.399-1.328-1.151-2.024-.745-.696-1.797-.696-1.577 0-2.464 1.555-.888 1.548-.888 4.382 0 1.89.398 3.211.397 1.32 1.143 2.009.753.69 1.811.689m17.983 1.591q-1.577 0-2.72-.696-1.136-.703-1.754-1.96-.611-1.264-.611-2.94 0-1.677.611-2.955.617-1.285 1.718-2.003 1.108-.724 2.586-.724.852 0 1.683.284a4.2 4.2 0 0 1 1.513.923q.681.632 1.086 1.676t.405 2.571v.711h-8.409v-1.449h6.705q0-.924-.37-1.648a2.8 2.8 0 0 0-1.037-1.143q-.667-.42-1.576-.419-1.002 0-1.733.497a3.26 3.26 0 0 0-1.115 1.278 3.75 3.75 0 0 0-.391 1.69v.966q0 1.236.426 2.096a3.07 3.07 0 0 0 1.2 1.299q.768.441 1.783.441.66 0 1.193-.185.54-.192.931-.568.39-.384.603-.952l1.62.455a3.6 3.6 0 0 1-.86 1.448 4.2 4.2 0 0 1-1.491.966q-.888.342-1.996.341m7.067-.227v-10.909h1.619v1.704h.142a2.74 2.74 0 0 1 1.101-1.356q.76-.49 1.825-.49 1.08 0 1.797.49.725.483 1.129 1.356h.114a3.2 3.2 0 0 1 1.257-1.342q.839-.504 2.01-.504 1.463 0 2.394.916.93.91.93 2.834V147h-1.676v-7.301q0-1.207-.661-1.726-.66-.519-1.555-.518-1.15 0-1.783.696-.632.688-.632 1.747V147h-1.704v-7.472q0-.93-.604-1.498-.604-.576-1.555-.575-.654 0-1.222.348a2.63 2.63 0 0 0-.909.965q-.34.612-.341 1.414V147zm20.593.256a4.4 4.4 0 0 1-1.882-.391 3.23 3.23 0 0 1-1.343-1.143q-.497-.753-.497-1.819 0-.937.37-1.519a2.6 2.6 0 0 1 .987-.924 5.2 5.2 0 0 1 1.363-.497 16 16 0 0 1 1.513-.27q.994-.127 1.612-.192.625-.07.909-.234.292-.163.292-.568v-.057q0-1.051-.576-1.633-.568-.583-1.725-.583-1.201 0-1.883.526-.682.525-.958 1.122l-1.591-.568q.426-.994 1.136-1.549a4.3 4.3 0 0 1 1.563-.781 6.5 6.5 0 0 1 1.676-.227q.525 0 1.207.128.689.12 1.328.504.647.384 1.073 1.158t.426 2.073V147h-1.676v-1.477h-.086q-.17.354-.568.76-.398.405-1.058.689t-1.612.284m.256-1.506q.993 0 1.676-.391.689-.39 1.037-1.008.354-.618.355-1.3v-1.534q-.107.127-.469.234a8 8 0 0 1-.824.178q-.461.07-.902.128-.433.05-.703.085a6.4 6.4 0 0 0-1.222.277q-.561.184-.909.561-.34.369-.341 1.009 0 .873.647 1.321.653.44 1.655.44m7.803 1.25v-10.909h1.676V147zm.852-12.727q-.49 0-.845-.334a1.07 1.07 0 0 1-.348-.803q0-.469.348-.802.356-.334.845-.334.49 0 .838.334.356.334.356.802t-.356.803a1.17 1.17 0 0 1-.838.334m5.57-1.818V147h-1.676v-14.545zm10.798 6.079-1.506.426a2.8 2.8 0 0 0-.419-.731 2 2 0 0 0-.739-.597q-.468-.234-1.2-.234-1.002 0-1.669.461-.66.454-.661 1.158 0 .625.455.987.454.363 1.42.604l1.62.398q1.463.355 2.18 1.086.717.725.717 1.868 0 .938-.539 1.676-.533.74-1.492 1.165-.958.426-2.23.426-1.67 0-2.763-.724-1.094-.725-1.385-2.117l1.591-.397q.227.88.86 1.321.639.44 1.669.44 1.172 0 1.86-.497.696-.504.696-1.208 0-.568-.397-.951-.398-.391-1.222-.583l-1.818-.426q-1.499-.355-2.202-1.101-.696-.753-.696-1.882 0-.923.519-1.633.525-.71 1.427-1.115.91-.405 2.06-.405 1.619 0 2.543.71a3.84 3.84 0 0 1 1.321 1.875"/><rect width="145" height="71" x="40" y="193" fill="#fff" rx="10"/><path fill="#0dd114" d="m99.767 225 7.619-15.068v-.128h-8.812v-2.259h11.54v2.336L102.52 225zm19.012.29q-2.02-.009-3.452-1.066t-2.19-3.076q-.758-2.02-.758-4.867 0-2.838.758-4.849.766-2.012 2.199-3.068 1.44-1.057 3.443-1.057 2.002 0 3.435 1.065 1.431 1.057 2.19 3.068.767 2.004.767 4.841 0 2.856-.758 4.875-.759 2.012-2.191 3.077-1.431 1.057-3.443 1.057m0-2.276q1.773 0 2.77-1.73 1.006-1.73 1.006-5.003 0-2.173-.461-3.673-.451-1.509-1.304-2.284a2.85 2.85 0 0 0-2.011-.784q-1.764 0-2.77 1.738-1.005 1.739-1.014 5.003 0 2.182.452 3.691.46 1.5 1.304 2.275.843.767 2.028.767"/><path fill="#000" d="m91.858 235.455 4.318 12.244h.17l4.319-12.244h1.846L97.171 250h-1.819l-5.34-14.545zm14.886 14.801a4.4 4.4 0 0 1-1.882-.391 3.23 3.23 0 0 1-1.342-1.143q-.497-.753-.497-1.819 0-.937.369-1.519a2.6 2.6 0 0 1 .987-.924 5.2 5.2 0 0 1 1.364-.497 16 16 0 0 1 1.513-.27q.994-.127 1.612-.192.626-.07.909-.234.291-.163.291-.568v-.057q0-1.051-.575-1.633-.568-.583-1.726-.583-1.2 0-1.882.526-.682.525-.959 1.122l-1.591-.568q.426-.994 1.137-1.549a4.3 4.3 0 0 1 1.562-.781 6.5 6.5 0 0 1 1.676-.227q.526 0 1.208.128.689.12 1.328.504.646.384 1.072 1.158t.426 2.073V250h-1.676v-1.477h-.085q-.17.354-.568.76-.398.405-1.058.689-.661.284-1.613.284m.256-1.506q.995 0 1.676-.391.689-.39 1.037-1.008.355-.618.355-1.3v-1.534q-.106.127-.469.234a8 8 0 0 1-.823.178q-.462.07-.902.128-.434.05-.704.085a6.4 6.4 0 0 0-1.221.277q-.561.184-.909.561-.34.369-.341 1.009 0 .873.646 1.321.654.44 1.655.44m9.48-13.295V250h-1.676v-14.545zM119.55 250v-10.909h1.676V250zm.852-12.727q-.49 0-.845-.334a1.07 1.07 0 0 1-.348-.803q0-.469.348-.802a1.2 1.2 0 0 1 .845-.334q.49 0 .838.334.355.334.355.802t-.355.803a1.17 1.17 0 0 1-.838.334m8.013 12.954q-1.364 0-2.408-.689-1.044-.696-1.633-1.96-.59-1.271-.59-3.004 0-1.719.59-2.983t1.641-1.953q1.05-.689 2.429-.689 1.065 0 1.683.355.625.348.951.795.334.44.519.725h.142v-5.369h1.676V250h-1.619v-1.676h-.199q-.184.298-.526.753-.34.447-.973.802-.631.348-1.683.348m.227-1.505q1.01 0 1.705-.526.696-.532 1.058-1.47.362-.945.362-2.181 0-1.221-.355-2.137-.355-.924-1.051-1.435-.696-.519-1.719-.518-1.065 0-1.775.546-.704.54-1.058 1.471-.348.923-.348 2.073 0 1.165.355 2.117.361.945 1.065 1.506.711.554 1.761.554"/><rect width="145" height="71" x="198" y="193" fill="#fff" rx="10"/><path fill="#f66a6a" d="M272.801 207.545V225h-2.642v-14.812h-.102l-4.176 2.727v-2.523l4.355-2.847z"/><path fill="#000" d="M243.523 235.455V250h-1.762v-14.545zm4.98 7.983V250h-1.676v-10.909h1.619v1.704h.142a3.1 3.1 0 0 1 1.165-1.335q.781-.511 2.017-.511 1.108 0 1.939.454.831.448 1.293 1.364.462.909.461 2.301V250h-1.676v-6.818q0-1.286-.667-2.003-.667-.724-1.833-.724-.802 0-1.434.348-.625.348-.988 1.015-.362.668-.362 1.62m18.553-4.347L263.022 250h-1.705l-4.034-10.909h1.819l3.011 8.693h.114l3.011-8.693zm5.091 11.165a4.4 4.4 0 0 1-1.882-.391 3.23 3.23 0 0 1-1.343-1.143q-.497-.753-.497-1.819 0-.937.369-1.519a2.6 2.6 0 0 1 .988-.924 5.2 5.2 0 0 1 1.363-.497 16 16 0 0 1 1.513-.27q.994-.127 1.612-.192.625-.07.909-.234.291-.163.292-.568v-.057q0-1.051-.576-1.633-.568-.583-1.726-.583-1.2 0-1.882.526-.681.525-.959 1.122l-1.59-.568q.425-.994 1.136-1.549a4.3 4.3 0 0 1 1.562-.781 6.5 6.5 0 0 1 1.677-.227q.525 0 1.207.128.689.12 1.328.504.646.384 1.073 1.158t.426 2.073V250h-1.676v-1.477h-.086q-.17.354-.568.76-.398.405-1.058.689t-1.612.284m.255-1.506q.995 0 1.676-.391.69-.39 1.037-1.008.356-.618.356-1.3v-1.534q-.107.127-.469.234a8 8 0 0 1-.824.178q-.462.07-.902.128-.433.05-.703.085a6.4 6.4 0 0 0-1.222.277q-.561.184-.909.561-.34.369-.341 1.009 0 .873.647 1.321.653.44 1.654.44m9.48-13.295V250h-1.676v-14.545zm3.07 14.545v-10.909h1.676V250zm.852-12.727q-.49 0-.845-.334a1.07 1.07 0 0 1-.348-.803q0-.469.348-.802.356-.334.845-.334.49 0 .838.334.356.334.356.802t-.356.803a1.17 1.17 0 0 1-.838.334m8.013 12.954q-1.363 0-2.407-.689-1.044-.696-1.634-1.96-.59-1.271-.589-3.004 0-1.719.589-2.983.59-1.264 1.641-1.953t2.429-.689q1.065 0 1.683.355.625.348.952.795.333.44.518.725h.142v-5.369h1.676V250h-1.619v-1.676h-.199q-.184.298-.525.753-.342.447-.973.802-.633.348-1.684.348m.228-1.505q1.008 0 1.704-.526.696-.532 1.059-1.47.362-.945.362-2.181 0-1.221-.355-2.137-.355-.924-1.052-1.435-.695-.519-1.718-.518-1.065 0-1.776.546-.703.54-1.058 1.471-.348.923-.348 2.073 0 1.165.355 2.117.363.945 1.065 1.506.71.554 1.762.554"/><rect width="145" height="71" x="356" y="193" fill="#fff" rx="10"/><path fill="#ff863a" d="M423.812 221.591v-2.131l7.543-11.915h1.679v3.137h-1.065l-5.395 8.54v.136h10.338v2.233zm8.276 3.409v-4.057l.017-.971v-12.427h2.497V225z"/><path fill="#000" d="M397.307 235.455h1.761v9.63q0 1.492-.703 2.664-.696 1.164-1.967 1.839-1.272.668-2.983.668t-2.983-.668q-1.272-.675-1.975-1.839-.696-1.172-.696-2.664v-9.63h1.762v9.488q0 1.066.468 1.896.47.825 1.336 1.3.873.47 2.088.469 1.214 0 2.088-.469a3.3 3.3 0 0 0 1.335-1.3q.47-.83.469-1.896zm6.727 7.983V250h-1.676v-10.909h1.62v1.704h.142a3.1 3.1 0 0 1 1.164-1.335q.782-.511 2.017-.511 1.108 0 1.939.454.831.448 1.293 1.364.462.909.462 2.301V250h-1.676v-6.818q0-1.286-.668-2.003-.668-.724-1.832-.724-.804 0-1.435.348-.625.348-.987 1.015-.363.668-.363 1.62m11.586 2.585-.028-2.074h.341l4.772-4.858h2.074l-5.085 5.142h-.142zM414.058 250v-14.545h1.676V250zm6.931 0-4.261-5.398 1.193-1.164L423.12 250zm5.624-6.562V250h-1.677v-10.909h1.62v1.704h.142a3.1 3.1 0 0 1 1.165-1.335q.78-.511 2.017-.511 1.108 0 1.939.454.83.448 1.292 1.364.462.909.462 2.301V250h-1.676v-6.818q0-1.286-.668-2.003-.668-.724-1.832-.724-.803 0-1.435.348-.625.348-.987 1.015-.363.668-.362 1.62m14.454 6.789q-1.476 0-2.592-.703-1.107-.703-1.733-1.967-.618-1.264-.618-2.955 0-1.704.618-2.976.626-1.27 1.733-1.974 1.116-.703 2.592-.703 1.477 0 2.586.703 1.115.704 1.733 1.974.625 1.272.625 2.976 0 1.69-.625 2.955-.618 1.264-1.733 1.967-1.108.703-2.586.703m0-1.505q1.123 0 1.847-.576.724-.575 1.073-1.512a5.8 5.8 0 0 0 .348-2.032 5.9 5.9 0 0 0-.348-2.038q-.349-.945-1.073-1.527t-1.847-.582-1.846.582a3.43 3.43 0 0 0-1.073 1.527 5.9 5.9 0 0 0-.348 2.038q0 1.094.348 2.032t1.073 1.512q.724.576 1.846.576M450.67 250l-3.324-10.909h1.761l2.358 8.352h.114l2.329-8.352h1.79l2.301 8.324h.114l2.358-8.324h1.761L458.908 250h-1.647l-2.387-8.381h-.17L452.317 250zm15.454-6.562V250h-1.676v-10.909h1.619v1.704h.143a3.1 3.1 0 0 1 1.164-1.335q.781-.511 2.017-.511 1.108 0 1.939.454.831.448 1.293 1.364.462.909.462 2.301V250h-1.677v-6.818q0-1.286-.667-2.003-.667-.724-1.833-.724-.803 0-1.434.348-.625.348-.987 1.015-.363.668-.363 1.62"/></g><defs><filter id="a" width="533" height="298" x="0" y="0" color-interpolation-filters="sRGB" filterUnits="userSpaceOnUse"><feFlood flood-opacity="0" result="BackgroundImageFix"/><feColorMatrix in="SourceAlpha" result="hardAlpha" values="0 0 0 0 0 0 0 0 0 0 0 0 0 0 0 0 0 0 127 0"/><feOffset dx="-4" dy="4"/><feGaussianBlur stdDeviation="7.5"/><feComposite in2="hardAlpha" operator="out"/><feColorMatrix values="0 0 0 0 0 0 0 0 0 0 0 0 0 0 0 0 0 0 0.15 0"/><feBlend in2="BackgroundImageFix" result="effect1_dropShadow_425_987"/><feBlend in="SourceGraphic" in2="effect1_dropShadow_425_987" result="shape"/></filter></defs></svg>