<svg xmlns="http://www.w3.org/2000/svg" width="533" height="323" fill="none" viewBox="0 0 533 323"><g filter="url(#a)"><rect width="503" height="293" x="19" y="11" fill="#f3e8ff" rx="10" shape-rendering="crispEdges"/><rect width="461" height="263" x="40" y="26" fill="#fff" rx="10"/><path fill="#000" d="M79.199 72h-6.122V53.09h6.316q2.78 0 4.773 1.137 1.995 1.125 3.056 3.24 1.071 2.106 1.071 5.05 0 2.955-1.08 5.079-1.071 2.124-3.102 3.268Q82.08 72 79.199 72m-3.269-2.493h3.112q2.16 0 3.591-.812 1.432-.823 2.143-2.373.71-1.56.71-3.804 0-2.225-.71-3.776-.702-1.553-2.096-2.355-1.395-.803-3.463-.803H75.93zM91.62 72V57.818h2.76V72zm1.394-16.37q-.72 0-1.237-.48a1.56 1.56 0 0 1-.508-1.163q0-.684.507-1.164.518-.49 1.238-.49t1.228.49q.517.48.517 1.163 0 .675-.517 1.164-.508.48-1.228.48m15.707 5.65-2.502.444a3 3 0 0 0-.498-.914 2.5 2.5 0 0 0-.905-.711q-.573-.277-1.431-.277-1.173 0-1.958.526-.785.517-.785 1.339 0 .71.527 1.145.526.434 1.699.71l2.252.518q1.958.452 2.918 1.394t.96 2.447a3.72 3.72 0 0 1-.738 2.27q-.73.989-2.041 1.552-1.302.564-3.019.563-2.382 0-3.887-1.015-1.505-1.025-1.847-2.909l2.669-.406q.249 1.043 1.024 1.579.776.525 2.022.526 1.358 0 2.17-.563.813-.573.813-1.394 0-.666-.499-1.117-.49-.453-1.505-.684l-2.4-.526q-1.986-.453-2.937-1.44-.94-.988-.941-2.503 0-1.256.701-2.197.703-.942 1.939-1.468 1.237-.535 2.835-.535 2.3 0 3.619.997 1.32.988 1.745 2.65m3.313 16.038v-19.5h2.696v2.3h.23q.24-.444.693-1.026.452-.581 1.256-1.015.803-.444 2.123-.444 1.718 0 3.065.868 1.349.868 2.115 2.503.775 1.633.775 3.933t-.766 3.942q-.767 1.635-2.105 2.52-1.339.879-3.056.878-1.293 0-2.115-.434-.812-.434-1.274-1.016a8 8 0 0 1-.711-1.034h-.166v7.525zm2.705-12.409q0 1.495.434 2.622t1.255 1.764q.822.627 2.013.628 1.237 0 2.068-.656.831-.665 1.256-1.8.434-1.136.434-2.558 0-1.404-.425-2.52-.415-1.117-1.255-1.764-.831-.645-2.078-.646-1.2 0-2.031.618-.822.619-1.246 1.727-.426 1.108-.425 2.585m19.315 7.377q-1.994 0-3.481-.914-1.486-.915-2.308-2.557-.822-1.644-.822-3.841 0-2.207.822-3.86.822-1.652 2.308-2.566 1.487-.915 3.481-.915 1.995 0 3.481.915 1.486.914 2.308 2.566.822 1.653.822 3.86 0 2.198-.822 3.84-.822 1.644-2.308 2.558-1.486.915-3.481.914m.009-2.317q1.293 0 2.142-.683.85-.684 1.256-1.82.416-1.134.416-2.501 0-1.358-.416-2.493-.406-1.145-1.256-1.838-.849-.692-2.142-.692-1.302 0-2.16.692-.85.693-1.265 1.838-.406 1.136-.406 2.492 0 1.368.406 2.503.416 1.135 1.265 1.819.858.683 2.16.683m20.311-8.688-2.503.443a3 3 0 0 0-.498-.914 2.5 2.5 0 0 0-.905-.711q-.573-.277-1.431-.277-1.173 0-1.957.526-.786.517-.785 1.339 0 .71.526 1.145.526.434 1.699.71l2.253.518q1.957.452 2.917 1.394t.961 2.447a3.72 3.72 0 0 1-.739 2.27q-.729.989-2.041 1.552-1.301.564-3.019.563-2.381 0-3.887-1.015-1.505-1.025-1.846-2.909l2.668-.406q.25 1.043 1.025 1.579.775.525 2.022.526 1.357 0 2.17-.563.812-.573.812-1.394 0-.666-.499-1.117-.488-.453-1.505-.684l-2.4-.526q-1.985-.453-2.936-1.44-.942-.988-.942-2.503 0-1.256.702-2.197t1.939-1.468q1.237-.535 2.834-.535 2.299 0 3.62.997 1.32.988 1.745 2.65m7.439 11.033q-1.348 0-2.437-.499a4.1 4.1 0 0 1-1.727-1.468q-.628-.96-.628-2.354 0-1.2.462-1.976a3.4 3.4 0 0 1 1.246-1.228 6.5 6.5 0 0 1 1.754-.683 18 18 0 0 1 1.976-.351l2.069-.24q.794-.102 1.154-.323t.36-.72v-.065q0-1.21-.684-1.874-.674-.666-2.012-.665-1.394 0-2.198.618-.794.61-1.098 1.358l-2.595-.591q.462-1.293 1.348-2.087a5.5 5.5 0 0 1 2.059-1.163 8 8 0 0 1 2.447-.37q.849 0 1.8.204.96.193 1.791.72.841.525 1.376 1.505.536.969.536 2.52V72h-2.696v-1.939h-.111a4 4 0 0 1-.803 1.053q-.536.516-1.376.858t-2.013.342m.6-2.216q1.145 0 1.958-.452.821-.453 1.246-1.182a3.07 3.07 0 0 0 .434-1.58v-1.827q-.148.147-.572.277a9 9 0 0 1-.951.212q-.535.084-1.044.157l-.849.11a7 7 0 0 0-1.468.343q-.656.24-1.053.692-.388.444-.388 1.182 0 1.024.757 1.551.757.517 1.93.517M172.71 72V53.09h2.761v7.027h.166q.24-.443.693-1.025t1.255-1.015q.804-.444 2.124-.444 1.717 0 3.065.868 1.349.868 2.114 2.503.777 1.633.776 3.933 0 2.299-.766 3.942-.767 1.635-2.105 2.52-1.34.879-3.056.878-1.293 0-2.115-.434-.812-.434-1.274-1.016a8 8 0 0 1-.711-1.034h-.231V72zm2.705-7.09q0 1.494.434 2.621t1.256 1.764q.822.627 2.013.628 1.237 0 2.068-.656.831-.665 1.256-1.8.434-1.136.434-2.558 0-1.404-.425-2.52-.416-1.117-1.256-1.764-.83-.645-2.077-.646-1.2 0-2.031.618-.822.619-1.247 1.727t-.425 2.585m16.11-11.82V72h-2.761V53.09zm9.826 19.196q-2.096 0-3.61-.895-1.505-.906-2.327-2.54-.812-1.643-.812-3.85 0-2.179.812-3.84.822-1.662 2.29-2.595 1.477-.933 3.453-.933 1.2 0 2.327.398 1.127.397 2.022 1.246.896.85 1.412 2.207.517 1.347.517 3.277v.98h-11.273v-2.07h8.568q0-1.088-.443-1.929a3.35 3.35 0 0 0-1.247-1.339q-.794-.489-1.865-.489-1.162 0-2.031.572a3.85 3.85 0 0 0-1.329 1.478 4.26 4.26 0 0 0-.462 1.966v1.616q0 1.421.499 2.42.507.996 1.412 1.523.905.516 2.115.517.784 0 1.431-.222a3.1 3.1 0 0 0 1.117-.683q.471-.453.72-1.117l2.613.47a4.74 4.74 0 0 1-1.126 2.023q-.804.858-2.022 1.338-1.21.471-2.761.471m16.25-.286V53.09h11.726v2.457h-8.873v5.761h8.033v2.447h-8.033V72zm15.013 0V57.818h2.76V72zm1.394-16.37q-.72 0-1.237-.48a1.56 1.56 0 0 1-.508-1.163q0-.684.508-1.164.516-.49 1.237-.49.72 0 1.228.49.517.48.517 1.163 0 .675-.517 1.164-.508.48-1.228.48m7.841-2.54V72h-2.761V53.09zm10.334 4.728v2.216h-7.747v-2.216zm-5.669-3.398h2.761v13.416q0 .803.24 1.21.24.396.618.544.388.14.84.139.333 0 .582-.046l.388-.074.498 2.28q-.24.093-.683.185a5.4 5.4 0 0 1-1.108.11 4.9 4.9 0 0 1-2.031-.387 3.5 3.5 0 0 1-1.523-1.256q-.582-.849-.582-2.133zm14.683 17.866q-2.096 0-3.611-.895-1.504-.906-2.326-2.54-.813-1.643-.813-3.85 0-2.179.813-3.84.822-1.662 2.29-2.595 1.476-.933 3.453-.933 1.2 0 2.326.398 1.127.397 2.022 1.246.895.85 1.413 2.207.517 1.347.517 3.277v.98h-11.273v-2.07h8.568q0-1.088-.443-1.929a3.35 3.35 0 0 0-1.247-1.339q-.794-.489-1.865-.489-1.163 0-2.031.572a3.84 3.84 0 0 0-1.33 1.478 4.3 4.3 0 0 0-.461 1.966v1.616q0 1.421.498 2.42.508.996 1.413 1.523.905.516 2.114.517.785 0 1.431-.222a3.1 3.1 0 0 0 1.118-.683q.47-.453.72-1.117l2.613.47a4.74 4.74 0 0 1-1.127 2.023q-.803.858-2.022 1.338-1.209.471-2.76.471m9.147-.286V57.818h2.668v2.253h.148a3.43 3.43 0 0 1 1.367-1.8 3.9 3.9 0 0 1 2.234-.665 12 12 0 0 1 1.173.064v2.641a5 5 0 0 0-.591-.102 6 6 0 0 0-.85-.064q-.978 0-1.745.415-.757.407-1.2 1.136-.443.72-.443 1.644V72z"/><path fill="#000" fill-opacity=".7" d="M72.585 118.5v-13.091h7.9v1.406h-6.314v4.424h5.906v1.406H74.17v4.449h6.417v1.406zm10.554 0v-9.818h1.457v1.534h.128a2.47 2.47 0 0 1 .99-1.221q.685-.441 1.643-.441.972 0 1.617.441.653.435 1.017 1.221h.102a2.86 2.86 0 0 1 1.131-1.208q.754-.454 1.81-.454 1.316 0 2.153.825.838.818.838 2.55v6.571h-1.509v-6.571q0-1.086-.594-1.553a2.2 2.2 0 0 0-1.4-.467q-1.035 0-1.604.627-.57.62-.57 1.572v6.392h-1.533v-6.724q0-.838-.544-1.349-.543-.518-1.4-.518-.588 0-1.099.313-.506.314-.818.87-.307.549-.307 1.272v6.136zm18.533.23a4 4 0 0 1-1.694-.351 2.9 2.9 0 0 1-1.208-1.03q-.447-.677-.447-1.636 0-.843.332-1.368.333-.531.889-.831t1.227-.447q.677-.154 1.361-.243a65 65 0 0 1 1.451-.173q.563-.064.819-.211.262-.147.262-.511v-.051q0-.947-.518-1.47-.512-.525-1.553-.524-1.08 0-1.694.473t-.863 1.009l-1.432-.511q.384-.894 1.023-1.393.645-.505 1.406-.703a5.8 5.8 0 0 1 1.509-.205q.473 0 1.086.115.62.109 1.196.454.58.345.965 1.042.383.696.383 1.866v6.469h-1.508v-1.33h-.077q-.154.321-.511.684-.358.365-.953.62-.594.256-1.451.256m.23-1.355q.895 0 1.509-.352a2.39 2.39 0 0 0 1.253-2.077v-1.381q-.096.115-.422.211-.32.09-.742.16a32 32 0 0 1-1.444.192 6 6 0 0 0-1.1.249 1.9 1.9 0 0 0-.818.505q-.306.332-.307.908 0 .786.582 1.189.588.396 1.489.396m7.024 1.125v-9.818h1.508v9.818zm.767-11.455q-.441 0-.761-.3a.96.96 0 0 1-.313-.722q0-.422.313-.723.32-.3.761-.3.44 0 .754.3.32.3.32.723a.96.96 0 0 1-.32.722q-.313.3-.754.3m5.013-1.636V118.5h-1.509v-13.091zm8.03 13.091v-13.091h1.585v11.685h6.085v1.406zm9.92 0v-9.818h1.509v9.818zm.767-11.455q-.44 0-.761-.3a.97.97 0 0 1-.313-.722.97.97 0 0 1 .313-.723q.32-.3.761-.3.442 0 .754.3.32.3.32.723a.96.96 0 0 1-.32.722q-.312.3-.754.3m10.459 3.836-1.355.383a2.5 2.5 0 0 0-.377-.658 1.8 1.8 0 0 0-.665-.537q-.421-.211-1.08-.211-.902 0-1.502.415-.595.41-.595 1.042 0 .563.409.889.41.325 1.279.543l1.457.358q1.317.32 1.962.978.646.652.646 1.681 0 .844-.486 1.509-.479.664-1.342 1.048t-2.007.384q-1.502 0-2.487-.652-.984-.653-1.246-1.905l1.432-.358q.204.792.773 1.189.575.396 1.502.396 1.055 0 1.675-.447.627-.454.626-1.087 0-.512-.358-.857-.357-.351-1.099-.524l-1.636-.383q-1.349-.32-1.982-.991-.626-.678-.626-1.694 0-.831.466-1.47.474-.64 1.285-1.004.818-.364 1.854-.364 1.457 0 2.288.639.838.64 1.189 1.688m6.72-2.199v1.278h-5.088v-1.278zm-3.605-2.352h1.508v9.358q0 .639.186.958.19.314.485.422.302.102.633.102.25 0 .409-.025l.256-.051.307 1.355a3 3 0 0 1-.429.115 3 3 0 0 1-.696.064q-.64 0-1.253-.275a2.5 2.5 0 0 1-1.01-.837q-.396-.563-.396-1.419zm6.973 12.272q-.473 0-.811-.339a1.1 1.1 0 0 1-.339-.811q0-.473.339-.812.338-.339.811-.339t.812.339.339.812q0 .313-.16.575a1.2 1.2 0 0 1-.415.422 1.1 1.1 0 0 1-.576.153m0-7.287q-.473 0-.811-.338a1.1 1.1 0 0 1-.339-.812q0-.474.339-.812.338-.339.811-.339t.812.339q.339.338.339.812 0 .313-.16.575a1.2 1.2 0 0 1-.415.422 1.1 1.1 0 0 1-.576.153"/><path fill="#000" d="M414.945 120.219q-1.679 0-2.968-.578-1.282-.579-2.008-1.594-.727-1.016-.719-2.313a4.08 4.08 0 0 1 1.578-3.296 3.6 3.6 0 0 1 1.641-.735v-.094a3.22 3.22 0 0 1-1.914-1.281q-.719-.992-.711-2.281-.007-1.227.648-2.188.665-.968 1.821-1.523t2.632-.555q1.461 0 2.61.563 1.156.554 1.82 1.523.664.961.672 2.18-.008 1.289-.734 2.281a3.25 3.25 0 0 1-1.891 1.281v.094a3.5 3.5 0 0 1 1.617.735q.726.57 1.156 1.429.437.852.446 1.867-.008 1.297-.735 2.313-.726 1.015-2.015 1.594-1.282.578-2.946.578m0-1.977q.993 0 1.719-.328.726-.336 1.125-.93.399-.601.406-1.406a2.64 2.64 0 0 0-.437-1.476 2.9 2.9 0 0 0-1.149-1.008q-.726-.367-1.664-.367-.945 0-1.679.367t-1.157 1.008q-.421.64-.414 1.476-.007.805.383 1.406.398.594 1.133.93.735.328 1.734.328m0-7.445q.798 0 1.414-.32.618-.321.969-.891.36-.57.367-1.336-.008-.75-.359-1.312a2.3 2.3 0 0 0-.961-.868q-.617-.312-1.43-.312-.828 0-1.453.312a2.3 2.3 0 0 0-.961.868q-.344.562-.336 1.312-.007.766.344 1.336t.969.891q.625.32 1.437.32m11.092 7.015-.117.852a13.6 13.6 0 0 1-.399 1.953 30 30 0 0 1-.57 1.899 53 53 0 0 1-.476 1.39h-1.657q.102-.484.282-1.312.18-.82.351-1.836.173-1.015.258-2.071l.078-.875zm8.395-14.031a6.2 6.2 0 0 1 2.109.391 5 5 0 0 1 1.875 1.25q.844.867 1.344 2.344.507 1.469.515 3.656 0 2.101-.421 3.742-.423 1.633-1.211 2.758-.781 1.125-1.899 1.711-1.117.585-2.515.586-1.43 0-2.54-.563a4.84 4.84 0 0 1-1.804-1.554 5.1 5.1 0 0 1-.867-2.297h2.382q.235 1.03.954 1.672.726.632 1.875.632 1.756 0 2.742-1.531.984-1.539.992-4.297h-.125a4.3 4.3 0 0 1-1.016 1.156 4.6 4.6 0 0 1-1.351.75q-.75.266-1.602.266-1.383 0-2.515-.68a5 5 0 0 1-1.805-1.867q-.672-1.187-.672-2.711 0-1.515.687-2.75a5.13 5.13 0 0 1 1.938-1.953q1.25-.726 2.93-.711m.007 2.031q-.913 0-1.648.454-.726.444-1.148 1.211a3.4 3.4 0 0 0-.422 1.687q0 .93.406 1.688.414.75 1.125 1.195.719.438 1.641.437.687 0 1.281-.265a3.2 3.2 0 0 0 1.039-.735q.446-.476.695-1.078.25-.602.25-1.265a3.3 3.3 0 0 0-.422-1.641 3.3 3.3 0 0 0-1.14-1.219 3 3 0 0 0-1.657-.469m8.323 11.063v-1.953L449.676 104h1.539v2.875h-.977l-4.945 7.828v.125h9.477v2.047zm7.586 3.125v-3.719l.015-.89V104h2.289v16zm12.425.219q-1.468 0-2.64-.563-1.164-.57-1.86-1.562-.694-.993-.742-2.266h2.344q.086 1.032.914 1.695.829.664 1.984.664.922 0 1.633-.421.719-.43 1.125-1.18.414-.75.414-1.711 0-.977-.422-1.742a3.1 3.1 0 0 0-1.164-1.203q-.734-.437-1.687-.446-.726 0-1.461.25-.734.25-1.188.657l-2.21-.329.898-8.062h8.797v2.07h-6.789l-.508 4.477h.094q.468-.453 1.242-.758a4.6 4.6 0 0 1 1.672-.305q1.461 0 2.601.696a4.93 4.93 0 0 1 1.805 1.898q.664 1.196.656 2.75.008 1.555-.703 2.774a5.1 5.1 0 0 1-1.953 1.921q-1.242.696-2.852.696"/><circle cx="78" cy="157.5" r="7" fill="#8759f2"/><path fill="#000" d="M101.761 164.5v-14.545h4.915q1.712 0 2.798.617 1.094.611 1.62 1.655.525 1.044.525 2.33t-.525 2.336q-.519 1.052-1.605 1.677-1.088.618-2.784.618h-3.523v-1.563h3.466q1.171 0 1.882-.405.71-.404 1.03-1.094a3.7 3.7 0 0 0 .326-1.569q0-.874-.326-1.563a2.33 2.33 0 0 0-1.037-1.079q-.717-.398-1.904-.398h-3.096V164.5zm16.925.227q-1.577 0-2.72-.696-1.136-.703-1.754-1.96-.611-1.264-.611-2.94 0-1.677.611-2.955.617-1.285 1.718-2.003 1.109-.724 2.586-.724.852 0 1.683.284a4.2 4.2 0 0 1 1.513.923q.681.632 1.086 1.676t.405 2.571v.711h-8.409v-1.449h6.705q0-.924-.37-1.648a2.8 2.8 0 0 0-1.037-1.143q-.667-.42-1.576-.419-1.002 0-1.733.497a3.26 3.26 0 0 0-1.115 1.278 3.75 3.75 0 0 0-.391 1.69v.966q0 1.236.426 2.096a3.07 3.07 0 0 0 1.2 1.299q.768.441 1.783.441.66 0 1.193-.185.54-.192.931-.568.39-.384.603-.952l1.62.455a3.6 3.6 0 0 1-.86 1.448 4.2 4.2 0 0 1-1.491.966q-.888.342-1.996.341m7.067-.227v-10.909h1.619v1.648h.114q.299-.81 1.079-1.314a3.2 3.2 0 0 1 1.762-.505q.185 0 .461.008.278.006.419.021v1.704a5 5 0 0 0-.39-.064 4 4 0 0 0-.632-.049q-.796 0-1.421.334a2.5 2.5 0 0 0-.98.909 2.44 2.44 0 0 0-.355 1.314v6.903zm7.441 0v-10.909h1.62v1.704h.142a2.74 2.74 0 0 1 1.1-1.356q.76-.49 1.826-.49 1.079 0 1.797.49.724.483 1.129 1.356h.114a3.2 3.2 0 0 1 1.257-1.342q.837-.504 2.01-.504 1.463 0 2.393.916.93.91.93 2.834v7.301h-1.676v-7.301q0-1.207-.66-1.726-.661-.519-1.556-.518-1.15 0-1.782.696-.633.688-.632 1.747v7.102h-1.705v-7.472q0-.93-.604-1.498-.603-.576-1.555-.575-.654 0-1.222.348a2.63 2.63 0 0 0-.909.965q-.34.612-.341 1.414v6.818zm20.593.256a4.4 4.4 0 0 1-1.882-.391 3.23 3.23 0 0 1-1.342-1.143q-.498-.753-.497-1.819 0-.937.369-1.519a2.6 2.6 0 0 1 .987-.924 5.2 5.2 0 0 1 1.364-.497 16 16 0 0 1 1.513-.27q.994-.127 1.612-.192.626-.07.909-.234.291-.163.291-.568v-.057q0-1.051-.575-1.633-.568-.583-1.726-.583-1.2 0-1.882.526-.682.525-.959 1.122l-1.591-.568q.426-.994 1.137-1.549a4.3 4.3 0 0 1 1.562-.781 6.5 6.5 0 0 1 1.676-.227q.526 0 1.208.128.689.12 1.328.504.646.384 1.072 1.158t.426 2.073v7.188h-1.676v-1.477h-.085q-.17.354-.568.76-.398.405-1.058.689-.661.284-1.613.284m.256-1.506q.995 0 1.676-.391.689-.39 1.037-1.008.355-.618.355-1.3v-1.534q-.106.127-.469.234a8 8 0 0 1-.823.178q-.462.07-.902.128-.434.05-.704.085a6.4 6.4 0 0 0-1.221.277q-.561.184-.909.561-.341.369-.341 1.009 0 .873.646 1.321.654.44 1.655.44m9.48-5.312v6.562h-1.676v-10.909h1.619v1.704h.142a3.1 3.1 0 0 1 1.165-1.335q.781-.511 2.017-.511 1.107 0 1.939.454.831.448 1.292 1.364.462.909.462 2.301v6.932h-1.676v-6.818q0-1.286-.668-2.003-.668-.724-1.832-.724-.802 0-1.435.348-.625.348-.987 1.015-.363.668-.362 1.62m14.597 6.789q-1.577 0-2.72-.696a4.67 4.67 0 0 1-1.755-1.96q-.61-1.264-.611-2.94 0-1.677.611-2.955.618-1.285 1.719-2.003 1.108-.724 2.585-.724.852 0 1.683.284a4.2 4.2 0 0 1 1.513.923q.682.632 1.087 1.676t.405 2.571v.711h-8.409v-1.449h6.704q0-.924-.369-1.648a2.8 2.8 0 0 0-1.037-1.143q-.668-.42-1.577-.419-1 0-1.733.497a3.3 3.3 0 0 0-1.115 1.278 3.76 3.76 0 0 0-.39 1.69v.966q0 1.236.426 2.096a3.07 3.07 0 0 0 1.2 1.299q.767.441 1.783.441.66 0 1.193-.185.54-.192.93-.568.391-.384.604-.952l1.619.455a3.6 3.6 0 0 1-.859 1.448q-.604.618-1.492.966-.887.342-1.995.341m8.743-6.789v6.562h-1.677v-10.909h1.62v1.704h.142a3.1 3.1 0 0 1 1.165-1.335q.78-.511 2.017-.511 1.108 0 1.939.454.83.448 1.292 1.364.462.909.462 2.301v6.932h-1.676v-6.818q0-1.286-.668-2.003-.668-.724-1.832-.724-.803 0-1.435.348-.626.348-.987 1.015-.362.668-.362 1.62m14.767-4.347v1.42h-5.653v-1.42zm-4.006-2.614h1.676v10.398q0 .71.206 1.065.213.349.54.469.334.114.703.114.277 0 .455-.029l.284-.056.341 1.505a3.4 3.4 0 0 1-.476.128 3.5 3.5 0 0 1-.774.071q-.711 0-1.392-.305a2.76 2.76 0 0 1-1.122-.931q-.441-.625-.441-1.576zm7.749 13.637a1.23 1.23 0 0 1-.902-.377 1.23 1.23 0 0 1-.377-.902q0-.525.377-.902.376-.376.902-.376.525 0 .902.376.376.377.376.902 0 .348-.177.639a1.3 1.3 0 0 1-.462.469 1.2 1.2 0 0 1-.639.171m0-8.097q-.526 0-.902-.376a1.23 1.23 0 0 1-.377-.902q0-.526.377-.902a1.23 1.23 0 0 1 .902-.377q.525 0 .902.377.376.376.376.902 0 .348-.177.639-.171.29-.462.469-.283.17-.639.17m141.516 7.983 6.35-12.557v-.106h-7.344v-1.882h9.616v1.946l-6.328 12.599zm11.383-1.989-.106.775q-.107.852-.362 1.775-.249.93-.519 1.726-.262.795-.433 1.264h-1.506q.093-.44.256-1.193.163-.746.32-1.669.156-.924.234-1.882l.071-.796zm7.397 2.188q-1.527 0-2.698-.526-1.165-.525-1.826-1.449a3.5 3.5 0 0 1-.653-2.102 3.71 3.71 0 0 1 1.434-2.997q.669-.525 1.492-.668v-.085a2.93 2.93 0 0 1-1.74-1.165q-.654-.901-.646-2.073-.008-1.116.589-1.989.604-.88 1.655-1.385 1.052-.504 2.393-.504 1.329 0 2.373.511 1.05.504 1.654 1.385a3.44 3.44 0 0 1 .611 1.982q-.007 1.172-.667 2.073a2.96 2.96 0 0 1-1.719 1.165v.085a3.2 3.2 0 0 1 1.47.668q.66.519 1.051 1.3.397.774.405 1.697a3.56 3.56 0 0 1-.668 2.102q-.66.924-1.832 1.449-1.165.526-2.678.526m0-1.797q.903 0 1.563-.298.66-.306 1.023-.845.361-.547.369-1.279a2.4 2.4 0 0 0-.398-1.342 2.64 2.64 0 0 0-1.044-.916q-.66-.334-1.513-.334-.86 0-1.527.334a2.65 2.65 0 0 0-1.051.916 2.34 2.34 0 0 0-.376 1.342q-.007.732.348 1.279.362.539 1.03.845.667.298 1.576.298m0-6.768q.725 0 1.286-.292.561-.291.881-.809.326-.519.333-1.215a2.24 2.24 0 0 0-.326-1.193 2.1 2.1 0 0 0-.874-.788q-.56-.284-1.3-.284-.753 0-1.321.284a2.07 2.07 0 0 0-.873.788q-.313.512-.306 1.193-.006.696.313 1.215.32.518.881.809.567.291 1.306.292m12.559-6.378a5.6 5.6 0 0 1 1.918.355 4.5 4.5 0 0 1 1.704 1.136q.768.789 1.222 2.131.461 1.335.468 3.324 0 1.91-.383 3.402-.384 1.484-1.101 2.507-.71 1.023-1.726 1.555-1.015.533-2.287.533-1.3 0-2.308-.511a4.4 4.4 0 0 1-1.641-1.414 4.7 4.7 0 0 1-.788-2.088h2.166q.213.938.867 1.52.66.575 1.704.575 1.599 0 2.493-1.392.895-1.4.902-3.906h-.113a3.9 3.9 0 0 1-.924 1.051 4.1 4.1 0 0 1-1.228.682q-.682.241-1.456.241a4.36 4.36 0 0 1-2.287-.618 4.54 4.54 0 0 1-1.641-1.697q-.61-1.08-.611-2.464 0-1.378.625-2.5a4.67 4.67 0 0 1 1.762-1.776q1.136-.66 2.663-.646m.007 1.846a2.8 2.8 0 0 0-1.498.412q-.661.405-1.045 1.101a3.1 3.1 0 0 0-.383 1.534q0 .846.369 1.534.376.682 1.023 1.087.654.398 1.491.398a2.8 2.8 0 0 0 1.165-.242q.54-.241.945-.667.404-.434.632-.981t.227-1.15q0-.802-.383-1.492a3 3 0 0 0-1.037-1.108 2.7 2.7 0 0 0-1.506-.426m12.935 13.139q-1.683-.006-2.876-.887-1.193-.88-1.826-2.564-.632-1.683-.632-4.056 0-2.364.632-4.041.64-1.676 1.833-2.557 1.2-.88 2.869-.88t2.862.887q1.194.882 1.826 2.557.639 1.67.639 4.034 0 2.38-.632 4.063-.632 1.676-1.826 2.564-1.192.88-2.869.88m0-1.896q1.477 0 2.308-1.442.838-1.441.838-4.169 0-1.81-.383-3.061-.376-1.257-1.087-1.903a2.38 2.38 0 0 0-1.676-.654q-1.47 0-2.308 1.449-.839 1.45-.845 4.169 0 1.819.376 3.076.384 1.25 1.087 1.896.703.639 1.69.639"/><rect width="58" height="25" x="410" y="145" fill="#e5dcf9" rx="12.5"/><path fill="#8759f2" d="M429.315 160.912v-1.014l4.475-7.08h.736v1.571h-.498l-3.38 5.35v.079h6.025v1.094zm4.793 2.088v-10.182h1.173V163zm9.619-1.909v-.537q0-.557.228-1.019.234-.468.677-.746.447-.283 1.083-.283.647 0 1.084.283.438.279.661.746.224.462.224 1.019v.537q0 .557-.229 1.024a1.8 1.8 0 0 1-.666.746q-.436.278-1.074.278-.645 0-1.088-.278a1.85 1.85 0 0 1-.672-.746 2.3 2.3 0 0 1-.228-1.024m1.014-.537v.537q0 .462.219.83.219.363.755.363.522 0 .736-.363a1.6 1.6 0 0 0 .219-.83v-.537q0-.462-.209-.825-.209-.368-.746-.368-.522 0-.75.368a1.54 1.54 0 0 0-.224.825m-6.085-5.29v-.537q0-.557.228-1.019.234-.467.677-.746.447-.283 1.083-.283.646 0 1.084.283.438.28.661.746.224.462.224 1.019v.537q0 .557-.229 1.024a1.8 1.8 0 0 1-.666.746q-.437.278-1.074.278-.646 0-1.088-.278a1.84 1.84 0 0 1-.672-.746 2.3 2.3 0 0 1-.228-1.024m1.014-.537v.537q0 .462.219.83.218.363.755.363.523 0 .736-.363a1.6 1.6 0 0 0 .219-.83v-.537q0-.462-.209-.825-.209-.368-.746-.368-.522 0-.75.368-.225.363-.224.825m-.636 8.273 7-10.182h1.133l-7 10.182z"/><circle cx="78" cy="202.5" r="7" fill="#e84e92"/><path fill="#000" d="M106.25 209.5h-4.489v-14.545h4.688q2.116 0 3.622.873 1.506.867 2.308 2.493.803 1.62.803 3.878 0 2.272-.81 3.913a5.77 5.77 0 0 1-2.358 2.514q-1.548.874-3.764.874m-2.727-1.562h2.613q1.805 0 2.99-.697a4.3 4.3 0 0 0 1.769-1.981q.582-1.285.582-3.061 0-1.761-.575-3.033-.575-1.278-1.719-1.96-1.143-.689-2.848-.689h-2.812zm12.386 1.562v-10.909h1.676V209.5zm.852-12.727q-.49 0-.845-.334a1.07 1.07 0 0 1-.348-.803q0-.469.348-.802.356-.334.845-.334.49 0 .838.334.356.334.356.802t-.356.803a1.17 1.17 0 0 1-.838.334m11.621 4.261-1.505.426a2.8 2.8 0 0 0-.419-.731 2 2 0 0 0-.739-.597q-.468-.234-1.2-.234-1.002 0-1.669.461-.661.454-.661 1.158 0 .625.455.987.454.363 1.42.604l1.62.398q1.463.355 2.18 1.086.717.725.717 1.868 0 .938-.539 1.676-.534.74-1.492 1.165-.959.426-2.23.426-1.67 0-2.763-.724-1.094-.725-1.385-2.117l1.591-.397q.227.88.86 1.321.639.44 1.669.44 1.172 0 1.86-.497.696-.504.696-1.208 0-.568-.397-.951-.399-.391-1.222-.583l-1.818-.426q-1.499-.355-2.202-1.101-.696-.753-.696-1.882 0-.923.519-1.633.525-.71 1.427-1.115.91-.405 2.06-.405 1.619 0 2.542.71a3.83 3.83 0 0 1 1.321 1.875m2.722 12.557v-15h1.62v1.733h.199q.184-.285.511-.725.333-.447.952-.795.624-.355 1.69-.355 1.378 0 2.429.689t1.641 1.953.589 2.983q0 1.733-.589 3.004-.59 1.264-1.634 1.96-1.044.69-2.408.689-1.05 0-1.683-.348-.632-.355-.973-.802a11 11 0 0 1-.525-.753h-.142v5.767zm1.648-9.546q0 1.236.362 2.181.363.938 1.059 1.47.696.525 1.704.526 1.052 0 1.754-.554.71-.561 1.066-1.506.362-.952.362-2.117 0-1.15-.355-2.073-.348-.931-1.058-1.471-.704-.546-1.769-.546-1.023 0-1.719.518-.696.511-1.051 1.435-.354.916-.355 2.137m14.972 5.682q-1.477 0-2.593-.703-1.107-.703-1.733-1.967-.617-1.264-.617-2.955 0-1.704.617-2.976.626-1.27 1.733-1.974 1.116-.703 2.593-.703t2.585.703q1.115.704 1.733 1.974.625 1.272.625 2.976 0 1.69-.625 2.955-.618 1.264-1.733 1.967-1.108.703-2.585.703m0-1.505q1.122 0 1.846-.576a3.4 3.4 0 0 0 1.073-1.512 5.8 5.8 0 0 0 .348-2.032 5.9 5.9 0 0 0-.348-2.038 3.43 3.43 0 0 0-1.073-1.527q-.724-.582-1.846-.582t-1.847.582-1.072 1.527a5.9 5.9 0 0 0-.348 2.038q0 1.094.348 2.032t1.072 1.512q.725.576 1.847.576m15.229-7.188-1.506.426a2.8 2.8 0 0 0-.419-.731 2 2 0 0 0-.739-.597q-.468-.234-1.2-.234-1.001 0-1.669.461-.66.454-.66 1.158 0 .625.454.987.455.363 1.421.604l1.619.398q1.463.355 2.18 1.086.718.725.718 1.868 0 .938-.54 1.676-.532.74-1.492 1.165-.958.426-2.23.426-1.668 0-2.763-.724-1.093-.725-1.384-2.117l1.59-.397q.227.88.86 1.321.639.44 1.669.44 1.171 0 1.861-.497.696-.504.696-1.208 0-.568-.398-.951-.397-.391-1.222-.583l-1.818-.426q-1.498-.355-2.202-1.101-.696-.753-.696-1.882 0-.923.519-1.633.525-.71 1.427-1.115.91-.405 2.06-.405 1.62 0 2.543.71a3.84 3.84 0 0 1 1.321 1.875m5.932 8.722a4.4 4.4 0 0 1-1.882-.391 3.2 3.2 0 0 1-1.342-1.143q-.498-.753-.498-1.819 0-.937.37-1.519a2.6 2.6 0 0 1 .987-.924 5.2 5.2 0 0 1 1.364-.497 16 16 0 0 1 1.512-.27 72 72 0 0 1 1.613-.192q.624-.07.909-.234.291-.163.291-.568v-.057q0-1.051-.575-1.633-.569-.583-1.726-.583-1.201 0-1.882.526-.683.525-.959 1.122l-1.591-.568q.426-.994 1.136-1.549a4.3 4.3 0 0 1 1.563-.781 6.5 6.5 0 0 1 1.676-.227q.525 0 1.207.128.69.12 1.328.504.647.384 1.073 1.158t.426 2.073v7.188h-1.676v-1.477h-.085q-.17.354-.569.76-.397.405-1.058.689-.66.284-1.612.284m.256-1.506q.994 0 1.676-.391.689-.39 1.037-1.008.354-.618.355-1.3v-1.534q-.106.127-.469.234a8 8 0 0 1-.824.178q-.462.07-.902.128-.433.05-.703.085a6.4 6.4 0 0 0-1.222.277q-.561.184-.909.561-.34.369-.341 1.009 0 .873.647 1.321.653.44 1.655.44m8.031 1.25v-14.545h1.676v5.369h.142q.184-.285.511-.725.334-.447.952-.795.624-.355 1.69-.355 1.378 0 2.429.689 1.052.689 1.641 1.953.59 1.264.589 2.983 0 1.733-.589 3.004-.59 1.264-1.634 1.96-1.044.69-2.407.689-1.051 0-1.684-.348-.631-.355-.973-.802a11 11 0 0 1-.525-.753h-.199v1.676zm1.647-5.455q0 1.236.362 2.181.363.938 1.059 1.47.696.525 1.704.526 1.052 0 1.755-.554.71-.561 1.065-1.506.362-.952.362-2.117 0-1.15-.355-2.073-.348-.931-1.058-1.471-.704-.546-1.769-.546-1.022 0-1.719.518-.696.511-1.051 1.435-.354.916-.355 2.137m12.223-9.09V209.5h-1.676v-14.545zm7.644 14.772q-1.577 0-2.72-.696-1.137-.703-1.754-1.96-.611-1.265-.611-2.94 0-1.677.611-2.955.618-1.285 1.718-2.003 1.109-.724 2.586-.724.852 0 1.683.284a4.2 4.2 0 0 1 1.513.923q.681.632 1.086 1.676t.405 2.571v.711h-8.409v-1.449h6.705q0-.924-.37-1.648a2.8 2.8 0 0 0-1.037-1.143q-.667-.42-1.576-.419-1.002 0-1.733.497a3.26 3.26 0 0 0-1.115 1.278 3.75 3.75 0 0 0-.391 1.69v.966q0 1.236.426 2.096a3.07 3.07 0 0 0 1.2 1.299q.768.441 1.783.441.66 0 1.193-.185.54-.192.931-.568.39-.384.603-.952l1.62.455a3.6 3.6 0 0 1-.86 1.448 4.2 4.2 0 0 1-1.491.966q-.888.342-1.996.341m8.288-.113q-.525 0-.902-.377a1.23 1.23 0 0 1-.376-.902q0-.525.376-.902a1.23 1.23 0 0 1 .902-.376q.526 0 .902.376.377.377.377.902 0 .348-.178.639a1.3 1.3 0 0 1-.461.469q-.285.171-.64.171m0-8.097a1.23 1.23 0 0 1-.902-.376 1.23 1.23 0 0 1-.376-.902q0-.526.376-.902.377-.377.902-.377.526 0 .902.377.377.376.377.902 0 .348-.178.639-.17.29-.461.469-.285.17-.64.17m145.944-6.562V209.5h-2.202v-12.344h-.085l-3.48 2.273v-2.102l3.629-2.372zm5.886 12.556-.107.775q-.107.852-.362 1.775-.249.93-.519 1.726-.262.795-.433 1.264h-1.506q.093-.44.256-1.193.164-.746.32-1.669.156-.924.234-1.882l.071-.796zm7.507 2.23q-1.683-.006-2.877-.887-1.193-.88-1.825-2.564-.632-1.683-.632-4.056 0-2.364.632-4.041.64-1.676 1.832-2.557 1.201-.88 2.87-.88 1.668 0 2.862.887 1.193.882 1.825 2.557.639 1.67.639 4.034 0 2.38-.632 4.063-.632 1.676-1.825 2.564-1.193.88-2.869.88m0-1.896q1.477 0 2.308-1.442.838-1.441.838-4.169 0-1.81-.383-3.061-.377-1.257-1.087-1.903a2.38 2.38 0 0 0-1.676-.654q-1.47 0-2.309 1.449-.837 1.45-.845 4.169 0 1.819.377 3.076.383 1.25 1.086 1.896.704.639 1.691.639m12.647 1.854q-1.335 0-2.4-.511a4.4 4.4 0 0 1-1.691-1.421 3.76 3.76 0 0 1-.675-2.06h2.131q.078.938.831 1.542.753.603 1.804.603.839 0 1.484-.383a2.75 2.75 0 0 0 1.023-1.073q.377-.682.377-1.555 0-.888-.384-1.584a2.84 2.84 0 0 0-1.058-1.094q-.668-.398-1.534-.404-.661 0-1.328.227-.668.227-1.08.596l-2.01-.298.817-7.329h7.997v1.882h-6.172l-.461 4.069h.085q.426-.411 1.129-.689.71-.276 1.52-.277 1.328 0 2.365.632a4.5 4.5 0 0 1 1.641 1.726q.603 1.087.596 2.5.007 1.414-.639 2.522a4.63 4.63 0 0 1-1.776 1.747q-1.129.632-2.592.632m12.402 0q-1.335 0-2.4-.511a4.36 4.36 0 0 1-1.69-1.421 3.74 3.74 0 0 1-.675-2.06h2.13q.08.938.831 1.542.754.603 1.804.603.838 0 1.485-.383a2.77 2.77 0 0 0 1.023-1.073q.376-.682.376-1.555 0-.888-.384-1.584a2.83 2.83 0 0 0-1.058-1.094q-.667-.398-1.534-.404-.66 0-1.328.227-.667.227-1.08.596l-2.01-.298.817-7.329h7.997v1.882h-6.171l-.462 4.069h.085q.426-.411 1.129-.689.71-.276 1.52-.277 1.329 0 2.365.632a4.5 4.5 0 0 1 1.641 1.726q.603 1.087.597 2.5.006 1.414-.64 2.522a4.63 4.63 0 0 1-1.775 1.747q-1.13.632-2.593.632"/><rect width="58" height="25" x="410" y="190" fill="#fddceb" rx="12.5"/><path fill="#e84e92" d="M429.315 205.912v-1.014l4.475-7.08h.736v1.571h-.498l-3.38 5.35v.079h6.025v1.094zm4.793 2.088v-10.182h1.173V208zm9.619-1.909v-.537q0-.557.228-1.019.234-.468.677-.746.447-.283 1.083-.283.647 0 1.084.283.438.279.661.746.224.462.224 1.019v.537q0 .557-.229 1.024a1.8 1.8 0 0 1-.666.746q-.436.278-1.074.278-.645 0-1.088-.278a1.85 1.85 0 0 1-.672-.746 2.3 2.3 0 0 1-.228-1.024m1.014-.537v.537q0 .462.219.83.219.363.755.363.522 0 .736-.363a1.6 1.6 0 0 0 .219-.83v-.537q0-.462-.209-.825-.209-.368-.746-.368-.522 0-.75.368a1.54 1.54 0 0 0-.224.825m-6.085-5.29v-.537q0-.557.228-1.019.234-.467.677-.746.447-.283 1.083-.283.646 0 1.084.283.438.28.661.746.224.462.224 1.019v.537q0 .557-.229 1.024a1.8 1.8 0 0 1-.666.746q-.437.278-1.074.278-.646 0-1.088-.278a1.84 1.84 0 0 1-.672-.746 2.3 2.3 0 0 1-.228-1.024m1.014-.537v.537q0 .462.219.83.218.363.755.363.523 0 .736-.363a1.6 1.6 0 0 0 .219-.83v-.537q0-.462-.209-.825-.209-.368-.746-.368-.522 0-.75.368-.225.363-.224.825m-.636 8.273 7-10.182h1.133l-7 10.182z"/><rect width="179" height="33" x="71" y="235" fill="#8759f2" rx="5"/><path fill="#fff" d="M124.119 257v-10.182h3.629q1.183 0 1.964.408.784.408 1.173 1.128.387.717.388 1.656 0 .935-.393 1.646-.388.705-1.173 1.098-.781.393-1.964.393h-2.749v-1.322h2.61q.745 0 1.213-.214.472-.214.691-.622.219-.407.219-.979 0-.577-.224-.999a1.44 1.44 0 0 0-.691-.647q-.468-.228-1.228-.228h-1.929V257zm5.026-4.594 2.516 4.594h-1.75l-2.466-4.594zm7.073 4.748q-1.128 0-1.944-.482a3.3 3.3 0 0 1-1.253-1.367q-.437-.885-.437-2.073 0-1.174.437-2.069a3.4 3.4 0 0 1 1.233-1.397q.797-.502 1.86-.502.646 0 1.253.214t1.088.671q.482.458.761 1.188.278.727.278 1.765v.527h-6.07v-1.113h4.614q0-.587-.239-1.039a1.8 1.8 0 0 0-.671-.721 1.87 1.87 0 0 0-1.004-.264q-.627 0-1.094.308a2.1 2.1 0 0 0-.716.796 2.3 2.3 0 0 0-.248 1.059v.87q0 .765.268 1.302.273.537.761.821.487.278 1.138.278.423 0 .771-.119a1.59 1.59 0 0 0 .989-.97l1.407.254a2.56 2.56 0 0 1-.606 1.089 3 3 0 0 1-1.089.721q-.651.253-1.487.253m4.926-.154v-7.636h1.427v1.243h.094a1.97 1.97 0 0 1 .781-.985q.541-.358 1.297-.358.766 0 1.283.358.522.358.771.985h.079q.273-.612.87-.975.597-.368 1.422-.368 1.04 0 1.695.651.662.652.662 1.964V257h-1.487v-4.982q0-.775-.423-1.123a1.54 1.54 0 0 0-1.009-.348q-.726 0-1.128.447-.403.443-.403 1.139V257h-1.482v-5.076q0-.621-.387-.999-.388-.378-1.01-.378-.422 0-.78.224a1.64 1.64 0 0 0-.572.611 1.9 1.9 0 0 0-.214.91V257zm15.589.154q-1.073 0-1.874-.492a3.3 3.3 0 0 1-1.243-1.377q-.442-.885-.442-2.068 0-1.189.442-2.079a3.3 3.3 0 0 1 1.243-1.382q.801-.492 1.874-.492 1.074 0 1.875.492.8.493 1.243 1.382.442.89.442 2.079 0 1.183-.442 2.068a3.3 3.3 0 0 1-1.243 1.377q-.801.492-1.875.492m.005-1.248q.696 0 1.154-.368.457-.367.676-.979a3.9 3.9 0 0 0 .224-1.347q0-.732-.224-1.343a2.2 2.2 0 0 0-.676-.989q-.458-.373-1.154-.373-.7 0-1.163.373a2.2 2.2 0 0 0-.681.989 4 4 0 0 0-.219 1.343q0 .735.219 1.347.224.612.681.979.462.369 1.163.368m11.487-6.542L165.456 257h-1.591l-2.774-7.636h1.596l1.934 5.876h.079l1.929-5.876zm4.429 7.79q-1.13 0-1.944-.482a3.3 3.3 0 0 1-1.253-1.367q-.437-.885-.437-2.073 0-1.174.437-2.069a3.4 3.4 0 0 1 1.233-1.397q.795-.502 1.859-.502.647 0 1.253.214a3 3 0 0 1 1.089.671q.482.458.761 1.188.278.727.278 1.765v.527h-6.07v-1.113h4.613q0-.587-.238-1.039a1.8 1.8 0 0 0-.671-.721 1.87 1.87 0 0 0-1.005-.264q-.626 0-1.093.308a2.07 2.07 0 0 0-.716.796 2.3 2.3 0 0 0-.249 1.059v.87q0 .765.269 1.302.273.537.76.821.487.278 1.139.278.422 0 .77-.119.348-.125.602-.368a1.6 1.6 0 0 0 .388-.602l1.407.254a2.55 2.55 0 0 1-.607 1.089 2.95 2.95 0 0 1-1.089.721q-.65.253-1.486.253m9.61-.154h-1.631l3.664-10.182h1.775L189.736 257h-1.631l-2.878-8.332h-.08zm.273-3.987h5.29v1.292h-5.29zm10.037-6.195V257h-1.487v-10.182zm3.486 0V257h-1.486v-10.182z"/></g><defs><filter id="a" width="533" height="323" x="0" y="0" color-interpolation-filters="sRGB" filterUnits="userSpaceOnUse"><feFlood flood-opacity="0" result="BackgroundImageFix"/><feColorMatrix in="SourceAlpha" result="hardAlpha" values="0 0 0 0 0 0 0 0 0 0 0 0 0 0 0 0 0 0 127 0"/><feOffset dx="-4" dy="4"/><feGaussianBlur stdDeviation="7.5"/><feComposite in2="hardAlpha" operator="out"/><feColorMatrix values="0 0 0 0 0 0 0 0 0 0 0 0 0 0 0 0 0 0 0.15 0"/><feBlend in2="BackgroundImageFix" result="effect1_dropShadow_303_1820"/><feBlend in="SourceGraphic" in2="effect1_dropShadow_303_1820" result="shape"/></filter></defs></svg>